<?xml version="1.0" encoding="UTF-8" standalone="no"?>
<!DOCTYPE svg PUBLIC "-//W3C//DTD SVG 1.1//EN"
 "http://www.w3.org/Graphics/SVG/1.1/DTD/svg11.dtd">
<!-- Generated by graphviz version 2.47.0 (20210316.0004)
 -->
<!-- Title: dependencies Pages: 1 -->
<svg width="616pt" height="284pt"
 viewBox="0.00 0.00 616.00 284.00" xmlns="http://www.w3.org/2000/svg" xmlns:xlink="http://www.w3.org/1999/xlink">
<g id="graph0" class="graph" transform="scale(1 1) rotate(0) translate(4 280)">
<title>dependencies</title>
<polygon fill="white" stroke="transparent" points="-4,4 -4,-280 612,-280 612,4 -4,4"/>
<text text-anchor="start" x="283.01" y="-42.4" font-family="Times-12" font-weight="bold" font-size="14.00">Legend</text>
<polygon fill="#ffffb3" stroke="transparent" points="70,-10 70,-30 90,-30 90,-10 70,-10"/>
<text text-anchor="start" x="93.63" y="-15.4" font-family="Times-12" font-size="14.00"> &#160;Declarations</text>
<polygon fill="#8dd3c7" stroke="transparent" points="183,-10 183,-30 203,-30 203,-10 183,-10"/>
<text text-anchor="start" x="206.73" y="-15.4" font-family="Times-12" font-size="14.00"> &#160;Module</text>
<polygon fill="#80b1d3" stroke="transparent" points="269,-10 269,-30 289,-30 289,-10 269,-10"/>
<text text-anchor="start" x="292.78" y="-15.4" font-family="Times-12" font-size="14.00"> &#160;Bootstrap</text>
<polygon fill="#fdb462" stroke="transparent" points="366,-10 366,-30 386,-30 386,-10 366,-10"/>
<text text-anchor="start" x="389.67" y="-15.4" font-family="Times-12" font-size="14.00"> &#160;Providers</text>
<polygon fill="#fb8072" stroke="transparent" points="462,-10 462,-30 482,-30 482,-10 462,-10"/>
<text text-anchor="start" x="485.73" y="-15.4" font-family="Times-12" font-size="14.00"> &#160;Exports</text>
<g id="clust1" class="cluster">
<title>cluster_AuthModule</title>
<polygon fill="none" stroke="black" stroke-dasharray="1,5" points="8,-70 8,-268 600,-268 600,-70 8,-70"/>
</g>
<g id="clust4" class="cluster">
<title>cluster_AuthModule_exports</title>
<polygon fill="none" stroke="black" points="219,-208 219,-260 457,-260 457,-208 219,-208"/>
</g>
<g id="clust6" class="cluster">
<title>cluster_AuthModule_providers</title>
<polygon fill="none" stroke="black" points="16,-78 16,-130 592,-130 592,-78 16,-78"/>
</g>
<!-- AuthService  -->
<g id="node1" class="node">
<title>AuthService </title>
<polygon fill="#fb8072" stroke="black" points="448.98,-252 359.02,-252 359.02,-216 448.98,-216 448.98,-252"/>
<text text-anchor="middle" x="404" y="-229.8" font-family="Times,serif" font-size="14.00">AuthService </text>
</g>
<!-- HashingProvider  -->
<g id="node2" class="node">
<title>HashingProvider </title>
<polygon fill="#fb8072" stroke="black" points="341.37,-252 226.63,-252 226.63,-216 341.37,-216 341.37,-252"/>
<text text-anchor="middle" x="284" y="-229.8" font-family="Times,serif" font-size="14.00">HashingProvider </text>
</g>
<!-- AuthModule -->
<g id="node3" class="node">
<title>AuthModule</title>
<polygon fill="#8dd3c7" stroke="black" points="387.55,-187 384.55,-191 363.55,-191 360.55,-187 300.45,-187 300.45,-151 387.55,-151 387.55,-187"/>
<text text-anchor="middle" x="344" y="-164.8" font-family="Times,serif" font-size="14.00">AuthModule</text>
</g>
<!-- AuthModule&#45;&gt;AuthService  -->
<g id="edge1" class="edge">
<title>AuthModule&#45;&gt;AuthService </title>
<path fill="none" stroke="black" stroke-dasharray="5,2" d="M373.52,-187.11C373.52,-187.11 373.52,-205.99 373.52,-205.99"/>
<polygon fill="black" stroke="black" points="370.02,-205.99 373.52,-215.99 377.02,-205.99 370.02,-205.99"/>
</g>
<!-- AuthModule&#45;&gt;HashingProvider  -->
<g id="edge2" class="edge">
<title>AuthModule&#45;&gt;HashingProvider </title>
<path fill="none" stroke="black" stroke-dasharray="5,2" d="M320.7,-187.11C320.7,-187.11 320.7,-205.99 320.7,-205.99"/>
<polygon fill="black" stroke="black" points="317.2,-205.99 320.7,-215.99 324.2,-205.99 317.2,-205.99"/>
</g>
<!-- AuthService -->
<g id="node4" class="node">
<title>AuthService</title>
<ellipse fill="#fdb462" stroke="black" cx="525" cy="-104" rx="59.11" ry="18"/>
<text text-anchor="middle" x="525" y="-99.8" font-family="Times,serif" font-size="14.00">AuthService</text>
</g>
<!-- AuthService&#45;&gt;AuthModule -->
<g id="edge3" class="edge">
<title>AuthService&#45;&gt;AuthModule</title>
<path fill="none" stroke="black" d="M525,-122.11C525,-141.34 525,-169 525,-169 525,-169 397.82,-169 397.82,-169"/>
<polygon fill="black" stroke="black" points="397.82,-165.5 387.82,-169 397.82,-172.5 397.82,-165.5"/>
</g>
<!-- GenerateTokenProvider -->
<g id="node5" class="node">
<title>GenerateTokenProvider</title>
<ellipse fill="#fdb462" stroke="black" cx="344" cy="-104" rx="103.61" ry="18"/>
<text text-anchor="middle" x="344" y="-99.8" font-family="Times,serif" font-size="14.00">GenerateTokenProvider</text>
</g>
<!-- GenerateTokenProvider&#45;&gt;AuthModule -->
<g id="edge4" class="edge">
<title>GenerateTokenProvider&#45;&gt;AuthModule</title>
<path fill="none" stroke="black" d="M344,-122.11C344,-122.11 344,-140.99 344,-140.99"/>
<polygon fill="black" stroke="black" points="340.5,-140.99 344,-150.99 347.5,-140.99 340.5,-140.99"/>
</g>
<!-- RefreshTokenProvider -->
<g id="node6" class="node">
<title>RefreshTokenProvider</title>
<ellipse fill="#fdb462" stroke="black" cx="123" cy="-104" rx="98.98" ry="18"/>
<text text-anchor="middle" x="123" y="-99.8" font-family="Times,serif" font-size="14.00">RefreshTokenProvider</text>
</g>
<!-- RefreshTokenProvider&#45;&gt;AuthModule -->
<g id="edge5" class="edge">
<title>RefreshTokenProvider&#45;&gt;AuthModule</title>
<path fill="none" stroke="black" d="M123,-122.11C123,-141.34 123,-169 123,-169 123,-169 290.34,-169 290.34,-169"/>
<polygon fill="black" stroke="black" points="290.34,-172.5 300.34,-169 290.34,-165.5 290.34,-172.5"/>
</g>
</g>
</svg>
