<?xml version="1.0" encoding="UTF-8" standalone="no"?>
<!DOCTYPE svg PUBLIC "-//W3C//DTD SVG 1.1//EN"
 "http://www.w3.org/Graphics/SVG/1.1/DTD/svg11.dtd">
<!-- Generated by graphviz version 2.47.0 (20210316.0004)
 -->
<!-- Title: dependencies Pages: 1 -->
<svg width="504pt" height="284pt"
 viewBox="0.00 0.00 504.00 284.00" xmlns="http://www.w3.org/2000/svg" xmlns:xlink="http://www.w3.org/1999/xlink">
<g id="graph0" class="graph" transform="scale(1 1) rotate(0) translate(4 280)">
<title>dependencies</title>
<polygon fill="white" stroke="transparent" points="-4,4 -4,-280 500,-280 500,4 -4,4"/>
<text text-anchor="start" x="227.01" y="-42.4" font-family="Times-12" font-weight="bold" font-size="14.00">Legend</text>
<polygon fill="#ffffb3" stroke="transparent" points="14,-10 14,-30 34,-30 34,-10 14,-10"/>
<text text-anchor="start" x="37.63" y="-15.4" font-family="Times-12" font-size="14.00"> &#160;Declarations</text>
<polygon fill="#8dd3c7" stroke="transparent" points="127,-10 127,-30 147,-30 147,-10 127,-10"/>
<text text-anchor="start" x="150.73" y="-15.4" font-family="Times-12" font-size="14.00"> &#160;Module</text>
<polygon fill="#80b1d3" stroke="transparent" points="213,-10 213,-30 233,-30 233,-10 213,-10"/>
<text text-anchor="start" x="236.78" y="-15.4" font-family="Times-12" font-size="14.00"> &#160;Bootstrap</text>
<polygon fill="#fdb462" stroke="transparent" points="310,-10 310,-30 330,-30 330,-10 310,-10"/>
<text text-anchor="start" x="333.67" y="-15.4" font-family="Times-12" font-size="14.00"> &#160;Providers</text>
<polygon fill="#fb8072" stroke="transparent" points="406,-10 406,-30 426,-30 426,-10 406,-10"/>
<text text-anchor="start" x="429.73" y="-15.4" font-family="Times-12" font-size="14.00"> &#160;Exports</text>
<g id="clust1" class="cluster">
<title>cluster_PostsModule</title>
<polygon fill="none" stroke="black" stroke-dasharray="1,5" points="65,-70 65,-268 431,-268 431,-70 65,-70"/>
</g>
<g id="clust6" class="cluster">
<title>cluster_PostsModule_providers</title>
<polygon fill="none" stroke="black" points="287,-78 287,-130 423,-130 423,-78 287,-78"/>
</g>
<g id="clust4" class="cluster">
<title>cluster_PostsModule_exports</title>
<polygon fill="none" stroke="black" points="174,-208 174,-260 282,-260 282,-208 174,-208"/>
</g>
<g id="clust3" class="cluster">
<title>cluster_PostsModule_imports</title>
<polygon fill="none" stroke="black" points="73,-78 73,-130 279,-130 279,-78 73,-78"/>
</g>
<!-- TagsModule -->
<g id="node1" class="node">
<title>TagsModule</title>
<polygon fill="#8dd3c7" stroke="black" points="271.26,-122 268.26,-126 247.26,-126 244.26,-122 184.74,-122 184.74,-86 271.26,-86 271.26,-122"/>
<text text-anchor="middle" x="228" y="-99.8" font-family="Times,serif" font-size="14.00">TagsModule</text>
</g>
<!-- PostsModule -->
<g id="node3" class="node">
<title>PostsModule</title>
<polygon fill="#8dd3c7" stroke="black" points="272.61,-187 269.61,-191 248.61,-191 245.61,-187 183.39,-187 183.39,-151 272.61,-151 272.61,-187"/>
<text text-anchor="middle" x="228" y="-164.8" font-family="Times,serif" font-size="14.00">PostsModule</text>
</g>
<!-- TagsModule&#45;&gt;PostsModule -->
<g id="edge1" class="edge">
<title>TagsModule&#45;&gt;PostsModule</title>
<path fill="none" stroke="black" d="M228,-122.11C228,-122.11 228,-140.99 228,-140.99"/>
<polygon fill="black" stroke="black" points="224.5,-140.99 228,-150.99 231.5,-140.99 224.5,-140.99"/>
</g>
<!-- UserModule -->
<g id="node2" class="node">
<title>UserModule</title>
<polygon fill="#8dd3c7" stroke="black" points="166.98,-122 163.98,-126 142.98,-126 139.98,-122 81.02,-122 81.02,-86 166.98,-86 166.98,-122"/>
<text text-anchor="middle" x="124" y="-99.8" font-family="Times,serif" font-size="14.00">UserModule</text>
</g>
<!-- UserModule&#45;&gt;PostsModule -->
<g id="edge2" class="edge">
<title>UserModule&#45;&gt;PostsModule</title>
<path fill="none" stroke="black" d="M124,-122.11C124,-141.34 124,-169 124,-169 124,-169 173.29,-169 173.29,-169"/>
<polygon fill="black" stroke="black" points="173.29,-172.5 183.29,-169 173.29,-165.5 173.29,-172.5"/>
</g>
<!-- PostsService  -->
<g id="node4" class="node">
<title>PostsService </title>
<polygon fill="#fb8072" stroke="black" points="273.54,-252 182.46,-252 182.46,-216 273.54,-216 273.54,-252"/>
<text text-anchor="middle" x="228" y="-229.8" font-family="Times,serif" font-size="14.00">PostsService </text>
</g>
<!-- PostsModule&#45;&gt;PostsService  -->
<g id="edge3" class="edge">
<title>PostsModule&#45;&gt;PostsService </title>
<path fill="none" stroke="black" stroke-dasharray="5,2" d="M228,-187.11C228,-187.11 228,-205.99 228,-205.99"/>
<polygon fill="black" stroke="black" points="224.5,-205.99 228,-215.99 231.5,-205.99 224.5,-205.99"/>
</g>
<!-- PostsService -->
<g id="node5" class="node">
<title>PostsService</title>
<ellipse fill="#fdb462" stroke="black" cx="355" cy="-104" rx="60.27" ry="18"/>
<text text-anchor="middle" x="355" y="-99.8" font-family="Times,serif" font-size="14.00">PostsService</text>
</g>
<!-- PostsService&#45;&gt;PostsModule -->
<g id="edge4" class="edge">
<title>PostsService&#45;&gt;PostsModule</title>
<path fill="none" stroke="black" d="M355,-122.11C355,-141.34 355,-169 355,-169 355,-169 282.78,-169 282.78,-169"/>
<polygon fill="black" stroke="black" points="282.78,-165.5 272.78,-169 282.78,-172.5 282.78,-165.5"/>
</g>
</g>
</svg>
