<?xml version="1.0" encoding="UTF-8" standalone="no"?>
<!DOCTYPE svg PUBLIC "-//W3C//DTD SVG 1.1//EN"
 "http://www.w3.org/Graphics/SVG/1.1/DTD/svg11.dtd">
<!-- Generated by graphviz version 2.47.0 (20210316.0004)
 -->
<!-- Title: dependencies Pages: 1 -->
<svg width="528pt" height="284pt"
 viewBox="0.00 0.00 528.00 284.00" xmlns="http://www.w3.org/2000/svg" xmlns:xlink="http://www.w3.org/1999/xlink">
<g id="graph0" class="graph" transform="scale(1 1) rotate(0) translate(4 280)">
<title>dependencies</title>
<polygon fill="white" stroke="transparent" points="-4,4 -4,-280 524,-280 524,4 -4,4"/>
<text text-anchor="start" x="239.01" y="-42.4" font-family="Times-12" font-weight="bold" font-size="14.00">Legend</text>
<polygon fill="#ffffb3" stroke="transparent" points="26,-10 26,-30 46,-30 46,-10 26,-10"/>
<text text-anchor="start" x="49.63" y="-15.4" font-family="Times-12" font-size="14.00"> &#160;Declarations</text>
<polygon fill="#8dd3c7" stroke="transparent" points="139,-10 139,-30 159,-30 159,-10 139,-10"/>
<text text-anchor="start" x="162.73" y="-15.4" font-family="Times-12" font-size="14.00"> &#160;Module</text>
<polygon fill="#80b1d3" stroke="transparent" points="225,-10 225,-30 245,-30 245,-10 225,-10"/>
<text text-anchor="start" x="248.78" y="-15.4" font-family="Times-12" font-size="14.00"> &#160;Bootstrap</text>
<polygon fill="#fdb462" stroke="transparent" points="322,-10 322,-30 342,-30 342,-10 322,-10"/>
<text text-anchor="start" x="345.67" y="-15.4" font-family="Times-12" font-size="14.00"> &#160;Providers</text>
<polygon fill="#fb8072" stroke="transparent" points="418,-10 418,-30 438,-30 438,-10 418,-10"/>
<text text-anchor="start" x="441.73" y="-15.4" font-family="Times-12" font-size="14.00"> &#160;Exports</text>
<g id="clust1" class="cluster">
<title>cluster_PostsModule</title>
<polygon fill="none" stroke="black" stroke-dasharray="1,5" points="8,-70 8,-268 512,-268 512,-70 8,-70"/>
</g>
<g id="clust4" class="cluster">
<title>cluster_PostsModule_exports</title>
<polygon fill="none" stroke="black" points="209,-208 209,-260 317,-260 317,-208 209,-208"/>
</g>
<g id="clust3" class="cluster">
<title>cluster_PostsModule_imports</title>
<polygon fill="none" stroke="black" points="160,-78 160,-130 504,-130 504,-78 160,-78"/>
</g>
<g id="clust6" class="cluster">
<title>cluster_PostsModule_providers</title>
<polygon fill="none" stroke="black" points="16,-78 16,-130 152,-130 152,-78 16,-78"/>
</g>
<!-- PaginationModule -->
<g id="node1" class="node">
<title>PaginationModule</title>
<polygon fill="#8dd3c7" stroke="black" points="495.93,-122 492.93,-126 471.93,-126 468.93,-122 376.07,-122 376.07,-86 495.93,-86 495.93,-122"/>
<text text-anchor="middle" x="436" y="-99.8" font-family="Times,serif" font-size="14.00">PaginationModule</text>
</g>
<!-- PostsModule -->
<g id="node4" class="node">
<title>PostsModule</title>
<polygon fill="#8dd3c7" stroke="black" points="307.61,-187 304.61,-191 283.61,-191 280.61,-187 218.39,-187 218.39,-151 307.61,-151 307.61,-187"/>
<text text-anchor="middle" x="263" y="-164.8" font-family="Times,serif" font-size="14.00">PostsModule</text>
</g>
<!-- PaginationModule&#45;&gt;PostsModule -->
<g id="edge1" class="edge">
<title>PaginationModule&#45;&gt;PostsModule</title>
<path fill="none" stroke="black" d="M436,-122.11C436,-141.34 436,-169 436,-169 436,-169 318,-169 318,-169"/>
<polygon fill="black" stroke="black" points="318,-165.5 308,-169 318,-172.5 318,-165.5"/>
</g>
<!-- TagsModule -->
<g id="node2" class="node">
<title>TagsModule</title>
<polygon fill="#8dd3c7" stroke="black" points="358.26,-122 355.26,-126 334.26,-126 331.26,-122 271.74,-122 271.74,-86 358.26,-86 358.26,-122"/>
<text text-anchor="middle" x="315" y="-99.8" font-family="Times,serif" font-size="14.00">TagsModule</text>
</g>
<!-- TagsModule&#45;&gt;PostsModule -->
<g id="edge2" class="edge">
<title>TagsModule&#45;&gt;PostsModule</title>
<path fill="none" stroke="black" d="M289.59,-122.11C289.59,-122.11 289.59,-140.99 289.59,-140.99"/>
<polygon fill="black" stroke="black" points="286.09,-140.99 289.59,-150.99 293.09,-140.99 286.09,-140.99"/>
</g>
<!-- UserModule -->
<g id="node3" class="node">
<title>UserModule</title>
<polygon fill="#8dd3c7" stroke="black" points="253.98,-122 250.98,-126 229.98,-126 226.98,-122 168.02,-122 168.02,-86 253.98,-86 253.98,-122"/>
<text text-anchor="middle" x="211" y="-99.8" font-family="Times,serif" font-size="14.00">UserModule</text>
</g>
<!-- UserModule&#45;&gt;PostsModule -->
<g id="edge3" class="edge">
<title>UserModule&#45;&gt;PostsModule</title>
<path fill="none" stroke="black" d="M236.22,-122.11C236.22,-122.11 236.22,-140.99 236.22,-140.99"/>
<polygon fill="black" stroke="black" points="232.72,-140.99 236.22,-150.99 239.72,-140.99 232.72,-140.99"/>
</g>
<!-- PostsService  -->
<g id="node5" class="node">
<title>PostsService </title>
<polygon fill="#fb8072" stroke="black" points="308.54,-252 217.46,-252 217.46,-216 308.54,-216 308.54,-252"/>
<text text-anchor="middle" x="263" y="-229.8" font-family="Times,serif" font-size="14.00">PostsService </text>
</g>
<!-- PostsModule&#45;&gt;PostsService  -->
<g id="edge4" class="edge">
<title>PostsModule&#45;&gt;PostsService </title>
<path fill="none" stroke="black" stroke-dasharray="5,2" d="M263,-187.11C263,-187.11 263,-205.99 263,-205.99"/>
<polygon fill="black" stroke="black" points="259.5,-205.99 263,-215.99 266.5,-205.99 259.5,-205.99"/>
</g>
<!-- PostsService -->
<g id="node6" class="node">
<title>PostsService</title>
<ellipse fill="#fdb462" stroke="black" cx="84" cy="-104" rx="60.27" ry="18"/>
<text text-anchor="middle" x="84" y="-99.8" font-family="Times,serif" font-size="14.00">PostsService</text>
</g>
<!-- PostsService&#45;&gt;PostsModule -->
<g id="edge5" class="edge">
<title>PostsService&#45;&gt;PostsModule</title>
<path fill="none" stroke="black" d="M84,-122.11C84,-141.34 84,-169 84,-169 84,-169 208.29,-169 208.29,-169"/>
<polygon fill="black" stroke="black" points="208.29,-172.5 218.29,-169 208.29,-165.5 208.29,-172.5"/>
</g>
</g>
</svg>
