<?xml version="1.0" encoding="UTF-8" standalone="no"?>
<!DOCTYPE svg PUBLIC "-//W3C//DTD SVG 1.1//EN"
 "http://www.w3.org/Graphics/SVG/1.1/DTD/svg11.dtd">
<!-- Generated by graphviz version 2.47.0 (20210316.0004)
 -->
<!-- Title: dependencies Pages: 1 -->
<svg width="528pt" height="284pt"
 viewBox="0.00 0.00 528.00 284.00" xmlns="http://www.w3.org/2000/svg" xmlns:xlink="http://www.w3.org/1999/xlink">
<g id="graph0" class="graph" transform="scale(1 1) rotate(0) translate(4 280)">
<title>dependencies</title>
<polygon fill="white" stroke="transparent" points="-4,4 -4,-280 524,-280 524,4 -4,4"/>
<text text-anchor="start" x="239.01" y="-42.4" font-family="Times-12" font-weight="bold" font-size="14.00">Legend</text>
<polygon fill="#ffffb3" stroke="transparent" points="26,-10 26,-30 46,-30 46,-10 26,-10"/>
<text text-anchor="start" x="49.63" y="-15.4" font-family="Times-12" font-size="14.00"> &#160;Declarations</text>
<polygon fill="#8dd3c7" stroke="transparent" points="139,-10 139,-30 159,-30 159,-10 139,-10"/>
<text text-anchor="start" x="162.73" y="-15.4" font-family="Times-12" font-size="14.00"> &#160;Module</text>
<polygon fill="#80b1d3" stroke="transparent" points="225,-10 225,-30 245,-30 245,-10 225,-10"/>
<text text-anchor="start" x="248.78" y="-15.4" font-family="Times-12" font-size="14.00"> &#160;Bootstrap</text>
<polygon fill="#fdb462" stroke="transparent" points="322,-10 322,-30 342,-30 342,-10 322,-10"/>
<text text-anchor="start" x="345.67" y="-15.4" font-family="Times-12" font-size="14.00"> &#160;Providers</text>
<polygon fill="#fb8072" stroke="transparent" points="418,-10 418,-30 438,-30 438,-10 418,-10"/>
<text text-anchor="start" x="441.73" y="-15.4" font-family="Times-12" font-size="14.00"> &#160;Exports</text>
<g id="clust1" class="cluster">
<title>cluster_PostsModule</title>
<polygon fill="none" stroke="black" stroke-dasharray="1,5" points="8,-70 8,-268 512,-268 512,-70 8,-70"/>
</g>
<g id="clust6" class="cluster">
<title>cluster_PostsModule_providers</title>
<polygon fill="none" stroke="black" points="368,-78 368,-130 504,-130 504,-78 368,-78"/>
</g>
<g id="clust4" class="cluster">
<title>cluster_PostsModule_exports</title>
<polygon fill="none" stroke="black" points="177,-208 177,-260 285,-260 285,-208 177,-208"/>
</g>
<g id="clust3" class="cluster">
<title>cluster_PostsModule_imports</title>
<polygon fill="none" stroke="black" points="16,-78 16,-130 360,-130 360,-78 16,-78"/>
</g>
<!-- PaginationModule -->
<g id="node1" class="node">
<title>PaginationModule</title>
<polygon fill="#8dd3c7" stroke="black" points="351.93,-122 348.93,-126 327.93,-126 324.93,-122 232.07,-122 232.07,-86 351.93,-86 351.93,-122"/>
<text text-anchor="middle" x="292" y="-99.8" font-family="Times,serif" font-size="14.00">PaginationModule</text>
</g>
<!-- PostsModule -->
<g id="node4" class="node">
<title>PostsModule</title>
<polygon fill="#8dd3c7" stroke="black" points="275.61,-187 272.61,-191 251.61,-191 248.61,-187 186.39,-187 186.39,-151 275.61,-151 275.61,-187"/>
<text text-anchor="middle" x="231" y="-164.8" font-family="Times,serif" font-size="14.00">PostsModule</text>
</g>
<!-- PaginationModule&#45;&gt;PostsModule -->
<g id="edge1" class="edge">
<title>PaginationModule&#45;&gt;PostsModule</title>
<path fill="none" stroke="black" d="M253.92,-122.11C253.92,-122.11 253.92,-140.99 253.92,-140.99"/>
<polygon fill="black" stroke="black" points="250.42,-140.99 253.92,-150.99 257.42,-140.99 250.42,-140.99"/>
</g>
<!-- TagsModule -->
<g id="node2" class="node">
<title>TagsModule</title>
<polygon fill="#8dd3c7" stroke="black" points="214.26,-122 211.26,-126 190.26,-126 187.26,-122 127.74,-122 127.74,-86 214.26,-86 214.26,-122"/>
<text text-anchor="middle" x="171" y="-99.8" font-family="Times,serif" font-size="14.00">TagsModule</text>
</g>
<!-- TagsModule&#45;&gt;PostsModule -->
<g id="edge2" class="edge">
<title>TagsModule&#45;&gt;PostsModule</title>
<path fill="none" stroke="black" d="M200.41,-122.11C200.41,-122.11 200.41,-140.99 200.41,-140.99"/>
<polygon fill="black" stroke="black" points="196.91,-140.99 200.41,-150.99 203.91,-140.99 196.91,-140.99"/>
</g>
<!-- UserModule -->
<g id="node3" class="node">
<title>UserModule</title>
<polygon fill="#8dd3c7" stroke="black" points="109.98,-122 106.98,-126 85.98,-126 82.98,-122 24.02,-122 24.02,-86 109.98,-86 109.98,-122"/>
<text text-anchor="middle" x="67" y="-99.8" font-family="Times,serif" font-size="14.00">UserModule</text>
</g>
<!-- UserModule&#45;&gt;PostsModule -->
<g id="edge3" class="edge">
<title>UserModule&#45;&gt;PostsModule</title>
<path fill="none" stroke="black" d="M67,-122.11C67,-141.34 67,-169 67,-169 67,-169 176.19,-169 176.19,-169"/>
<polygon fill="black" stroke="black" points="176.19,-172.5 186.19,-169 176.19,-165.5 176.19,-172.5"/>
</g>
<!-- PostsService  -->
<g id="node5" class="node">
<title>PostsService </title>
<polygon fill="#fb8072" stroke="black" points="276.54,-252 185.46,-252 185.46,-216 276.54,-216 276.54,-252"/>
<text text-anchor="middle" x="231" y="-229.8" font-family="Times,serif" font-size="14.00">PostsService </text>
</g>
<!-- PostsModule&#45;&gt;PostsService  -->
<g id="edge4" class="edge">
<title>PostsModule&#45;&gt;PostsService </title>
<path fill="none" stroke="black" stroke-dasharray="5,2" d="M231,-187.11C231,-187.11 231,-205.99 231,-205.99"/>
<polygon fill="black" stroke="black" points="227.5,-205.99 231,-215.99 234.5,-205.99 227.5,-205.99"/>
</g>
<!-- PostsService -->
<g id="node6" class="node">
<title>PostsService</title>
<ellipse fill="#fdb462" stroke="black" cx="436" cy="-104" rx="60.27" ry="18"/>
<text text-anchor="middle" x="436" y="-99.8" font-family="Times,serif" font-size="14.00">PostsService</text>
</g>
<!-- PostsService&#45;&gt;PostsModule -->
<g id="edge5" class="edge">
<title>PostsService&#45;&gt;PostsModule</title>
<path fill="none" stroke="black" d="M436,-122.11C436,-141.34 436,-169 436,-169 436,-169 285.73,-169 285.73,-169"/>
<polygon fill="black" stroke="black" points="285.73,-165.5 275.73,-169 285.73,-172.5 285.73,-165.5"/>
</g>
</g>
</svg>
