<?xml version="1.0" encoding="UTF-8" standalone="no"?>
<!DOCTYPE svg PUBLIC "-//W3C//DTD SVG 1.1//EN"
 "http://www.w3.org/Graphics/SVG/1.1/DTD/svg11.dtd">
<!-- Generated by graphviz version 2.47.0 (20210316.0004)
 -->
<!-- Title: dependencies Pages: 1 -->
<svg width="1309pt" height="211pt"
 viewBox="0.00 0.00 1309.00 211.00" xmlns="http://www.w3.org/2000/svg" xmlns:xlink="http://www.w3.org/1999/xlink">
<g id="graph0" class="graph" transform="scale(1 1) rotate(0) translate(4 207)">
<title>dependencies</title>
<polygon fill="white" stroke="transparent" points="-4,4 -4,-207 1305,-207 1305,4 -4,4"/>
<text text-anchor="start" x="629.51" y="-42.4" font-family="Times-12" font-weight="bold" font-size="14.00">Legend</text>
<polygon fill="#ffffb3" stroke="transparent" points="416.5,-10 416.5,-30 436.5,-30 436.5,-10 416.5,-10"/>
<text text-anchor="start" x="440.13" y="-15.4" font-family="Times-12" font-size="14.00"> &#160;Declarations</text>
<polygon fill="#8dd3c7" stroke="transparent" points="529.5,-10 529.5,-30 549.5,-30 549.5,-10 529.5,-10"/>
<text text-anchor="start" x="553.23" y="-15.4" font-family="Times-12" font-size="14.00"> &#160;Module</text>
<polygon fill="#80b1d3" stroke="transparent" points="615.5,-10 615.5,-30 635.5,-30 635.5,-10 615.5,-10"/>
<text text-anchor="start" x="639.28" y="-15.4" font-family="Times-12" font-size="14.00"> &#160;Bootstrap</text>
<polygon fill="#fdb462" stroke="transparent" points="712.5,-10 712.5,-30 732.5,-30 732.5,-10 712.5,-10"/>
<text text-anchor="start" x="736.17" y="-15.4" font-family="Times-12" font-size="14.00"> &#160;Providers</text>
<polygon fill="#fb8072" stroke="transparent" points="808.5,-10 808.5,-30 828.5,-30 828.5,-10 808.5,-10"/>
<text text-anchor="start" x="832.23" y="-15.4" font-family="Times-12" font-size="14.00"> &#160;Exports</text>
<g id="clust1" class="cluster">
<title>cluster_AppModule</title>
<polygon fill="none" stroke="black" stroke-dasharray="1,5" points="8,-70 8,-195 1293,-195 1293,-70 8,-70"/>
</g>
<g id="clust6" class="cluster">
<title>cluster_AppModule_providers</title>
<polygon fill="none" stroke="black" points="975,-78 975,-130 1285,-130 1285,-78 975,-78"/>
</g>
<g id="clust3" class="cluster">
<title>cluster_AppModule_imports</title>
<polygon fill="none" stroke="black" points="16,-78 16,-130 967,-130 967,-78 16,-78"/>
</g>
<!-- AuthModule -->
<g id="node1" class="node">
<title>AuthModule</title>
<polygon fill="#8dd3c7" stroke="black" points="958.55,-122 955.55,-126 934.55,-126 931.55,-122 871.45,-122 871.45,-86 958.55,-86 958.55,-122"/>
<text text-anchor="middle" x="915" y="-99.8" font-family="Times,serif" font-size="14.00">AuthModule</text>
</g>
<!-- AppModule -->
<g id="node9" class="node">
<title>AppModule</title>
<polygon fill="#8dd3c7" stroke="black" points="647.66,-187 644.66,-191 623.66,-191 620.66,-187 564.34,-187 564.34,-151 647.66,-151 647.66,-187"/>
<text text-anchor="middle" x="606" y="-164.8" font-family="Times,serif" font-size="14.00">AppModule</text>
</g>
<!-- AuthModule&#45;&gt;AppModule -->
<g id="edge1" class="edge">
<title>AuthModule&#45;&gt;AppModule</title>
<path fill="none" stroke="black" d="M915,-122.27C915,-140.56 915,-166 915,-166 915,-166 657.67,-166 657.67,-166"/>
<polygon fill="black" stroke="black" points="657.67,-162.5 647.67,-166 657.67,-169.5 657.67,-162.5"/>
</g>
<!-- FileUploadModule -->
<g id="node2" class="node">
<title>FileUploadModule</title>
<polygon fill="#8dd3c7" stroke="black" points="853.04,-122 850.04,-126 829.04,-126 826.04,-122 730.96,-122 730.96,-86 853.04,-86 853.04,-122"/>
<text text-anchor="middle" x="792" y="-99.8" font-family="Times,serif" font-size="14.00">FileUploadModule</text>
</g>
<!-- FileUploadModule&#45;&gt;AppModule -->
<g id="edge2" class="edge">
<title>FileUploadModule&#45;&gt;AppModule</title>
<path fill="none" stroke="black" d="M792,-122.01C792,-138.05 792,-159 792,-159 792,-159 657.74,-159 657.74,-159"/>
<polygon fill="black" stroke="black" points="657.74,-155.5 647.74,-159 657.74,-162.5 657.74,-155.5"/>
</g>
<!-- MailModule -->
<g id="node3" class="node">
<title>MailModule</title>
<polygon fill="#8dd3c7" stroke="black" points="712.99,-122 709.99,-126 688.99,-126 685.99,-122 627.01,-122 627.01,-86 712.99,-86 712.99,-122"/>
<text text-anchor="middle" x="670" y="-99.8" font-family="Times,serif" font-size="14.00">MailModule</text>
</g>
<!-- MailModule&#45;&gt;AppModule -->
<g id="edge3" class="edge">
<title>MailModule&#45;&gt;AppModule</title>
<path fill="none" stroke="black" d="M637.42,-122.11C637.42,-122.11 637.42,-140.99 637.42,-140.99"/>
<polygon fill="black" stroke="black" points="633.92,-140.99 637.42,-150.99 640.92,-140.99 633.92,-140.99"/>
</g>
<!-- MetaOptionsModule -->
<g id="node4" class="node">
<title>MetaOptionsModule</title>
<polygon fill="#8dd3c7" stroke="black" points="609.15,-122 606.15,-126 585.15,-126 582.15,-122 476.85,-122 476.85,-86 609.15,-86 609.15,-122"/>
<text text-anchor="middle" x="543" y="-99.8" font-family="Times,serif" font-size="14.00">MetaOptionsModule</text>
</g>
<!-- MetaOptionsModule&#45;&gt;AppModule -->
<g id="edge4" class="edge">
<title>MetaOptionsModule&#45;&gt;AppModule</title>
<path fill="none" stroke="black" d="M586.75,-122.11C586.75,-122.11 586.75,-140.99 586.75,-140.99"/>
<polygon fill="black" stroke="black" points="583.25,-140.99 586.75,-150.99 590.25,-140.99 583.25,-140.99"/>
</g>
<!-- PaginationModule -->
<g id="node5" class="node">
<title>PaginationModule</title>
<polygon fill="#8dd3c7" stroke="black" points="458.93,-122 455.93,-126 434.93,-126 431.93,-122 339.07,-122 339.07,-86 458.93,-86 458.93,-122"/>
<text text-anchor="middle" x="399" y="-99.8" font-family="Times,serif" font-size="14.00">PaginationModule</text>
</g>
<!-- PaginationModule&#45;&gt;AppModule -->
<g id="edge5" class="edge">
<title>PaginationModule&#45;&gt;AppModule</title>
<path fill="none" stroke="black" d="M399,-122.01C399,-138.05 399,-159 399,-159 399,-159 554.11,-159 554.11,-159"/>
<polygon fill="black" stroke="black" points="554.11,-162.5 564.11,-159 554.11,-155.5 554.11,-162.5"/>
</g>
<!-- PostsModule -->
<g id="node6" class="node">
<title>PostsModule</title>
<polygon fill="#8dd3c7" stroke="black" points="321.61,-122 318.61,-126 297.61,-126 294.61,-122 232.39,-122 232.39,-86 321.61,-86 321.61,-122"/>
<text text-anchor="middle" x="277" y="-99.8" font-family="Times,serif" font-size="14.00">PostsModule</text>
</g>
<!-- PostsModule&#45;&gt;AppModule -->
<g id="edge6" class="edge">
<title>PostsModule&#45;&gt;AppModule</title>
<path fill="none" stroke="black" d="M277,-122.27C277,-140.56 277,-166 277,-166 277,-166 554.33,-166 554.33,-166"/>
<polygon fill="black" stroke="black" points="554.33,-169.5 564.33,-166 554.33,-162.5 554.33,-169.5"/>
</g>
<!-- TagsModule -->
<g id="node7" class="node">
<title>TagsModule</title>
<polygon fill="#8dd3c7" stroke="black" points="214.26,-122 211.26,-126 190.26,-126 187.26,-122 127.74,-122 127.74,-86 214.26,-86 214.26,-122"/>
<text text-anchor="middle" x="171" y="-99.8" font-family="Times,serif" font-size="14.00">TagsModule</text>
</g>
<!-- TagsModule&#45;&gt;AppModule -->
<g id="edge7" class="edge">
<title>TagsModule&#45;&gt;AppModule</title>
<path fill="none" stroke="black" d="M171,-122.13C171,-142.57 171,-173 171,-173 171,-173 554.29,-173 554.29,-173"/>
<polygon fill="black" stroke="black" points="554.29,-176.5 564.29,-173 554.29,-169.5 554.29,-176.5"/>
</g>
<!-- UserModule -->
<g id="node8" class="node">
<title>UserModule</title>
<polygon fill="#8dd3c7" stroke="black" points="109.98,-122 106.98,-126 85.98,-126 82.98,-122 24.02,-122 24.02,-86 109.98,-86 109.98,-122"/>
<text text-anchor="middle" x="67" y="-99.8" font-family="Times,serif" font-size="14.00">UserModule</text>
</g>
<!-- UserModule&#45;&gt;AppModule -->
<g id="edge8" class="edge">
<title>UserModule&#45;&gt;AppModule</title>
<path fill="none" stroke="black" d="M67,-122.01C67,-144.49 67,-180 67,-180 67,-180 554.15,-180 554.15,-180"/>
<polygon fill="black" stroke="black" points="554.15,-183.5 564.15,-180 554.15,-176.5 554.15,-183.5"/>
</g>
<!-- AppService -->
<g id="node10" class="node">
<title>AppService</title>
<ellipse fill="#fdb462" stroke="black" cx="1220" cy="-104" rx="56.74" ry="18"/>
<text text-anchor="middle" x="1220" y="-99.8" font-family="Times,serif" font-size="14.00">AppService</text>
</g>
<!-- AppService&#45;&gt;AppModule -->
<g id="edge9" class="edge">
<title>AppService&#45;&gt;AppModule</title>
<path fill="none" stroke="black" d="M1220,-122.01C1220,-144.49 1220,-180 1220,-180 1220,-180 657.72,-180 657.72,-180"/>
<polygon fill="black" stroke="black" points="657.72,-176.5 647.72,-180 657.72,-183.5 657.72,-176.5"/>
</g>
<!-- PaginationService -->
<g id="node11" class="node">
<title>PaginationService</title>
<ellipse fill="#fdb462" stroke="black" cx="1064" cy="-104" rx="81.1" ry="18"/>
<text text-anchor="middle" x="1064" y="-99.8" font-family="Times,serif" font-size="14.00">PaginationService</text>
</g>
<!-- PaginationService&#45;&gt;AppModule -->
<g id="edge10" class="edge">
<title>PaginationService&#45;&gt;AppModule</title>
<path fill="none" stroke="black" d="M1064,-122.13C1064,-142.57 1064,-173 1064,-173 1064,-173 657.86,-173 657.86,-173"/>
<polygon fill="black" stroke="black" points="657.86,-169.5 647.86,-173 657.86,-176.5 657.86,-169.5"/>
</g>
</g>
</svg>
