<?xml version="1.0" encoding="UTF-8" standalone="no"?>
<!DOCTYPE svg PUBLIC "-//W3C//DTD SVG 1.1//EN"
 "http://www.w3.org/Graphics/SVG/1.1/DTD/svg11.dtd">
<!-- Generated by graphviz version 2.47.0 (20210316.0004)
 -->
<!-- Title: dependencies Pages: 1 -->
<svg width="1309pt" height="211pt"
 viewBox="0.00 0.00 1309.00 211.00" xmlns="http://www.w3.org/2000/svg" xmlns:xlink="http://www.w3.org/1999/xlink">
<g id="graph0" class="graph" transform="scale(1 1) rotate(0) translate(4 207)">
<title>dependencies</title>
<polygon fill="white" stroke="transparent" points="-4,4 -4,-207 1305,-207 1305,4 -4,4"/>
<text text-anchor="start" x="629.51" y="-42.4" font-family="Times-12" font-weight="bold" font-size="14.00">Legend</text>
<polygon fill="#ffffb3" stroke="transparent" points="416.5,-10 416.5,-30 436.5,-30 436.5,-10 416.5,-10"/>
<text text-anchor="start" x="440.13" y="-15.4" font-family="Times-12" font-size="14.00"> &#160;Declarations</text>
<polygon fill="#8dd3c7" stroke="transparent" points="529.5,-10 529.5,-30 549.5,-30 549.5,-10 529.5,-10"/>
<text text-anchor="start" x="553.23" y="-15.4" font-family="Times-12" font-size="14.00"> &#160;Module</text>
<polygon fill="#80b1d3" stroke="transparent" points="615.5,-10 615.5,-30 635.5,-30 635.5,-10 615.5,-10"/>
<text text-anchor="start" x="639.28" y="-15.4" font-family="Times-12" font-size="14.00"> &#160;Bootstrap</text>
<polygon fill="#fdb462" stroke="transparent" points="712.5,-10 712.5,-30 732.5,-30 732.5,-10 712.5,-10"/>
<text text-anchor="start" x="736.17" y="-15.4" font-family="Times-12" font-size="14.00"> &#160;Providers</text>
<polygon fill="#fb8072" stroke="transparent" points="808.5,-10 808.5,-30 828.5,-30 828.5,-10 808.5,-10"/>
<text text-anchor="start" x="832.23" y="-15.4" font-family="Times-12" font-size="14.00"> &#160;Exports</text>
<g id="clust1" class="cluster">
<title>cluster_AppModule</title>
<polygon fill="none" stroke="black" stroke-dasharray="1,5" points="8,-70 8,-195 1293,-195 1293,-70 8,-70"/>
</g>
<g id="clust3" class="cluster">
<title>cluster_AppModule_imports</title>
<polygon fill="none" stroke="black" points="334,-78 334,-130 1285,-130 1285,-78 334,-78"/>
</g>
<g id="clust6" class="cluster">
<title>cluster_AppModule_providers</title>
<polygon fill="none" stroke="black" points="16,-78 16,-130 326,-130 326,-78 16,-78"/>
</g>
<!-- AuthModule -->
<g id="node1" class="node">
<title>AuthModule</title>
<polygon fill="#8dd3c7" stroke="black" points="1276.55,-122 1273.55,-126 1252.55,-126 1249.55,-122 1189.45,-122 1189.45,-86 1276.55,-86 1276.55,-122"/>
<text text-anchor="middle" x="1233" y="-99.8" font-family="Times,serif" font-size="14.00">AuthModule</text>
</g>
<!-- AppModule -->
<g id="node9" class="node">
<title>AppModule</title>
<polygon fill="#8dd3c7" stroke="black" points="697.66,-187 694.66,-191 673.66,-191 670.66,-187 614.34,-187 614.34,-151 697.66,-151 697.66,-187"/>
<text text-anchor="middle" x="656" y="-164.8" font-family="Times,serif" font-size="14.00">AppModule</text>
</g>
<!-- AuthModule&#45;&gt;AppModule -->
<g id="edge1" class="edge">
<title>AuthModule&#45;&gt;AppModule</title>
<path fill="none" stroke="black" d="M1233,-122.01C1233,-144.49 1233,-180 1233,-180 1233,-180 707.96,-180 707.96,-180"/>
<polygon fill="black" stroke="black" points="707.96,-176.5 697.96,-180 707.96,-183.5 707.96,-176.5"/>
</g>
<!-- FileUploadModule -->
<g id="node2" class="node">
<title>FileUploadModule</title>
<polygon fill="#8dd3c7" stroke="black" points="1171.04,-122 1168.04,-126 1147.04,-126 1144.04,-122 1048.96,-122 1048.96,-86 1171.04,-86 1171.04,-122"/>
<text text-anchor="middle" x="1110" y="-99.8" font-family="Times,serif" font-size="14.00">FileUploadModule</text>
</g>
<!-- FileUploadModule&#45;&gt;AppModule -->
<g id="edge2" class="edge">
<title>FileUploadModule&#45;&gt;AppModule</title>
<path fill="none" stroke="black" d="M1110,-122.13C1110,-142.57 1110,-173 1110,-173 1110,-173 707.9,-173 707.9,-173"/>
<polygon fill="black" stroke="black" points="707.9,-169.5 697.9,-173 707.9,-176.5 707.9,-169.5"/>
</g>
<!-- MailModule -->
<g id="node3" class="node">
<title>MailModule</title>
<polygon fill="#8dd3c7" stroke="black" points="1030.99,-122 1027.99,-126 1006.99,-126 1003.99,-122 945.01,-122 945.01,-86 1030.99,-86 1030.99,-122"/>
<text text-anchor="middle" x="988" y="-99.8" font-family="Times,serif" font-size="14.00">MailModule</text>
</g>
<!-- MailModule&#45;&gt;AppModule -->
<g id="edge3" class="edge">
<title>MailModule&#45;&gt;AppModule</title>
<path fill="none" stroke="black" d="M988,-122.27C988,-140.56 988,-166 988,-166 988,-166 707.71,-166 707.71,-166"/>
<polygon fill="black" stroke="black" points="707.71,-162.5 697.71,-166 707.71,-169.5 707.71,-162.5"/>
</g>
<!-- MetaOptionsModule -->
<g id="node4" class="node">
<title>MetaOptionsModule</title>
<polygon fill="#8dd3c7" stroke="black" points="927.15,-122 924.15,-126 903.15,-126 900.15,-122 794.85,-122 794.85,-86 927.15,-86 927.15,-122"/>
<text text-anchor="middle" x="861" y="-99.8" font-family="Times,serif" font-size="14.00">MetaOptionsModule</text>
</g>
<!-- MetaOptionsModule&#45;&gt;AppModule -->
<g id="edge4" class="edge">
<title>MetaOptionsModule&#45;&gt;AppModule</title>
<path fill="none" stroke="black" d="M861,-122.01C861,-138.05 861,-159 861,-159 861,-159 707.98,-159 707.98,-159"/>
<polygon fill="black" stroke="black" points="707.98,-155.5 697.98,-159 707.98,-162.5 707.98,-155.5"/>
</g>
<!-- PaginationModule -->
<g id="node5" class="node">
<title>PaginationModule</title>
<polygon fill="#8dd3c7" stroke="black" points="776.93,-122 773.93,-126 752.93,-126 749.93,-122 657.07,-122 657.07,-86 776.93,-86 776.93,-122"/>
<text text-anchor="middle" x="717" y="-99.8" font-family="Times,serif" font-size="14.00">PaginationModule</text>
</g>
<!-- PaginationModule&#45;&gt;AppModule -->
<g id="edge5" class="edge">
<title>PaginationModule&#45;&gt;AppModule</title>
<path fill="none" stroke="black" d="M677.56,-122.11C677.56,-122.11 677.56,-140.99 677.56,-140.99"/>
<polygon fill="black" stroke="black" points="674.06,-140.99 677.56,-150.99 681.06,-140.99 674.06,-140.99"/>
</g>
<!-- PostsModule -->
<g id="node6" class="node">
<title>PostsModule</title>
<polygon fill="#8dd3c7" stroke="black" points="639.61,-122 636.61,-126 615.61,-126 612.61,-122 550.39,-122 550.39,-86 639.61,-86 639.61,-122"/>
<text text-anchor="middle" x="595" y="-99.8" font-family="Times,serif" font-size="14.00">PostsModule</text>
</g>
<!-- PostsModule&#45;&gt;AppModule -->
<g id="edge6" class="edge">
<title>PostsModule&#45;&gt;AppModule</title>
<path fill="none" stroke="black" d="M626.86,-122.11C626.86,-122.11 626.86,-140.99 626.86,-140.99"/>
<polygon fill="black" stroke="black" points="623.36,-140.99 626.86,-150.99 630.36,-140.99 623.36,-140.99"/>
</g>
<!-- TagsModule -->
<g id="node7" class="node">
<title>TagsModule</title>
<polygon fill="#8dd3c7" stroke="black" points="532.26,-122 529.26,-126 508.26,-126 505.26,-122 445.74,-122 445.74,-86 532.26,-86 532.26,-122"/>
<text text-anchor="middle" x="489" y="-99.8" font-family="Times,serif" font-size="14.00">TagsModule</text>
</g>
<!-- TagsModule&#45;&gt;AppModule -->
<g id="edge7" class="edge">
<title>TagsModule&#45;&gt;AppModule</title>
<path fill="none" stroke="black" d="M489,-122.01C489,-138.05 489,-159 489,-159 489,-159 604.29,-159 604.29,-159"/>
<polygon fill="black" stroke="black" points="604.29,-162.5 614.29,-159 604.29,-155.5 604.29,-162.5"/>
</g>
<!-- UserModule -->
<g id="node8" class="node">
<title>UserModule</title>
<polygon fill="#8dd3c7" stroke="black" points="427.98,-122 424.98,-126 403.98,-126 400.98,-122 342.02,-122 342.02,-86 427.98,-86 427.98,-122"/>
<text text-anchor="middle" x="385" y="-99.8" font-family="Times,serif" font-size="14.00">UserModule</text>
</g>
<!-- UserModule&#45;&gt;AppModule -->
<g id="edge8" class="edge">
<title>UserModule&#45;&gt;AppModule</title>
<path fill="none" stroke="black" d="M385,-122.27C385,-140.56 385,-166 385,-166 385,-166 604.25,-166 604.25,-166"/>
<polygon fill="black" stroke="black" points="604.25,-169.5 614.25,-166 604.25,-162.5 604.25,-169.5"/>
</g>
<!-- AppService -->
<g id="node10" class="node">
<title>AppService</title>
<ellipse fill="#fdb462" stroke="black" cx="261" cy="-104" rx="56.74" ry="18"/>
<text text-anchor="middle" x="261" y="-99.8" font-family="Times,serif" font-size="14.00">AppService</text>
</g>
<!-- AppService&#45;&gt;AppModule -->
<g id="edge9" class="edge">
<title>AppService&#45;&gt;AppModule</title>
<path fill="none" stroke="black" d="M261,-122.13C261,-142.57 261,-173 261,-173 261,-173 604.1,-173 604.1,-173"/>
<polygon fill="black" stroke="black" points="604.1,-176.5 614.1,-173 604.1,-169.5 604.1,-176.5"/>
</g>
<!-- PaginationService -->
<g id="node11" class="node">
<title>PaginationService</title>
<ellipse fill="#fdb462" stroke="black" cx="105" cy="-104" rx="81.1" ry="18"/>
<text text-anchor="middle" x="105" y="-99.8" font-family="Times,serif" font-size="14.00">PaginationService</text>
</g>
<!-- PaginationService&#45;&gt;AppModule -->
<g id="edge10" class="edge">
<title>PaginationService&#45;&gt;AppModule</title>
<path fill="none" stroke="black" d="M105,-122.01C105,-144.49 105,-180 105,-180 105,-180 604.13,-180 604.13,-180"/>
<polygon fill="black" stroke="black" points="604.13,-183.5 614.13,-180 604.13,-176.5 604.13,-183.5"/>
</g>
</g>
</svg>
