<?xml version="1.0" encoding="UTF-8" standalone="no"?>
<!DOCTYPE svg PUBLIC "-//W3C//DTD SVG 1.1//EN"
 "http://www.w3.org/Graphics/SVG/1.1/DTD/svg11.dtd">
<!-- Generated by graphviz version 2.47.0 (20210316.0004)
 -->
<!-- Title: dependencies Pages: 1 -->
<svg width="1065pt" height="211pt"
 viewBox="0.00 0.00 1065.00 211.00" xmlns="http://www.w3.org/2000/svg" xmlns:xlink="http://www.w3.org/1999/xlink">
<g id="graph0" class="graph" transform="scale(1 1) rotate(0) translate(4 207)">
<title>dependencies</title>
<polygon fill="white" stroke="transparent" points="-4,4 -4,-207 1061,-207 1061,4 -4,4"/>
<text text-anchor="start" x="507.51" y="-42.4" font-family="Times-12" font-weight="bold" font-size="14.00">Legend</text>
<polygon fill="#ffffb3" stroke="transparent" points="294.5,-10 294.5,-30 314.5,-30 314.5,-10 294.5,-10"/>
<text text-anchor="start" x="318.13" y="-15.4" font-family="Times-12" font-size="14.00"> &#160;Declarations</text>
<polygon fill="#8dd3c7" stroke="transparent" points="407.5,-10 407.5,-30 427.5,-30 427.5,-10 407.5,-10"/>
<text text-anchor="start" x="431.23" y="-15.4" font-family="Times-12" font-size="14.00"> &#160;Module</text>
<polygon fill="#80b1d3" stroke="transparent" points="493.5,-10 493.5,-30 513.5,-30 513.5,-10 493.5,-10"/>
<text text-anchor="start" x="517.28" y="-15.4" font-family="Times-12" font-size="14.00"> &#160;Bootstrap</text>
<polygon fill="#fdb462" stroke="transparent" points="590.5,-10 590.5,-30 610.5,-30 610.5,-10 590.5,-10"/>
<text text-anchor="start" x="614.17" y="-15.4" font-family="Times-12" font-size="14.00"> &#160;Providers</text>
<polygon fill="#fb8072" stroke="transparent" points="686.5,-10 686.5,-30 706.5,-30 706.5,-10 686.5,-10"/>
<text text-anchor="start" x="710.23" y="-15.4" font-family="Times-12" font-size="14.00"> &#160;Exports</text>
<g id="clust1" class="cluster">
<title>cluster_AppModule</title>
<polygon fill="none" stroke="black" stroke-dasharray="1,5" points="8,-70 8,-195 1049,-195 1049,-70 8,-70"/>
</g>
<g id="clust6" class="cluster">
<title>cluster_AppModule_providers</title>
<polygon fill="none" stroke="black" points="731,-78 731,-130 1041,-130 1041,-78 731,-78"/>
</g>
<g id="clust3" class="cluster">
<title>cluster_AppModule_imports</title>
<polygon fill="none" stroke="black" points="16,-78 16,-130 723,-130 723,-78 16,-78"/>
</g>
<!-- AuthModule -->
<g id="node1" class="node">
<title>AuthModule</title>
<polygon fill="#8dd3c7" stroke="black" points="714.55,-122 711.55,-126 690.55,-126 687.55,-122 627.45,-122 627.45,-86 714.55,-86 714.55,-122"/>
<text text-anchor="middle" x="671" y="-99.8" font-family="Times,serif" font-size="14.00">AuthModule</text>
</g>
<!-- AppModule -->
<g id="node7" class="node">
<title>AppModule</title>
<polygon fill="#8dd3c7" stroke="black" points="512.66,-187 509.66,-191 488.66,-191 485.66,-187 429.34,-187 429.34,-151 512.66,-151 512.66,-187"/>
<text text-anchor="middle" x="471" y="-164.8" font-family="Times,serif" font-size="14.00">AppModule</text>
</g>
<!-- AuthModule&#45;&gt;AppModule -->
<g id="edge1" class="edge">
<title>AuthModule&#45;&gt;AppModule</title>
<path fill="none" stroke="black" d="M671,-122.03C671,-138.4 671,-160 671,-160 671,-160 522.93,-160 522.93,-160"/>
<polygon fill="black" stroke="black" points="522.93,-156.5 512.93,-160 522.93,-163.5 522.93,-156.5"/>
</g>
<!-- MetaOptionsModule -->
<g id="node2" class="node">
<title>MetaOptionsModule</title>
<polygon fill="#8dd3c7" stroke="black" points="609.15,-122 606.15,-126 585.15,-126 582.15,-122 476.85,-122 476.85,-86 609.15,-86 609.15,-122"/>
<text text-anchor="middle" x="543" y="-99.8" font-family="Times,serif" font-size="14.00">MetaOptionsModule</text>
</g>
<!-- MetaOptionsModule&#45;&gt;AppModule -->
<g id="edge2" class="edge">
<title>MetaOptionsModule&#45;&gt;AppModule</title>
<path fill="none" stroke="black" d="M494.75,-122.11C494.75,-122.11 494.75,-140.99 494.75,-140.99"/>
<polygon fill="black" stroke="black" points="491.25,-140.99 494.75,-150.99 498.25,-140.99 491.25,-140.99"/>
</g>
<!-- PaginationModule -->
<g id="node3" class="node">
<title>PaginationModule</title>
<polygon fill="#8dd3c7" stroke="black" points="458.93,-122 455.93,-126 434.93,-126 431.93,-122 339.07,-122 339.07,-86 458.93,-86 458.93,-122"/>
<text text-anchor="middle" x="399" y="-99.8" font-family="Times,serif" font-size="14.00">PaginationModule</text>
</g>
<!-- PaginationModule&#45;&gt;AppModule -->
<g id="edge3" class="edge">
<title>PaginationModule&#45;&gt;AppModule</title>
<path fill="none" stroke="black" d="M443.94,-122.11C443.94,-122.11 443.94,-140.99 443.94,-140.99"/>
<polygon fill="black" stroke="black" points="440.44,-140.99 443.94,-150.99 447.44,-140.99 440.44,-140.99"/>
</g>
<!-- PostsModule -->
<g id="node4" class="node">
<title>PostsModule</title>
<polygon fill="#8dd3c7" stroke="black" points="321.61,-122 318.61,-126 297.61,-126 294.61,-122 232.39,-122 232.39,-86 321.61,-86 321.61,-122"/>
<text text-anchor="middle" x="277" y="-99.8" font-family="Times,serif" font-size="14.00">PostsModule</text>
</g>
<!-- PostsModule&#45;&gt;AppModule -->
<g id="edge4" class="edge">
<title>PostsModule&#45;&gt;AppModule</title>
<path fill="none" stroke="black" d="M277,-122.03C277,-138.4 277,-160 277,-160 277,-160 418.9,-160 418.9,-160"/>
<polygon fill="black" stroke="black" points="418.9,-163.5 428.9,-160 418.9,-156.5 418.9,-163.5"/>
</g>
<!-- TagsModule -->
<g id="node5" class="node">
<title>TagsModule</title>
<polygon fill="#8dd3c7" stroke="black" points="214.26,-122 211.26,-126 190.26,-126 187.26,-122 127.74,-122 127.74,-86 214.26,-86 214.26,-122"/>
<text text-anchor="middle" x="171" y="-99.8" font-family="Times,serif" font-size="14.00">TagsModule</text>
</g>
<!-- TagsModule&#45;&gt;AppModule -->
<g id="edge5" class="edge">
<title>TagsModule&#45;&gt;AppModule</title>
<path fill="none" stroke="black" d="M171,-122.11C171,-141.34 171,-169 171,-169 171,-169 419.29,-169 419.29,-169"/>
<polygon fill="black" stroke="black" points="419.29,-172.5 429.29,-169 419.29,-165.5 419.29,-172.5"/>
</g>
<!-- UserModule -->
<g id="node6" class="node">
<title>UserModule</title>
<polygon fill="#8dd3c7" stroke="black" points="109.98,-122 106.98,-126 85.98,-126 82.98,-122 24.02,-122 24.02,-86 109.98,-86 109.98,-122"/>
<text text-anchor="middle" x="67" y="-99.8" font-family="Times,serif" font-size="14.00">UserModule</text>
</g>
<!-- UserModule&#45;&gt;AppModule -->
<g id="edge6" class="edge">
<title>UserModule&#45;&gt;AppModule</title>
<path fill="none" stroke="black" d="M67,-122.29C67,-144.21 67,-178 67,-178 67,-178 419.29,-178 419.29,-178"/>
<polygon fill="black" stroke="black" points="419.29,-181.5 429.29,-178 419.29,-174.5 419.29,-181.5"/>
</g>
<!-- AppService -->
<g id="node8" class="node">
<title>AppService</title>
<ellipse fill="#fdb462" stroke="black" cx="976" cy="-104" rx="56.74" ry="18"/>
<text text-anchor="middle" x="976" y="-99.8" font-family="Times,serif" font-size="14.00">AppService</text>
</g>
<!-- AppService&#45;&gt;AppModule -->
<g id="edge7" class="edge">
<title>AppService&#45;&gt;AppModule</title>
<path fill="none" stroke="black" d="M976,-122.29C976,-144.21 976,-178 976,-178 976,-178 522.76,-178 522.76,-178"/>
<polygon fill="black" stroke="black" points="522.76,-174.5 512.76,-178 522.76,-181.5 522.76,-174.5"/>
</g>
<!-- PaginationService -->
<g id="node9" class="node">
<title>PaginationService</title>
<ellipse fill="#fdb462" stroke="black" cx="820" cy="-104" rx="81.1" ry="18"/>
<text text-anchor="middle" x="820" y="-99.8" font-family="Times,serif" font-size="14.00">PaginationService</text>
</g>
<!-- PaginationService&#45;&gt;AppModule -->
<g id="edge8" class="edge">
<title>PaginationService&#45;&gt;AppModule</title>
<path fill="none" stroke="black" d="M820,-122.11C820,-141.34 820,-169 820,-169 820,-169 522.75,-169 522.75,-169"/>
<polygon fill="black" stroke="black" points="522.75,-165.5 512.75,-169 522.75,-172.5 522.75,-165.5"/>
</g>
</g>
</svg>
