<?xml version="1.0" encoding="UTF-8" standalone="no"?>
<!DOCTYPE svg PUBLIC "-//W3C//DTD SVG 1.1//EN"
 "http://www.w3.org/Graphics/SVG/1.1/DTD/svg11.dtd">
<!-- Generated by graphviz version 2.47.0 (20210316.0004)
 -->
<!-- Title: dependencies Pages: 1 -->
<svg width="1206pt" height="211pt"
 viewBox="0.00 0.00 1206.00 211.00" xmlns="http://www.w3.org/2000/svg" xmlns:xlink="http://www.w3.org/1999/xlink">
<g id="graph0" class="graph" transform="scale(1 1) rotate(0) translate(4 207)">
<title>dependencies</title>
<polygon fill="white" stroke="transparent" points="-4,4 -4,-207 1202,-207 1202,4 -4,4"/>
<text text-anchor="start" x="578.01" y="-42.4" font-family="Times-12" font-weight="bold" font-size="14.00">Legend</text>
<polygon fill="#ffffb3" stroke="transparent" points="365,-10 365,-30 385,-30 385,-10 365,-10"/>
<text text-anchor="start" x="388.63" y="-15.4" font-family="Times-12" font-size="14.00"> &#160;Declarations</text>
<polygon fill="#8dd3c7" stroke="transparent" points="478,-10 478,-30 498,-30 498,-10 478,-10"/>
<text text-anchor="start" x="501.73" y="-15.4" font-family="Times-12" font-size="14.00"> &#160;Module</text>
<polygon fill="#80b1d3" stroke="transparent" points="564,-10 564,-30 584,-30 584,-10 564,-10"/>
<text text-anchor="start" x="587.78" y="-15.4" font-family="Times-12" font-size="14.00"> &#160;Bootstrap</text>
<polygon fill="#fdb462" stroke="transparent" points="661,-10 661,-30 681,-30 681,-10 661,-10"/>
<text text-anchor="start" x="684.67" y="-15.4" font-family="Times-12" font-size="14.00"> &#160;Providers</text>
<polygon fill="#fb8072" stroke="transparent" points="757,-10 757,-30 777,-30 777,-10 757,-10"/>
<text text-anchor="start" x="780.73" y="-15.4" font-family="Times-12" font-size="14.00"> &#160;Exports</text>
<g id="clust1" class="cluster">
<title>cluster_AppModule</title>
<polygon fill="none" stroke="black" stroke-dasharray="1,5" points="8,-70 8,-195 1190,-195 1190,-70 8,-70"/>
</g>
<g id="clust6" class="cluster">
<title>cluster_AppModule_providers</title>
<polygon fill="none" stroke="black" points="872,-78 872,-130 1182,-130 1182,-78 872,-78"/>
</g>
<g id="clust3" class="cluster">
<title>cluster_AppModule_imports</title>
<polygon fill="none" stroke="black" points="16,-78 16,-130 864,-130 864,-78 16,-78"/>
</g>
<!-- AuthModule -->
<g id="node1" class="node">
<title>AuthModule</title>
<polygon fill="#8dd3c7" stroke="black" points="855.55,-122 852.55,-126 831.55,-126 828.55,-122 768.45,-122 768.45,-86 855.55,-86 855.55,-122"/>
<text text-anchor="middle" x="812" y="-99.8" font-family="Times,serif" font-size="14.00">AuthModule</text>
</g>
<!-- AppModule -->
<g id="node8" class="node">
<title>AppModule</title>
<polygon fill="#8dd3c7" stroke="black" points="584.66,-187 581.66,-191 560.66,-191 557.66,-187 501.34,-187 501.34,-151 584.66,-151 584.66,-187"/>
<text text-anchor="middle" x="543" y="-164.8" font-family="Times,serif" font-size="14.00">AppModule</text>
</g>
<!-- AuthModule&#45;&gt;AppModule -->
<g id="edge1" class="edge">
<title>AuthModule&#45;&gt;AppModule</title>
<path fill="none" stroke="black" d="M812,-122.27C812,-140.56 812,-166 812,-166 812,-166 594.74,-166 594.74,-166"/>
<polygon fill="black" stroke="black" points="594.74,-162.5 584.74,-166 594.74,-169.5 594.74,-162.5"/>
</g>
<!-- FileUploadModule -->
<g id="node2" class="node">
<title>FileUploadModule</title>
<polygon fill="#8dd3c7" stroke="black" points="750.04,-122 747.04,-126 726.04,-126 723.04,-122 627.96,-122 627.96,-86 750.04,-86 750.04,-122"/>
<text text-anchor="middle" x="689" y="-99.8" font-family="Times,serif" font-size="14.00">FileUploadModule</text>
</g>
<!-- FileUploadModule&#45;&gt;AppModule -->
<g id="edge2" class="edge">
<title>FileUploadModule&#45;&gt;AppModule</title>
<path fill="none" stroke="black" d="M689,-122.01C689,-138.05 689,-159 689,-159 689,-159 594.84,-159 594.84,-159"/>
<polygon fill="black" stroke="black" points="594.84,-155.5 584.84,-159 594.84,-162.5 594.84,-155.5"/>
</g>
<!-- MetaOptionsModule -->
<g id="node3" class="node">
<title>MetaOptionsModule</title>
<polygon fill="#8dd3c7" stroke="black" points="609.15,-122 606.15,-126 585.15,-126 582.15,-122 476.85,-122 476.85,-86 609.15,-86 609.15,-122"/>
<text text-anchor="middle" x="543" y="-99.8" font-family="Times,serif" font-size="14.00">MetaOptionsModule</text>
</g>
<!-- MetaOptionsModule&#45;&gt;AppModule -->
<g id="edge3" class="edge">
<title>MetaOptionsModule&#45;&gt;AppModule</title>
<path fill="none" stroke="black" d="M543,-122.11C543,-122.11 543,-140.99 543,-140.99"/>
<polygon fill="black" stroke="black" points="539.5,-140.99 543,-150.99 546.5,-140.99 539.5,-140.99"/>
</g>
<!-- PaginationModule -->
<g id="node4" class="node">
<title>PaginationModule</title>
<polygon fill="#8dd3c7" stroke="black" points="458.93,-122 455.93,-126 434.93,-126 431.93,-122 339.07,-122 339.07,-86 458.93,-86 458.93,-122"/>
<text text-anchor="middle" x="399" y="-99.8" font-family="Times,serif" font-size="14.00">PaginationModule</text>
</g>
<!-- PaginationModule&#45;&gt;AppModule -->
<g id="edge4" class="edge">
<title>PaginationModule&#45;&gt;AppModule</title>
<path fill="none" stroke="black" d="M399,-122.01C399,-138.05 399,-159 399,-159 399,-159 490.96,-159 490.96,-159"/>
<polygon fill="black" stroke="black" points="490.96,-162.5 500.96,-159 490.96,-155.5 490.96,-162.5"/>
</g>
<!-- PostsModule -->
<g id="node5" class="node">
<title>PostsModule</title>
<polygon fill="#8dd3c7" stroke="black" points="321.61,-122 318.61,-126 297.61,-126 294.61,-122 232.39,-122 232.39,-86 321.61,-86 321.61,-122"/>
<text text-anchor="middle" x="277" y="-99.8" font-family="Times,serif" font-size="14.00">PostsModule</text>
</g>
<!-- PostsModule&#45;&gt;AppModule -->
<g id="edge5" class="edge">
<title>PostsModule&#45;&gt;AppModule</title>
<path fill="none" stroke="black" d="M277,-122.27C277,-140.56 277,-166 277,-166 277,-166 491.14,-166 491.14,-166"/>
<polygon fill="black" stroke="black" points="491.14,-169.5 501.14,-166 491.14,-162.5 491.14,-169.5"/>
</g>
<!-- TagsModule -->
<g id="node6" class="node">
<title>TagsModule</title>
<polygon fill="#8dd3c7" stroke="black" points="214.26,-122 211.26,-126 190.26,-126 187.26,-122 127.74,-122 127.74,-86 214.26,-86 214.26,-122"/>
<text text-anchor="middle" x="171" y="-99.8" font-family="Times,serif" font-size="14.00">TagsModule</text>
</g>
<!-- TagsModule&#45;&gt;AppModule -->
<g id="edge6" class="edge">
<title>TagsModule&#45;&gt;AppModule</title>
<path fill="none" stroke="black" d="M171,-122.13C171,-142.57 171,-173 171,-173 171,-173 491.05,-173 491.05,-173"/>
<polygon fill="black" stroke="black" points="491.05,-176.5 501.05,-173 491.05,-169.5 491.05,-176.5"/>
</g>
<!-- UserModule -->
<g id="node7" class="node">
<title>UserModule</title>
<polygon fill="#8dd3c7" stroke="black" points="109.98,-122 106.98,-126 85.98,-126 82.98,-122 24.02,-122 24.02,-86 109.98,-86 109.98,-122"/>
<text text-anchor="middle" x="67" y="-99.8" font-family="Times,serif" font-size="14.00">UserModule</text>
</g>
<!-- UserModule&#45;&gt;AppModule -->
<g id="edge7" class="edge">
<title>UserModule&#45;&gt;AppModule</title>
<path fill="none" stroke="black" d="M67,-122.01C67,-144.49 67,-180 67,-180 67,-180 491.18,-180 491.18,-180"/>
<polygon fill="black" stroke="black" points="491.18,-183.5 501.18,-180 491.18,-176.5 491.18,-183.5"/>
</g>
<!-- AppService -->
<g id="node9" class="node">
<title>AppService</title>
<ellipse fill="#fdb462" stroke="black" cx="1117" cy="-104" rx="56.74" ry="18"/>
<text text-anchor="middle" x="1117" y="-99.8" font-family="Times,serif" font-size="14.00">AppService</text>
</g>
<!-- AppService&#45;&gt;AppModule -->
<g id="edge8" class="edge">
<title>AppService&#45;&gt;AppModule</title>
<path fill="none" stroke="black" d="M1117,-122.01C1117,-144.49 1117,-180 1117,-180 1117,-180 594.74,-180 594.74,-180"/>
<polygon fill="black" stroke="black" points="594.74,-176.5 584.74,-180 594.74,-183.5 594.74,-176.5"/>
</g>
<!-- PaginationService -->
<g id="node10" class="node">
<title>PaginationService</title>
<ellipse fill="#fdb462" stroke="black" cx="961" cy="-104" rx="81.1" ry="18"/>
<text text-anchor="middle" x="961" y="-99.8" font-family="Times,serif" font-size="14.00">PaginationService</text>
</g>
<!-- PaginationService&#45;&gt;AppModule -->
<g id="edge9" class="edge">
<title>PaginationService&#45;&gt;AppModule</title>
<path fill="none" stroke="black" d="M961,-122.13C961,-142.57 961,-173 961,-173 961,-173 594.99,-173 594.99,-173"/>
<polygon fill="black" stroke="black" points="594.99,-169.5 584.99,-173 594.99,-176.5 594.99,-169.5"/>
</g>
</g>
</svg>
