<?xml version="1.0" encoding="UTF-8" standalone="no"?>
<!DOCTYPE svg PUBLIC "-//W3C//DTD SVG 1.1//EN"
 "http://www.w3.org/Graphics/SVG/1.1/DTD/svg11.dtd">
<!-- Generated by graphviz version 2.47.0 (20210316.0004)
 -->
<!-- Title: dependencies Pages: 1 -->
<svg width="2245pt" height="366pt"
 viewBox="0.00 0.00 2245.00 366.00" xmlns="http://www.w3.org/2000/svg" xmlns:xlink="http://www.w3.org/1999/xlink">
<g id="graph0" class="graph" transform="scale(1 1) rotate(0) translate(4 362)">
<title>dependencies</title>
<polygon fill="white" stroke="transparent" points="-4,4 -4,-362 2241,-362 2241,4 -4,4"/>
<text text-anchor="start" x="1097.51" y="-42.4" font-family="Times-12" font-weight="bold" font-size="14.00">Legend</text>
<polygon fill="#ffffb3" stroke="transparent" points="884.5,-10 884.5,-30 904.5,-30 904.5,-10 884.5,-10"/>
<text text-anchor="start" x="908.13" y="-15.4" font-family="Times-12" font-size="14.00"> &#160;Declarations</text>
<polygon fill="#8dd3c7" stroke="transparent" points="997.5,-10 997.5,-30 1017.5,-30 1017.5,-10 997.5,-10"/>
<text text-anchor="start" x="1021.23" y="-15.4" font-family="Times-12" font-size="14.00"> &#160;Module</text>
<polygon fill="#80b1d3" stroke="transparent" points="1083.5,-10 1083.5,-30 1103.5,-30 1103.5,-10 1083.5,-10"/>
<text text-anchor="start" x="1107.28" y="-15.4" font-family="Times-12" font-size="14.00"> &#160;Bootstrap</text>
<polygon fill="#fdb462" stroke="transparent" points="1180.5,-10 1180.5,-30 1200.5,-30 1200.5,-10 1180.5,-10"/>
<text text-anchor="start" x="1204.17" y="-15.4" font-family="Times-12" font-size="14.00"> &#160;Providers</text>
<polygon fill="#fb8072" stroke="transparent" points="1276.5,-10 1276.5,-30 1296.5,-30 1296.5,-10 1276.5,-10"/>
<text text-anchor="start" x="1300.23" y="-15.4" font-family="Times-12" font-size="14.00"> &#160;Exports</text>
<g id="clust13" class="cluster">
<title>cluster_MetaOptionsModule</title>
<polygon fill="none" stroke="black" stroke-dasharray="1,5" points="608,-146 608,-350 820,-350 820,-146 608,-146"/>
</g>
<g id="clust18" class="cluster">
<title>cluster_MetaOptionsModule_providers</title>
<polygon fill="none" stroke="black" points="616,-154 616,-206 812,-206 812,-154 616,-154"/>
</g>
<g id="clust16" class="cluster">
<title>cluster_MetaOptionsModule_exports</title>
<polygon fill="none" stroke="black" points="650,-290 650,-342 800,-342 800,-290 650,-290"/>
</g>
<g id="clust25" class="cluster">
<title>cluster_PostsModule</title>
<polygon fill="none" stroke="black" stroke-dasharray="1,5" points="1600,-146 1600,-350 2104,-350 2104,-146 1600,-146"/>
</g>
<g id="clust28" class="cluster">
<title>cluster_PostsModule_exports</title>
<polygon fill="none" stroke="black" points="1726,-290 1726,-342 1834,-342 1834,-290 1726,-290"/>
</g>
<g id="clust27" class="cluster">
<title>cluster_PostsModule_imports</title>
<polygon fill="none" stroke="black" points="1608,-154 1608,-206 1952,-206 1952,-154 1608,-154"/>
</g>
<g id="clust30" class="cluster">
<title>cluster_PostsModule_providers</title>
<polygon fill="none" stroke="black" points="1960,-154 1960,-206 2096,-206 2096,-154 1960,-154"/>
</g>
<g id="clust19" class="cluster">
<title>cluster_PaginationModule</title>
<polygon fill="none" stroke="black" stroke-dasharray="1,5" points="1098,-214 1098,-282 1438,-282 1438,-214 1098,-214"/>
</g>
<g id="clust24" class="cluster">
<title>cluster_PaginationModule_providers</title>
<polygon fill="none" stroke="black" points="1252,-222 1252,-274 1430,-274 1430,-222 1252,-222"/>
</g>
<g id="clust22" class="cluster">
<title>cluster_PaginationModule_exports</title>
<polygon fill="none" stroke="black" points="1106,-222 1106,-274 1244,-274 1244,-222 1106,-222"/>
</g>
<g id="clust31" class="cluster">
<title>cluster_TagsModule</title>
<polygon fill="none" stroke="black" stroke-dasharray="1,5" points="828,-214 828,-282 1090,-282 1090,-214 828,-214"/>
</g>
<g id="clust34" class="cluster">
<title>cluster_TagsModule_exports</title>
<polygon fill="none" stroke="black" points="978,-222 978,-274 1082,-274 1082,-222 978,-222"/>
</g>
<g id="clust36" class="cluster">
<title>cluster_TagsModule_providers</title>
<polygon fill="none" stroke="black" points="836,-222 836,-274 970,-274 970,-222 836,-222"/>
</g>
<g id="clust7" class="cluster">
<title>cluster_AuthModule</title>
<polygon fill="none" stroke="black" stroke-dasharray="1,5" points="8,-146 8,-350 600,-350 600,-146 8,-146"/>
</g>
<g id="clust10" class="cluster">
<title>cluster_AuthModule_exports</title>
<polygon fill="none" stroke="black" points="245,-290 245,-342 483,-342 483,-290 245,-290"/>
</g>
<g id="clust12" class="cluster">
<title>cluster_AuthModule_providers</title>
<polygon fill="none" stroke="black" points="16,-154 16,-206 592,-206 592,-154 16,-154"/>
</g>
<g id="clust1" class="cluster">
<title>cluster_AppModule</title>
<polygon fill="none" stroke="black" stroke-dasharray="1,5" points="1446,-214 1446,-342 1592,-342 1592,-214 1446,-214"/>
</g>
<g id="clust6" class="cluster">
<title>cluster_AppModule_providers</title>
<polygon fill="none" stroke="black" points="1454,-222 1454,-274 1584,-274 1584,-222 1454,-222"/>
</g>
<g id="clust37" class="cluster">
<title>cluster_UserModule</title>
<polygon fill="none" stroke="black" stroke-dasharray="1,5" points="1603,-70 1603,-138 2229,-138 2229,-70 1603,-70"/>
</g>
<g id="clust42" class="cluster">
<title>cluster_UserModule_providers</title>
<polygon fill="none" stroke="black" points="1723,-78 1723,-130 2221,-130 2221,-78 1723,-78"/>
</g>
<g id="clust40" class="cluster">
<title>cluster_UserModule_exports</title>
<polygon fill="none" stroke="black" points="1611,-78 1611,-130 1715,-130 1715,-78 1611,-78"/>
</g>
<!-- AuthModule -->
<g id="node1" class="node">
<title>AuthModule</title>
<polygon fill="#8dd3c7" stroke="black" points="401.55,-266 398.55,-270 377.55,-270 374.55,-266 314.45,-266 314.45,-230 401.55,-230 401.55,-266"/>
<text text-anchor="middle" x="358" y="-243.8" font-family="Times,serif" font-size="14.00">AuthModule</text>
</g>
<!-- AppModule -->
<g id="node7" class="node">
<title>AppModule</title>
<polygon fill="#8dd3c7" stroke="black" points="1571.66,-334 1568.66,-338 1547.66,-338 1544.66,-334 1488.34,-334 1488.34,-298 1571.66,-298 1571.66,-334"/>
<text text-anchor="middle" x="1530" y="-311.8" font-family="Times,serif" font-size="14.00">AppModule</text>
</g>
<!-- AuthModule&#45;&gt;AppModule -->
<g id="edge1" class="edge">
<title>AuthModule&#45;&gt;AppModule</title>
<path fill="none" stroke="black" d="M388.12,-266.2C388.12,-272.03 388.12,-277 388.12,-277 388.12,-277 1509.09,-277 1509.09,-277 1509.09,-277 1509.09,-287.87 1509.09,-287.87"/>
<polygon fill="black" stroke="black" points="1505.59,-287.87 1509.09,-297.87 1512.59,-287.87 1505.59,-287.87"/>
</g>
<!-- AuthService  -->
<g id="node10" class="node">
<title>AuthService </title>
<polygon fill="#fb8072" stroke="black" points="342.98,-334 253.02,-334 253.02,-298 342.98,-298 342.98,-334"/>
<text text-anchor="middle" x="298" y="-311.8" font-family="Times,serif" font-size="14.00">AuthService </text>
</g>
<!-- AuthModule&#45;&gt;AuthService  -->
<g id="edge9" class="edge">
<title>AuthModule&#45;&gt;AuthService </title>
<path fill="none" stroke="black" stroke-dasharray="5,2" d="M328.48,-266.22C328.48,-266.22 328.48,-287.73 328.48,-287.73"/>
<polygon fill="black" stroke="black" points="324.98,-287.73 328.48,-297.73 331.98,-287.73 324.98,-287.73"/>
</g>
<!-- HashingProvider  -->
<g id="node11" class="node">
<title>HashingProvider </title>
<polygon fill="#fb8072" stroke="black" points="475.37,-334 360.63,-334 360.63,-298 475.37,-298 475.37,-334"/>
<text text-anchor="middle" x="418" y="-311.8" font-family="Times,serif" font-size="14.00">HashingProvider </text>
</g>
<!-- AuthModule&#45;&gt;HashingProvider  -->
<g id="edge10" class="edge">
<title>AuthModule&#45;&gt;HashingProvider </title>
<path fill="none" stroke="black" stroke-dasharray="5,2" d="M374.47,-266.22C374.47,-266.22 374.47,-287.73 374.47,-287.73"/>
<polygon fill="black" stroke="black" points="370.97,-287.73 374.47,-297.73 377.97,-287.73 370.97,-287.73"/>
</g>
<!-- MetaOptionsModule -->
<g id="node2" class="node">
<title>MetaOptionsModule</title>
<polygon fill="#8dd3c7" stroke="black" points="791.15,-266 788.15,-270 767.15,-270 764.15,-266 658.85,-266 658.85,-230 791.15,-230 791.15,-266"/>
<text text-anchor="middle" x="725" y="-243.8" font-family="Times,serif" font-size="14.00">MetaOptionsModule</text>
</g>
<!-- MetaOptionsModule&#45;&gt;AppModule -->
<g id="edge2" class="edge">
<title>MetaOptionsModule&#45;&gt;AppModule</title>
<path fill="none" stroke="black" d="M791.25,-248C809.47,-248 824.33,-248 824.33,-248 824.33,-248 824.33,-322 824.33,-322 824.33,-322 1478.23,-322 1478.23,-322"/>
<polygon fill="black" stroke="black" points="1478.23,-325.5 1488.23,-322 1478.23,-318.5 1478.23,-325.5"/>
</g>
<!-- MetaOptionsService  -->
<g id="node15" class="node">
<title>MetaOptionsService </title>
<polygon fill="#fb8072" stroke="black" points="792.08,-334 657.92,-334 657.92,-298 792.08,-298 792.08,-334"/>
<text text-anchor="middle" x="725" y="-311.8" font-family="Times,serif" font-size="14.00">MetaOptionsService </text>
</g>
<!-- MetaOptionsModule&#45;&gt;MetaOptionsService  -->
<g id="edge14" class="edge">
<title>MetaOptionsModule&#45;&gt;MetaOptionsService </title>
<path fill="none" stroke="black" stroke-dasharray="5,2" d="M725,-266.22C725,-266.22 725,-287.73 725,-287.73"/>
<polygon fill="black" stroke="black" points="721.5,-287.73 725,-297.73 728.5,-287.73 721.5,-287.73"/>
</g>
<!-- PaginationModule -->
<g id="node3" class="node">
<title>PaginationModule</title>
<polygon fill="#8dd3c7" stroke="black" points="1839.93,-198 1836.93,-202 1815.93,-202 1812.93,-198 1720.07,-198 1720.07,-162 1839.93,-162 1839.93,-198"/>
<text text-anchor="middle" x="1780" y="-175.8" font-family="Times,serif" font-size="14.00">PaginationModule</text>
</g>
<!-- PostsModule -->
<g id="node4" class="node">
<title>PostsModule</title>
<polygon fill="#8dd3c7" stroke="black" points="1824.61,-266 1821.61,-270 1800.61,-270 1797.61,-266 1735.39,-266 1735.39,-230 1824.61,-230 1824.61,-266"/>
<text text-anchor="middle" x="1780" y="-243.8" font-family="Times,serif" font-size="14.00">PostsModule</text>
</g>
<!-- PaginationModule&#45;&gt;PostsModule -->
<g id="edge18" class="edge">
<title>PaginationModule&#45;&gt;PostsModule</title>
<path fill="none" stroke="black" d="M1780,-198.22C1780,-198.22 1780,-219.73 1780,-219.73"/>
<polygon fill="black" stroke="black" points="1776.5,-219.73 1780,-229.73 1783.5,-219.73 1776.5,-219.73"/>
</g>
<!-- PaginationModule&#45;&gt;AppModule -->
<g id="edge3" class="edge">
<title>PaginationModule&#45;&gt;AppModule</title>
<path fill="none" stroke="black" d="M1730.93,-198.07C1730.93,-236.94 1730.93,-325 1730.93,-325 1730.93,-325 1582.12,-325 1582.12,-325"/>
<polygon fill="black" stroke="black" points="1582.12,-321.5 1572.12,-325 1582.12,-328.5 1582.12,-321.5"/>
</g>
<!-- PaginationService  -->
<g id="node17" class="node">
<title>PaginationService </title>
<polygon fill="#fb8072" stroke="black" points="1235.86,-266 1114.14,-266 1114.14,-230 1235.86,-230 1235.86,-266"/>
<text text-anchor="middle" x="1175" y="-243.8" font-family="Times,serif" font-size="14.00">PaginationService </text>
</g>
<!-- PaginationModule&#45;&gt;PaginationService  -->
<g id="edge16" class="edge">
<title>PaginationModule&#45;&gt;PaginationService </title>
<path fill="none" stroke="black" stroke-dasharray="5,2" d="M1723.83,-198.2C1723.83,-204.03 1723.83,-209 1723.83,-209 1723.83,-209 1175,-209 1175,-209 1175,-209 1175,-219.87 1175,-219.87"/>
<polygon fill="black" stroke="black" points="1171.5,-219.87 1175,-229.87 1178.5,-219.87 1171.5,-219.87"/>
</g>
<!-- PostsModule&#45;&gt;AppModule -->
<g id="edge4" class="edge">
<title>PostsModule&#45;&gt;AppModule</title>
<path fill="none" stroke="black" d="M1735.35,-254C1723.35,-254 1713.62,-254 1713.62,-254 1713.62,-254 1713.62,-316 1713.62,-316 1713.62,-316 1581.67,-316 1581.67,-316"/>
<polygon fill="black" stroke="black" points="1581.67,-312.5 1571.67,-316 1581.67,-319.5 1581.67,-312.5"/>
</g>
<!-- PostsService  -->
<g id="node18" class="node">
<title>PostsService </title>
<polygon fill="#fb8072" stroke="black" points="1825.54,-334 1734.46,-334 1734.46,-298 1825.54,-298 1825.54,-334"/>
<text text-anchor="middle" x="1780" y="-311.8" font-family="Times,serif" font-size="14.00">PostsService </text>
</g>
<!-- PostsModule&#45;&gt;PostsService  -->
<g id="edge21" class="edge">
<title>PostsModule&#45;&gt;PostsService </title>
<path fill="none" stroke="black" stroke-dasharray="5,2" d="M1780,-266.22C1780,-266.22 1780,-287.73 1780,-287.73"/>
<polygon fill="black" stroke="black" points="1776.5,-287.73 1780,-297.73 1783.5,-287.73 1776.5,-287.73"/>
</g>
<!-- TagsModule -->
<g id="node5" class="node">
<title>TagsModule</title>
<polygon fill="#8dd3c7" stroke="black" points="1702.26,-198 1699.26,-202 1678.26,-202 1675.26,-198 1615.74,-198 1615.74,-162 1702.26,-162 1702.26,-198"/>
<text text-anchor="middle" x="1659" y="-175.8" font-family="Times,serif" font-size="14.00">TagsModule</text>
</g>
<!-- TagsModule&#45;&gt;PostsModule -->
<g id="edge19" class="edge">
<title>TagsModule&#45;&gt;PostsModule</title>
<path fill="none" stroke="black" d="M1673.46,-198.27C1673.46,-216.56 1673.46,-242 1673.46,-242 1673.46,-242 1725.43,-242 1725.43,-242"/>
<polygon fill="black" stroke="black" points="1725.43,-245.5 1735.43,-242 1725.43,-238.5 1725.43,-245.5"/>
</g>
<!-- TagsModule&#45;&gt;AppModule -->
<g id="edge5" class="edge">
<title>TagsModule&#45;&gt;AppModule</title>
<path fill="none" stroke="black" d="M1644.54,-198.2C1644.54,-233.31 1644.54,-307 1644.54,-307 1644.54,-307 1581.68,-307 1581.68,-307"/>
<polygon fill="black" stroke="black" points="1581.68,-303.5 1571.68,-307 1581.68,-310.5 1581.68,-303.5"/>
</g>
<!-- TagsService  -->
<g id="node20" class="node">
<title>TagsService </title>
<polygon fill="#fb8072" stroke="black" points="1074.19,-266 985.81,-266 985.81,-230 1074.19,-230 1074.19,-266"/>
<text text-anchor="middle" x="1030" y="-243.8" font-family="Times,serif" font-size="14.00">TagsService </text>
</g>
<!-- TagsModule&#45;&gt;TagsService  -->
<g id="edge23" class="edge">
<title>TagsModule&#45;&gt;TagsService </title>
<path fill="none" stroke="black" stroke-dasharray="5,2" d="M1615.27,-186C1472.63,-186 1030,-186 1030,-186 1030,-186 1030,-219.73 1030,-219.73"/>
<polygon fill="black" stroke="black" points="1026.5,-219.73 1030,-229.73 1033.5,-219.73 1026.5,-219.73"/>
</g>
<!-- UserModule -->
<g id="node6" class="node">
<title>UserModule</title>
<polygon fill="#8dd3c7" stroke="black" points="1943.98,-198 1940.98,-202 1919.98,-202 1916.98,-198 1858.02,-198 1858.02,-162 1943.98,-162 1943.98,-198"/>
<text text-anchor="middle" x="1901" y="-175.8" font-family="Times,serif" font-size="14.00">UserModule</text>
</g>
<!-- UserModule&#45;&gt;PostsModule -->
<g id="edge20" class="edge">
<title>UserModule&#45;&gt;PostsModule</title>
<path fill="none" stroke="black" d="M1886.67,-198.27C1886.67,-216.56 1886.67,-242 1886.67,-242 1886.67,-242 1834.62,-242 1834.62,-242"/>
<polygon fill="black" stroke="black" points="1834.62,-238.5 1824.62,-242 1834.62,-245.5 1834.62,-238.5"/>
</g>
<!-- UserModule&#45;&gt;AppModule -->
<g id="edge6" class="edge">
<title>UserModule&#45;&gt;AppModule</title>
<path fill="none" stroke="black" d="M1915.33,-198.32C1915.33,-229.13 1915.33,-288 1915.33,-288 1915.33,-288 1550.91,-288 1550.91,-288 1550.91,-288 1550.91,-288.98 1550.91,-288.98"/>
<polygon fill="black" stroke="black" points="1547.41,-287.79 1550.91,-297.79 1554.41,-287.79 1547.41,-287.79"/>
</g>
<!-- UserService  -->
<g id="node22" class="node">
<title>UserService </title>
<polygon fill="#fb8072" stroke="black" points="1706.9,-122 1619.1,-122 1619.1,-86 1706.9,-86 1706.9,-122"/>
<text text-anchor="middle" x="1663" y="-99.8" font-family="Times,serif" font-size="14.00">UserService </text>
</g>
<!-- UserModule&#45;&gt;UserService  -->
<g id="edge25" class="edge">
<title>UserModule&#45;&gt;UserService </title>
<path fill="none" stroke="black" stroke-dasharray="5,2" d="M1874.25,-161.85C1874.25,-149.73 1874.25,-136 1874.25,-136 1874.25,-136 1660.71,-136 1660.71,-136 1660.71,-136 1660.71,-132.24 1660.71,-132.24"/>
<polygon fill="black" stroke="black" points="1664.21,-132.24 1660.71,-122.24 1657.21,-132.24 1664.21,-132.24"/>
</g>
<!-- AppService -->
<g id="node8" class="node">
<title>AppService</title>
<ellipse fill="#fdb462" stroke="black" cx="1519" cy="-248" rx="56.74" ry="18"/>
<text text-anchor="middle" x="1519" y="-243.8" font-family="Times,serif" font-size="14.00">AppService</text>
</g>
<!-- AppService&#45;&gt;AppModule -->
<g id="edge7" class="edge">
<title>AppService&#45;&gt;AppModule</title>
<path fill="none" stroke="black" d="M1530,-265.87C1530,-265.87 1530,-287.54 1530,-287.54"/>
<polygon fill="black" stroke="black" points="1526.5,-287.54 1530,-297.54 1533.5,-287.54 1526.5,-287.54"/>
</g>
<!-- PaginationService -->
<g id="node9" class="node">
<title>PaginationService</title>
<ellipse fill="#fdb462" stroke="black" cx="1341" cy="-248" rx="81.1" ry="18"/>
<text text-anchor="middle" x="1341" y="-243.8" font-family="Times,serif" font-size="14.00">PaginationService</text>
</g>
<!-- PaginationService&#45;&gt;PaginationModule -->
<g id="edge17" class="edge">
<title>PaginationService&#45;&gt;PaginationModule</title>
<path fill="none" stroke="black" d="M1341,-229.79C1341,-224.45 1341,-220 1341,-220 1341,-220 1727.38,-220 1727.38,-220 1727.38,-220 1727.38,-208.13 1727.38,-208.13"/>
<polygon fill="black" stroke="black" points="1730.88,-208.13 1727.38,-198.13 1723.88,-208.13 1730.88,-208.13"/>
</g>
<!-- PaginationService&#45;&gt;AppModule -->
<g id="edge8" class="edge">
<title>PaginationService&#45;&gt;AppModule</title>
<path fill="none" stroke="black" d="M1341,-266.27C1341,-284.56 1341,-310 1341,-310 1341,-310 1478.05,-310 1478.05,-310"/>
<polygon fill="black" stroke="black" points="1478.05,-313.5 1488.05,-310 1478.05,-306.5 1478.05,-313.5"/>
</g>
<!-- AuthService -->
<g id="node12" class="node">
<title>AuthService</title>
<ellipse fill="#fdb462" stroke="black" cx="309" cy="-180" rx="59.11" ry="18"/>
<text text-anchor="middle" x="309" y="-175.8" font-family="Times,serif" font-size="14.00">AuthService</text>
</g>
<!-- AuthService&#45;&gt;AuthModule -->
<g id="edge11" class="edge">
<title>AuthService&#45;&gt;AuthModule</title>
<path fill="none" stroke="black" d="M341.27,-195.43C341.27,-195.43 341.27,-219.74 341.27,-219.74"/>
<polygon fill="black" stroke="black" points="337.77,-219.74 341.27,-229.74 344.77,-219.74 337.77,-219.74"/>
</g>
<!-- GenerateTokenProvider -->
<g id="node13" class="node">
<title>GenerateTokenProvider</title>
<ellipse fill="#fdb462" stroke="black" cx="128" cy="-180" rx="103.61" ry="18"/>
<text text-anchor="middle" x="128" y="-175.8" font-family="Times,serif" font-size="14.00">GenerateTokenProvider</text>
</g>
<!-- GenerateTokenProvider&#45;&gt;AuthModule -->
<g id="edge12" class="edge">
<title>GenerateTokenProvider&#45;&gt;AuthModule</title>
<path fill="none" stroke="black" d="M128,-198.22C128,-218.37 128,-248 128,-248 128,-248 304.2,-248 304.2,-248"/>
<polygon fill="black" stroke="black" points="304.2,-251.5 314.2,-248 304.2,-244.5 304.2,-251.5"/>
</g>
<!-- RefreshTokenProvider -->
<g id="node14" class="node">
<title>RefreshTokenProvider</title>
<ellipse fill="#fdb462" stroke="black" cx="485" cy="-180" rx="98.98" ry="18"/>
<text text-anchor="middle" x="485" y="-175.8" font-family="Times,serif" font-size="14.00">RefreshTokenProvider</text>
</g>
<!-- RefreshTokenProvider&#45;&gt;AuthModule -->
<g id="edge13" class="edge">
<title>RefreshTokenProvider&#45;&gt;AuthModule</title>
<path fill="none" stroke="black" d="M393.89,-187.28C393.89,-187.28 393.89,-219.83 393.89,-219.83"/>
<polygon fill="black" stroke="black" points="390.39,-219.83 393.89,-229.83 397.39,-219.83 390.39,-219.83"/>
</g>
<!-- MetaOptionsService -->
<g id="node16" class="node">
<title>MetaOptionsService</title>
<ellipse fill="#fdb462" stroke="black" cx="714" cy="-180" rx="90.33" ry="18"/>
<text text-anchor="middle" x="714" y="-175.8" font-family="Times,serif" font-size="14.00">MetaOptionsService</text>
</g>
<!-- MetaOptionsService&#45;&gt;MetaOptionsModule -->
<g id="edge15" class="edge">
<title>MetaOptionsService&#45;&gt;MetaOptionsModule</title>
<path fill="none" stroke="black" d="M725,-198.22C725,-198.22 725,-219.73 725,-219.73"/>
<polygon fill="black" stroke="black" points="721.5,-219.73 725,-229.73 728.5,-219.73 721.5,-219.73"/>
</g>
<!-- PostsService -->
<g id="node19" class="node">
<title>PostsService</title>
<ellipse fill="#fdb462" stroke="black" cx="2028" cy="-180" rx="60.27" ry="18"/>
<text text-anchor="middle" x="2028" y="-175.8" font-family="Times,serif" font-size="14.00">PostsService</text>
</g>
<!-- PostsService&#45;&gt;PostsModule -->
<g id="edge22" class="edge">
<title>PostsService&#45;&gt;PostsModule</title>
<path fill="none" stroke="black" d="M2028,-198.29C2028,-220.21 2028,-254 2028,-254 2028,-254 1834.62,-254 1834.62,-254"/>
<polygon fill="black" stroke="black" points="1834.62,-250.5 1824.62,-254 1834.62,-257.5 1834.62,-250.5"/>
</g>
<!-- TagsService -->
<g id="node21" class="node">
<title>TagsService</title>
<ellipse fill="#fdb462" stroke="black" cx="903" cy="-248" rx="58.53" ry="18"/>
<text text-anchor="middle" x="903" y="-243.8" font-family="Times,serif" font-size="14.00">TagsService</text>
</g>
<!-- TagsService&#45;&gt;TagsModule -->
<g id="edge24" class="edge">
<title>TagsService&#45;&gt;TagsModule</title>
<path fill="none" stroke="black" d="M903,-229.71C903,-207.79 903,-174 903,-174 903,-174 1605.64,-174 1605.64,-174"/>
<polygon fill="black" stroke="black" points="1605.64,-177.5 1615.64,-174 1605.64,-170.5 1605.64,-177.5"/>
</g>
<!-- CreateUserProvider -->
<g id="node23" class="node">
<title>CreateUserProvider</title>
<ellipse fill="#fdb462" stroke="black" cx="1819" cy="-104" rx="87.94" ry="18"/>
<text text-anchor="middle" x="1819" y="-99.8" font-family="Times,serif" font-size="14.00">CreateUserProvider</text>
</g>
<!-- CreateUserProvider&#45;&gt;UserModule -->
<g id="edge26" class="edge">
<title>CreateUserProvider&#45;&gt;UserModule</title>
<path fill="none" stroke="black" d="M1890.48,-114.57C1890.48,-114.57 1890.48,-151.93 1890.48,-151.93"/>
<polygon fill="black" stroke="black" points="1886.98,-151.93 1890.48,-161.93 1893.98,-151.93 1886.98,-151.93"/>
</g>
<!-- UserCreateMany -->
<g id="node24" class="node">
<title>UserCreateMany</title>
<ellipse fill="#fdb462" stroke="black" cx="2136" cy="-104" rx="76.98" ry="18"/>
<text text-anchor="middle" x="2136" y="-99.8" font-family="Times,serif" font-size="14.00">UserCreateMany</text>
</g>
<!-- UserCreateMany&#45;&gt;UserModule -->
<g id="edge27" class="edge">
<title>UserCreateMany&#45;&gt;UserModule</title>
<path fill="none" stroke="black" d="M2073.7,-114.89C2073.7,-128.21 2073.7,-149 2073.7,-149 2073.7,-149 1937.59,-149 1937.59,-149 1937.59,-149 1937.59,-151.97 1937.59,-151.97"/>
<polygon fill="black" stroke="black" points="1934.09,-151.97 1937.59,-161.97 1941.09,-151.97 1934.09,-151.97"/>
</g>
<!-- UserService -->
<g id="node25" class="node">
<title>UserService</title>
<ellipse fill="#fdb462" stroke="black" cx="1983" cy="-104" rx="58.44" ry="18"/>
<text text-anchor="middle" x="1983" y="-99.8" font-family="Times,serif" font-size="14.00">UserService</text>
</g>
<!-- UserService&#45;&gt;UserModule -->
<g id="edge28" class="edge">
<title>UserService&#45;&gt;UserModule</title>
<path fill="none" stroke="black" d="M1931.18,-112.42C1931.18,-112.42 1931.18,-151.73 1931.18,-151.73"/>
<polygon fill="black" stroke="black" points="1927.68,-151.73 1931.18,-161.73 1934.68,-151.73 1927.68,-151.73"/>
</g>
</g>
</svg>
