<?xml version="1.0" encoding="UTF-8" standalone="no"?>
<!DOCTYPE svg PUBLIC "-//W3C//DTD SVG 1.1//EN"
 "http://www.w3.org/Graphics/SVG/1.1/DTD/svg11.dtd">
<!-- Generated by graphviz version 2.47.0 (20210316.0004)
 -->
<!-- Title: dependencies Pages: 1 -->
<svg width="1506pt" height="366pt"
 viewBox="0.00 0.00 1506.00 366.00" xmlns="http://www.w3.org/2000/svg" xmlns:xlink="http://www.w3.org/1999/xlink">
<g id="graph0" class="graph" transform="scale(1 1) rotate(0) translate(4 362)">
<title>dependencies</title>
<polygon fill="white" stroke="transparent" points="-4,4 -4,-362 1502,-362 1502,4 -4,4"/>
<text text-anchor="start" x="728.01" y="-42.4" font-family="Times-12" font-weight="bold" font-size="14.00">Legend</text>
<polygon fill="#ffffb3" stroke="transparent" points="515,-10 515,-30 535,-30 535,-10 515,-10"/>
<text text-anchor="start" x="538.63" y="-15.4" font-family="Times-12" font-size="14.00"> &#160;Declarations</text>
<polygon fill="#8dd3c7" stroke="transparent" points="628,-10 628,-30 648,-30 648,-10 628,-10"/>
<text text-anchor="start" x="651.73" y="-15.4" font-family="Times-12" font-size="14.00"> &#160;Module</text>
<polygon fill="#80b1d3" stroke="transparent" points="714,-10 714,-30 734,-30 734,-10 714,-10"/>
<text text-anchor="start" x="737.78" y="-15.4" font-family="Times-12" font-size="14.00"> &#160;Bootstrap</text>
<polygon fill="#fdb462" stroke="transparent" points="811,-10 811,-30 831,-30 831,-10 811,-10"/>
<text text-anchor="start" x="834.67" y="-15.4" font-family="Times-12" font-size="14.00"> &#160;Providers</text>
<polygon fill="#fb8072" stroke="transparent" points="907,-10 907,-30 927,-30 927,-10 907,-10"/>
<text text-anchor="start" x="930.73" y="-15.4" font-family="Times-12" font-size="14.00"> &#160;Exports</text>
<g id="clust31" class="cluster">
<title>cluster_TagsModule</title>
<polygon fill="none" stroke="black" stroke-dasharray="1,5" points="792,-70 792,-274 942,-274 942,-70 792,-70"/>
</g>
<g id="clust34" class="cluster">
<title>cluster_TagsModule_exports</title>
<polygon fill="none" stroke="black" points="800,-214 800,-266 904,-266 904,-214 800,-214"/>
</g>
<g id="clust36" class="cluster">
<title>cluster_TagsModule_providers</title>
<polygon fill="none" stroke="black" points="800,-78 800,-130 934,-130 934,-78 800,-78"/>
</g>
<g id="clust37" class="cluster">
<title>cluster_UserModule</title>
<polygon fill="none" stroke="black" stroke-dasharray="1,5" points="950,-70 950,-274 1270,-274 1270,-70 950,-70"/>
</g>
<g id="clust40" class="cluster">
<title>cluster_UserModule_exports</title>
<polygon fill="none" stroke="black" points="980,-214 980,-266 1084,-266 1084,-214 980,-214"/>
</g>
<g id="clust42" class="cluster">
<title>cluster_UserModule_providers</title>
<polygon fill="none" stroke="black" points="958,-78 958,-130 1262,-130 1262,-78 958,-78"/>
</g>
<g id="clust7" class="cluster">
<title>cluster_AuthModule</title>
<polygon fill="none" stroke="black" stroke-dasharray="1,5" points="8,-138 8,-350 262,-350 262,-138 8,-138"/>
</g>
<g id="clust12" class="cluster">
<title>cluster_AuthModule_providers</title>
<polygon fill="none" stroke="black" points="120,-146 120,-198 254,-198 254,-146 120,-146"/>
</g>
<g id="clust10" class="cluster">
<title>cluster_AuthModule_exports</title>
<polygon fill="none" stroke="black" points="16,-290 16,-342 254,-342 254,-290 16,-290"/>
</g>
<g id="clust19" class="cluster">
<title>cluster_PaginationModule</title>
<polygon fill="none" stroke="black" stroke-dasharray="1,5" points="270,-70 270,-274 464,-274 464,-70 270,-70"/>
</g>
<g id="clust24" class="cluster">
<title>cluster_PaginationModule_providers</title>
<polygon fill="none" stroke="black" points="278,-78 278,-130 456,-130 456,-78 278,-78"/>
</g>
<g id="clust22" class="cluster">
<title>cluster_PaginationModule_exports</title>
<polygon fill="none" stroke="black" points="278,-214 278,-266 416,-266 416,-214 278,-214"/>
</g>
<g id="clust13" class="cluster">
<title>cluster_MetaOptionsModule</title>
<polygon fill="none" stroke="black" stroke-dasharray="1,5" points="1278,-138 1278,-350 1490,-350 1490,-138 1278,-138"/>
</g>
<g id="clust16" class="cluster">
<title>cluster_MetaOptionsModule_exports</title>
<polygon fill="none" stroke="black" points="1297,-290 1297,-342 1447,-342 1447,-290 1297,-290"/>
</g>
<g id="clust18" class="cluster">
<title>cluster_MetaOptionsModule_providers</title>
<polygon fill="none" stroke="black" points="1286,-146 1286,-198 1482,-198 1482,-146 1286,-146"/>
</g>
<g id="clust1" class="cluster">
<title>cluster_AppModule</title>
<polygon fill="none" stroke="black" stroke-dasharray="1,5" points="524,-206 524,-342 784,-342 784,-206 524,-206"/>
</g>
<g id="clust6" class="cluster">
<title>cluster_AppModule_providers</title>
<polygon fill="none" stroke="black" points="532,-214 532,-266 662,-266 662,-214 532,-214"/>
</g>
<g id="clust3" class="cluster">
<title>cluster_AppModule_imports</title>
<polygon fill="none" stroke="black" points="670,-214 670,-266 776,-266 776,-214 670,-214"/>
</g>
<g id="clust25" class="cluster">
<title>cluster_PostsModule</title>
<polygon fill="none" stroke="black" stroke-dasharray="1,5" points="792,-282 792,-350 1060,-350 1060,-282 792,-282"/>
</g>
<g id="clust28" class="cluster">
<title>cluster_PostsModule_exports</title>
<polygon fill="none" stroke="black" points="944,-290 944,-342 1052,-342 1052,-290 944,-290"/>
</g>
<g id="clust30" class="cluster">
<title>cluster_PostsModule_providers</title>
<polygon fill="none" stroke="black" points="800,-290 800,-342 936,-342 936,-290 800,-290"/>
</g>
<!-- AuthModule -->
<g id="node1" class="node">
<title>AuthModule</title>
<polygon fill="#8dd3c7" stroke="black" points="237.55,-258 234.55,-262 213.55,-262 210.55,-258 150.45,-258 150.45,-222 237.55,-222 237.55,-258"/>
<text text-anchor="middle" x="194" y="-235.8" font-family="Times,serif" font-size="14.00">AuthModule</text>
</g>
<!-- AppModule -->
<g id="node7" class="node">
<title>AppModule</title>
<polygon fill="#8dd3c7" stroke="black" points="626.66,-334 623.66,-338 602.66,-338 599.66,-334 543.34,-334 543.34,-298 626.66,-298 626.66,-334"/>
<text text-anchor="middle" x="585" y="-311.8" font-family="Times,serif" font-size="14.00">AppModule</text>
</g>
<!-- AuthModule&#45;&gt;AppModule -->
<g id="edge1" class="edge">
<title>AuthModule&#45;&gt;AppModule</title>
<path fill="none" stroke="black" d="M237.96,-240C252.95,-240 266,-240 266,-240 266,-240 266,-325 266,-325 266,-325 533.3,-325 533.3,-325"/>
<polygon fill="black" stroke="black" points="533.3,-328.5 543.3,-325 533.3,-321.5 533.3,-328.5"/>
</g>
<!-- AuthService  -->
<g id="node10" class="node">
<title>AuthService </title>
<polygon fill="#fb8072" stroke="black" points="245.98,-334 156.02,-334 156.02,-298 245.98,-298 245.98,-334"/>
<text text-anchor="middle" x="201" y="-311.8" font-family="Times,serif" font-size="14.00">AuthService </text>
</g>
<!-- AuthModule&#45;&gt;AuthService  -->
<g id="edge9" class="edge">
<title>AuthModule&#45;&gt;AuthService </title>
<path fill="none" stroke="black" stroke-dasharray="5,2" d="M197.02,-258.01C197.02,-258.01 197.02,-287.85 197.02,-287.85"/>
<polygon fill="black" stroke="black" points="193.52,-287.85 197.02,-297.85 200.52,-287.85 193.52,-287.85"/>
</g>
<!-- HashingProvider  -->
<g id="node11" class="node">
<title>HashingProvider </title>
<polygon fill="#fb8072" stroke="black" points="138.37,-334 23.63,-334 23.63,-298 138.37,-298 138.37,-334"/>
<text text-anchor="middle" x="81" y="-311.8" font-family="Times,serif" font-size="14.00">HashingProvider </text>
</g>
<!-- AuthModule&#45;&gt;HashingProvider  -->
<g id="edge10" class="edge">
<title>AuthModule&#45;&gt;HashingProvider </title>
<path fill="none" stroke="black" stroke-dasharray="5,2" d="M150.27,-240C140.49,-240 132.94,-240 132.94,-240 132.94,-240 132.94,-287.99 132.94,-287.99"/>
<polygon fill="black" stroke="black" points="129.44,-287.99 132.94,-297.99 136.44,-287.99 129.44,-287.99"/>
</g>
<!-- MetaOptionsModule -->
<g id="node2" class="node">
<title>MetaOptionsModule</title>
<polygon fill="#8dd3c7" stroke="black" points="1438.15,-258 1435.15,-262 1414.15,-262 1411.15,-258 1305.85,-258 1305.85,-222 1438.15,-222 1438.15,-258"/>
<text text-anchor="middle" x="1372" y="-235.8" font-family="Times,serif" font-size="14.00">MetaOptionsModule</text>
</g>
<!-- MetaOptionsModule&#45;&gt;AppModule -->
<g id="edge2" class="edge">
<title>MetaOptionsModule&#45;&gt;AppModule</title>
<path fill="none" stroke="black" d="M1349.89,-258.11C1349.89,-267.9 1349.89,-278 1349.89,-278 1349.89,-278 605.91,-278 605.91,-278 605.91,-278 605.91,-287.89 605.91,-287.89"/>
<polygon fill="black" stroke="black" points="602.41,-287.89 605.91,-297.89 609.41,-287.89 602.41,-287.89"/>
</g>
<!-- MetaOptionsService  -->
<g id="node13" class="node">
<title>MetaOptionsService </title>
<polygon fill="#fb8072" stroke="black" points="1439.08,-334 1304.92,-334 1304.92,-298 1439.08,-298 1439.08,-334"/>
<text text-anchor="middle" x="1372" y="-311.8" font-family="Times,serif" font-size="14.00">MetaOptionsService </text>
</g>
<!-- MetaOptionsModule&#45;&gt;MetaOptionsService  -->
<g id="edge12" class="edge">
<title>MetaOptionsModule&#45;&gt;MetaOptionsService </title>
<path fill="none" stroke="black" stroke-dasharray="5,2" d="M1394.11,-258.01C1394.11,-258.01 1394.11,-287.85 1394.11,-287.85"/>
<polygon fill="black" stroke="black" points="1390.61,-287.85 1394.11,-297.85 1397.61,-287.85 1390.61,-287.85"/>
</g>
<!-- PaginationModule -->
<g id="node3" class="node">
<title>PaginationModule</title>
<polygon fill="#8dd3c7" stroke="black" points="435.93,-190 432.93,-194 411.93,-194 408.93,-190 316.07,-190 316.07,-154 435.93,-154 435.93,-190"/>
<text text-anchor="middle" x="376" y="-167.8" font-family="Times,serif" font-size="14.00">PaginationModule</text>
</g>
<!-- PostsModule -->
<g id="node4" class="node">
<title>PostsModule</title>
<polygon fill="#8dd3c7" stroke="black" points="767.61,-258 764.61,-262 743.61,-262 740.61,-258 678.39,-258 678.39,-222 767.61,-222 767.61,-258"/>
<text text-anchor="middle" x="723" y="-235.8" font-family="Times,serif" font-size="14.00">PostsModule</text>
</g>
<!-- PaginationModule&#45;&gt;PostsModule -->
<g id="edge16" class="edge">
<title>PaginationModule&#45;&gt;PostsModule</title>
<path fill="none" stroke="black" d="M435.94,-163C529.76,-163 700.72,-163 700.72,-163 700.72,-163 700.72,-211.75 700.72,-211.75"/>
<polygon fill="black" stroke="black" points="697.22,-211.75 700.72,-221.75 704.22,-211.75 697.22,-211.75"/>
</g>
<!-- PaginationModule&#45;&gt;AppModule -->
<g id="edge3" class="edge">
<title>PaginationModule&#45;&gt;AppModule</title>
<path fill="none" stroke="black" d="M421.7,-190.24C421.7,-228.99 421.7,-316 421.7,-316 421.7,-316 532.95,-316 532.95,-316"/>
<polygon fill="black" stroke="black" points="532.95,-319.5 542.95,-316 532.95,-312.5 532.95,-319.5"/>
</g>
<!-- PaginationService  -->
<g id="node15" class="node">
<title>PaginationService </title>
<polygon fill="#fb8072" stroke="black" points="407.86,-258 286.14,-258 286.14,-222 407.86,-222 407.86,-258"/>
<text text-anchor="middle" x="347" y="-235.8" font-family="Times,serif" font-size="14.00">PaginationService </text>
</g>
<!-- PaginationModule&#45;&gt;PaginationService  -->
<g id="edge14" class="edge">
<title>PaginationModule&#45;&gt;PaginationService </title>
<path fill="none" stroke="black" stroke-dasharray="5,2" d="M361.98,-190.22C361.98,-190.22 361.98,-211.73 361.98,-211.73"/>
<polygon fill="black" stroke="black" points="358.48,-211.73 361.98,-221.73 365.48,-211.73 358.48,-211.73"/>
</g>
<!-- PostsModule&#45;&gt;AppModule -->
<g id="edge4" class="edge">
<title>PostsModule&#45;&gt;AppModule</title>
<path fill="none" stroke="black" d="M723,-258.01C723,-280.49 723,-316 723,-316 723,-316 636.78,-316 636.78,-316"/>
<polygon fill="black" stroke="black" points="636.78,-312.5 626.78,-316 636.78,-319.5 636.78,-312.5"/>
</g>
<!-- PostsService  -->
<g id="node16" class="node">
<title>PostsService </title>
<polygon fill="#fb8072" stroke="black" points="1043.54,-334 952.46,-334 952.46,-298 1043.54,-298 1043.54,-334"/>
<text text-anchor="middle" x="998" y="-311.8" font-family="Times,serif" font-size="14.00">PostsService </text>
</g>
<!-- PostsModule&#45;&gt;PostsService  -->
<g id="edge19" class="edge">
<title>PostsModule&#45;&gt;PostsService </title>
<path fill="none" stroke="black" stroke-dasharray="5,2" d="M700.72,-258.15C700.72,-271.74 700.72,-288 700.72,-288 700.72,-288 959.13,-288 959.13,-288 959.13,-288 959.13,-288.98 959.13,-288.98"/>
<polygon fill="black" stroke="black" points="955.63,-287.79 959.13,-297.79 962.63,-287.79 955.63,-287.79"/>
</g>
<!-- TagsModule -->
<g id="node5" class="node">
<title>TagsModule</title>
<polygon fill="#8dd3c7" stroke="black" points="890.26,-190 887.26,-194 866.26,-194 863.26,-190 803.74,-190 803.74,-154 890.26,-154 890.26,-190"/>
<text text-anchor="middle" x="847" y="-167.8" font-family="Times,serif" font-size="14.00">TagsModule</text>
</g>
<!-- TagsModule&#45;&gt;PostsModule -->
<g id="edge17" class="edge">
<title>TagsModule&#45;&gt;PostsModule</title>
<path fill="none" stroke="black" d="M803.63,-181C767.87,-181 723,-181 723,-181 723,-181 723,-211.98 723,-211.98"/>
<polygon fill="black" stroke="black" points="719.5,-211.98 723,-221.98 726.5,-211.98 719.5,-211.98"/>
</g>
<!-- TagsModule&#45;&gt;AppModule -->
<g id="edge5" class="edge">
<title>TagsModule&#45;&gt;AppModule</title>
<path fill="none" stroke="black" d="M803.68,-172C793.52,-172 785.59,-172 785.59,-172 785.59,-172 785.59,-325 785.59,-325 785.59,-325 637.05,-325 637.05,-325"/>
<polygon fill="black" stroke="black" points="637.05,-321.5 627.05,-325 637.05,-328.5 637.05,-321.5"/>
</g>
<!-- TagsService  -->
<g id="node18" class="node">
<title>TagsService </title>
<polygon fill="#fb8072" stroke="black" points="896.19,-258 807.81,-258 807.81,-222 896.19,-222 896.19,-258"/>
<text text-anchor="middle" x="852" y="-235.8" font-family="Times,serif" font-size="14.00">TagsService </text>
</g>
<!-- TagsModule&#45;&gt;TagsService  -->
<g id="edge21" class="edge">
<title>TagsModule&#45;&gt;TagsService </title>
<path fill="none" stroke="black" stroke-dasharray="5,2" d="M849.02,-190.22C849.02,-190.22 849.02,-211.73 849.02,-211.73"/>
<polygon fill="black" stroke="black" points="845.52,-211.73 849.02,-221.73 852.52,-211.73 845.52,-211.73"/>
</g>
<!-- UserModule -->
<g id="node6" class="node">
<title>UserModule</title>
<polygon fill="#8dd3c7" stroke="black" points="1066.98,-190 1063.98,-194 1042.98,-194 1039.98,-190 981.02,-190 981.02,-154 1066.98,-154 1066.98,-190"/>
<text text-anchor="middle" x="1024" y="-167.8" font-family="Times,serif" font-size="14.00">UserModule</text>
</g>
<!-- UserModule&#45;&gt;PostsModule -->
<g id="edge18" class="edge">
<title>UserModule&#45;&gt;PostsModule</title>
<path fill="none" stroke="black" d="M983.36,-190.19C983.36,-198.28 983.36,-206 983.36,-206 983.36,-206 745.28,-206 745.28,-206 745.28,-206 745.28,-211.81 745.28,-211.81"/>
<polygon fill="black" stroke="black" points="741.78,-211.81 745.28,-221.81 748.78,-211.81 741.78,-211.81"/>
</g>
<!-- UserModule&#45;&gt;AppModule -->
<g id="edge6" class="edge">
<title>UserModule&#45;&gt;AppModule</title>
<path fill="none" stroke="black" d="M985.7,-190.06C985.7,-217.87 985.7,-268 985.7,-268 985.7,-268 585,-268 585,-268 585,-268 585,-287.85 585,-287.85"/>
<polygon fill="black" stroke="black" points="581.5,-287.85 585,-297.85 588.5,-287.85 581.5,-287.85"/>
</g>
<!-- UserService  -->
<g id="node20" class="node">
<title>UserService </title>
<polygon fill="#fb8072" stroke="black" points="1075.9,-258 988.1,-258 988.1,-222 1075.9,-222 1075.9,-258"/>
<text text-anchor="middle" x="1032" y="-235.8" font-family="Times,serif" font-size="14.00">UserService </text>
</g>
<!-- UserModule&#45;&gt;UserService  -->
<g id="edge23" class="edge">
<title>UserModule&#45;&gt;UserService </title>
<path fill="none" stroke="black" stroke-dasharray="5,2" d="M1027.52,-190.22C1027.52,-190.22 1027.52,-211.73 1027.52,-211.73"/>
<polygon fill="black" stroke="black" points="1024.02,-211.73 1027.52,-221.73 1031.02,-211.73 1024.02,-211.73"/>
</g>
<!-- AppService -->
<g id="node8" class="node">
<title>AppService</title>
<ellipse fill="#fdb462" stroke="black" cx="597" cy="-240" rx="56.74" ry="18"/>
<text text-anchor="middle" x="597" y="-235.8" font-family="Times,serif" font-size="14.00">AppService</text>
</g>
<!-- AppService&#45;&gt;AppModule -->
<g id="edge7" class="edge">
<title>AppService&#45;&gt;AppModule</title>
<path fill="none" stroke="black" d="M564.09,-254.65C564.09,-254.65 564.09,-287.9 564.09,-287.9"/>
<polygon fill="black" stroke="black" points="560.59,-287.9 564.09,-297.9 567.59,-287.9 560.59,-287.9"/>
</g>
<!-- PaginationService -->
<g id="node9" class="node">
<title>PaginationService</title>
<ellipse fill="#fdb462" stroke="black" cx="367" cy="-104" rx="81.1" ry="18"/>
<text text-anchor="middle" x="367" y="-99.8" font-family="Times,serif" font-size="14.00">PaginationService</text>
</g>
<!-- PaginationService&#45;&gt;PaginationModule -->
<g id="edge15" class="edge">
<title>PaginationService&#45;&gt;PaginationModule</title>
<path fill="none" stroke="black" d="M376,-122.22C376,-122.22 376,-143.73 376,-143.73"/>
<polygon fill="black" stroke="black" points="372.5,-143.73 376,-153.73 379.5,-143.73 372.5,-143.73"/>
</g>
<!-- PaginationService&#45;&gt;AppModule -->
<g id="edge8" class="edge">
<title>PaginationService&#45;&gt;AppModule</title>
<path fill="none" stroke="black" d="M442.01,-111.22C442.01,-147.39 442.01,-307 442.01,-307 442.01,-307 533.26,-307 533.26,-307"/>
<polygon fill="black" stroke="black" points="533.26,-310.5 543.26,-307 533.26,-303.5 533.26,-310.5"/>
</g>
<!-- AuthService -->
<g id="node12" class="node">
<title>AuthService</title>
<ellipse fill="#fdb462" stroke="black" cx="187" cy="-172" rx="59.11" ry="18"/>
<text text-anchor="middle" x="187" y="-167.8" font-family="Times,serif" font-size="14.00">AuthService</text>
</g>
<!-- AuthService&#45;&gt;AuthModule -->
<g id="edge11" class="edge">
<title>AuthService&#45;&gt;AuthModule</title>
<path fill="none" stroke="black" d="M194,-190.22C194,-190.22 194,-211.73 194,-211.73"/>
<polygon fill="black" stroke="black" points="190.5,-211.73 194,-221.73 197.5,-211.73 190.5,-211.73"/>
</g>
<!-- MetaOptionsService -->
<g id="node14" class="node">
<title>MetaOptionsService</title>
<ellipse fill="#fdb462" stroke="black" cx="1384" cy="-172" rx="90.33" ry="18"/>
<text text-anchor="middle" x="1384" y="-167.8" font-family="Times,serif" font-size="14.00">MetaOptionsService</text>
</g>
<!-- MetaOptionsService&#45;&gt;MetaOptionsModule -->
<g id="edge13" class="edge">
<title>MetaOptionsService&#45;&gt;MetaOptionsModule</title>
<path fill="none" stroke="black" d="M1372,-189.87C1372,-189.87 1372,-211.54 1372,-211.54"/>
<polygon fill="black" stroke="black" points="1368.5,-211.54 1372,-221.54 1375.5,-211.54 1368.5,-211.54"/>
</g>
<!-- PostsService -->
<g id="node17" class="node">
<title>PostsService</title>
<ellipse fill="#fdb462" stroke="black" cx="868" cy="-316" rx="60.27" ry="18"/>
<text text-anchor="middle" x="868" y="-311.8" font-family="Times,serif" font-size="14.00">PostsService</text>
</g>
<!-- PostsService&#45;&gt;PostsModule -->
<g id="edge20" class="edge">
<title>PostsService&#45;&gt;PostsModule</title>
<path fill="none" stroke="black" d="M815.6,-307C782.24,-307 745.28,-307 745.28,-307 745.28,-307 745.28,-268.31 745.28,-268.31"/>
<polygon fill="black" stroke="black" points="748.78,-268.31 745.28,-258.31 741.78,-268.31 748.78,-268.31"/>
</g>
<!-- TagsService -->
<g id="node19" class="node">
<title>TagsService</title>
<ellipse fill="#fdb462" stroke="black" cx="867" cy="-104" rx="58.53" ry="18"/>
<text text-anchor="middle" x="867" y="-99.8" font-family="Times,serif" font-size="14.00">TagsService</text>
</g>
<!-- TagsService&#45;&gt;TagsModule -->
<g id="edge22" class="edge">
<title>TagsService&#45;&gt;TagsModule</title>
<path fill="none" stroke="black" d="M849.31,-121.51C849.31,-121.51 849.31,-143.84 849.31,-143.84"/>
<polygon fill="black" stroke="black" points="845.81,-143.84 849.31,-153.84 852.81,-143.84 845.81,-143.84"/>
</g>
<!-- UserCreateMany -->
<g id="node21" class="node">
<title>UserCreateMany</title>
<ellipse fill="#fdb462" stroke="black" cx="1177" cy="-104" rx="76.98" ry="18"/>
<text text-anchor="middle" x="1177" y="-99.8" font-family="Times,serif" font-size="14.00">UserCreateMany</text>
</g>
<!-- UserCreateMany&#45;&gt;UserModule -->
<g id="edge24" class="edge">
<title>UserCreateMany&#45;&gt;UserModule</title>
<path fill="none" stroke="black" d="M1177,-122.22C1177,-142.37 1177,-172 1177,-172 1177,-172 1077.03,-172 1077.03,-172"/>
<polygon fill="black" stroke="black" points="1077.03,-168.5 1067.03,-172 1077.03,-175.5 1077.03,-168.5"/>
</g>
<!-- UserService -->
<g id="node22" class="node">
<title>UserService</title>
<ellipse fill="#fdb462" stroke="black" cx="1024" cy="-104" rx="58.44" ry="18"/>
<text text-anchor="middle" x="1024" y="-99.8" font-family="Times,serif" font-size="14.00">UserService</text>
</g>
<!-- UserService&#45;&gt;UserModule -->
<g id="edge25" class="edge">
<title>UserService&#45;&gt;UserModule</title>
<path fill="none" stroke="black" d="M1024,-122.22C1024,-122.22 1024,-143.73 1024,-143.73"/>
<polygon fill="black" stroke="black" points="1020.5,-143.73 1024,-153.73 1027.5,-143.73 1020.5,-143.73"/>
</g>
</g>
</svg>
