<?xml version="1.0" encoding="UTF-8" standalone="no"?>
<!DOCTYPE svg PUBLIC "-//W3C//DTD SVG 1.1//EN"
 "http://www.w3.org/Graphics/SVG/1.1/DTD/svg11.dtd">
<!-- Generated by graphviz version 2.47.0 (20210316.0004)
 -->
<!-- Title: dependencies Pages: 1 -->
<svg width="1343pt" height="366pt"
 viewBox="0.00 0.00 1343.00 366.00" xmlns="http://www.w3.org/2000/svg" xmlns:xlink="http://www.w3.org/1999/xlink">
<g id="graph0" class="graph" transform="scale(1 1) rotate(0) translate(4 362)">
<title>dependencies</title>
<polygon fill="white" stroke="transparent" points="-4,4 -4,-362 1339,-362 1339,4 -4,4"/>
<text text-anchor="start" x="646.51" y="-42.4" font-family="Times-12" font-weight="bold" font-size="14.00">Legend</text>
<polygon fill="#ffffb3" stroke="transparent" points="433.5,-10 433.5,-30 453.5,-30 453.5,-10 433.5,-10"/>
<text text-anchor="start" x="457.13" y="-15.4" font-family="Times-12" font-size="14.00"> &#160;Declarations</text>
<polygon fill="#8dd3c7" stroke="transparent" points="546.5,-10 546.5,-30 566.5,-30 566.5,-10 546.5,-10"/>
<text text-anchor="start" x="570.23" y="-15.4" font-family="Times-12" font-size="14.00"> &#160;Module</text>
<polygon fill="#80b1d3" stroke="transparent" points="632.5,-10 632.5,-30 652.5,-30 652.5,-10 632.5,-10"/>
<text text-anchor="start" x="656.28" y="-15.4" font-family="Times-12" font-size="14.00"> &#160;Bootstrap</text>
<polygon fill="#fdb462" stroke="transparent" points="729.5,-10 729.5,-30 749.5,-30 749.5,-10 729.5,-10"/>
<text text-anchor="start" x="753.17" y="-15.4" font-family="Times-12" font-size="14.00"> &#160;Providers</text>
<polygon fill="#fb8072" stroke="transparent" points="825.5,-10 825.5,-30 845.5,-30 845.5,-10 825.5,-10"/>
<text text-anchor="start" x="849.23" y="-15.4" font-family="Times-12" font-size="14.00"> &#160;Exports</text>
<g id="clust19" class="cluster">
<title>cluster_PaginationModule</title>
<polygon fill="none" stroke="black" stroke-dasharray="1,5" points="490,-70 490,-282 684,-282 684,-70 490,-70"/>
</g>
<g id="clust22" class="cluster">
<title>cluster_PaginationModule_exports</title>
<polygon fill="none" stroke="black" points="538,-222 538,-274 676,-274 676,-222 538,-222"/>
</g>
<g id="clust24" class="cluster">
<title>cluster_PaginationModule_providers</title>
<polygon fill="none" stroke="black" points="498,-78 498,-130 676,-130 676,-78 498,-78"/>
</g>
<g id="clust31" class="cluster">
<title>cluster_TagsModule</title>
<polygon fill="none" stroke="black" stroke-dasharray="1,5" points="1177,-70 1177,-282 1327,-282 1327,-70 1177,-70"/>
</g>
<g id="clust34" class="cluster">
<title>cluster_TagsModule_exports</title>
<polygon fill="none" stroke="black" points="1206,-222 1206,-274 1310,-274 1310,-222 1206,-222"/>
</g>
<g id="clust36" class="cluster">
<title>cluster_TagsModule_providers</title>
<polygon fill="none" stroke="black" points="1185,-78 1185,-130 1319,-130 1319,-78 1185,-78"/>
</g>
<g id="clust25" class="cluster">
<title>cluster_PostsModule</title>
<polygon fill="none" stroke="black" stroke-dasharray="1,5" points="906,-146 906,-350 1168,-350 1168,-146 906,-146"/>
</g>
<g id="clust27" class="cluster">
<title>cluster_PostsModule_imports</title>
<polygon fill="none" stroke="black" points="914,-154 914,-206 1016,-206 1016,-154 914,-154"/>
</g>
<g id="clust28" class="cluster">
<title>cluster_PostsModule_exports</title>
<polygon fill="none" stroke="black" points="945,-290 945,-342 1053,-342 1053,-290 945,-290"/>
</g>
<g id="clust30" class="cluster">
<title>cluster_PostsModule_providers</title>
<polygon fill="none" stroke="black" points="1024,-154 1024,-206 1160,-206 1160,-154 1024,-154"/>
</g>
<g id="clust7" class="cluster">
<title>cluster_AuthModule</title>
<polygon fill="none" stroke="black" stroke-dasharray="1,5" points="8,-146 8,-350 262,-350 262,-146 8,-146"/>
</g>
<g id="clust10" class="cluster">
<title>cluster_AuthModule_exports</title>
<polygon fill="none" stroke="black" points="16,-290 16,-342 254,-342 254,-290 16,-290"/>
</g>
<g id="clust12" class="cluster">
<title>cluster_AuthModule_providers</title>
<polygon fill="none" stroke="black" points="120,-154 120,-206 254,-206 254,-154 120,-154"/>
</g>
<g id="clust13" class="cluster">
<title>cluster_MetaOptionsModule</title>
<polygon fill="none" stroke="black" stroke-dasharray="1,5" points="270,-146 270,-350 482,-350 482,-146 270,-146"/>
</g>
<g id="clust18" class="cluster">
<title>cluster_MetaOptionsModule_providers</title>
<polygon fill="none" stroke="black" points="278,-154 278,-206 474,-206 474,-154 278,-154"/>
</g>
<g id="clust16" class="cluster">
<title>cluster_MetaOptionsModule_exports</title>
<polygon fill="none" stroke="black" points="312,-290 312,-342 462,-342 462,-290 312,-290"/>
</g>
<g id="clust1" class="cluster">
<title>cluster_AppModule</title>
<polygon fill="none" stroke="black" stroke-dasharray="1,5" points="692,-214 692,-342 838,-342 838,-214 692,-214"/>
</g>
<g id="clust6" class="cluster">
<title>cluster_AppModule_providers</title>
<polygon fill="none" stroke="black" points="700,-222 700,-274 830,-274 830,-222 700,-222"/>
</g>
<g id="clust37" class="cluster">
<title>cluster_UserModule</title>
<polygon fill="none" stroke="black" stroke-dasharray="1,5" points="737,-70 737,-138 1169,-138 1169,-70 737,-70"/>
</g>
<g id="clust40" class="cluster">
<title>cluster_UserModule_exports</title>
<polygon fill="none" stroke="black" points="1057,-78 1057,-130 1161,-130 1161,-78 1057,-78"/>
</g>
<g id="clust42" class="cluster">
<title>cluster_UserModule_providers</title>
<polygon fill="none" stroke="black" points="745,-78 745,-130 1049,-130 1049,-78 745,-78"/>
</g>
<!-- AuthModule -->
<g id="node1" class="node">
<title>AuthModule</title>
<polygon fill="#8dd3c7" stroke="black" points="237.55,-266 234.55,-270 213.55,-270 210.55,-266 150.45,-266 150.45,-230 237.55,-230 237.55,-266"/>
<text text-anchor="middle" x="194" y="-243.8" font-family="Times,serif" font-size="14.00">AuthModule</text>
</g>
<!-- AppModule -->
<g id="node7" class="node">
<title>AppModule</title>
<polygon fill="#8dd3c7" stroke="black" points="829.66,-334 826.66,-338 805.66,-338 802.66,-334 746.34,-334 746.34,-298 829.66,-298 829.66,-334"/>
<text text-anchor="middle" x="788" y="-311.8" font-family="Times,serif" font-size="14.00">AppModule</text>
</g>
<!-- AuthModule&#45;&gt;AppModule -->
<g id="edge1" class="edge">
<title>AuthModule&#45;&gt;AppModule</title>
<path fill="none" stroke="black" d="M210.6,-266.19C210.6,-274.28 210.6,-282 210.6,-282 210.6,-282 771.32,-282 771.32,-282 771.32,-282 771.32,-287.81 771.32,-287.81"/>
<polygon fill="black" stroke="black" points="767.82,-287.81 771.32,-297.81 774.82,-287.81 767.82,-287.81"/>
</g>
<!-- AuthService  -->
<g id="node10" class="node">
<title>AuthService </title>
<polygon fill="#fb8072" stroke="black" points="245.98,-334 156.02,-334 156.02,-298 245.98,-298 245.98,-334"/>
<text text-anchor="middle" x="201" y="-311.8" font-family="Times,serif" font-size="14.00">AuthService </text>
</g>
<!-- AuthModule&#45;&gt;AuthService  -->
<g id="edge9" class="edge">
<title>AuthModule&#45;&gt;AuthService </title>
<path fill="none" stroke="black" stroke-dasharray="5,2" d="M183.43,-266.22C183.43,-266.22 183.43,-287.73 183.43,-287.73"/>
<polygon fill="black" stroke="black" points="179.93,-287.73 183.43,-297.73 186.93,-287.73 179.93,-287.73"/>
</g>
<!-- HashingProvider  -->
<g id="node11" class="node">
<title>HashingProvider </title>
<polygon fill="#fb8072" stroke="black" points="138.37,-334 23.63,-334 23.63,-298 138.37,-298 138.37,-334"/>
<text text-anchor="middle" x="81" y="-311.8" font-family="Times,serif" font-size="14.00">HashingProvider </text>
</g>
<!-- AuthModule&#45;&gt;HashingProvider  -->
<g id="edge10" class="edge">
<title>AuthModule&#45;&gt;HashingProvider </title>
<path fill="none" stroke="black" stroke-dasharray="5,2" d="M150.27,-248C140.49,-248 132.94,-248 132.94,-248 132.94,-248 132.94,-287.78 132.94,-287.78"/>
<polygon fill="black" stroke="black" points="129.44,-287.78 132.94,-297.78 136.44,-287.78 129.44,-287.78"/>
</g>
<!-- MetaOptionsModule -->
<g id="node2" class="node">
<title>MetaOptionsModule</title>
<polygon fill="#8dd3c7" stroke="black" points="453.15,-266 450.15,-270 429.15,-270 426.15,-266 320.85,-266 320.85,-230 453.15,-230 453.15,-266"/>
<text text-anchor="middle" x="387" y="-243.8" font-family="Times,serif" font-size="14.00">MetaOptionsModule</text>
</g>
<!-- MetaOptionsModule&#45;&gt;AppModule -->
<g id="edge2" class="edge">
<title>MetaOptionsModule&#45;&gt;AppModule</title>
<path fill="none" stroke="black" d="M453.35,-248C471.39,-248 486.06,-248 486.06,-248 486.06,-248 486.06,-322 486.06,-322 486.06,-322 736.33,-322 736.33,-322"/>
<polygon fill="black" stroke="black" points="736.33,-325.5 746.33,-322 736.33,-318.5 736.33,-325.5"/>
</g>
<!-- MetaOptionsService  -->
<g id="node13" class="node">
<title>MetaOptionsService </title>
<polygon fill="#fb8072" stroke="black" points="454.08,-334 319.92,-334 319.92,-298 454.08,-298 454.08,-334"/>
<text text-anchor="middle" x="387" y="-311.8" font-family="Times,serif" font-size="14.00">MetaOptionsService </text>
</g>
<!-- MetaOptionsModule&#45;&gt;MetaOptionsService  -->
<g id="edge12" class="edge">
<title>MetaOptionsModule&#45;&gt;MetaOptionsService </title>
<path fill="none" stroke="black" stroke-dasharray="5,2" d="M387,-266.22C387,-266.22 387,-287.73 387,-287.73"/>
<polygon fill="black" stroke="black" points="383.5,-287.73 387,-297.73 390.5,-287.73 383.5,-287.73"/>
</g>
<!-- PaginationModule -->
<g id="node3" class="node">
<title>PaginationModule</title>
<polygon fill="#8dd3c7" stroke="black" points="670.93,-198 667.93,-202 646.93,-202 643.93,-198 551.07,-198 551.07,-162 670.93,-162 670.93,-198"/>
<text text-anchor="middle" x="611" y="-175.8" font-family="Times,serif" font-size="14.00">PaginationModule</text>
</g>
<!-- PostsModule -->
<g id="node4" class="node">
<title>PostsModule</title>
<polygon fill="#8dd3c7" stroke="black" points="1043.61,-266 1040.61,-270 1019.61,-270 1016.61,-266 954.39,-266 954.39,-230 1043.61,-230 1043.61,-266"/>
<text text-anchor="middle" x="999" y="-243.8" font-family="Times,serif" font-size="14.00">PostsModule</text>
</g>
<!-- PaginationModule&#45;&gt;PostsModule -->
<g id="edge16" class="edge">
<title>PaginationModule&#45;&gt;PostsModule</title>
<path fill="none" stroke="black" d="M670.74,-177C739.46,-177 842.96,-177 842.96,-177 842.96,-177 842.96,-242 842.96,-242 842.96,-242 944.28,-242 944.28,-242"/>
<polygon fill="black" stroke="black" points="944.28,-245.5 954.28,-242 944.28,-238.5 944.28,-245.5"/>
</g>
<!-- PaginationModule&#45;&gt;AppModule -->
<g id="edge3" class="edge">
<title>PaginationModule&#45;&gt;AppModule</title>
<path fill="none" stroke="black" d="M670.97,-184C733.74,-184 823.26,-184 823.26,-184 823.26,-184 823.26,-287.92 823.26,-287.92"/>
<polygon fill="black" stroke="black" points="819.76,-287.92 823.26,-297.92 826.76,-287.92 819.76,-287.92"/>
</g>
<!-- PaginationService  -->
<g id="node15" class="node">
<title>PaginationService </title>
<polygon fill="#fb8072" stroke="black" points="667.86,-266 546.14,-266 546.14,-230 667.86,-230 667.86,-266"/>
<text text-anchor="middle" x="607" y="-243.8" font-family="Times,serif" font-size="14.00">PaginationService </text>
</g>
<!-- PaginationModule&#45;&gt;PaginationService  -->
<g id="edge14" class="edge">
<title>PaginationModule&#45;&gt;PaginationService </title>
<path fill="none" stroke="black" stroke-dasharray="5,2" d="M609.48,-198.22C609.48,-198.22 609.48,-219.73 609.48,-219.73"/>
<polygon fill="black" stroke="black" points="605.98,-219.73 609.48,-229.73 612.98,-219.73 605.98,-219.73"/>
</g>
<!-- PostsModule&#45;&gt;AppModule -->
<g id="edge4" class="edge">
<title>PostsModule&#45;&gt;AppModule</title>
<path fill="none" stroke="black" d="M954.12,-254C903.51,-254 828.19,-254 828.19,-254 828.19,-254 828.19,-287.73 828.19,-287.73"/>
<polygon fill="black" stroke="black" points="824.69,-287.73 828.19,-297.73 831.69,-287.73 824.69,-287.73"/>
</g>
<!-- PostsService  -->
<g id="node16" class="node">
<title>PostsService </title>
<polygon fill="#fb8072" stroke="black" points="1044.54,-334 953.46,-334 953.46,-298 1044.54,-298 1044.54,-334"/>
<text text-anchor="middle" x="999" y="-311.8" font-family="Times,serif" font-size="14.00">PostsService </text>
</g>
<!-- PostsModule&#45;&gt;PostsService  -->
<g id="edge19" class="edge">
<title>PostsModule&#45;&gt;PostsService </title>
<path fill="none" stroke="black" stroke-dasharray="5,2" d="M999,-266.22C999,-266.22 999,-287.73 999,-287.73"/>
<polygon fill="black" stroke="black" points="995.5,-287.73 999,-297.73 1002.5,-287.73 995.5,-287.73"/>
</g>
<!-- TagsModule -->
<g id="node5" class="node">
<title>TagsModule</title>
<polygon fill="#8dd3c7" stroke="black" points="1283.26,-198 1280.26,-202 1259.26,-202 1256.26,-198 1196.74,-198 1196.74,-162 1283.26,-162 1283.26,-198"/>
<text text-anchor="middle" x="1240" y="-175.8" font-family="Times,serif" font-size="14.00">TagsModule</text>
</g>
<!-- TagsModule&#45;&gt;PostsModule -->
<g id="edge17" class="edge">
<title>TagsModule&#45;&gt;PostsModule</title>
<path fill="none" stroke="black" d="M1207.98,-198.22C1207.98,-218.37 1207.98,-248 1207.98,-248 1207.98,-248 1053.57,-248 1053.57,-248"/>
<polygon fill="black" stroke="black" points="1053.57,-244.5 1043.57,-248 1053.57,-251.5 1053.57,-244.5"/>
</g>
<!-- TagsModule&#45;&gt;AppModule -->
<g id="edge5" class="edge">
<title>TagsModule&#45;&gt;AppModule</title>
<path fill="none" stroke="black" d="M1202.3,-198.19C1202.3,-206.28 1202.3,-214 1202.3,-214 1202.3,-214 826.54,-214 826.54,-214 826.54,-214 826.54,-287.76 826.54,-287.76"/>
<polygon fill="black" stroke="black" points="823.05,-287.76 826.54,-297.76 830.05,-287.76 823.05,-287.76"/>
</g>
<!-- TagsService  -->
<g id="node18" class="node">
<title>TagsService </title>
<polygon fill="#fb8072" stroke="black" points="1302.19,-266 1213.81,-266 1213.81,-230 1302.19,-230 1302.19,-266"/>
<text text-anchor="middle" x="1258" y="-243.8" font-family="Times,serif" font-size="14.00">TagsService </text>
</g>
<!-- TagsModule&#45;&gt;TagsService  -->
<g id="edge21" class="edge">
<title>TagsModule&#45;&gt;TagsService </title>
<path fill="none" stroke="black" stroke-dasharray="5,2" d="M1248.52,-198.22C1248.52,-198.22 1248.52,-219.73 1248.52,-219.73"/>
<polygon fill="black" stroke="black" points="1245.02,-219.73 1248.52,-229.73 1252.02,-219.73 1245.02,-219.73"/>
</g>
<!-- UserModule -->
<g id="node6" class="node">
<title>UserModule</title>
<polygon fill="#8dd3c7" stroke="black" points="1007.98,-198 1004.98,-202 983.98,-202 980.98,-198 922.02,-198 922.02,-162 1007.98,-162 1007.98,-198"/>
<text text-anchor="middle" x="965" y="-175.8" font-family="Times,serif" font-size="14.00">UserModule</text>
</g>
<!-- UserModule&#45;&gt;PostsModule -->
<g id="edge18" class="edge">
<title>UserModule&#45;&gt;PostsModule</title>
<path fill="none" stroke="black" d="M981.22,-198.22C981.22,-198.22 981.22,-219.73 981.22,-219.73"/>
<polygon fill="black" stroke="black" points="977.72,-219.73 981.22,-229.73 984.72,-219.73 977.72,-219.73"/>
</g>
<!-- UserModule&#45;&gt;AppModule -->
<g id="edge6" class="edge">
<title>UserModule&#45;&gt;AppModule</title>
<path fill="none" stroke="black" d="M921.82,-191C880.66,-191 824.9,-191 824.9,-191 824.9,-191 824.9,-287.82 824.9,-287.82"/>
<polygon fill="black" stroke="black" points="821.4,-287.82 824.9,-297.82 828.4,-287.82 821.4,-287.82"/>
</g>
<!-- UserService  -->
<g id="node20" class="node">
<title>UserService </title>
<polygon fill="#fb8072" stroke="black" points="1152.9,-122 1065.1,-122 1065.1,-86 1152.9,-86 1152.9,-122"/>
<text text-anchor="middle" x="1109" y="-99.8" font-family="Times,serif" font-size="14.00">UserService </text>
</g>
<!-- UserModule&#45;&gt;UserService  -->
<g id="edge23" class="edge">
<title>UserModule&#45;&gt;UserService </title>
<path fill="none" stroke="black" stroke-dasharray="5,2" d="M979.33,-161.89C979.33,-152.1 979.33,-142 979.33,-142 979.33,-142 1108.72,-142 1108.72,-142 1108.72,-142 1108.72,-132.11 1108.72,-132.11"/>
<polygon fill="black" stroke="black" points="1112.22,-132.11 1108.72,-122.11 1105.22,-132.11 1112.22,-132.11"/>
</g>
<!-- AppService -->
<g id="node8" class="node">
<title>AppService</title>
<ellipse fill="#fdb462" stroke="black" cx="765" cy="-248" rx="56.74" ry="18"/>
<text text-anchor="middle" x="765" y="-243.8" font-family="Times,serif" font-size="14.00">AppService</text>
</g>
<!-- AppService&#45;&gt;AppModule -->
<g id="edge7" class="edge">
<title>AppService&#45;&gt;AppModule</title>
<path fill="none" stroke="black" d="M796.47,-263.09C796.47,-263.09 796.47,-287.56 796.47,-287.56"/>
<polygon fill="black" stroke="black" points="792.97,-287.56 796.47,-297.56 799.97,-287.56 792.97,-287.56"/>
</g>
<!-- PaginationService -->
<g id="node9" class="node">
<title>PaginationService</title>
<ellipse fill="#fdb462" stroke="black" cx="587" cy="-104" rx="81.1" ry="18"/>
<text text-anchor="middle" x="587" y="-99.8" font-family="Times,serif" font-size="14.00">PaginationService</text>
</g>
<!-- PaginationService&#45;&gt;PaginationModule -->
<g id="edge15" class="edge">
<title>PaginationService&#45;&gt;PaginationModule</title>
<path fill="none" stroke="black" d="M609.79,-121.63C609.79,-121.63 609.79,-151.94 609.79,-151.94"/>
<polygon fill="black" stroke="black" points="606.29,-151.94 609.79,-161.94 613.29,-151.94 606.29,-151.94"/>
</g>
<!-- PaginationService&#45;&gt;AppModule -->
<g id="edge8" class="edge">
<title>PaginationService&#45;&gt;AppModule</title>
<path fill="none" stroke="black" d="M526.01,-115.97C526.01,-159.93 526.01,-310 526.01,-310 526.01,-310 736.2,-310 736.2,-310"/>
<polygon fill="black" stroke="black" points="736.2,-313.5 746.2,-310 736.2,-306.5 736.2,-313.5"/>
</g>
<!-- AuthService -->
<g id="node12" class="node">
<title>AuthService</title>
<ellipse fill="#fdb462" stroke="black" cx="187" cy="-180" rx="59.11" ry="18"/>
<text text-anchor="middle" x="187" y="-175.8" font-family="Times,serif" font-size="14.00">AuthService</text>
</g>
<!-- AuthService&#45;&gt;AuthModule -->
<g id="edge11" class="edge">
<title>AuthService&#45;&gt;AuthModule</title>
<path fill="none" stroke="black" d="M194,-198.22C194,-198.22 194,-219.73 194,-219.73"/>
<polygon fill="black" stroke="black" points="190.5,-219.73 194,-229.73 197.5,-219.73 190.5,-219.73"/>
</g>
<!-- MetaOptionsService -->
<g id="node14" class="node">
<title>MetaOptionsService</title>
<ellipse fill="#fdb462" stroke="black" cx="376" cy="-180" rx="90.33" ry="18"/>
<text text-anchor="middle" x="376" y="-175.8" font-family="Times,serif" font-size="14.00">MetaOptionsService</text>
</g>
<!-- MetaOptionsService&#45;&gt;MetaOptionsModule -->
<g id="edge13" class="edge">
<title>MetaOptionsService&#45;&gt;MetaOptionsModule</title>
<path fill="none" stroke="black" d="M387,-198.22C387,-198.22 387,-219.73 387,-219.73"/>
<polygon fill="black" stroke="black" points="383.5,-219.73 387,-229.73 390.5,-219.73 383.5,-219.73"/>
</g>
<!-- PostsService -->
<g id="node17" class="node">
<title>PostsService</title>
<ellipse fill="#fdb462" stroke="black" cx="1092" cy="-180" rx="60.27" ry="18"/>
<text text-anchor="middle" x="1092" y="-175.8" font-family="Times,serif" font-size="14.00">PostsService</text>
</g>
<!-- PostsService&#45;&gt;PostsModule -->
<g id="edge20" class="edge">
<title>PostsService&#45;&gt;PostsModule</title>
<path fill="none" stroke="black" d="M1037.59,-188.07C1037.59,-188.07 1037.59,-219.72 1037.59,-219.72"/>
<polygon fill="black" stroke="black" points="1034.09,-219.72 1037.59,-229.72 1041.09,-219.72 1034.09,-219.72"/>
</g>
<!-- TagsService -->
<g id="node19" class="node">
<title>TagsService</title>
<ellipse fill="#fdb462" stroke="black" cx="1252" cy="-104" rx="58.53" ry="18"/>
<text text-anchor="middle" x="1252" y="-99.8" font-family="Times,serif" font-size="14.00">TagsService</text>
</g>
<!-- TagsService&#45;&gt;TagsModule -->
<g id="edge22" class="edge">
<title>TagsService&#45;&gt;TagsModule</title>
<path fill="none" stroke="black" d="M1240,-121.63C1240,-121.63 1240,-151.94 1240,-151.94"/>
<polygon fill="black" stroke="black" points="1236.5,-151.94 1240,-161.94 1243.5,-151.94 1236.5,-151.94"/>
</g>
<!-- UserCreateMany -->
<g id="node21" class="node">
<title>UserCreateMany</title>
<ellipse fill="#fdb462" stroke="black" cx="964" cy="-104" rx="76.98" ry="18"/>
<text text-anchor="middle" x="964" y="-99.8" font-family="Times,serif" font-size="14.00">UserCreateMany</text>
</g>
<!-- UserCreateMany&#45;&gt;UserModule -->
<g id="edge24" class="edge">
<title>UserCreateMany&#45;&gt;UserModule</title>
<path fill="none" stroke="black" d="M950.67,-122.01C950.67,-122.01 950.67,-151.85 950.67,-151.85"/>
<polygon fill="black" stroke="black" points="947.17,-151.85 950.67,-161.85 954.17,-151.85 947.17,-151.85"/>
</g>
<!-- UserService -->
<g id="node22" class="node">
<title>UserService</title>
<ellipse fill="#fdb462" stroke="black" cx="811" cy="-104" rx="58.44" ry="18"/>
<text text-anchor="middle" x="811" y="-99.8" font-family="Times,serif" font-size="14.00">UserService</text>
</g>
<!-- UserService&#45;&gt;UserModule -->
<g id="edge25" class="edge">
<title>UserService&#45;&gt;UserModule</title>
<path fill="none" stroke="black" d="M856.09,-115.5C856.09,-134.41 856.09,-170 856.09,-170 856.09,-170 911.96,-170 911.96,-170"/>
<polygon fill="black" stroke="black" points="911.96,-173.5 921.96,-170 911.96,-166.5 911.96,-173.5"/>
</g>
</g>
</svg>
