<?xml version="1.0" encoding="UTF-8" standalone="no"?>
<!DOCTYPE svg PUBLIC "-//W3C//DTD SVG 1.1//EN"
 "http://www.w3.org/Graphics/SVG/1.1/DTD/svg11.dtd">
<!-- Generated by graphviz version 2.47.0 (20210316.0004)
 -->
<!-- Title: dependencies Pages: 1 -->
<svg width="1461pt" height="374pt"
 viewBox="0.00 0.00 1461.00 374.00" xmlns="http://www.w3.org/2000/svg" xmlns:xlink="http://www.w3.org/1999/xlink">
<g id="graph0" class="graph" transform="scale(1 1) rotate(0) translate(4 370)">
<title>dependencies</title>
<polygon fill="white" stroke="transparent" points="-4,4 -4,-370 1457,-370 1457,4 -4,4"/>
<text text-anchor="start" x="705.51" y="-42.4" font-family="Times-12" font-weight="bold" font-size="14.00">Legend</text>
<polygon fill="#ffffb3" stroke="transparent" points="492.5,-10 492.5,-30 512.5,-30 512.5,-10 492.5,-10"/>
<text text-anchor="start" x="516.13" y="-15.4" font-family="Times-12" font-size="14.00"> &#160;Declarations</text>
<polygon fill="#8dd3c7" stroke="transparent" points="605.5,-10 605.5,-30 625.5,-30 625.5,-10 605.5,-10"/>
<text text-anchor="start" x="629.23" y="-15.4" font-family="Times-12" font-size="14.00"> &#160;Module</text>
<polygon fill="#80b1d3" stroke="transparent" points="691.5,-10 691.5,-30 711.5,-30 711.5,-10 691.5,-10"/>
<text text-anchor="start" x="715.28" y="-15.4" font-family="Times-12" font-size="14.00"> &#160;Bootstrap</text>
<polygon fill="#fdb462" stroke="transparent" points="788.5,-10 788.5,-30 808.5,-30 808.5,-10 788.5,-10"/>
<text text-anchor="start" x="812.17" y="-15.4" font-family="Times-12" font-size="14.00"> &#160;Providers</text>
<polygon fill="#fb8072" stroke="transparent" points="884.5,-10 884.5,-30 904.5,-30 904.5,-10 884.5,-10"/>
<text text-anchor="start" x="908.23" y="-15.4" font-family="Times-12" font-size="14.00"> &#160;Exports</text>
<g id="clust19" class="cluster">
<title>cluster_PostsModule</title>
<polygon fill="none" stroke="black" stroke-dasharray="1,5" points="1036,-146 1036,-358 1402,-358 1402,-146 1036,-146"/>
</g>
<g id="clust22" class="cluster">
<title>cluster_PostsModule_exports</title>
<polygon fill="none" stroke="black" points="1139,-298 1139,-350 1247,-350 1247,-298 1139,-298"/>
</g>
<g id="clust24" class="cluster">
<title>cluster_PostsModule_providers</title>
<polygon fill="none" stroke="black" points="1258,-154 1258,-206 1394,-206 1394,-154 1258,-154"/>
</g>
<g id="clust21" class="cluster">
<title>cluster_PostsModule_imports</title>
<polygon fill="none" stroke="black" points="1044,-154 1044,-206 1250,-206 1250,-154 1044,-154"/>
</g>
<g id="clust13" class="cluster">
<title>cluster_MetaOptionsModule</title>
<polygon fill="none" stroke="black" stroke-dasharray="1,5" points="8,-146 8,-358 220,-358 220,-146 8,-146"/>
</g>
<g id="clust18" class="cluster">
<title>cluster_MetaOptionsModule_providers</title>
<polygon fill="none" stroke="black" points="16,-154 16,-206 212,-206 212,-154 16,-154"/>
</g>
<g id="clust16" class="cluster">
<title>cluster_MetaOptionsModule_exports</title>
<polygon fill="none" stroke="black" points="50,-298 50,-350 200,-350 200,-298 50,-298"/>
</g>
<g id="clust25" class="cluster">
<title>cluster_TagsModule</title>
<polygon fill="none" stroke="black" stroke-dasharray="1,5" points="766,-214 766,-282 1028,-282 1028,-214 766,-214"/>
</g>
<g id="clust30" class="cluster">
<title>cluster_TagsModule_providers</title>
<polygon fill="none" stroke="black" points="886,-222 886,-274 1020,-274 1020,-222 886,-222"/>
</g>
<g id="clust28" class="cluster">
<title>cluster_TagsModule_exports</title>
<polygon fill="none" stroke="black" points="774,-222 774,-274 878,-274 878,-222 774,-222"/>
</g>
<g id="clust1" class="cluster">
<title>cluster_AppModule</title>
<polygon fill="none" stroke="black" stroke-dasharray="1,5" points="500,-214 500,-350 758,-350 758,-214 500,-214"/>
</g>
<g id="clust3" class="cluster">
<title>cluster_AppModule_imports</title>
<polygon fill="none" stroke="black" points="508,-222 508,-274 612,-274 612,-222 508,-222"/>
</g>
<g id="clust6" class="cluster">
<title>cluster_AppModule_providers</title>
<polygon fill="none" stroke="black" points="620,-222 620,-274 750,-274 750,-222 620,-222"/>
</g>
<g id="clust31" class="cluster">
<title>cluster_UserModule</title>
<polygon fill="none" stroke="black" stroke-dasharray="1,5" points="1013,-70 1013,-138 1445,-138 1445,-70 1013,-70"/>
</g>
<g id="clust36" class="cluster">
<title>cluster_UserModule_providers</title>
<polygon fill="none" stroke="black" points="1133,-78 1133,-130 1437,-130 1437,-78 1133,-78"/>
</g>
<g id="clust34" class="cluster">
<title>cluster_UserModule_exports</title>
<polygon fill="none" stroke="black" points="1021,-78 1021,-130 1125,-130 1125,-78 1021,-78"/>
</g>
<g id="clust7" class="cluster">
<title>cluster_AuthModule</title>
<polygon fill="none" stroke="black" stroke-dasharray="1,5" points="228,-290 228,-358 492,-358 492,-290 228,-290"/>
</g>
<g id="clust12" class="cluster">
<title>cluster_AuthModule_providers</title>
<polygon fill="none" stroke="black" points="350,-298 350,-350 484,-350 484,-298 350,-298"/>
</g>
<g id="clust10" class="cluster">
<title>cluster_AuthModule_exports</title>
<polygon fill="none" stroke="black" points="236,-298 236,-350 342,-350 342,-298 236,-298"/>
</g>
<!-- AuthModule -->
<g id="node1" class="node">
<title>AuthModule</title>
<polygon fill="#8dd3c7" stroke="black" points="603.55,-266 600.55,-270 579.55,-270 576.55,-266 516.45,-266 516.45,-230 603.55,-230 603.55,-266"/>
<text text-anchor="middle" x="560" y="-243.8" font-family="Times,serif" font-size="14.00">AuthModule</text>
</g>
<!-- AppModule -->
<g id="node6" class="node">
<title>AppModule</title>
<polygon fill="#8dd3c7" stroke="black" points="737.66,-342 734.66,-346 713.66,-346 710.66,-342 654.34,-342 654.34,-306 737.66,-306 737.66,-342"/>
<text text-anchor="middle" x="696" y="-319.8" font-family="Times,serif" font-size="14.00">AppModule</text>
</g>
<!-- AuthModule&#45;&gt;AppModule -->
<g id="edge1" class="edge">
<title>AuthModule&#45;&gt;AppModule</title>
<path fill="none" stroke="black" d="M574.59,-266.01C574.59,-288.49 574.59,-324 574.59,-324 574.59,-324 644.22,-324 644.22,-324"/>
<polygon fill="black" stroke="black" points="644.22,-327.5 654.22,-324 644.22,-320.5 644.22,-327.5"/>
</g>
<!-- AuthService  -->
<g id="node8" class="node">
<title>AuthService </title>
<polygon fill="#fb8072" stroke="black" points="333.98,-342 244.02,-342 244.02,-306 333.98,-306 333.98,-342"/>
<text text-anchor="middle" x="289" y="-319.8" font-family="Times,serif" font-size="14.00">AuthService </text>
</g>
<!-- AuthModule&#45;&gt;AuthService  -->
<g id="edge7" class="edge">
<title>AuthModule&#45;&gt;AuthService </title>
<path fill="none" stroke="black" stroke-dasharray="5,2" d="M516.16,-254C439.46,-254 289,-254 289,-254 289,-254 289,-295.97 289,-295.97"/>
<polygon fill="black" stroke="black" points="285.5,-295.97 289,-305.97 292.5,-295.97 285.5,-295.97"/>
</g>
<!-- MetaOptionsModule -->
<g id="node2" class="node">
<title>MetaOptionsModule</title>
<polygon fill="#8dd3c7" stroke="black" points="191.15,-266 188.15,-270 167.15,-270 164.15,-266 58.85,-266 58.85,-230 191.15,-230 191.15,-266"/>
<text text-anchor="middle" x="125" y="-243.8" font-family="Times,serif" font-size="14.00">MetaOptionsModule</text>
</g>
<!-- MetaOptionsModule&#45;&gt;AppModule -->
<g id="edge2" class="edge">
<title>MetaOptionsModule&#45;&gt;AppModule</title>
<path fill="none" stroke="black" d="M191.37,-242C298.16,-242 496.27,-242 496.27,-242 496.27,-242 496.27,-333 496.27,-333 496.27,-333 644.13,-333 644.13,-333"/>
<polygon fill="black" stroke="black" points="644.13,-336.5 654.13,-333 644.13,-329.5 644.13,-336.5"/>
</g>
<!-- MetaOptionsService  -->
<g id="node10" class="node">
<title>MetaOptionsService </title>
<polygon fill="#fb8072" stroke="black" points="192.08,-342 57.92,-342 57.92,-306 192.08,-306 192.08,-342"/>
<text text-anchor="middle" x="125" y="-319.8" font-family="Times,serif" font-size="14.00">MetaOptionsService </text>
</g>
<!-- MetaOptionsModule&#45;&gt;MetaOptionsService  -->
<g id="edge9" class="edge">
<title>MetaOptionsModule&#45;&gt;MetaOptionsService </title>
<path fill="none" stroke="black" stroke-dasharray="5,2" d="M125,-266.01C125,-266.01 125,-295.85 125,-295.85"/>
<polygon fill="black" stroke="black" points="121.5,-295.85 125,-305.85 128.5,-295.85 121.5,-295.85"/>
</g>
<!-- PostsModule -->
<g id="node3" class="node">
<title>PostsModule</title>
<polygon fill="#8dd3c7" stroke="black" points="1237.61,-266 1234.61,-270 1213.61,-270 1210.61,-266 1148.39,-266 1148.39,-230 1237.61,-230 1237.61,-266"/>
<text text-anchor="middle" x="1193" y="-243.8" font-family="Times,serif" font-size="14.00">PostsModule</text>
</g>
<!-- PostsModule&#45;&gt;AppModule -->
<g id="edge3" class="edge">
<title>PostsModule&#45;&gt;AppModule</title>
<path fill="none" stroke="black" d="M1148.41,-254C1098.13,-254 1023.29,-254 1023.29,-254 1023.29,-254 1023.29,-324 1023.29,-324 1023.29,-324 747.78,-324 747.78,-324"/>
<polygon fill="black" stroke="black" points="747.78,-320.5 737.78,-324 747.78,-327.5 747.78,-320.5"/>
</g>
<!-- PostsService  -->
<g id="node12" class="node">
<title>PostsService </title>
<polygon fill="#fb8072" stroke="black" points="1238.54,-342 1147.46,-342 1147.46,-306 1238.54,-306 1238.54,-342"/>
<text text-anchor="middle" x="1193" y="-319.8" font-family="Times,serif" font-size="14.00">PostsService </text>
</g>
<!-- PostsModule&#45;&gt;PostsService  -->
<g id="edge13" class="edge">
<title>PostsModule&#45;&gt;PostsService </title>
<path fill="none" stroke="black" stroke-dasharray="5,2" d="M1193,-266.01C1193,-266.01 1193,-295.85 1193,-295.85"/>
<polygon fill="black" stroke="black" points="1189.5,-295.85 1193,-305.85 1196.5,-295.85 1189.5,-295.85"/>
</g>
<!-- TagsModule -->
<g id="node4" class="node">
<title>TagsModule</title>
<polygon fill="#8dd3c7" stroke="black" points="1138.26,-198 1135.26,-202 1114.26,-202 1111.26,-198 1051.74,-198 1051.74,-162 1138.26,-162 1138.26,-198"/>
<text text-anchor="middle" x="1095" y="-175.8" font-family="Times,serif" font-size="14.00">TagsModule</text>
</g>
<!-- TagsModule&#45;&gt;PostsModule -->
<g id="edge11" class="edge">
<title>TagsModule&#45;&gt;PostsModule</title>
<path fill="none" stroke="black" d="M1138.37,-180C1146.36,-180 1152.23,-180 1152.23,-180 1152.23,-180 1152.23,-219.78 1152.23,-219.78"/>
<polygon fill="black" stroke="black" points="1148.73,-219.78 1152.23,-229.78 1155.73,-219.78 1148.73,-219.78"/>
</g>
<!-- TagsModule&#45;&gt;AppModule -->
<g id="edge4" class="edge">
<title>TagsModule&#45;&gt;AppModule</title>
<path fill="none" stroke="black" d="M1109.46,-198.15C1109.46,-238.68 1109.46,-333 1109.46,-333 1109.46,-333 747.92,-333 747.92,-333"/>
<polygon fill="black" stroke="black" points="747.92,-329.5 737.92,-333 747.92,-336.5 747.92,-329.5"/>
</g>
<!-- TagsService  -->
<g id="node14" class="node">
<title>TagsService </title>
<polygon fill="#fb8072" stroke="black" points="870.19,-266 781.81,-266 781.81,-230 870.19,-230 870.19,-266"/>
<text text-anchor="middle" x="826" y="-243.8" font-family="Times,serif" font-size="14.00">TagsService </text>
</g>
<!-- TagsModule&#45;&gt;TagsService  -->
<g id="edge15" class="edge">
<title>TagsModule&#45;&gt;TagsService </title>
<path fill="none" stroke="black" stroke-dasharray="5,2" d="M1051.48,-180C975.35,-180 826,-180 826,-180 826,-180 826,-219.78 826,-219.78"/>
<polygon fill="black" stroke="black" points="822.5,-219.78 826,-229.78 829.5,-219.78 822.5,-219.78"/>
</g>
<!-- UserModule -->
<g id="node5" class="node">
<title>UserModule</title>
<polygon fill="#8dd3c7" stroke="black" points="1241.98,-198 1238.98,-202 1217.98,-202 1214.98,-198 1156.02,-198 1156.02,-162 1241.98,-162 1241.98,-198"/>
<text text-anchor="middle" x="1199" y="-175.8" font-family="Times,serif" font-size="14.00">UserModule</text>
</g>
<!-- UserModule&#45;&gt;PostsModule -->
<g id="edge12" class="edge">
<title>UserModule&#45;&gt;PostsModule</title>
<path fill="none" stroke="black" d="M1210.37,-198.22C1210.37,-198.22 1210.37,-219.73 1210.37,-219.73"/>
<polygon fill="black" stroke="black" points="1206.87,-219.73 1210.37,-229.73 1213.87,-219.73 1206.87,-219.73"/>
</g>
<!-- UserModule&#45;&gt;AppModule -->
<g id="edge5" class="edge">
<title>UserModule&#45;&gt;AppModule</title>
<path fill="none" stroke="black" d="M1183.19,-198.19C1183.19,-206.28 1183.19,-214 1183.19,-214 1183.19,-214 1017.52,-214 1017.52,-214 1017.52,-214 1017.52,-315 1017.52,-315 1017.52,-315 747.7,-315 747.7,-315"/>
<polygon fill="black" stroke="black" points="747.7,-311.5 737.7,-315 747.7,-318.5 747.7,-311.5"/>
</g>
<!-- UserService  -->
<g id="node16" class="node">
<title>UserService </title>
<polygon fill="#fb8072" stroke="black" points="1116.9,-122 1029.1,-122 1029.1,-86 1116.9,-86 1116.9,-122"/>
<text text-anchor="middle" x="1073" y="-99.8" font-family="Times,serif" font-size="14.00">UserService </text>
</g>
<!-- UserModule&#45;&gt;UserService  -->
<g id="edge17" class="edge">
<title>UserModule&#45;&gt;UserService </title>
<path fill="none" stroke="black" stroke-dasharray="5,2" d="M1184.67,-161.89C1184.67,-152.1 1184.67,-142 1184.67,-142 1184.67,-142 1084.29,-142 1084.29,-142 1084.29,-142 1084.29,-132.11 1084.29,-132.11"/>
<polygon fill="black" stroke="black" points="1087.79,-132.11 1084.29,-122.11 1080.79,-132.11 1087.79,-132.11"/>
</g>
<!-- AppService -->
<g id="node7" class="node">
<title>AppService</title>
<ellipse fill="#fdb462" stroke="black" cx="685" cy="-248" rx="56.74" ry="18"/>
<text text-anchor="middle" x="685" y="-243.8" font-family="Times,serif" font-size="14.00">AppService</text>
</g>
<!-- AppService&#45;&gt;AppModule -->
<g id="edge6" class="edge">
<title>AppService&#45;&gt;AppModule</title>
<path fill="none" stroke="black" d="M696,-266.01C696,-266.01 696,-295.85 696,-295.85"/>
<polygon fill="black" stroke="black" points="692.5,-295.85 696,-305.85 699.5,-295.85 692.5,-295.85"/>
</g>
<!-- AuthService -->
<g id="node9" class="node">
<title>AuthService</title>
<ellipse fill="#fdb462" stroke="black" cx="417" cy="-324" rx="59.11" ry="18"/>
<text text-anchor="middle" x="417" y="-319.8" font-family="Times,serif" font-size="14.00">AuthService</text>
</g>
<!-- AuthService&#45;&gt;AuthModule -->
<g id="edge8" class="edge">
<title>AuthService&#45;&gt;AuthModule</title>
<path fill="none" stroke="black" d="M468.49,-315C504.21,-315 545.41,-315 545.41,-315 545.41,-315 545.41,-276.31 545.41,-276.31"/>
<polygon fill="black" stroke="black" points="548.91,-276.31 545.41,-266.31 541.91,-276.31 548.91,-276.31"/>
</g>
<!-- MetaOptionsService -->
<g id="node11" class="node">
<title>MetaOptionsService</title>
<ellipse fill="#fdb462" stroke="black" cx="114" cy="-180" rx="90.33" ry="18"/>
<text text-anchor="middle" x="114" y="-175.8" font-family="Times,serif" font-size="14.00">MetaOptionsService</text>
</g>
<!-- MetaOptionsService&#45;&gt;MetaOptionsModule -->
<g id="edge10" class="edge">
<title>MetaOptionsService&#45;&gt;MetaOptionsModule</title>
<path fill="none" stroke="black" d="M125,-198.22C125,-198.22 125,-219.73 125,-219.73"/>
<polygon fill="black" stroke="black" points="121.5,-219.73 125,-229.73 128.5,-219.73 121.5,-219.73"/>
</g>
<!-- PostsService -->
<g id="node13" class="node">
<title>PostsService</title>
<ellipse fill="#fdb462" stroke="black" cx="1326" cy="-180" rx="60.27" ry="18"/>
<text text-anchor="middle" x="1326" y="-175.8" font-family="Times,serif" font-size="14.00">PostsService</text>
</g>
<!-- PostsService&#45;&gt;PostsModule -->
<g id="edge14" class="edge">
<title>PostsService&#45;&gt;PostsModule</title>
<path fill="none" stroke="black" d="M1326,-198.22C1326,-218.37 1326,-248 1326,-248 1326,-248 1247.66,-248 1247.66,-248"/>
<polygon fill="black" stroke="black" points="1247.66,-244.5 1237.66,-248 1247.66,-251.5 1247.66,-244.5"/>
</g>
<!-- TagsService -->
<g id="node15" class="node">
<title>TagsService</title>
<ellipse fill="#fdb462" stroke="black" cx="953" cy="-248" rx="58.53" ry="18"/>
<text text-anchor="middle" x="953" y="-243.8" font-family="Times,serif" font-size="14.00">TagsService</text>
</g>
<!-- TagsService&#45;&gt;TagsModule -->
<g id="edge16" class="edge">
<title>TagsService&#45;&gt;TagsModule</title>
<path fill="none" stroke="black" d="M1008.57,-242C1042.94,-242 1080.54,-242 1080.54,-242 1080.54,-242 1080.54,-208.27 1080.54,-208.27"/>
<polygon fill="black" stroke="black" points="1084.04,-208.27 1080.54,-198.27 1077.04,-208.27 1084.04,-208.27"/>
</g>
<!-- UserCreateMany -->
<g id="node17" class="node">
<title>UserCreateMany</title>
<ellipse fill="#fdb462" stroke="black" cx="1352" cy="-104" rx="76.98" ry="18"/>
<text text-anchor="middle" x="1352" y="-99.8" font-family="Times,serif" font-size="14.00">UserCreateMany</text>
</g>
<!-- UserCreateMany&#45;&gt;UserModule -->
<g id="edge18" class="edge">
<title>UserCreateMany&#45;&gt;UserModule</title>
<path fill="none" stroke="black" d="M1274.78,-104C1266.73,-104 1261.42,-104 1261.42,-104 1261.42,-104 1261.42,-180 1261.42,-180 1261.42,-180 1252.01,-180 1252.01,-180"/>
<polygon fill="black" stroke="black" points="1252.01,-176.5 1242.01,-180 1252.01,-183.5 1252.01,-176.5"/>
</g>
<!-- UserService -->
<g id="node18" class="node">
<title>UserService</title>
<ellipse fill="#fdb462" stroke="black" cx="1199" cy="-104" rx="58.44" ry="18"/>
<text text-anchor="middle" x="1199" y="-99.8" font-family="Times,serif" font-size="14.00">UserService</text>
</g>
<!-- UserService&#45;&gt;UserModule -->
<g id="edge19" class="edge">
<title>UserService&#45;&gt;UserModule</title>
<path fill="none" stroke="black" d="M1213.33,-121.63C1213.33,-121.63 1213.33,-151.94 1213.33,-151.94"/>
<polygon fill="black" stroke="black" points="1209.83,-151.94 1213.33,-161.94 1216.83,-151.94 1209.83,-151.94"/>
</g>
</g>
</svg>
