<?xml version="1.0" encoding="UTF-8" standalone="no"?>
<!DOCTYPE svg PUBLIC "-//W3C//DTD SVG 1.1//EN"
 "http://www.w3.org/Graphics/SVG/1.1/DTD/svg11.dtd">
<!-- Generated by graphviz version 2.47.0 (20210316.0004)
 -->
<!-- Title: dependencies Pages: 1 -->
<svg width="2990pt" height="374pt"
 viewBox="0.00 0.00 2990.00 374.00" xmlns="http://www.w3.org/2000/svg" xmlns:xlink="http://www.w3.org/1999/xlink">
<g id="graph0" class="graph" transform="scale(1 1) rotate(0) translate(4 370)">
<title>dependencies</title>
<polygon fill="white" stroke="transparent" points="-4,4 -4,-370 2986,-370 2986,4 -4,4"/>
<text text-anchor="start" x="1470.01" y="-42.4" font-family="Times-12" font-weight="bold" font-size="14.00">Legend</text>
<polygon fill="#ffffb3" stroke="transparent" points="1257,-10 1257,-30 1277,-30 1277,-10 1257,-10"/>
<text text-anchor="start" x="1280.63" y="-15.4" font-family="Times-12" font-size="14.00"> &#160;Declarations</text>
<polygon fill="#8dd3c7" stroke="transparent" points="1370,-10 1370,-30 1390,-30 1390,-10 1370,-10"/>
<text text-anchor="start" x="1393.73" y="-15.4" font-family="Times-12" font-size="14.00"> &#160;Module</text>
<polygon fill="#80b1d3" stroke="transparent" points="1456,-10 1456,-30 1476,-30 1476,-10 1456,-10"/>
<text text-anchor="start" x="1479.78" y="-15.4" font-family="Times-12" font-size="14.00"> &#160;Bootstrap</text>
<polygon fill="#fdb462" stroke="transparent" points="1553,-10 1553,-30 1573,-30 1573,-10 1553,-10"/>
<text text-anchor="start" x="1576.67" y="-15.4" font-family="Times-12" font-size="14.00"> &#160;Providers</text>
<polygon fill="#fb8072" stroke="transparent" points="1649,-10 1649,-30 1669,-30 1669,-10 1649,-10"/>
<text text-anchor="start" x="1672.73" y="-15.4" font-family="Times-12" font-size="14.00"> &#160;Exports</text>
<g id="clust25" class="cluster">
<title>cluster_MetaOptionsModule</title>
<polygon fill="none" stroke="black" stroke-dasharray="1,5" points="8,-146 8,-358 220,-358 220,-146 8,-146"/>
</g>
<g id="clust28" class="cluster">
<title>cluster_MetaOptionsModule_exports</title>
<polygon fill="none" stroke="black" points="50,-298 50,-350 200,-350 200,-298 50,-298"/>
</g>
<g id="clust30" class="cluster">
<title>cluster_MetaOptionsModule_providers</title>
<polygon fill="none" stroke="black" points="16,-154 16,-206 212,-206 212,-154 16,-154"/>
</g>
<g id="clust1" class="cluster">
<title>cluster_AppModule</title>
<polygon fill="none" stroke="black" stroke-dasharray="1,5" points="228,-70 228,-350 969,-350 969,-70 228,-70"/>
</g>
<g id="clust3" class="cluster">
<title>cluster_AppModule_imports</title>
<polygon fill="none" stroke="black" points="268,-154 268,-274 961,-274 961,-154 268,-154"/>
</g>
<g id="clust6" class="cluster">
<title>cluster_AppModule_providers</title>
<polygon fill="none" stroke="black" points="236,-78 236,-130 546,-130 546,-78 236,-78"/>
</g>
<g id="clust13" class="cluster">
<title>cluster_FileUploadModule</title>
<polygon fill="none" stroke="black" stroke-dasharray="1,5" points="2555,-70 2555,-138 2974,-138 2974,-70 2555,-70"/>
</g>
<g id="clust18" class="cluster">
<title>cluster_FileUploadModule_providers</title>
<polygon fill="none" stroke="black" points="2563,-78 2563,-130 2966,-130 2966,-78 2563,-78"/>
</g>
<g id="clust31" class="cluster">
<title>cluster_PaginationModule</title>
<polygon fill="none" stroke="black" stroke-dasharray="1,5" points="1245,-214 1245,-282 1399,-282 1399,-214 1245,-214"/>
</g>
<g id="clust34" class="cluster">
<title>cluster_PaginationModule_exports</title>
<polygon fill="none" stroke="black" points="1253,-222 1253,-274 1391,-274 1391,-222 1253,-222"/>
</g>
<g id="clust37" class="cluster">
<title>cluster_PostsModule</title>
<polygon fill="none" stroke="black" stroke-dasharray="1,5" points="977,-290 977,-358 1245,-358 1245,-290 977,-290"/>
</g>
<g id="clust40" class="cluster">
<title>cluster_PostsModule_exports</title>
<polygon fill="none" stroke="black" points="1129,-298 1129,-350 1237,-350 1237,-298 1129,-298"/>
</g>
<g id="clust42" class="cluster">
<title>cluster_PostsModule_providers</title>
<polygon fill="none" stroke="black" points="985,-298 985,-350 1121,-350 1121,-298 985,-298"/>
</g>
<g id="clust43" class="cluster">
<title>cluster_TagsModule</title>
<polygon fill="none" stroke="black" stroke-dasharray="1,5" points="1407,-214 1407,-282 1669,-282 1669,-214 1407,-214"/>
</g>
<g id="clust46" class="cluster">
<title>cluster_TagsModule_exports</title>
<polygon fill="none" stroke="black" points="1557,-222 1557,-274 1661,-274 1661,-222 1557,-222"/>
</g>
<g id="clust48" class="cluster">
<title>cluster_TagsModule_providers</title>
<polygon fill="none" stroke="black" points="1415,-222 1415,-274 1549,-274 1549,-222 1415,-222"/>
</g>
<g id="clust19" class="cluster">
<title>cluster_MailModule</title>
<polygon fill="none" stroke="black" stroke-dasharray="1,5" points="977,-214 977,-282 1237,-282 1237,-214 977,-214"/>
</g>
<g id="clust24" class="cluster">
<title>cluster_MailModule_providers</title>
<polygon fill="none" stroke="black" points="1097,-222 1097,-274 1229,-274 1229,-222 1097,-222"/>
</g>
<g id="clust22" class="cluster">
<title>cluster_MailModule_exports</title>
<polygon fill="none" stroke="black" points="985,-222 985,-274 1089,-274 1089,-222 985,-222"/>
</g>
<g id="clust7" class="cluster">
<title>cluster_AuthModule</title>
<polygon fill="none" stroke="black" stroke-dasharray="1,5" points="977,-70 977,-138 2085,-138 2085,-70 977,-70"/>
</g>
<g id="clust10" class="cluster">
<title>cluster_AuthModule_exports</title>
<polygon fill="none" stroke="black" points="1839,-78 1839,-130 2077,-130 2077,-78 1839,-78"/>
</g>
<g id="clust12" class="cluster">
<title>cluster_AuthModule_providers</title>
<polygon fill="none" stroke="black" points="985,-78 985,-130 1831,-130 1831,-78 985,-78"/>
</g>
<g id="clust49" class="cluster">
<title>cluster_UserModule</title>
<polygon fill="none" stroke="black" stroke-dasharray="1,5" points="2093,-70 2093,-138 2547,-138 2547,-70 2093,-70"/>
</g>
<g id="clust52" class="cluster">
<title>cluster_UserModule_exports</title>
<polygon fill="none" stroke="black" points="2435,-78 2435,-130 2539,-130 2539,-78 2435,-78"/>
</g>
<g id="clust54" class="cluster">
<title>cluster_UserModule_providers</title>
<polygon fill="none" stroke="black" points="2101,-78 2101,-130 2427,-130 2427,-78 2101,-78"/>
</g>
<!-- AuthModule -->
<g id="node1" class="node">
<title>AuthModule</title>
<polygon fill="#8dd3c7" stroke="black" points="500.55,-198 497.55,-202 476.55,-202 473.55,-198 413.45,-198 413.45,-162 500.55,-162 500.55,-198"/>
<text text-anchor="middle" x="457" y="-175.8" font-family="Times,serif" font-size="14.00">AuthModule</text>
</g>
<!-- AppModule -->
<g id="node9" class="node">
<title>AppModule</title>
<polygon fill="#8dd3c7" stroke="black" points="542.66,-342 539.66,-346 518.66,-346 515.66,-342 459.34,-342 459.34,-306 542.66,-306 542.66,-342"/>
<text text-anchor="middle" x="501" y="-319.8" font-family="Times,serif" font-size="14.00">AppModule</text>
</g>
<!-- AuthModule&#45;&gt;AppModule -->
<g id="edge1" class="edge">
<title>AuthModule&#45;&gt;AppModule</title>
<path fill="none" stroke="black" d="M486.91,-198.24C486.91,-198.24 486.91,-295.91 486.91,-295.91"/>
<polygon fill="black" stroke="black" points="483.41,-295.91 486.91,-305.91 490.41,-295.91 483.41,-295.91"/>
</g>
<!-- AuthService  -->
<g id="node12" class="node">
<title>AuthService </title>
<polygon fill="#fb8072" stroke="black" points="1936.98,-122 1847.02,-122 1847.02,-86 1936.98,-86 1936.98,-122"/>
<text text-anchor="middle" x="1892" y="-99.8" font-family="Times,serif" font-size="14.00">AuthService </text>
</g>
<!-- AuthModule&#45;&gt;AuthService  -->
<g id="edge11" class="edge">
<title>AuthModule&#45;&gt;AuthService </title>
<path fill="none" stroke="black" stroke-dasharray="5,2" d="M425.73,-161.9C425.73,-150.91 425.73,-139 425.73,-139 425.73,-139 1892,-139 1892,-139 1892,-139 1892,-132.32 1892,-132.32"/>
<polygon fill="black" stroke="black" points="1895.5,-132.32 1892,-122.32 1888.5,-132.32 1895.5,-132.32"/>
</g>
<!-- HashingProvider  -->
<g id="node13" class="node">
<title>HashingProvider </title>
<polygon fill="#fb8072" stroke="black" points="2069.37,-122 1954.63,-122 1954.63,-86 2069.37,-86 2069.37,-122"/>
<text text-anchor="middle" x="2012" y="-99.8" font-family="Times,serif" font-size="14.00">HashingProvider </text>
</g>
<!-- AuthModule&#45;&gt;HashingProvider  -->
<g id="edge12" class="edge">
<title>AuthModule&#45;&gt;HashingProvider </title>
<path fill="none" stroke="black" stroke-dasharray="5,2" d="M438.24,-161.89C438.24,-152.1 438.24,-142 438.24,-142 438.24,-142 2012,-142 2012,-142 2012,-142 2012,-132.11 2012,-132.11"/>
<polygon fill="black" stroke="black" points="2015.5,-132.11 2012,-122.11 2008.5,-132.11 2015.5,-132.11"/>
</g>
<!-- FileUploadModule -->
<g id="node2" class="node">
<title>FileUploadModule</title>
<polygon fill="#8dd3c7" stroke="black" points="745.04,-198 742.04,-202 721.04,-202 718.04,-198 622.96,-198 622.96,-162 745.04,-162 745.04,-198"/>
<text text-anchor="middle" x="684" y="-175.8" font-family="Times,serif" font-size="14.00">FileUploadModule</text>
</g>
<!-- FileUploadModule&#45;&gt;AppModule -->
<g id="edge2" class="edge">
<title>FileUploadModule&#45;&gt;AppModule</title>
<path fill="none" stroke="black" d="M684,-198.07C684,-234.65 684,-314 684,-314 684,-314 552.98,-314 552.98,-314"/>
<polygon fill="black" stroke="black" points="552.98,-310.5 542.98,-314 552.98,-317.5 552.98,-310.5"/>
</g>
<!-- MailModule -->
<g id="node3" class="node">
<title>MailModule</title>
<polygon fill="#8dd3c7" stroke="black" points="848.99,-198 845.99,-202 824.99,-202 821.99,-198 763.01,-198 763.01,-162 848.99,-162 848.99,-198"/>
<text text-anchor="middle" x="806" y="-175.8" font-family="Times,serif" font-size="14.00">MailModule</text>
</g>
<!-- MailModule&#45;&gt;AppModule -->
<g id="edge3" class="edge">
<title>MailModule&#45;&gt;AppModule</title>
<path fill="none" stroke="black" d="M806,-198.14C806,-236.23 806,-321 806,-321 806,-321 552.77,-321 552.77,-321"/>
<polygon fill="black" stroke="black" points="552.77,-317.5 542.77,-321 552.77,-324.5 552.77,-317.5"/>
</g>
<!-- MailService  -->
<g id="node20" class="node">
<title>MailService </title>
<polygon fill="#fb8072" stroke="black" points="1080.92,-266 993.08,-266 993.08,-230 1080.92,-230 1080.92,-266"/>
<text text-anchor="middle" x="1037" y="-243.8" font-family="Times,serif" font-size="14.00">MailService </text>
</g>
<!-- MailModule&#45;&gt;MailService  -->
<g id="edge19" class="edge">
<title>MailModule&#45;&gt;MailService </title>
<path fill="none" stroke="black" stroke-dasharray="5,2" d="M827.5,-198.06C827.5,-209.44 827.5,-222 827.5,-222 827.5,-222 1051.65,-222 1051.65,-222 1051.65,-222 1051.65,-222.79 1051.65,-222.79"/>
<polygon fill="black" stroke="black" points="1048.15,-219.94 1051.65,-229.94 1055.15,-219.94 1048.15,-219.94"/>
</g>
<!-- MetaOptionsModule -->
<g id="node4" class="node">
<title>MetaOptionsModule</title>
<polygon fill="#8dd3c7" stroke="black" points="191.15,-266 188.15,-270 167.15,-270 164.15,-266 58.85,-266 58.85,-230 191.15,-230 191.15,-266"/>
<text text-anchor="middle" x="125" y="-243.8" font-family="Times,serif" font-size="14.00">MetaOptionsModule</text>
</g>
<!-- MetaOptionsModule&#45;&gt;AppModule -->
<g id="edge4" class="edge">
<title>MetaOptionsModule&#45;&gt;AppModule</title>
<path fill="none" stroke="black" d="M191.28,-252C292.26,-252 473.04,-252 473.04,-252 473.04,-252 473.04,-295.83 473.04,-295.83"/>
<polygon fill="black" stroke="black" points="469.54,-295.83 473.04,-305.83 476.54,-295.83 469.54,-295.83"/>
</g>
<!-- MetaOptionsService  -->
<g id="node22" class="node">
<title>MetaOptionsService </title>
<polygon fill="#fb8072" stroke="black" points="192.08,-342 57.92,-342 57.92,-306 192.08,-306 192.08,-342"/>
<text text-anchor="middle" x="125" y="-319.8" font-family="Times,serif" font-size="14.00">MetaOptionsService </text>
</g>
<!-- MetaOptionsModule&#45;&gt;MetaOptionsService  -->
<g id="edge21" class="edge">
<title>MetaOptionsModule&#45;&gt;MetaOptionsService </title>
<path fill="none" stroke="black" stroke-dasharray="5,2" d="M125,-266.01C125,-266.01 125,-295.85 125,-295.85"/>
<polygon fill="black" stroke="black" points="121.5,-295.85 125,-305.85 128.5,-295.85 121.5,-295.85"/>
</g>
<!-- PaginationModule -->
<g id="node5" class="node">
<title>PaginationModule</title>
<polygon fill="#8dd3c7" stroke="black" points="395.93,-198 392.93,-202 371.93,-202 368.93,-198 276.07,-198 276.07,-162 395.93,-162 395.93,-198"/>
<text text-anchor="middle" x="336" y="-175.8" font-family="Times,serif" font-size="14.00">PaginationModule</text>
</g>
<!-- PostsModule -->
<g id="node6" class="node">
<title>PostsModule</title>
<polygon fill="#8dd3c7" stroke="black" points="938.61,-266 935.61,-270 914.61,-270 911.61,-266 849.39,-266 849.39,-230 938.61,-230 938.61,-266"/>
<text text-anchor="middle" x="894" y="-243.8" font-family="Times,serif" font-size="14.00">PostsModule</text>
</g>
<!-- PaginationModule&#45;&gt;PostsModule -->
<g id="edge25" class="edge">
<title>PaginationModule&#45;&gt;PostsModule</title>
<path fill="none" stroke="black" d="M365.86,-198.11C365.86,-217.34 365.86,-245 365.86,-245 365.86,-245 839.43,-245 839.43,-245"/>
<polygon fill="black" stroke="black" points="839.43,-248.5 849.43,-245 839.43,-241.5 839.43,-248.5"/>
</g>
<!-- PaginationModule&#45;&gt;AppModule -->
<g id="edge5" class="edge">
<title>PaginationModule&#45;&gt;AppModule</title>
<path fill="none" stroke="black" d="M336,-198.04C336,-235.45 336,-318 336,-318 336,-318 448.94,-318 448.94,-318"/>
<polygon fill="black" stroke="black" points="448.94,-321.5 458.94,-318 448.94,-314.5 448.94,-321.5"/>
</g>
<!-- PaginationService  -->
<g id="node24" class="node">
<title>PaginationService </title>
<polygon fill="#fb8072" stroke="black" points="1382.86,-266 1261.14,-266 1261.14,-230 1382.86,-230 1382.86,-266"/>
<text text-anchor="middle" x="1322" y="-243.8" font-family="Times,serif" font-size="14.00">PaginationService </text>
</g>
<!-- PaginationModule&#45;&gt;PaginationService  -->
<g id="edge23" class="edge">
<title>PaginationModule&#45;&gt;PaginationService </title>
<path fill="none" stroke="black" stroke-dasharray="5,2" d="M306.14,-198.06C306.14,-202.49 306.14,-206 306.14,-206 306.14,-206 1294.15,-206 1294.15,-206 1294.15,-206 1294.15,-219.94 1294.15,-219.94"/>
<polygon fill="black" stroke="black" points="1290.65,-219.94 1294.15,-229.94 1297.65,-219.94 1290.65,-219.94"/>
</g>
<!-- PostsModule&#45;&gt;AppModule -->
<g id="edge6" class="edge">
<title>PostsModule&#45;&gt;AppModule</title>
<path fill="none" stroke="black" d="M849.24,-259C752.98,-259 534.89,-259 534.89,-259 534.89,-259 534.89,-295.89 534.89,-295.89"/>
<polygon fill="black" stroke="black" points="531.39,-295.89 534.89,-305.89 538.39,-295.89 531.39,-295.89"/>
</g>
<!-- PostsService  -->
<g id="node25" class="node">
<title>PostsService </title>
<polygon fill="#fb8072" stroke="black" points="1228.54,-342 1137.46,-342 1137.46,-306 1228.54,-306 1228.54,-342"/>
<text text-anchor="middle" x="1183" y="-319.8" font-family="Times,serif" font-size="14.00">PostsService </text>
</g>
<!-- PostsModule&#45;&gt;PostsService  -->
<g id="edge28" class="edge">
<title>PostsModule&#45;&gt;PostsService </title>
<path fill="none" stroke="black" stroke-dasharray="5,2" d="M879.15,-266.11C879.15,-275.9 879.15,-286 879.15,-286 879.15,-286 1179.35,-286 1179.35,-286 1179.35,-286 1179.35,-295.89 1179.35,-295.89"/>
<polygon fill="black" stroke="black" points="1175.86,-295.89 1179.35,-305.89 1182.86,-295.89 1175.86,-295.89"/>
</g>
<!-- TagsModule -->
<g id="node7" class="node">
<title>TagsModule</title>
<polygon fill="#8dd3c7" stroke="black" points="953.26,-198 950.26,-202 929.26,-202 926.26,-198 866.74,-198 866.74,-162 953.26,-162 953.26,-198"/>
<text text-anchor="middle" x="910" y="-175.8" font-family="Times,serif" font-size="14.00">TagsModule</text>
</g>
<!-- TagsModule&#45;&gt;PostsModule -->
<g id="edge26" class="edge">
<title>TagsModule&#45;&gt;PostsModule</title>
<path fill="none" stroke="black" d="M902.59,-198.22C902.59,-198.22 902.59,-219.73 902.59,-219.73"/>
<polygon fill="black" stroke="black" points="899.09,-219.73 902.59,-229.73 906.09,-219.73 899.09,-219.73"/>
</g>
<!-- TagsModule&#45;&gt;AppModule -->
<g id="edge7" class="edge">
<title>TagsModule&#45;&gt;AppModule</title>
<path fill="none" stroke="black" d="M945.97,-198.15C945.97,-237.67 945.97,-328 945.97,-328 945.97,-328 552.86,-328 552.86,-328"/>
<polygon fill="black" stroke="black" points="552.86,-324.5 542.86,-328 552.86,-331.5 552.86,-324.5"/>
</g>
<!-- TagsService  -->
<g id="node27" class="node">
<title>TagsService </title>
<polygon fill="#fb8072" stroke="black" points="1653.19,-266 1564.81,-266 1564.81,-230 1653.19,-230 1653.19,-266"/>
<text text-anchor="middle" x="1609" y="-243.8" font-family="Times,serif" font-size="14.00">TagsService </text>
</g>
<!-- TagsModule&#45;&gt;TagsService  -->
<g id="edge30" class="edge">
<title>TagsModule&#45;&gt;TagsService </title>
<path fill="none" stroke="black" stroke-dasharray="5,2" d="M953.49,-174C1102.12,-174 1580.73,-174 1580.73,-174 1580.73,-174 1580.73,-219.71 1580.73,-219.71"/>
<polygon fill="black" stroke="black" points="1577.23,-219.71 1580.73,-229.71 1584.23,-219.71 1577.23,-219.71"/>
</g>
<!-- UserModule -->
<g id="node8" class="node">
<title>UserModule</title>
<polygon fill="#8dd3c7" stroke="black" points="604.98,-198 601.98,-202 580.98,-202 577.98,-198 519.02,-198 519.02,-162 604.98,-162 604.98,-198"/>
<text text-anchor="middle" x="562" y="-175.8" font-family="Times,serif" font-size="14.00">UserModule</text>
</g>
<!-- UserModule&#45;&gt;PostsModule -->
<g id="edge27" class="edge">
<title>UserModule&#45;&gt;PostsModule</title>
<path fill="none" stroke="black" d="M573.91,-198.03C573.91,-215.06 573.91,-238 573.91,-238 573.91,-238 839.16,-238 839.16,-238"/>
<polygon fill="black" stroke="black" points="839.16,-241.5 849.16,-238 839.16,-234.5 839.16,-241.5"/>
</g>
<!-- UserModule&#45;&gt;AppModule -->
<g id="edge8" class="edge">
<title>UserModule&#45;&gt;AppModule</title>
<path fill="none" stroke="black" d="M526.95,-198.24C526.95,-198.24 526.95,-295.91 526.95,-295.91"/>
<polygon fill="black" stroke="black" points="523.45,-295.91 526.95,-305.91 530.45,-295.91 523.45,-295.91"/>
</g>
<!-- UserService  -->
<g id="node29" class="node">
<title>UserService </title>
<polygon fill="#fb8072" stroke="black" points="2530.9,-122 2443.1,-122 2443.1,-86 2530.9,-86 2530.9,-122"/>
<text text-anchor="middle" x="2487" y="-99.8" font-family="Times,serif" font-size="14.00">UserService </text>
</g>
<!-- UserModule&#45;&gt;UserService  -->
<g id="edge32" class="edge">
<title>UserModule&#45;&gt;UserService </title>
<path fill="none" stroke="black" stroke-dasharray="5,2" d="M554.97,-161.79C554.97,-156.45 554.97,-152 554.97,-152 554.97,-152 2487,-152 2487,-152 2487,-152 2487,-132.15 2487,-132.15"/>
<polygon fill="black" stroke="black" points="2490.5,-132.15 2487,-122.15 2483.5,-132.15 2490.5,-132.15"/>
</g>
<!-- AppService -->
<g id="node10" class="node">
<title>AppService</title>
<ellipse fill="#fdb462" stroke="black" cx="301" cy="-104" rx="56.74" ry="18"/>
<text text-anchor="middle" x="301" y="-99.8" font-family="Times,serif" font-size="14.00">AppService</text>
</g>
<!-- AppService&#45;&gt;AppModule -->
<g id="edge9" class="edge">
<title>AppService&#45;&gt;AppModule</title>
<path fill="none" stroke="black" d="M260.33,-116.8C260.33,-164.61 260.33,-330 260.33,-330 260.33,-330 449.08,-330 449.08,-330"/>
<polygon fill="black" stroke="black" points="449.08,-333.5 459.08,-330 449.08,-326.5 449.08,-333.5"/>
</g>
<!-- PaginationService -->
<g id="node11" class="node">
<title>PaginationService</title>
<ellipse fill="#fdb462" stroke="black" cx="457" cy="-104" rx="81.1" ry="18"/>
<text text-anchor="middle" x="457" y="-99.8" font-family="Times,serif" font-size="14.00">PaginationService</text>
</g>
<!-- PaginationService&#45;&gt;PaginationModule -->
<g id="edge24" class="edge">
<title>PaginationService&#45;&gt;PaginationModule</title>
<path fill="none" stroke="black" d="M385.71,-112.72C385.71,-112.72 385.71,-151.88 385.71,-151.88"/>
<polygon fill="black" stroke="black" points="382.21,-151.88 385.71,-161.88 389.21,-151.88 382.21,-151.88"/>
</g>
<!-- PaginationService&#45;&gt;AppModule -->
<g id="edge10" class="edge">
<title>PaginationService&#45;&gt;AppModule</title>
<path fill="none" stroke="black" d="M509.89,-117.76C509.89,-117.76 509.89,-295.73 509.89,-295.73"/>
<polygon fill="black" stroke="black" points="506.39,-295.73 509.89,-305.73 513.39,-295.73 506.39,-295.73"/>
</g>
<!-- AuthService -->
<g id="node14" class="node">
<title>AuthService</title>
<ellipse fill="#fdb462" stroke="black" cx="1052" cy="-104" rx="59.11" ry="18"/>
<text text-anchor="middle" x="1052" y="-99.8" font-family="Times,serif" font-size="14.00">AuthService</text>
</g>
<!-- AuthService&#45;&gt;AuthModule -->
<g id="edge13" class="edge">
<title>AuthService&#45;&gt;AuthModule</title>
<path fill="none" stroke="black" d="M1022.35,-119.99C1022.35,-123.4 1022.35,-126 1022.35,-126 1022.35,-126 450.75,-126 450.75,-126 450.75,-126 450.75,-151.72 450.75,-151.72"/>
<polygon fill="black" stroke="black" points="447.25,-151.72 450.75,-161.72 454.25,-151.72 447.25,-151.72"/>
</g>
<!-- GenerateTokenProvider -->
<g id="node15" class="node">
<title>GenerateTokenProvider</title>
<ellipse fill="#fdb462" stroke="black" cx="1719" cy="-104" rx="103.61" ry="18"/>
<text text-anchor="middle" x="1719" y="-99.8" font-family="Times,serif" font-size="14.00">GenerateTokenProvider</text>
</g>
<!-- GenerateTokenProvider&#45;&gt;AuthModule -->
<g id="edge14" class="edge">
<title>GenerateTokenProvider&#45;&gt;AuthModule</title>
<path fill="none" stroke="black" d="M1634.27,-114.48C1634.27,-123.81 1634.27,-136 1634.27,-136 1634.27,-136 488.27,-136 488.27,-136 488.27,-136 488.27,-151.85 488.27,-151.85"/>
<polygon fill="black" stroke="black" points="484.77,-151.85 488.27,-161.85 491.77,-151.85 484.77,-151.85"/>
</g>
<!-- GoogleAuthenticationService -->
<g id="node16" class="node">
<title>GoogleAuthenticationService</title>
<ellipse fill="#fdb462" stroke="black" cx="1471" cy="-104" rx="125.62" ry="18"/>
<text text-anchor="middle" x="1471" y="-99.8" font-family="Times,serif" font-size="14.00">GoogleAuthenticationService</text>
</g>
<!-- GoogleAuthenticationService&#45;&gt;AuthModule -->
<g id="edge15" class="edge">
<title>GoogleAuthenticationService&#45;&gt;AuthModule</title>
<path fill="none" stroke="black" d="M1363.93,-113.48C1363.93,-121.6 1363.93,-132 1363.93,-132 1363.93,-132 475.76,-132 475.76,-132 475.76,-132 475.76,-151.85 475.76,-151.85"/>
<polygon fill="black" stroke="black" points="472.26,-151.85 475.76,-161.85 479.26,-151.85 472.26,-151.85"/>
</g>
<!-- RefreshTokenProvider -->
<g id="node17" class="node">
<title>RefreshTokenProvider</title>
<ellipse fill="#fdb462" stroke="black" cx="1228" cy="-104" rx="98.98" ry="18"/>
<text text-anchor="middle" x="1228" y="-99.8" font-family="Times,serif" font-size="14.00">RefreshTokenProvider</text>
</g>
<!-- RefreshTokenProvider&#45;&gt;AuthModule -->
<g id="edge16" class="edge">
<title>RefreshTokenProvider&#45;&gt;AuthModule</title>
<path fill="none" stroke="black" d="M1175.12,-119.41C1175.12,-124.55 1175.12,-129 1175.12,-129 1175.12,-129 463.25,-129 463.25,-129 463.25,-129 463.25,-151.88 463.25,-151.88"/>
<polygon fill="black" stroke="black" points="459.75,-151.88 463.25,-161.88 466.75,-151.88 459.75,-151.88"/>
</g>
<!-- FileUploadService -->
<g id="node18" class="node">
<title>FileUploadService</title>
<ellipse fill="#fdb462" stroke="black" cx="2654" cy="-104" rx="83.38" ry="18"/>
<text text-anchor="middle" x="2654" y="-99.8" font-family="Times,serif" font-size="14.00">FileUploadService</text>
</g>
<!-- FileUploadService&#45;&gt;FileUploadModule -->
<g id="edge17" class="edge">
<title>FileUploadService&#45;&gt;FileUploadModule</title>
<path fill="none" stroke="black" d="M2654,-122.19C2654,-137.18 2654,-156 2654,-156 2654,-156 663.58,-156 663.58,-156 663.58,-156 663.58,-156.58 663.58,-156.58"/>
<polygon fill="black" stroke="black" points="660.08,-151.81 663.58,-161.81 667.08,-151.81 660.08,-151.81"/>
</g>
<!-- UploadToAwsProvider -->
<g id="node19" class="node">
<title>UploadToAwsProvider</title>
<ellipse fill="#fdb462" stroke="black" cx="2857" cy="-104" rx="101.29" ry="18"/>
<text text-anchor="middle" x="2857" y="-99.8" font-family="Times,serif" font-size="14.00">UploadToAwsProvider</text>
</g>
<!-- UploadToAwsProvider&#45;&gt;FileUploadModule -->
<g id="edge18" class="edge">
<title>UploadToAwsProvider&#45;&gt;FileUploadModule</title>
<path fill="none" stroke="black" d="M2857,-122.01C2857,-138.05 2857,-159 2857,-159 2857,-159 704.42,-159 704.42,-159 704.42,-159 704.42,-159.29 704.42,-159.29"/>
<polygon fill="black" stroke="black" points="700.92,-151.92 704.42,-161.92 707.92,-151.92 700.92,-151.92"/>
</g>
<!-- MailService -->
<g id="node21" class="node">
<title>MailService</title>
<ellipse fill="#fdb462" stroke="black" cx="1163" cy="-248" rx="58.46" ry="18"/>
<text text-anchor="middle" x="1163" y="-243.8" font-family="Times,serif" font-size="14.00">MailService</text>
</g>
<!-- MailService&#45;&gt;MailModule -->
<g id="edge20" class="edge">
<title>MailService&#45;&gt;MailModule</title>
<path fill="none" stroke="black" d="M1120.16,-235.73C1120.16,-225.99 1120.16,-214 1120.16,-214 1120.16,-214 784.5,-214 784.5,-214 784.5,-214 784.5,-208.19 784.5,-208.19"/>
<polygon fill="black" stroke="black" points="788,-208.19 784.5,-198.19 781,-208.19 788,-208.19"/>
</g>
<!-- MetaOptionsService -->
<g id="node23" class="node">
<title>MetaOptionsService</title>
<ellipse fill="#fdb462" stroke="black" cx="114" cy="-180" rx="90.33" ry="18"/>
<text text-anchor="middle" x="114" y="-175.8" font-family="Times,serif" font-size="14.00">MetaOptionsService</text>
</g>
<!-- MetaOptionsService&#45;&gt;MetaOptionsModule -->
<g id="edge22" class="edge">
<title>MetaOptionsService&#45;&gt;MetaOptionsModule</title>
<path fill="none" stroke="black" d="M125,-198.22C125,-198.22 125,-219.73 125,-219.73"/>
<polygon fill="black" stroke="black" points="121.5,-219.73 125,-229.73 128.5,-219.73 121.5,-219.73"/>
</g>
<!-- PostsService -->
<g id="node26" class="node">
<title>PostsService</title>
<ellipse fill="#fdb462" stroke="black" cx="1053" cy="-324" rx="60.27" ry="18"/>
<text text-anchor="middle" x="1053" y="-319.8" font-family="Times,serif" font-size="14.00">PostsService</text>
</g>
<!-- PostsService&#45;&gt;PostsModule -->
<g id="edge29" class="edge">
<title>PostsService&#45;&gt;PostsModule</title>
<path fill="none" stroke="black" d="M1005,-335C963.07,-335 908.85,-335 908.85,-335 908.85,-335 908.85,-276.03 908.85,-276.03"/>
<polygon fill="black" stroke="black" points="912.35,-276.03 908.85,-266.03 905.35,-276.03 912.35,-276.03"/>
</g>
<!-- TagsService -->
<g id="node28" class="node">
<title>TagsService</title>
<ellipse fill="#fdb462" stroke="black" cx="1482" cy="-248" rx="58.53" ry="18"/>
<text text-anchor="middle" x="1482" y="-243.8" font-family="Times,serif" font-size="14.00">TagsService</text>
</g>
<!-- TagsService&#45;&gt;TagsModule -->
<g id="edge31" class="edge">
<title>TagsService&#45;&gt;TagsModule</title>
<path fill="none" stroke="black" d="M1482,-229.73C1482,-211.44 1482,-186 1482,-186 1482,-186 963.46,-186 963.46,-186"/>
<polygon fill="black" stroke="black" points="963.46,-182.5 953.46,-186 963.46,-189.5 963.46,-182.5"/>
</g>
<!-- CreateUserProvider -->
<g id="node30" class="node">
<title>CreateUserProvider</title>
<ellipse fill="#fdb462" stroke="black" cx="2197" cy="-104" rx="87.94" ry="18"/>
<text text-anchor="middle" x="2197" y="-99.8" font-family="Times,serif" font-size="14.00">CreateUserProvider</text>
</g>
<!-- CreateUserProvider&#45;&gt;UserModule -->
<g id="edge33" class="edge">
<title>CreateUserProvider&#45;&gt;UserModule</title>
<path fill="none" stroke="black" d="M2197,-122.06C2197,-133.44 2197,-146 2197,-146 2197,-146 571.64,-146 571.64,-146 571.64,-146 571.64,-151.81 571.64,-151.81"/>
<polygon fill="black" stroke="black" points="568.14,-151.81 571.64,-161.81 575.14,-151.81 568.14,-151.81"/>
</g>
<!-- UserService -->
<g id="node31" class="node">
<title>UserService</title>
<ellipse fill="#fdb462" stroke="black" cx="2361" cy="-104" rx="58.44" ry="18"/>
<text text-anchor="middle" x="2361" y="-99.8" font-family="Times,serif" font-size="14.00">UserService</text>
</g>
<!-- UserService&#45;&gt;UserModule -->
<g id="edge34" class="edge">
<title>UserService&#45;&gt;UserModule</title>
<path fill="none" stroke="black" d="M2361,-122.04C2361,-134.56 2361,-149 2361,-149 2361,-149 588.32,-149 588.32,-149 588.32,-149 588.32,-151.97 588.32,-151.97"/>
<polygon fill="black" stroke="black" points="584.82,-151.97 588.32,-161.97 591.82,-151.97 584.82,-151.97"/>
</g>
</g>
</svg>
