<?xml version="1.0" encoding="UTF-8" standalone="no"?>
<!DOCTYPE svg PUBLIC "-//W3C//DTD SVG 1.1//EN"
 "http://www.w3.org/Graphics/SVG/1.1/DTD/svg11.dtd">
<!-- Generated by graphviz version 2.47.0 (20210316.0004)
 -->
<!-- Title: dependencies Pages: 1 -->
<svg width="2030pt" height="366pt"
 viewBox="0.00 0.00 2030.00 366.00" xmlns="http://www.w3.org/2000/svg" xmlns:xlink="http://www.w3.org/1999/xlink">
<g id="graph0" class="graph" transform="scale(1 1) rotate(0) translate(4 362)">
<title>dependencies</title>
<polygon fill="white" stroke="transparent" points="-4,4 -4,-362 2026,-362 2026,4 -4,4"/>
<text text-anchor="start" x="990.01" y="-42.4" font-family="Times-12" font-weight="bold" font-size="14.00">Legend</text>
<polygon fill="#ffffb3" stroke="transparent" points="777,-10 777,-30 797,-30 797,-10 777,-10"/>
<text text-anchor="start" x="800.63" y="-15.4" font-family="Times-12" font-size="14.00"> &#160;Declarations</text>
<polygon fill="#8dd3c7" stroke="transparent" points="890,-10 890,-30 910,-30 910,-10 890,-10"/>
<text text-anchor="start" x="913.73" y="-15.4" font-family="Times-12" font-size="14.00"> &#160;Module</text>
<polygon fill="#80b1d3" stroke="transparent" points="976,-10 976,-30 996,-30 996,-10 976,-10"/>
<text text-anchor="start" x="999.78" y="-15.4" font-family="Times-12" font-size="14.00"> &#160;Bootstrap</text>
<polygon fill="#fdb462" stroke="transparent" points="1073,-10 1073,-30 1093,-30 1093,-10 1073,-10"/>
<text text-anchor="start" x="1096.67" y="-15.4" font-family="Times-12" font-size="14.00"> &#160;Providers</text>
<polygon fill="#fb8072" stroke="transparent" points="1169,-10 1169,-30 1189,-30 1189,-10 1169,-10"/>
<text text-anchor="start" x="1192.73" y="-15.4" font-family="Times-12" font-size="14.00"> &#160;Exports</text>
<g id="clust13" class="cluster">
<title>cluster_MetaOptionsModule</title>
<polygon fill="none" stroke="black" stroke-dasharray="1,5" points="858,-70 858,-282 1070,-282 1070,-70 858,-70"/>
</g>
<g id="clust18" class="cluster">
<title>cluster_MetaOptionsModule_providers</title>
<polygon fill="none" stroke="black" points="866,-78 866,-130 1062,-130 1062,-78 866,-78"/>
</g>
<g id="clust16" class="cluster">
<title>cluster_MetaOptionsModule_exports</title>
<polygon fill="none" stroke="black" points="877,-222 877,-274 1027,-274 1027,-222 877,-222"/>
</g>
<g id="clust25" class="cluster">
<title>cluster_PostsModule</title>
<polygon fill="none" stroke="black" stroke-dasharray="1,5" points="1078,-146 1078,-350 1582,-350 1582,-146 1078,-146"/>
</g>
<g id="clust27" class="cluster">
<title>cluster_PostsModule_imports</title>
<polygon fill="none" stroke="black" points="1086,-154 1086,-206 1430,-206 1430,-154 1086,-154"/>
</g>
<g id="clust28" class="cluster">
<title>cluster_PostsModule_exports</title>
<polygon fill="none" stroke="black" points="1204,-290 1204,-342 1312,-342 1312,-290 1204,-290"/>
</g>
<g id="clust30" class="cluster">
<title>cluster_PostsModule_providers</title>
<polygon fill="none" stroke="black" points="1438,-154 1438,-206 1574,-206 1574,-154 1438,-154"/>
</g>
<g id="clust1" class="cluster">
<title>cluster_AppModule</title>
<polygon fill="none" stroke="black" stroke-dasharray="1,5" points="412,-146 412,-274 850,-274 850,-146 412,-146"/>
</g>
<g id="clust6" class="cluster">
<title>cluster_AppModule_providers</title>
<polygon fill="none" stroke="black" points="532,-154 532,-206 842,-206 842,-154 532,-154"/>
</g>
<g id="clust3" class="cluster">
<title>cluster_AppModule_imports</title>
<polygon fill="none" stroke="black" points="420,-154 420,-206 524,-206 524,-154 420,-154"/>
</g>
<g id="clust7" class="cluster">
<title>cluster_AuthModule</title>
<polygon fill="none" stroke="black" stroke-dasharray="1,5" points="8,-214 8,-282 404,-282 404,-214 8,-214"/>
</g>
<g id="clust12" class="cluster">
<title>cluster_AuthModule_providers</title>
<polygon fill="none" stroke="black" points="262,-222 262,-274 396,-274 396,-222 262,-222"/>
</g>
<g id="clust10" class="cluster">
<title>cluster_AuthModule_exports</title>
<polygon fill="none" stroke="black" points="16,-222 16,-274 254,-274 254,-222 16,-222"/>
</g>
<g id="clust19" class="cluster">
<title>cluster_PaginationModule</title>
<polygon fill="none" stroke="black" stroke-dasharray="1,5" points="1590,-214 1590,-282 1744,-282 1744,-214 1590,-214"/>
</g>
<g id="clust22" class="cluster">
<title>cluster_PaginationModule_exports</title>
<polygon fill="none" stroke="black" points="1598,-222 1598,-274 1736,-274 1736,-222 1598,-222"/>
</g>
<g id="clust37" class="cluster">
<title>cluster_UserModule</title>
<polygon fill="none" stroke="black" stroke-dasharray="1,5" points="1078,-70 1078,-138 1704,-138 1704,-70 1078,-70"/>
</g>
<g id="clust40" class="cluster">
<title>cluster_UserModule_exports</title>
<polygon fill="none" stroke="black" points="1592,-78 1592,-130 1696,-130 1696,-78 1592,-78"/>
</g>
<g id="clust42" class="cluster">
<title>cluster_UserModule_providers</title>
<polygon fill="none" stroke="black" points="1086,-78 1086,-130 1584,-130 1584,-78 1086,-78"/>
</g>
<g id="clust31" class="cluster">
<title>cluster_TagsModule</title>
<polygon fill="none" stroke="black" stroke-dasharray="1,5" points="1752,-214 1752,-282 2014,-282 2014,-214 1752,-214"/>
</g>
<g id="clust34" class="cluster">
<title>cluster_TagsModule_exports</title>
<polygon fill="none" stroke="black" points="1902,-222 1902,-274 2006,-274 2006,-222 1902,-222"/>
</g>
<g id="clust36" class="cluster">
<title>cluster_TagsModule_providers</title>
<polygon fill="none" stroke="black" points="1760,-222 1760,-274 1894,-274 1894,-222 1760,-222"/>
</g>
<!-- AuthModule -->
<g id="node1" class="node">
<title>AuthModule</title>
<polygon fill="#8dd3c7" stroke="black" points="515.55,-198 512.55,-202 491.55,-202 488.55,-198 428.45,-198 428.45,-162 515.55,-162 515.55,-198"/>
<text text-anchor="middle" x="472" y="-175.8" font-family="Times,serif" font-size="14.00">AuthModule</text>
</g>
<!-- AppModule -->
<g id="node7" class="node">
<title>AppModule</title>
<polygon fill="#8dd3c7" stroke="black" points="841.66,-266 838.66,-270 817.66,-270 814.66,-266 758.34,-266 758.34,-230 841.66,-230 841.66,-266"/>
<text text-anchor="middle" x="800" y="-243.8" font-family="Times,serif" font-size="14.00">AppModule</text>
</g>
<!-- AuthModule&#45;&gt;AppModule -->
<g id="edge1" class="edge">
<title>AuthModule&#45;&gt;AppModule</title>
<path fill="none" stroke="black" d="M486.59,-198.22C486.59,-218.37 486.59,-248 486.59,-248 486.59,-248 748.06,-248 748.06,-248"/>
<polygon fill="black" stroke="black" points="748.06,-251.5 758.06,-248 748.06,-244.5 748.06,-251.5"/>
</g>
<!-- AuthService  -->
<g id="node10" class="node">
<title>AuthService </title>
<polygon fill="#fb8072" stroke="black" points="245.98,-266 156.02,-266 156.02,-230 245.98,-230 245.98,-266"/>
<text text-anchor="middle" x="201" y="-243.8" font-family="Times,serif" font-size="14.00">AuthService </text>
</g>
<!-- AuthModule&#45;&gt;AuthService  -->
<g id="edge9" class="edge">
<title>AuthModule&#45;&gt;AuthService </title>
<path fill="none" stroke="black" stroke-dasharray="5,2" d="M428.16,-186C351.46,-186 201,-186 201,-186 201,-186 201,-219.73 201,-219.73"/>
<polygon fill="black" stroke="black" points="197.5,-219.73 201,-229.73 204.5,-219.73 197.5,-219.73"/>
</g>
<!-- HashingProvider  -->
<g id="node11" class="node">
<title>HashingProvider </title>
<polygon fill="#fb8072" stroke="black" points="138.37,-266 23.63,-266 23.63,-230 138.37,-230 138.37,-266"/>
<text text-anchor="middle" x="81" y="-243.8" font-family="Times,serif" font-size="14.00">HashingProvider </text>
</g>
<!-- AuthModule&#45;&gt;HashingProvider  -->
<g id="edge10" class="edge">
<title>AuthModule&#45;&gt;HashingProvider </title>
<path fill="none" stroke="black" stroke-dasharray="5,2" d="M428.29,-174C326.26,-174 81,-174 81,-174 81,-174 81,-219.71 81,-219.71"/>
<polygon fill="black" stroke="black" points="77.5,-219.71 81,-229.71 84.5,-219.71 77.5,-219.71"/>
</g>
<!-- MetaOptionsModule -->
<g id="node2" class="node">
<title>MetaOptionsModule</title>
<polygon fill="#8dd3c7" stroke="black" points="1018.15,-198 1015.15,-202 994.15,-202 991.15,-198 885.85,-198 885.85,-162 1018.15,-162 1018.15,-198"/>
<text text-anchor="middle" x="952" y="-175.8" font-family="Times,serif" font-size="14.00">MetaOptionsModule</text>
</g>
<!-- MetaOptionsModule&#45;&gt;AppModule -->
<g id="edge2" class="edge">
<title>MetaOptionsModule&#45;&gt;AppModule</title>
<path fill="none" stroke="black" d="M885.68,-180C859.56,-180 835.67,-180 835.67,-180 835.67,-180 835.67,-219.78 835.67,-219.78"/>
<polygon fill="black" stroke="black" points="832.17,-219.78 835.67,-229.78 839.17,-219.78 832.17,-219.78"/>
</g>
<!-- MetaOptionsService  -->
<g id="node13" class="node">
<title>MetaOptionsService </title>
<polygon fill="#fb8072" stroke="black" points="1019.08,-266 884.92,-266 884.92,-230 1019.08,-230 1019.08,-266"/>
<text text-anchor="middle" x="952" y="-243.8" font-family="Times,serif" font-size="14.00">MetaOptionsService </text>
</g>
<!-- MetaOptionsModule&#45;&gt;MetaOptionsService  -->
<g id="edge12" class="edge">
<title>MetaOptionsModule&#45;&gt;MetaOptionsService </title>
<path fill="none" stroke="black" stroke-dasharray="5,2" d="M952,-198.22C952,-198.22 952,-219.73 952,-219.73"/>
<polygon fill="black" stroke="black" points="948.5,-219.73 952,-229.73 955.5,-219.73 948.5,-219.73"/>
</g>
<!-- PaginationModule -->
<g id="node3" class="node">
<title>PaginationModule</title>
<polygon fill="#8dd3c7" stroke="black" points="1317.93,-198 1314.93,-202 1293.93,-202 1290.93,-198 1198.07,-198 1198.07,-162 1317.93,-162 1317.93,-198"/>
<text text-anchor="middle" x="1258" y="-175.8" font-family="Times,serif" font-size="14.00">PaginationModule</text>
</g>
<!-- PostsModule -->
<g id="node4" class="node">
<title>PostsModule</title>
<polygon fill="#8dd3c7" stroke="black" points="1302.61,-266 1299.61,-270 1278.61,-270 1275.61,-266 1213.39,-266 1213.39,-230 1302.61,-230 1302.61,-266"/>
<text text-anchor="middle" x="1258" y="-243.8" font-family="Times,serif" font-size="14.00">PostsModule</text>
</g>
<!-- PaginationModule&#45;&gt;PostsModule -->
<g id="edge16" class="edge">
<title>PaginationModule&#45;&gt;PostsModule</title>
<path fill="none" stroke="black" d="M1272.85,-198.22C1272.85,-198.22 1272.85,-219.73 1272.85,-219.73"/>
<polygon fill="black" stroke="black" points="1269.35,-219.73 1272.85,-229.73 1276.35,-219.73 1269.35,-219.73"/>
</g>
<!-- PaginationModule&#45;&gt;AppModule -->
<g id="edge3" class="edge">
<title>PaginationModule&#45;&gt;AppModule</title>
<path fill="none" stroke="black" d="M1207.75,-198.14C1207.75,-204.46 1207.75,-210 1207.75,-210 1207.75,-210 795.9,-210 795.9,-210 795.9,-210 795.9,-219.89 795.9,-219.89"/>
<polygon fill="black" stroke="black" points="792.4,-219.89 795.9,-229.89 799.4,-219.89 792.4,-219.89"/>
</g>
<!-- PaginationService  -->
<g id="node15" class="node">
<title>PaginationService </title>
<polygon fill="#fb8072" stroke="black" points="1727.86,-266 1606.14,-266 1606.14,-230 1727.86,-230 1727.86,-266"/>
<text text-anchor="middle" x="1667" y="-243.8" font-family="Times,serif" font-size="14.00">PaginationService </text>
</g>
<!-- PaginationModule&#45;&gt;PaginationService  -->
<g id="edge14" class="edge">
<title>PaginationModule&#45;&gt;PaginationService </title>
<path fill="none" stroke="black" stroke-dasharray="5,2" d="M1310.62,-198.02C1310.62,-215.37 1310.62,-239 1310.62,-239 1310.62,-239 1596.14,-239 1596.14,-239"/>
<polygon fill="black" stroke="black" points="1596.14,-242.5 1606.14,-239 1596.14,-235.5 1596.14,-242.5"/>
</g>
<!-- PostsModule&#45;&gt;AppModule -->
<g id="edge4" class="edge">
<title>PostsModule&#45;&gt;AppModule</title>
<path fill="none" stroke="black" d="M1243.15,-229.83C1243.15,-227.55 1243.15,-226 1243.15,-226 1243.15,-226 839.78,-226 839.78,-226 839.78,-226 839.78,-226.38 839.78,-226.38"/>
<polygon fill="black" stroke="black" points="836.28,-219.83 839.78,-229.83 843.28,-219.83 836.28,-219.83"/>
</g>
<!-- PostsService  -->
<g id="node16" class="node">
<title>PostsService </title>
<polygon fill="#fb8072" stroke="black" points="1303.54,-334 1212.46,-334 1212.46,-298 1303.54,-298 1303.54,-334"/>
<text text-anchor="middle" x="1258" y="-311.8" font-family="Times,serif" font-size="14.00">PostsService </text>
</g>
<!-- PostsModule&#45;&gt;PostsService  -->
<g id="edge19" class="edge">
<title>PostsModule&#45;&gt;PostsService </title>
<path fill="none" stroke="black" stroke-dasharray="5,2" d="M1258,-266.22C1258,-266.22 1258,-287.73 1258,-287.73"/>
<polygon fill="black" stroke="black" points="1254.5,-287.73 1258,-297.73 1261.5,-287.73 1254.5,-287.73"/>
</g>
<!-- TagsModule -->
<g id="node5" class="node">
<title>TagsModule</title>
<polygon fill="#8dd3c7" stroke="black" points="1422.26,-198 1419.26,-202 1398.26,-202 1395.26,-198 1335.74,-198 1335.74,-162 1422.26,-162 1422.26,-198"/>
<text text-anchor="middle" x="1379" y="-175.8" font-family="Times,serif" font-size="14.00">TagsModule</text>
</g>
<!-- TagsModule&#45;&gt;PostsModule -->
<g id="edge17" class="edge">
<title>TagsModule&#45;&gt;PostsModule</title>
<path fill="none" stroke="black" d="M1405.03,-198.22C1405.03,-218.37 1405.03,-248 1405.03,-248 1405.03,-248 1312.91,-248 1312.91,-248"/>
<polygon fill="black" stroke="black" points="1312.91,-244.5 1302.91,-248 1312.91,-251.5 1312.91,-244.5"/>
</g>
<!-- TagsModule&#45;&gt;AppModule -->
<g id="edge5" class="edge">
<title>TagsModule&#45;&gt;AppModule</title>
<path fill="none" stroke="black" d="M1352.97,-198.19C1352.97,-206.28 1352.97,-214 1352.97,-214 1352.97,-214 814.76,-214 814.76,-214 814.76,-214 814.76,-219.81 814.76,-219.81"/>
<polygon fill="black" stroke="black" points="811.26,-219.81 814.76,-229.81 818.26,-219.81 811.26,-219.81"/>
</g>
<!-- TagsService  -->
<g id="node18" class="node">
<title>TagsService </title>
<polygon fill="#fb8072" stroke="black" points="1998.19,-266 1909.81,-266 1909.81,-230 1998.19,-230 1998.19,-266"/>
<text text-anchor="middle" x="1954" y="-243.8" font-family="Times,serif" font-size="14.00">TagsService </text>
</g>
<!-- TagsModule&#45;&gt;TagsService  -->
<g id="edge21" class="edge">
<title>TagsModule&#45;&gt;TagsService </title>
<path fill="none" stroke="black" stroke-dasharray="5,2" d="M1370.32,-198.06C1370.32,-202.49 1370.32,-206 1370.32,-206 1370.32,-206 1954,-206 1954,-206 1954,-206 1954,-219.94 1954,-219.94"/>
<polygon fill="black" stroke="black" points="1950.5,-219.94 1954,-229.94 1957.5,-219.94 1950.5,-219.94"/>
</g>
<!-- UserModule -->
<g id="node6" class="node">
<title>UserModule</title>
<polygon fill="#8dd3c7" stroke="black" points="1179.98,-198 1176.98,-202 1155.98,-202 1152.98,-198 1094.02,-198 1094.02,-162 1179.98,-162 1179.98,-198"/>
<text text-anchor="middle" x="1137" y="-175.8" font-family="Times,serif" font-size="14.00">UserModule</text>
</g>
<!-- UserModule&#45;&gt;PostsModule -->
<g id="edge18" class="edge">
<title>UserModule&#45;&gt;PostsModule</title>
<path fill="none" stroke="black" d="M1151.33,-198.22C1151.33,-218.37 1151.33,-248 1151.33,-248 1151.33,-248 1203.38,-248 1203.38,-248"/>
<polygon fill="black" stroke="black" points="1203.38,-251.5 1213.38,-248 1203.38,-244.5 1203.38,-251.5"/>
</g>
<!-- UserModule&#45;&gt;AppModule -->
<g id="edge6" class="edge">
<title>UserModule&#45;&gt;AppModule</title>
<path fill="none" stroke="black" d="M1122.67,-198.06C1122.67,-209.44 1122.67,-222 1122.67,-222 1122.67,-222 837.72,-222 837.72,-222 837.72,-222 837.72,-222.79 837.72,-222.79"/>
<polygon fill="black" stroke="black" points="834.22,-219.94 837.72,-229.94 841.22,-219.94 834.22,-219.94"/>
</g>
<!-- UserService  -->
<g id="node20" class="node">
<title>UserService </title>
<polygon fill="#fb8072" stroke="black" points="1687.9,-122 1600.1,-122 1600.1,-86 1687.9,-86 1687.9,-122"/>
<text text-anchor="middle" x="1644" y="-99.8" font-family="Times,serif" font-size="14.00">UserService </text>
</g>
<!-- UserModule&#45;&gt;UserService  -->
<g id="edge23" class="edge">
<title>UserModule&#45;&gt;UserService </title>
<path fill="none" stroke="black" stroke-dasharray="5,2" d="M1128.4,-161.79C1128.4,-156.45 1128.4,-152 1128.4,-152 1128.4,-152 1647.14,-152 1647.14,-152 1647.14,-152 1647.14,-132.15 1647.14,-132.15"/>
<polygon fill="black" stroke="black" points="1650.64,-132.15 1647.14,-122.15 1643.64,-132.15 1650.64,-132.15"/>
</g>
<!-- AppService -->
<g id="node8" class="node">
<title>AppService</title>
<ellipse fill="#fdb462" stroke="black" cx="777" cy="-180" rx="56.74" ry="18"/>
<text text-anchor="middle" x="777" y="-175.8" font-family="Times,serif" font-size="14.00">AppService</text>
</g>
<!-- AppService&#45;&gt;AppModule -->
<g id="edge7" class="edge">
<title>AppService&#45;&gt;AppModule</title>
<path fill="none" stroke="black" d="M777.03,-198.22C777.03,-198.22 777.03,-219.73 777.03,-219.73"/>
<polygon fill="black" stroke="black" points="773.53,-219.73 777.03,-229.73 780.53,-219.73 773.53,-219.73"/>
</g>
<!-- PaginationService -->
<g id="node9" class="node">
<title>PaginationService</title>
<ellipse fill="#fdb462" stroke="black" cx="621" cy="-180" rx="81.1" ry="18"/>
<text text-anchor="middle" x="621" y="-175.8" font-family="Times,serif" font-size="14.00">PaginationService</text>
</g>
<!-- PaginationService&#45;&gt;PaginationModule -->
<g id="edge15" class="edge">
<title>PaginationService&#45;&gt;PaginationModule</title>
<path fill="none" stroke="black" d="M593.9,-197.33C593.9,-200.06 593.9,-202 593.9,-202 593.9,-202 1203.02,-202 1203.02,-202 1203.02,-202 1203.02,-201.62 1203.02,-201.62"/>
<polygon fill="black" stroke="black" points="1206.52,-208.17 1203.02,-198.17 1199.52,-208.17 1206.52,-208.17"/>
</g>
<!-- PaginationService&#45;&gt;AppModule -->
<g id="edge8" class="edge">
<title>PaginationService&#45;&gt;AppModule</title>
<path fill="none" stroke="black" d="M648.1,-197.07C648.1,-214.49 648.1,-239 648.1,-239 648.1,-239 748.09,-239 748.09,-239"/>
<polygon fill="black" stroke="black" points="748.09,-242.5 758.09,-239 748.09,-235.5 748.09,-242.5"/>
</g>
<!-- AuthService -->
<g id="node12" class="node">
<title>AuthService</title>
<ellipse fill="#fdb462" stroke="black" cx="329" cy="-248" rx="59.11" ry="18"/>
<text text-anchor="middle" x="329" y="-243.8" font-family="Times,serif" font-size="14.00">AuthService</text>
</g>
<!-- AuthService&#45;&gt;AuthModule -->
<g id="edge11" class="edge">
<title>AuthService&#45;&gt;AuthModule</title>
<path fill="none" stroke="black" d="M380.49,-257C416.21,-257 457.41,-257 457.41,-257 457.41,-257 457.41,-208.25 457.41,-208.25"/>
<polygon fill="black" stroke="black" points="460.91,-208.25 457.41,-198.25 453.91,-208.25 460.91,-208.25"/>
</g>
<!-- MetaOptionsService -->
<g id="node14" class="node">
<title>MetaOptionsService</title>
<ellipse fill="#fdb462" stroke="black" cx="964" cy="-104" rx="90.33" ry="18"/>
<text text-anchor="middle" x="964" y="-99.8" font-family="Times,serif" font-size="14.00">MetaOptionsService</text>
</g>
<!-- MetaOptionsService&#45;&gt;MetaOptionsModule -->
<g id="edge13" class="edge">
<title>MetaOptionsService&#45;&gt;MetaOptionsModule</title>
<path fill="none" stroke="black" d="M952,-122.01C952,-122.01 952,-151.85 952,-151.85"/>
<polygon fill="black" stroke="black" points="948.5,-151.85 952,-161.85 955.5,-151.85 948.5,-151.85"/>
</g>
<!-- PostsService -->
<g id="node17" class="node">
<title>PostsService</title>
<ellipse fill="#fdb462" stroke="black" cx="1506" cy="-180" rx="60.27" ry="18"/>
<text text-anchor="middle" x="1506" y="-175.8" font-family="Times,serif" font-size="14.00">PostsService</text>
</g>
<!-- PostsService&#45;&gt;PostsModule -->
<g id="edge20" class="edge">
<title>PostsService&#45;&gt;PostsModule</title>
<path fill="none" stroke="black" d="M1506,-198.25C1506,-221.02 1506,-257 1506,-257 1506,-257 1312.62,-257 1312.62,-257"/>
<polygon fill="black" stroke="black" points="1312.62,-253.5 1302.62,-257 1312.62,-260.5 1312.62,-253.5"/>
</g>
<!-- TagsService -->
<g id="node19" class="node">
<title>TagsService</title>
<ellipse fill="#fdb462" stroke="black" cx="1827" cy="-248" rx="58.53" ry="18"/>
<text text-anchor="middle" x="1827" y="-243.8" font-family="Times,serif" font-size="14.00">TagsService</text>
</g>
<!-- TagsService&#45;&gt;TagsModule -->
<g id="edge22" class="edge">
<title>TagsService&#45;&gt;TagsModule</title>
<path fill="none" stroke="black" d="M1827,-229.86C1827,-223.54 1827,-218 1827,-218 1827,-218 1387.68,-218 1387.68,-218 1387.68,-218 1387.68,-208.11 1387.68,-208.11"/>
<polygon fill="black" stroke="black" points="1391.18,-208.11 1387.68,-198.11 1384.18,-208.11 1391.18,-208.11"/>
</g>
<!-- CreateUserProvider -->
<g id="node21" class="node">
<title>CreateUserProvider</title>
<ellipse fill="#fdb462" stroke="black" cx="1354" cy="-104" rx="87.94" ry="18"/>
<text text-anchor="middle" x="1354" y="-99.8" font-family="Times,serif" font-size="14.00">CreateUserProvider</text>
</g>
<!-- CreateUserProvider&#45;&gt;UserModule -->
<g id="edge24" class="edge">
<title>CreateUserProvider&#45;&gt;UserModule</title>
<path fill="none" stroke="black" d="M1292,-117.02C1292,-124.33 1292,-132 1292,-132 1292,-132 1145.6,-132 1145.6,-132 1145.6,-132 1145.6,-151.85 1145.6,-151.85"/>
<polygon fill="black" stroke="black" points="1142.1,-151.85 1145.6,-161.85 1149.1,-151.85 1142.1,-151.85"/>
</g>
<!-- UserCreateMany -->
<g id="node22" class="node">
<title>UserCreateMany</title>
<ellipse fill="#fdb462" stroke="black" cx="1171" cy="-104" rx="76.98" ry="18"/>
<text text-anchor="middle" x="1171" y="-99.8" font-family="Times,serif" font-size="14.00">UserCreateMany</text>
</g>
<!-- UserCreateMany&#45;&gt;UserModule -->
<g id="edge25" class="edge">
<title>UserCreateMany&#45;&gt;UserModule</title>
<path fill="none" stroke="black" d="M1111.21,-115.54C1111.21,-115.54 1111.21,-151.83 1111.21,-151.83"/>
<polygon fill="black" stroke="black" points="1107.71,-151.83 1111.21,-161.83 1114.71,-151.83 1107.71,-151.83"/>
</g>
<!-- UserService -->
<g id="node23" class="node">
<title>UserService</title>
<ellipse fill="#fdb462" stroke="black" cx="1518" cy="-104" rx="58.44" ry="18"/>
<text text-anchor="middle" x="1518" y="-99.8" font-family="Times,serif" font-size="14.00">UserService</text>
</g>
<!-- UserService&#45;&gt;UserModule -->
<g id="edge26" class="edge">
<title>UserService&#45;&gt;UserModule</title>
<path fill="none" stroke="black" d="M1513.08,-122.11C1513.08,-131.9 1513.08,-142 1513.08,-142 1513.08,-142 1162.79,-142 1162.79,-142 1162.79,-142 1162.79,-151.89 1162.79,-151.89"/>
<polygon fill="black" stroke="black" points="1159.29,-151.89 1162.79,-161.89 1166.29,-151.89 1159.29,-151.89"/>
</g>
</g>
</svg>
