<?xml version="1.0" encoding="UTF-8" standalone="no"?>
<!DOCTYPE svg PUBLIC "-//W3C//DTD SVG 1.1//EN"
 "http://www.w3.org/Graphics/SVG/1.1/DTD/svg11.dtd">
<!-- Generated by graphviz version 2.47.0 (20210316.0004)
 -->
<!-- Title: dependencies Pages: 1 -->
<svg width="866pt" height="290pt"
 viewBox="0.00 0.00 866.00 290.00" xmlns="http://www.w3.org/2000/svg" xmlns:xlink="http://www.w3.org/1999/xlink">
<g id="graph0" class="graph" transform="scale(1 1) rotate(0) translate(4 286)">
<title>dependencies</title>
<polygon fill="white" stroke="transparent" points="-4,4 -4,-286 862,-286 862,4 -4,4"/>
<text text-anchor="start" x="408.01" y="-42.4" font-family="Times-12" font-weight="bold" font-size="14.00">Legend</text>
<polygon fill="#ffffb3" stroke="transparent" points="195,-10 195,-30 215,-30 215,-10 195,-10"/>
<text text-anchor="start" x="218.63" y="-15.4" font-family="Times-12" font-size="14.00"> &#160;Declarations</text>
<polygon fill="#8dd3c7" stroke="transparent" points="308,-10 308,-30 328,-30 328,-10 308,-10"/>
<text text-anchor="start" x="331.73" y="-15.4" font-family="Times-12" font-size="14.00"> &#160;Module</text>
<polygon fill="#80b1d3" stroke="transparent" points="394,-10 394,-30 414,-30 414,-10 394,-10"/>
<text text-anchor="start" x="417.78" y="-15.4" font-family="Times-12" font-size="14.00"> &#160;Bootstrap</text>
<polygon fill="#fdb462" stroke="transparent" points="491,-10 491,-30 511,-30 511,-10 491,-10"/>
<text text-anchor="start" x="514.67" y="-15.4" font-family="Times-12" font-size="14.00"> &#160;Providers</text>
<polygon fill="#fb8072" stroke="transparent" points="587,-10 587,-30 607,-30 607,-10 587,-10"/>
<text text-anchor="start" x="610.73" y="-15.4" font-family="Times-12" font-size="14.00"> &#160;Exports</text>
<g id="clust13" class="cluster">
<title>cluster_PostsModule</title>
<polygon fill="none" stroke="black" stroke-dasharray="1,5" points="320,-70 320,-274 582,-274 582,-70 320,-70"/>
</g>
<g id="clust18" class="cluster">
<title>cluster_PostsModule_providers</title>
<polygon fill="none" stroke="black" points="438,-78 438,-130 574,-130 574,-78 438,-78"/>
</g>
<g id="clust16" class="cluster">
<title>cluster_PostsModule_exports</title>
<polygon fill="none" stroke="black" points="343,-214 343,-266 451,-266 451,-214 343,-214"/>
</g>
<g id="clust15" class="cluster">
<title>cluster_PostsModule_imports</title>
<polygon fill="none" stroke="black" points="328,-78 328,-130 430,-130 430,-78 328,-78"/>
</g>
<g id="clust19" class="cluster">
<title>cluster_UserModule</title>
<polygon fill="none" stroke="black" stroke-dasharray="1,5" points="590,-138 590,-206 850,-206 850,-138 590,-138"/>
</g>
<g id="clust22" class="cluster">
<title>cluster_UserModule_exports</title>
<polygon fill="none" stroke="black" points="738,-146 738,-198 842,-198 842,-146 738,-146"/>
</g>
<g id="clust24" class="cluster">
<title>cluster_UserModule_providers</title>
<polygon fill="none" stroke="black" points="598,-146 598,-198 730,-198 730,-146 598,-146"/>
</g>
<g id="clust7" class="cluster">
<title>cluster_AuthModule</title>
<polygon fill="none" stroke="black" stroke-dasharray="1,5" points="8,-70 8,-274 158,-274 158,-70 8,-70"/>
</g>
<g id="clust12" class="cluster">
<title>cluster_AuthModule_providers</title>
<polygon fill="none" stroke="black" points="16,-78 16,-130 150,-130 150,-78 16,-78"/>
</g>
<g id="clust10" class="cluster">
<title>cluster_AuthModule_exports</title>
<polygon fill="none" stroke="black" points="37,-214 37,-266 143,-266 143,-214 37,-214"/>
</g>
<g id="clust1" class="cluster">
<title>cluster_AppModule</title>
<polygon fill="none" stroke="black" stroke-dasharray="1,5" points="166,-138 166,-266 312,-266 312,-138 166,-138"/>
</g>
<g id="clust6" class="cluster">
<title>cluster_AppModule_providers</title>
<polygon fill="none" stroke="black" points="174,-146 174,-198 304,-198 304,-146 174,-146"/>
</g>
<!-- AuthModule -->
<g id="node1" class="node">
<title>AuthModule</title>
<polygon fill="#8dd3c7" stroke="black" points="133.55,-190 130.55,-194 109.55,-194 106.55,-190 46.45,-190 46.45,-154 133.55,-154 133.55,-190"/>
<text text-anchor="middle" x="90" y="-167.8" font-family="Times,serif" font-size="14.00">AuthModule</text>
</g>
<!-- AppModule -->
<g id="node4" class="node">
<title>AppModule</title>
<polygon fill="#8dd3c7" stroke="black" points="291.66,-258 288.66,-262 267.66,-262 264.66,-258 208.34,-258 208.34,-222 291.66,-222 291.66,-258"/>
<text text-anchor="middle" x="250" y="-235.8" font-family="Times,serif" font-size="14.00">AppModule</text>
</g>
<!-- AuthModule&#45;&gt;AppModule -->
<g id="edge1" class="edge">
<title>AuthModule&#45;&gt;AppModule</title>
<path fill="none" stroke="black" d="M133.69,-172C136.67,-172 138.52,-172 138.52,-172 138.52,-172 138.52,-240 138.52,-240 138.52,-240 198.17,-240 198.17,-240"/>
<polygon fill="black" stroke="black" points="198.17,-243.5 208.17,-240 198.17,-236.5 198.17,-243.5"/>
</g>
<!-- AuthService  -->
<g id="node6" class="node">
<title>AuthService </title>
<polygon fill="#fb8072" stroke="black" points="134.98,-258 45.02,-258 45.02,-222 134.98,-222 134.98,-258"/>
<text text-anchor="middle" x="90" y="-235.8" font-family="Times,serif" font-size="14.00">AuthService </text>
</g>
<!-- AuthModule&#45;&gt;AuthService  -->
<g id="edge5" class="edge">
<title>AuthModule&#45;&gt;AuthService </title>
<path fill="none" stroke="black" stroke-dasharray="5,2" d="M90,-190.22C90,-190.22 90,-211.73 90,-211.73"/>
<polygon fill="black" stroke="black" points="86.5,-211.73 90,-221.73 93.5,-211.73 86.5,-211.73"/>
</g>
<!-- PostsModule -->
<g id="node2" class="node">
<title>PostsModule</title>
<polygon fill="#8dd3c7" stroke="black" points="441.61,-190 438.61,-194 417.61,-194 414.61,-190 352.39,-190 352.39,-154 441.61,-154 441.61,-190"/>
<text text-anchor="middle" x="397" y="-167.8" font-family="Times,serif" font-size="14.00">PostsModule</text>
</g>
<!-- PostsModule&#45;&gt;AppModule -->
<g id="edge2" class="edge">
<title>PostsModule&#45;&gt;AppModule</title>
<path fill="none" stroke="black" d="M352.14,-172C348.58,-172 346.32,-172 346.32,-172 346.32,-172 346.32,-246 346.32,-246 346.32,-246 301.69,-246 301.69,-246"/>
<polygon fill="black" stroke="black" points="301.69,-242.5 291.69,-246 301.69,-249.5 301.69,-242.5"/>
</g>
<!-- PostsService  -->
<g id="node8" class="node">
<title>PostsService </title>
<polygon fill="#fb8072" stroke="black" points="442.54,-258 351.46,-258 351.46,-222 442.54,-222 442.54,-258"/>
<text text-anchor="middle" x="397" y="-235.8" font-family="Times,serif" font-size="14.00">PostsService </text>
</g>
<!-- PostsModule&#45;&gt;PostsService  -->
<g id="edge8" class="edge">
<title>PostsModule&#45;&gt;PostsService </title>
<path fill="none" stroke="black" stroke-dasharray="5,2" d="M397,-190.22C397,-190.22 397,-211.73 397,-211.73"/>
<polygon fill="black" stroke="black" points="393.5,-211.73 397,-221.73 400.5,-211.73 393.5,-211.73"/>
</g>
<!-- UserModule -->
<g id="node3" class="node">
<title>UserModule</title>
<polygon fill="#8dd3c7" stroke="black" points="421.98,-122 418.98,-126 397.98,-126 394.98,-122 336.02,-122 336.02,-86 421.98,-86 421.98,-122"/>
<text text-anchor="middle" x="379" y="-99.8" font-family="Times,serif" font-size="14.00">UserModule</text>
</g>
<!-- UserModule&#45;&gt;PostsModule -->
<g id="edge7" class="edge">
<title>UserModule&#45;&gt;PostsModule</title>
<path fill="none" stroke="black" d="M369.83,-122.22C369.83,-122.22 369.83,-143.73 369.83,-143.73"/>
<polygon fill="black" stroke="black" points="366.33,-143.73 369.83,-153.73 373.33,-143.73 366.33,-143.73"/>
</g>
<!-- UserModule&#45;&gt;AppModule -->
<g id="edge3" class="edge">
<title>UserModule&#45;&gt;AppModule</title>
<path fill="none" stroke="black" d="M341.17,-122.08C341.17,-157.8 341.17,-234 341.17,-234 341.17,-234 301.85,-234 301.85,-234"/>
<polygon fill="black" stroke="black" points="301.85,-230.5 291.85,-234 301.85,-237.5 301.85,-230.5"/>
</g>
<!-- UserService  -->
<g id="node10" class="node">
<title>UserService </title>
<polygon fill="#fb8072" stroke="black" points="833.9,-190 746.1,-190 746.1,-154 833.9,-154 833.9,-190"/>
<text text-anchor="middle" x="790" y="-167.8" font-family="Times,serif" font-size="14.00">UserService </text>
</g>
<!-- UserModule&#45;&gt;UserService  -->
<g id="edge10" class="edge">
<title>UserModule&#45;&gt;UserService </title>
<path fill="none" stroke="black" stroke-dasharray="5,2" d="M387.22,-122.2C387.22,-128.03 387.22,-133 387.22,-133 387.22,-133 790,-133 790,-133 790,-133 790,-143.87 790,-143.87"/>
<polygon fill="black" stroke="black" points="786.5,-143.87 790,-153.87 793.5,-143.87 786.5,-143.87"/>
</g>
<!-- AppService -->
<g id="node5" class="node">
<title>AppService</title>
<ellipse fill="#fdb462" stroke="black" cx="239" cy="-172" rx="56.74" ry="18"/>
<text text-anchor="middle" x="239" y="-167.8" font-family="Times,serif" font-size="14.00">AppService</text>
</g>
<!-- AppService&#45;&gt;AppModule -->
<g id="edge4" class="edge">
<title>AppService&#45;&gt;AppModule</title>
<path fill="none" stroke="black" d="M250,-189.87C250,-189.87 250,-211.54 250,-211.54"/>
<polygon fill="black" stroke="black" points="246.5,-211.54 250,-221.54 253.5,-211.54 246.5,-211.54"/>
</g>
<!-- AuthService -->
<g id="node7" class="node">
<title>AuthService</title>
<ellipse fill="#fdb462" stroke="black" cx="83" cy="-104" rx="59.11" ry="18"/>
<text text-anchor="middle" x="83" y="-99.8" font-family="Times,serif" font-size="14.00">AuthService</text>
</g>
<!-- AuthService&#45;&gt;AuthModule -->
<g id="edge6" class="edge">
<title>AuthService&#45;&gt;AuthModule</title>
<path fill="none" stroke="black" d="M90,-122.22C90,-122.22 90,-143.73 90,-143.73"/>
<polygon fill="black" stroke="black" points="86.5,-143.73 90,-153.73 93.5,-143.73 86.5,-143.73"/>
</g>
<!-- PostsService -->
<g id="node9" class="node">
<title>PostsService</title>
<ellipse fill="#fdb462" stroke="black" cx="506" cy="-104" rx="60.27" ry="18"/>
<text text-anchor="middle" x="506" y="-99.8" font-family="Times,serif" font-size="14.00">PostsService</text>
</g>
<!-- PostsService&#45;&gt;PostsModule -->
<g id="edge9" class="edge">
<title>PostsService&#45;&gt;PostsModule</title>
<path fill="none" stroke="black" d="M445.39,-104C437.32,-104 431.77,-104 431.77,-104 431.77,-104 431.77,-143.78 431.77,-143.78"/>
<polygon fill="black" stroke="black" points="428.27,-143.78 431.77,-153.78 435.27,-143.78 428.27,-143.78"/>
</g>
<!-- UserService -->
<g id="node11" class="node">
<title>UserService</title>
<ellipse fill="#fdb462" stroke="black" cx="664" cy="-172" rx="58.44" ry="18"/>
<text text-anchor="middle" x="664" y="-167.8" font-family="Times,serif" font-size="14.00">UserService</text>
</g>
<!-- UserService&#45;&gt;UserModule -->
<g id="edge11" class="edge">
<title>UserService&#45;&gt;UserModule</title>
<path fill="none" stroke="black" d="M664,-153.79C664,-148.45 664,-144 664,-144 664,-144 404.6,-144 404.6,-144 404.6,-144 404.6,-132.13 404.6,-132.13"/>
<polygon fill="black" stroke="black" points="408.1,-132.13 404.6,-122.13 401.1,-132.13 408.1,-132.13"/>
</g>
</g>
</svg>
