<?xml version="1.0" encoding="UTF-8" standalone="no"?>
<!DOCTYPE svg PUBLIC "-//W3C//DTD SVG 1.1//EN"
 "http://www.w3.org/Graphics/SVG/1.1/DTD/svg11.dtd">
<!-- Generated by graphviz version 2.47.0 (20210316.0004)
 -->
<!-- Title: dependencies Pages: 1 -->
<svg width="1830pt" height="371pt"
 viewBox="0.00 0.00 1830.00 371.00" xmlns="http://www.w3.org/2000/svg" xmlns:xlink="http://www.w3.org/1999/xlink">
<g id="graph0" class="graph" transform="scale(1 1) rotate(0) translate(4 367)">
<title>dependencies</title>
<polygon fill="white" stroke="transparent" points="-4,4 -4,-367 1826,-367 1826,4 -4,4"/>
<text text-anchor="start" x="890.01" y="-42.4" font-family="Times-12" font-weight="bold" font-size="14.00">Legend</text>
<polygon fill="#ffffb3" stroke="transparent" points="677,-10 677,-30 697,-30 697,-10 677,-10"/>
<text text-anchor="start" x="700.63" y="-15.4" font-family="Times-12" font-size="14.00"> &#160;Declarations</text>
<polygon fill="#8dd3c7" stroke="transparent" points="790,-10 790,-30 810,-30 810,-10 790,-10"/>
<text text-anchor="start" x="813.73" y="-15.4" font-family="Times-12" font-size="14.00"> &#160;Module</text>
<polygon fill="#80b1d3" stroke="transparent" points="876,-10 876,-30 896,-30 896,-10 876,-10"/>
<text text-anchor="start" x="899.78" y="-15.4" font-family="Times-12" font-size="14.00"> &#160;Bootstrap</text>
<polygon fill="#fdb462" stroke="transparent" points="973,-10 973,-30 993,-30 993,-10 973,-10"/>
<text text-anchor="start" x="996.67" y="-15.4" font-family="Times-12" font-size="14.00"> &#160;Providers</text>
<polygon fill="#fb8072" stroke="transparent" points="1069,-10 1069,-30 1089,-30 1089,-10 1069,-10"/>
<text text-anchor="start" x="1092.73" y="-15.4" font-family="Times-12" font-size="14.00"> &#160;Exports</text>
<g id="clust13" class="cluster">
<title>cluster_MetaOptionsModule</title>
<polygon fill="none" stroke="black" stroke-dasharray="1,5" points="1602,-146 1602,-355 1814,-355 1814,-146 1602,-146"/>
</g>
<g id="clust18" class="cluster">
<title>cluster_MetaOptionsModule_providers</title>
<polygon fill="none" stroke="black" points="1610,-154 1610,-206 1806,-206 1806,-154 1610,-154"/>
</g>
<g id="clust16" class="cluster">
<title>cluster_MetaOptionsModule_exports</title>
<polygon fill="none" stroke="black" points="1621,-295 1621,-347 1771,-347 1771,-295 1621,-295"/>
</g>
<g id="clust31" class="cluster">
<title>cluster_TagsModule</title>
<polygon fill="none" stroke="black" stroke-dasharray="1,5" points="608,-70 608,-279 758,-279 758,-70 608,-70"/>
</g>
<g id="clust34" class="cluster">
<title>cluster_TagsModule_exports</title>
<polygon fill="none" stroke="black" points="646,-219 646,-271 750,-271 750,-219 646,-219"/>
</g>
<g id="clust36" class="cluster">
<title>cluster_TagsModule_providers</title>
<polygon fill="none" stroke="black" points="616,-78 616,-130 750,-130 750,-78 616,-78"/>
</g>
<g id="clust19" class="cluster">
<title>cluster_PaginationModule</title>
<polygon fill="none" stroke="black" stroke-dasharray="1,5" points="1400,-70 1400,-279 1594,-279 1594,-70 1400,-70"/>
</g>
<g id="clust24" class="cluster">
<title>cluster_PaginationModule_providers</title>
<polygon fill="none" stroke="black" points="1408,-78 1408,-130 1586,-130 1586,-78 1408,-78"/>
</g>
<g id="clust22" class="cluster">
<title>cluster_PaginationModule_exports</title>
<polygon fill="none" stroke="black" points="1408,-219 1408,-271 1546,-271 1546,-219 1408,-219"/>
</g>
<g id="clust7" class="cluster">
<title>cluster_AuthModule</title>
<polygon fill="none" stroke="black" stroke-dasharray="1,5" points="8,-146 8,-355 600,-355 600,-146 8,-146"/>
</g>
<g id="clust12" class="cluster">
<title>cluster_AuthModule_providers</title>
<polygon fill="none" stroke="black" points="16,-154 16,-206 592,-206 592,-154 16,-154"/>
</g>
<g id="clust10" class="cluster">
<title>cluster_AuthModule_exports</title>
<polygon fill="none" stroke="black" points="239,-295 239,-347 477,-347 477,-295 239,-295"/>
</g>
<g id="clust1" class="cluster">
<title>cluster_AppModule</title>
<polygon fill="none" stroke="black" stroke-dasharray="1,5" points="1096,-146 1096,-347 1368,-347 1368,-146 1096,-146"/>
</g>
<g id="clust6" class="cluster">
<title>cluster_AppModule_providers</title>
<polygon fill="none" stroke="black" points="1218,-219 1218,-271 1348,-271 1348,-219 1218,-219"/>
</g>
<g id="clust3" class="cluster">
<title>cluster_AppModule_imports</title>
<polygon fill="none" stroke="black" points="1104,-154 1104,-271 1210,-271 1210,-154 1104,-154"/>
</g>
<g id="clust37" class="cluster">
<title>cluster_UserModule</title>
<polygon fill="none" stroke="black" stroke-dasharray="1,5" points="766,-70 766,-138 1392,-138 1392,-70 766,-70"/>
</g>
<g id="clust40" class="cluster">
<title>cluster_UserModule_exports</title>
<polygon fill="none" stroke="black" points="1280,-78 1280,-130 1384,-130 1384,-78 1280,-78"/>
</g>
<g id="clust42" class="cluster">
<title>cluster_UserModule_providers</title>
<polygon fill="none" stroke="black" points="774,-78 774,-130 1272,-130 1272,-78 774,-78"/>
</g>
<g id="clust25" class="cluster">
<title>cluster_PostsModule</title>
<polygon fill="none" stroke="black" stroke-dasharray="1,5" points="820,-287 820,-355 1088,-355 1088,-287 820,-287"/>
</g>
<g id="clust28" class="cluster">
<title>cluster_PostsModule_exports</title>
<polygon fill="none" stroke="black" points="972,-295 972,-347 1080,-347 1080,-295 972,-295"/>
</g>
<g id="clust30" class="cluster">
<title>cluster_PostsModule_providers</title>
<polygon fill="none" stroke="black" points="828,-295 828,-347 964,-347 964,-295 828,-295"/>
</g>
<!-- AuthModule -->
<g id="node1" class="node">
<title>AuthModule</title>
<polygon fill="#8dd3c7" stroke="black" points="407.55,-263 404.55,-267 383.55,-267 380.55,-263 320.45,-263 320.45,-227 407.55,-227 407.55,-263"/>
<text text-anchor="middle" x="364" y="-240.8" font-family="Times,serif" font-size="14.00">AuthModule</text>
</g>
<!-- AppModule -->
<g id="node7" class="node">
<title>AppModule</title>
<polygon fill="#8dd3c7" stroke="black" points="1341.66,-339 1338.66,-343 1317.66,-343 1314.66,-339 1258.34,-339 1258.34,-303 1341.66,-303 1341.66,-339"/>
<text text-anchor="middle" x="1300" y="-316.8" font-family="Times,serif" font-size="14.00">AppModule</text>
</g>
<!-- AuthModule&#45;&gt;AppModule -->
<g id="edge1" class="edge">
<title>AuthModule&#45;&gt;AppModule</title>
<path fill="none" stroke="black" d="M398.27,-263.11C398.27,-272.9 398.27,-283 398.27,-283 398.27,-283 1285.32,-283 1285.32,-283 1285.32,-283 1285.32,-292.89 1285.32,-292.89"/>
<polygon fill="black" stroke="black" points="1281.82,-292.89 1285.32,-302.89 1288.82,-292.89 1281.82,-292.89"/>
</g>
<!-- AuthService  -->
<g id="node10" class="node">
<title>AuthService </title>
<polygon fill="#fb8072" stroke="black" points="468.98,-339 379.02,-339 379.02,-303 468.98,-303 468.98,-339"/>
<text text-anchor="middle" x="424" y="-316.8" font-family="Times,serif" font-size="14.00">AuthService </text>
</g>
<!-- AuthModule&#45;&gt;AuthService  -->
<g id="edge9" class="edge">
<title>AuthModule&#45;&gt;AuthService </title>
<path fill="none" stroke="black" stroke-dasharray="5,2" d="M388.77,-263.01C388.77,-263.01 388.77,-292.85 388.77,-292.85"/>
<polygon fill="black" stroke="black" points="385.27,-292.85 388.77,-302.85 392.27,-292.85 385.27,-292.85"/>
</g>
<!-- HashingProvider  -->
<g id="node11" class="node">
<title>HashingProvider </title>
<polygon fill="#fb8072" stroke="black" points="361.37,-339 246.63,-339 246.63,-303 361.37,-303 361.37,-339"/>
<text text-anchor="middle" x="304" y="-316.8" font-family="Times,serif" font-size="14.00">HashingProvider </text>
</g>
<!-- AuthModule&#45;&gt;HashingProvider  -->
<g id="edge10" class="edge">
<title>AuthModule&#45;&gt;HashingProvider </title>
<path fill="none" stroke="black" stroke-dasharray="5,2" d="M340.7,-263.01C340.7,-263.01 340.7,-292.85 340.7,-292.85"/>
<polygon fill="black" stroke="black" points="337.2,-292.85 340.7,-302.85 344.2,-292.85 337.2,-292.85"/>
</g>
<!-- MetaOptionsModule -->
<g id="node2" class="node">
<title>MetaOptionsModule</title>
<polygon fill="#8dd3c7" stroke="black" points="1762.15,-263 1759.15,-267 1738.15,-267 1735.15,-263 1629.85,-263 1629.85,-227 1762.15,-227 1762.15,-263"/>
<text text-anchor="middle" x="1696" y="-240.8" font-family="Times,serif" font-size="14.00">MetaOptionsModule</text>
</g>
<!-- MetaOptionsModule&#45;&gt;AppModule -->
<g id="edge2" class="edge">
<title>MetaOptionsModule&#45;&gt;AppModule</title>
<path fill="none" stroke="black" d="M1629.36,-245C1625.5,-245 1623.15,-245 1623.15,-245 1623.15,-245 1623.15,-330 1623.15,-330 1623.15,-330 1351.91,-330 1351.91,-330"/>
<polygon fill="black" stroke="black" points="1351.91,-326.5 1341.91,-330 1351.91,-333.5 1351.91,-326.5"/>
</g>
<!-- MetaOptionsService  -->
<g id="node15" class="node">
<title>MetaOptionsService </title>
<polygon fill="#fb8072" stroke="black" points="1763.08,-339 1628.92,-339 1628.92,-303 1763.08,-303 1763.08,-339"/>
<text text-anchor="middle" x="1696" y="-316.8" font-family="Times,serif" font-size="14.00">MetaOptionsService </text>
</g>
<!-- MetaOptionsModule&#45;&gt;MetaOptionsService  -->
<g id="edge14" class="edge">
<title>MetaOptionsModule&#45;&gt;MetaOptionsService </title>
<path fill="none" stroke="black" stroke-dasharray="5,2" d="M1696,-263.01C1696,-263.01 1696,-292.85 1696,-292.85"/>
<polygon fill="black" stroke="black" points="1692.5,-292.85 1696,-302.85 1699.5,-292.85 1692.5,-292.85"/>
</g>
<!-- PaginationModule -->
<g id="node3" class="node">
<title>PaginationModule</title>
<polygon fill="#8dd3c7" stroke="black" points="1532.93,-198 1529.93,-202 1508.93,-202 1505.93,-198 1413.07,-198 1413.07,-162 1532.93,-162 1532.93,-198"/>
<text text-anchor="middle" x="1473" y="-175.8" font-family="Times,serif" font-size="14.00">PaginationModule</text>
</g>
<!-- PostsModule -->
<g id="node4" class="node">
<title>PostsModule</title>
<polygon fill="#8dd3c7" stroke="black" points="1201.61,-263 1198.61,-267 1177.61,-267 1174.61,-263 1112.39,-263 1112.39,-227 1201.61,-227 1201.61,-263"/>
<text text-anchor="middle" x="1157" y="-240.8" font-family="Times,serif" font-size="14.00">PostsModule</text>
</g>
<!-- PaginationModule&#45;&gt;PostsModule -->
<g id="edge18" class="edge">
<title>PaginationModule&#45;&gt;PostsModule</title>
<path fill="none" stroke="black" d="M1413.28,-177C1335.64,-177 1209.83,-177 1209.83,-177 1209.83,-177 1209.83,-245 1209.83,-245 1209.83,-245 1209.01,-245 1209.01,-245"/>
<polygon fill="black" stroke="black" points="1211.58,-241.5 1201.58,-245 1211.58,-248.5 1211.58,-241.5"/>
</g>
<!-- PaginationModule&#45;&gt;AppModule -->
<g id="edge3" class="edge">
<title>PaginationModule&#45;&gt;AppModule</title>
<path fill="none" stroke="black" d="M1413.19,-184C1402.46,-184 1394.62,-184 1394.62,-184 1394.62,-184 1394.62,-312 1394.62,-312 1394.62,-312 1351.78,-312 1351.78,-312"/>
<polygon fill="black" stroke="black" points="1351.78,-308.5 1341.78,-312 1351.78,-315.5 1351.78,-308.5"/>
</g>
<!-- PaginationService  -->
<g id="node17" class="node">
<title>PaginationService </title>
<polygon fill="#fb8072" stroke="black" points="1537.86,-263 1416.14,-263 1416.14,-227 1537.86,-227 1537.86,-263"/>
<text text-anchor="middle" x="1477" y="-240.8" font-family="Times,serif" font-size="14.00">PaginationService </text>
</g>
<!-- PaginationModule&#45;&gt;PaginationService  -->
<g id="edge16" class="edge">
<title>PaginationModule&#45;&gt;PaginationService </title>
<path fill="none" stroke="black" stroke-dasharray="5,2" d="M1474.52,-198.11C1474.52,-198.11 1474.52,-216.99 1474.52,-216.99"/>
<polygon fill="black" stroke="black" points="1471.02,-216.99 1474.52,-226.99 1478.02,-216.99 1471.02,-216.99"/>
</g>
<!-- PostsModule&#45;&gt;AppModule -->
<g id="edge4" class="edge">
<title>PostsModule&#45;&gt;AppModule</title>
<path fill="none" stroke="black" d="M1171.85,-263.04C1171.85,-284.66 1171.85,-318 1171.85,-318 1171.85,-318 1248.04,-318 1248.04,-318"/>
<polygon fill="black" stroke="black" points="1248.04,-321.5 1258.04,-318 1248.04,-314.5 1248.04,-321.5"/>
</g>
<!-- PostsService  -->
<g id="node18" class="node">
<title>PostsService </title>
<polygon fill="#fb8072" stroke="black" points="1071.54,-339 980.46,-339 980.46,-303 1071.54,-303 1071.54,-339"/>
<text text-anchor="middle" x="1026" y="-316.8" font-family="Times,serif" font-size="14.00">PostsService </text>
</g>
<!-- PostsModule&#45;&gt;PostsService  -->
<g id="edge21" class="edge">
<title>PostsModule&#45;&gt;PostsService </title>
<path fill="none" stroke="black" stroke-dasharray="5,2" d="M1142.15,-263.15C1142.15,-286.76 1142.15,-325 1142.15,-325 1142.15,-325 1081.57,-325 1081.57,-325"/>
<polygon fill="black" stroke="black" points="1081.57,-321.5 1071.57,-325 1081.57,-328.5 1081.57,-321.5"/>
</g>
<!-- TagsModule -->
<g id="node5" class="node">
<title>TagsModule</title>
<polygon fill="#8dd3c7" stroke="black" points="745.26,-198 742.26,-202 721.26,-202 718.26,-198 658.74,-198 658.74,-162 745.26,-162 745.26,-198"/>
<text text-anchor="middle" x="702" y="-175.8" font-family="Times,serif" font-size="14.00">TagsModule</text>
</g>
<!-- TagsModule&#45;&gt;PostsModule -->
<g id="edge19" class="edge">
<title>TagsModule&#45;&gt;PostsModule</title>
<path fill="none" stroke="black" d="M745.4,-191C774.94,-191 808.7,-191 808.7,-191 808.7,-191 808.7,-239 808.7,-239 808.7,-239 1102.18,-239 1102.18,-239"/>
<polygon fill="black" stroke="black" points="1102.18,-242.5 1112.18,-239 1102.18,-235.5 1102.18,-242.5"/>
</g>
<!-- TagsModule&#45;&gt;AppModule -->
<g id="edge5" class="edge">
<title>TagsModule&#45;&gt;AppModule</title>
<path fill="none" stroke="black" d="M745.35,-184C844.61,-184 1079.9,-184 1079.9,-184 1079.9,-184 1079.9,-332 1079.9,-332 1079.9,-332 1248.34,-332 1248.34,-332"/>
<polygon fill="black" stroke="black" points="1248.34,-335.5 1258.34,-332 1248.34,-328.5 1248.34,-335.5"/>
</g>
<!-- TagsService  -->
<g id="node20" class="node">
<title>TagsService </title>
<polygon fill="#fb8072" stroke="black" points="742.19,-263 653.81,-263 653.81,-227 742.19,-227 742.19,-263"/>
<text text-anchor="middle" x="698" y="-240.8" font-family="Times,serif" font-size="14.00">TagsService </text>
</g>
<!-- TagsModule&#45;&gt;TagsService  -->
<g id="edge23" class="edge">
<title>TagsModule&#45;&gt;TagsService </title>
<path fill="none" stroke="black" stroke-dasharray="5,2" d="M700.48,-198.11C700.48,-198.11 700.48,-216.99 700.48,-216.99"/>
<polygon fill="black" stroke="black" points="696.98,-216.99 700.48,-226.99 703.98,-216.99 696.98,-216.99"/>
</g>
<!-- UserModule -->
<g id="node6" class="node">
<title>UserModule</title>
<polygon fill="#8dd3c7" stroke="black" points="1200.98,-198 1197.98,-202 1176.98,-202 1173.98,-198 1115.02,-198 1115.02,-162 1200.98,-162 1200.98,-198"/>
<text text-anchor="middle" x="1158" y="-175.8" font-family="Times,serif" font-size="14.00">UserModule</text>
</g>
<!-- UserModule&#45;&gt;PostsModule -->
<g id="edge20" class="edge">
<title>UserModule&#45;&gt;PostsModule</title>
<path fill="none" stroke="black" d="M1158,-198.11C1158,-198.11 1158,-216.99 1158,-216.99"/>
<polygon fill="black" stroke="black" points="1154.5,-216.99 1158,-226.99 1161.5,-216.99 1154.5,-216.99"/>
</g>
<!-- UserModule&#45;&gt;AppModule -->
<g id="edge6" class="edge">
<title>UserModule&#45;&gt;AppModule</title>
<path fill="none" stroke="black" d="M1201.04,-191C1210.68,-191 1218.11,-191 1218.11,-191 1218.11,-191 1218.11,-311 1218.11,-311 1218.11,-311 1248.09,-311 1248.09,-311"/>
<polygon fill="black" stroke="black" points="1248.09,-314.5 1258.09,-311 1248.09,-307.5 1248.09,-314.5"/>
</g>
<!-- UserService  -->
<g id="node22" class="node">
<title>UserService </title>
<polygon fill="#fb8072" stroke="black" points="1375.9,-122 1288.1,-122 1288.1,-86 1375.9,-86 1375.9,-122"/>
<text text-anchor="middle" x="1332" y="-99.8" font-family="Times,serif" font-size="14.00">UserService </text>
</g>
<!-- UserModule&#45;&gt;UserService  -->
<g id="edge25" class="edge">
<title>UserModule&#45;&gt;UserService </title>
<path fill="none" stroke="black" stroke-dasharray="5,2" d="M1200.99,-170C1247.12,-170 1313.83,-170 1313.83,-170 1313.83,-170 1313.83,-132.03 1313.83,-132.03"/>
<polygon fill="black" stroke="black" points="1317.33,-132.03 1313.83,-122.03 1310.33,-132.03 1317.33,-132.03"/>
</g>
<!-- AppService -->
<g id="node8" class="node">
<title>AppService</title>
<ellipse fill="#fdb462" stroke="black" cx="1283" cy="-245" rx="56.74" ry="18"/>
<text text-anchor="middle" x="1283" y="-240.8" font-family="Times,serif" font-size="14.00">AppService</text>
</g>
<!-- AppService&#45;&gt;AppModule -->
<g id="edge7" class="edge">
<title>AppService&#45;&gt;AppModule</title>
<path fill="none" stroke="black" d="M1312.47,-260.38C1312.47,-260.38 1312.47,-292.97 1312.47,-292.97"/>
<polygon fill="black" stroke="black" points="1308.97,-292.97 1312.47,-302.97 1315.97,-292.97 1308.97,-292.97"/>
</g>
<!-- PaginationService -->
<g id="node9" class="node">
<title>PaginationService</title>
<ellipse fill="#fdb462" stroke="black" cx="1497" cy="-104" rx="81.1" ry="18"/>
<text text-anchor="middle" x="1497" y="-99.8" font-family="Times,serif" font-size="14.00">PaginationService</text>
</g>
<!-- PaginationService&#45;&gt;PaginationModule -->
<g id="edge17" class="edge">
<title>PaginationService&#45;&gt;PaginationModule</title>
<path fill="none" stroke="black" d="M1474.21,-121.63C1474.21,-121.63 1474.21,-151.94 1474.21,-151.94"/>
<polygon fill="black" stroke="black" points="1470.71,-151.94 1474.21,-161.94 1477.71,-151.94 1470.71,-151.94"/>
</g>
<!-- PaginationService&#45;&gt;AppModule -->
<g id="edge8" class="edge">
<title>PaginationService&#45;&gt;AppModule</title>
<path fill="none" stroke="black" d="M1557.99,-115.98C1557.99,-161.47 1557.99,-321 1557.99,-321 1557.99,-321 1351.74,-321 1351.74,-321"/>
<polygon fill="black" stroke="black" points="1351.74,-317.5 1341.74,-321 1351.74,-324.5 1351.74,-317.5"/>
</g>
<!-- AuthService -->
<g id="node12" class="node">
<title>AuthService</title>
<ellipse fill="#fdb462" stroke="black" cx="309" cy="-180" rx="59.11" ry="18"/>
<text text-anchor="middle" x="309" y="-175.8" font-family="Times,serif" font-size="14.00">AuthService</text>
</g>
<!-- AuthService&#45;&gt;AuthModule -->
<g id="edge11" class="edge">
<title>AuthService&#45;&gt;AuthModule</title>
<path fill="none" stroke="black" d="M344.27,-194.75C344.27,-194.75 344.27,-216.59 344.27,-216.59"/>
<polygon fill="black" stroke="black" points="340.77,-216.59 344.27,-226.59 347.77,-216.59 340.77,-216.59"/>
</g>
<!-- GenerateTokenProvider -->
<g id="node13" class="node">
<title>GenerateTokenProvider</title>
<ellipse fill="#fdb462" stroke="black" cx="128" cy="-180" rx="103.61" ry="18"/>
<text text-anchor="middle" x="128" y="-175.8" font-family="Times,serif" font-size="14.00">GenerateTokenProvider</text>
</g>
<!-- GenerateTokenProvider&#45;&gt;AuthModule -->
<g id="edge12" class="edge">
<title>GenerateTokenProvider&#45;&gt;AuthModule</title>
<path fill="none" stroke="black" d="M128,-198.11C128,-217.34 128,-245 128,-245 128,-245 310.44,-245 310.44,-245"/>
<polygon fill="black" stroke="black" points="310.44,-248.5 320.44,-245 310.44,-241.5 310.44,-248.5"/>
</g>
<!-- RefreshTokenProvider -->
<g id="node14" class="node">
<title>RefreshTokenProvider</title>
<ellipse fill="#fdb462" stroke="black" cx="485" cy="-180" rx="98.98" ry="18"/>
<text text-anchor="middle" x="485" y="-175.8" font-family="Times,serif" font-size="14.00">RefreshTokenProvider</text>
</g>
<!-- RefreshTokenProvider&#45;&gt;AuthModule -->
<g id="edge13" class="edge">
<title>RefreshTokenProvider&#45;&gt;AuthModule</title>
<path fill="none" stroke="black" d="M396.89,-188.23C396.89,-188.23 396.89,-216.76 396.89,-216.76"/>
<polygon fill="black" stroke="black" points="393.39,-216.76 396.89,-226.76 400.39,-216.76 393.39,-216.76"/>
</g>
<!-- MetaOptionsService -->
<g id="node16" class="node">
<title>MetaOptionsService</title>
<ellipse fill="#fdb462" stroke="black" cx="1708" cy="-180" rx="90.33" ry="18"/>
<text text-anchor="middle" x="1708" y="-175.8" font-family="Times,serif" font-size="14.00">MetaOptionsService</text>
</g>
<!-- MetaOptionsService&#45;&gt;MetaOptionsModule -->
<g id="edge15" class="edge">
<title>MetaOptionsService&#45;&gt;MetaOptionsModule</title>
<path fill="none" stroke="black" d="M1696,-198.11C1696,-198.11 1696,-216.99 1696,-216.99"/>
<polygon fill="black" stroke="black" points="1692.5,-216.99 1696,-226.99 1699.5,-216.99 1692.5,-216.99"/>
</g>
<!-- PostsService -->
<g id="node19" class="node">
<title>PostsService</title>
<ellipse fill="#fdb462" stroke="black" cx="896" cy="-321" rx="60.27" ry="18"/>
<text text-anchor="middle" x="896" y="-316.8" font-family="Times,serif" font-size="14.00">PostsService</text>
</g>
<!-- PostsService&#45;&gt;PostsModule -->
<g id="edge22" class="edge">
<title>PostsService&#45;&gt;PostsModule</title>
<path fill="none" stroke="black" d="M936.2,-307.5C936.2,-287.16 936.2,-251 936.2,-251 936.2,-251 1102.32,-251 1102.32,-251"/>
<polygon fill="black" stroke="black" points="1102.32,-254.5 1112.32,-251 1102.32,-247.5 1102.32,-254.5"/>
</g>
<!-- TagsService -->
<g id="node21" class="node">
<title>TagsService</title>
<ellipse fill="#fdb462" stroke="black" cx="683" cy="-104" rx="58.53" ry="18"/>
<text text-anchor="middle" x="683" y="-99.8" font-family="Times,serif" font-size="14.00">TagsService</text>
</g>
<!-- TagsService&#45;&gt;TagsModule -->
<g id="edge24" class="edge">
<title>TagsService&#45;&gt;TagsModule</title>
<path fill="none" stroke="black" d="M700.19,-121.25C700.19,-121.25 700.19,-151.76 700.19,-151.76"/>
<polygon fill="black" stroke="black" points="696.69,-151.76 700.19,-161.76 703.69,-151.76 696.69,-151.76"/>
</g>
<!-- CreateUserProvider -->
<g id="node23" class="node">
<title>CreateUserProvider</title>
<ellipse fill="#fdb462" stroke="black" cx="1176" cy="-104" rx="87.94" ry="18"/>
<text text-anchor="middle" x="1176" y="-99.8" font-family="Times,serif" font-size="14.00">CreateUserProvider</text>
</g>
<!-- CreateUserProvider&#45;&gt;UserModule -->
<g id="edge26" class="edge">
<title>CreateUserProvider&#45;&gt;UserModule</title>
<path fill="none" stroke="black" d="M1158,-121.63C1158,-121.63 1158,-151.94 1158,-151.94"/>
<polygon fill="black" stroke="black" points="1154.5,-151.94 1158,-161.94 1161.5,-151.94 1154.5,-151.94"/>
</g>
<!-- UserCreateMany -->
<g id="node24" class="node">
<title>UserCreateMany</title>
<ellipse fill="#fdb462" stroke="black" cx="993" cy="-104" rx="76.98" ry="18"/>
<text text-anchor="middle" x="993" y="-99.8" font-family="Times,serif" font-size="14.00">UserCreateMany</text>
</g>
<!-- UserCreateMany&#45;&gt;UserModule -->
<g id="edge27" class="edge">
<title>UserCreateMany&#45;&gt;UserModule</title>
<path fill="none" stroke="black" d="M1025.24,-120.65C1025.24,-140.21 1025.24,-170 1025.24,-170 1025.24,-170 1104.9,-170 1104.9,-170"/>
<polygon fill="black" stroke="black" points="1104.9,-173.5 1114.9,-170 1104.9,-166.5 1104.9,-173.5"/>
</g>
<!-- UserService -->
<g id="node25" class="node">
<title>UserService</title>
<ellipse fill="#fdb462" stroke="black" cx="840" cy="-104" rx="58.44" ry="18"/>
<text text-anchor="middle" x="840" y="-99.8" font-family="Times,serif" font-size="14.00">UserService</text>
</g>
<!-- UserService&#45;&gt;UserModule -->
<g id="edge28" class="edge">
<title>UserService&#45;&gt;UserModule</title>
<path fill="none" stroke="black" d="M866.92,-120.2C866.92,-141.71 866.92,-177 866.92,-177 866.92,-177 1104.74,-177 1104.74,-177"/>
<polygon fill="black" stroke="black" points="1104.74,-180.5 1114.74,-177 1104.74,-173.5 1104.74,-180.5"/>
</g>
</g>
</svg>
