<?xml version="1.0" encoding="UTF-8" standalone="no"?>
<!DOCTYPE svg PUBLIC "-//W3C//DTD SVG 1.1//EN"
 "http://www.w3.org/Graphics/SVG/1.1/DTD/svg11.dtd">
<!-- Generated by graphviz version 2.47.0 (20210316.0004)
 -->
<!-- Title: dependencies Pages: 1 -->
<svg width="1330pt" height="374pt"
 viewBox="0.00 0.00 1330.00 374.00" xmlns="http://www.w3.org/2000/svg" xmlns:xlink="http://www.w3.org/1999/xlink">
<g id="graph0" class="graph" transform="scale(1 1) rotate(0) translate(4 370)">
<title>dependencies</title>
<polygon fill="white" stroke="transparent" points="-4,4 -4,-370 1326,-370 1326,4 -4,4"/>
<text text-anchor="start" x="640.01" y="-42.4" font-family="Times-12" font-weight="bold" font-size="14.00">Legend</text>
<polygon fill="#ffffb3" stroke="transparent" points="427,-10 427,-30 447,-30 447,-10 427,-10"/>
<text text-anchor="start" x="450.63" y="-15.4" font-family="Times-12" font-size="14.00"> &#160;Declarations</text>
<polygon fill="#8dd3c7" stroke="transparent" points="540,-10 540,-30 560,-30 560,-10 540,-10"/>
<text text-anchor="start" x="563.73" y="-15.4" font-family="Times-12" font-size="14.00"> &#160;Module</text>
<polygon fill="#80b1d3" stroke="transparent" points="626,-10 626,-30 646,-30 646,-10 626,-10"/>
<text text-anchor="start" x="649.78" y="-15.4" font-family="Times-12" font-size="14.00"> &#160;Bootstrap</text>
<polygon fill="#fdb462" stroke="transparent" points="723,-10 723,-30 743,-30 743,-10 723,-10"/>
<text text-anchor="start" x="746.67" y="-15.4" font-family="Times-12" font-size="14.00"> &#160;Providers</text>
<polygon fill="#fb8072" stroke="transparent" points="819,-10 819,-30 839,-30 839,-10 819,-10"/>
<text text-anchor="start" x="842.73" y="-15.4" font-family="Times-12" font-size="14.00"> &#160;Exports</text>
<g id="clust13" class="cluster">
<title>cluster_MetaOptionsModule</title>
<polygon fill="none" stroke="black" stroke-dasharray="1,5" points="1102,-146 1102,-358 1314,-358 1314,-146 1102,-146"/>
</g>
<g id="clust16" class="cluster">
<title>cluster_MetaOptionsModule_exports</title>
<polygon fill="none" stroke="black" points="1121,-298 1121,-350 1271,-350 1271,-298 1121,-298"/>
</g>
<g id="clust18" class="cluster">
<title>cluster_MetaOptionsModule_providers</title>
<polygon fill="none" stroke="black" points="1110,-154 1110,-206 1306,-206 1306,-154 1110,-154"/>
</g>
<g id="clust7" class="cluster">
<title>cluster_AuthModule</title>
<polygon fill="none" stroke="black" stroke-dasharray="1,5" points="8,-146 8,-358 262,-358 262,-146 8,-146"/>
</g>
<g id="clust12" class="cluster">
<title>cluster_AuthModule_providers</title>
<polygon fill="none" stroke="black" points="120,-154 120,-206 254,-206 254,-154 120,-154"/>
</g>
<g id="clust10" class="cluster">
<title>cluster_AuthModule_exports</title>
<polygon fill="none" stroke="black" points="16,-298 16,-350 254,-350 254,-298 16,-298"/>
</g>
<g id="clust1" class="cluster">
<title>cluster_AppModule</title>
<polygon fill="none" stroke="black" stroke-dasharray="1,5" points="270,-70 270,-350 662,-350 662,-70 270,-70"/>
</g>
<g id="clust6" class="cluster">
<title>cluster_AppModule_providers</title>
<polygon fill="none" stroke="black" points="278,-78 278,-130 588,-130 588,-78 278,-78"/>
</g>
<g id="clust3" class="cluster">
<title>cluster_AppModule_imports</title>
<polygon fill="none" stroke="black" points="310,-154 310,-274 654,-274 654,-154 310,-154"/>
</g>
<g id="clust31" class="cluster">
<title>cluster_TagsModule</title>
<polygon fill="none" stroke="black" stroke-dasharray="1,5" points="832,-214 832,-282 1094,-282 1094,-214 832,-214"/>
</g>
<g id="clust36" class="cluster">
<title>cluster_TagsModule_providers</title>
<polygon fill="none" stroke="black" points="952,-222 952,-274 1086,-274 1086,-222 952,-222"/>
</g>
<g id="clust34" class="cluster">
<title>cluster_TagsModule_exports</title>
<polygon fill="none" stroke="black" points="840,-222 840,-274 944,-274 944,-222 840,-222"/>
</g>
<g id="clust37" class="cluster">
<title>cluster_UserModule</title>
<polygon fill="none" stroke="black" stroke-dasharray="1,5" points="670,-70 670,-138 1296,-138 1296,-70 670,-70"/>
</g>
<g id="clust42" class="cluster">
<title>cluster_UserModule_providers</title>
<polygon fill="none" stroke="black" points="790,-78 790,-130 1288,-130 1288,-78 790,-78"/>
</g>
<g id="clust40" class="cluster">
<title>cluster_UserModule_exports</title>
<polygon fill="none" stroke="black" points="678,-78 678,-130 782,-130 782,-78 678,-78"/>
</g>
<g id="clust19" class="cluster">
<title>cluster_PaginationModule</title>
<polygon fill="none" stroke="black" stroke-dasharray="1,5" points="670,-214 670,-282 824,-282 824,-214 670,-214"/>
</g>
<g id="clust22" class="cluster">
<title>cluster_PaginationModule_exports</title>
<polygon fill="none" stroke="black" points="678,-222 678,-274 816,-274 816,-222 678,-222"/>
</g>
<g id="clust25" class="cluster">
<title>cluster_PostsModule</title>
<polygon fill="none" stroke="black" stroke-dasharray="1,5" points="670,-290 670,-358 938,-358 938,-290 670,-290"/>
</g>
<g id="clust30" class="cluster">
<title>cluster_PostsModule_providers</title>
<polygon fill="none" stroke="black" points="794,-298 794,-350 930,-350 930,-298 794,-298"/>
</g>
<g id="clust28" class="cluster">
<title>cluster_PostsModule_exports</title>
<polygon fill="none" stroke="black" points="678,-298 678,-350 786,-350 786,-298 678,-298"/>
</g>
<!-- AuthModule -->
<g id="node1" class="node">
<title>AuthModule</title>
<polygon fill="#8dd3c7" stroke="black" points="237.55,-266 234.55,-270 213.55,-270 210.55,-266 150.45,-266 150.45,-230 237.55,-230 237.55,-266"/>
<text text-anchor="middle" x="194" y="-243.8" font-family="Times,serif" font-size="14.00">AuthModule</text>
</g>
<!-- AppModule -->
<g id="node7" class="node">
<title>AppModule</title>
<polygon fill="#8dd3c7" stroke="black" points="439.66,-342 436.66,-346 415.66,-346 412.66,-342 356.34,-342 356.34,-306 439.66,-306 439.66,-342"/>
<text text-anchor="middle" x="398" y="-319.8" font-family="Times,serif" font-size="14.00">AppModule</text>
</g>
<!-- AuthModule&#45;&gt;AppModule -->
<g id="edge1" class="edge">
<title>AuthModule&#45;&gt;AppModule</title>
<path fill="none" stroke="black" d="M237.95,-248C292.8,-248 379.47,-248 379.47,-248 379.47,-248 379.47,-295.99 379.47,-295.99"/>
<polygon fill="black" stroke="black" points="375.97,-295.99 379.47,-305.99 382.97,-295.99 375.97,-295.99"/>
</g>
<!-- AuthService  -->
<g id="node10" class="node">
<title>AuthService </title>
<polygon fill="#fb8072" stroke="black" points="245.98,-342 156.02,-342 156.02,-306 245.98,-306 245.98,-342"/>
<text text-anchor="middle" x="201" y="-319.8" font-family="Times,serif" font-size="14.00">AuthService </text>
</g>
<!-- AuthModule&#45;&gt;AuthService  -->
<g id="edge9" class="edge">
<title>AuthModule&#45;&gt;AuthService </title>
<path fill="none" stroke="black" stroke-dasharray="5,2" d="M197.02,-266.01C197.02,-266.01 197.02,-295.85 197.02,-295.85"/>
<polygon fill="black" stroke="black" points="193.52,-295.85 197.02,-305.85 200.52,-295.85 193.52,-295.85"/>
</g>
<!-- HashingProvider  -->
<g id="node11" class="node">
<title>HashingProvider </title>
<polygon fill="#fb8072" stroke="black" points="138.37,-342 23.63,-342 23.63,-306 138.37,-306 138.37,-342"/>
<text text-anchor="middle" x="81" y="-319.8" font-family="Times,serif" font-size="14.00">HashingProvider </text>
</g>
<!-- AuthModule&#45;&gt;HashingProvider  -->
<g id="edge10" class="edge">
<title>AuthModule&#45;&gt;HashingProvider </title>
<path fill="none" stroke="black" stroke-dasharray="5,2" d="M150.27,-248C140.49,-248 132.94,-248 132.94,-248 132.94,-248 132.94,-295.99 132.94,-295.99"/>
<polygon fill="black" stroke="black" points="129.44,-295.99 132.94,-305.99 136.44,-295.99 129.44,-295.99"/>
</g>
<!-- MetaOptionsModule -->
<g id="node2" class="node">
<title>MetaOptionsModule</title>
<polygon fill="#8dd3c7" stroke="black" points="1262.15,-266 1259.15,-270 1238.15,-270 1235.15,-266 1129.85,-266 1129.85,-230 1262.15,-230 1262.15,-266"/>
<text text-anchor="middle" x="1196" y="-243.8" font-family="Times,serif" font-size="14.00">MetaOptionsModule</text>
</g>
<!-- MetaOptionsModule&#45;&gt;AppModule -->
<g id="edge2" class="edge">
<title>MetaOptionsModule&#45;&gt;AppModule</title>
<path fill="none" stroke="black" d="M1173.89,-266.24C1173.89,-273.43 1173.89,-280 1173.89,-280 1173.89,-280 426.07,-280 426.07,-280 426.07,-280 426.07,-295.85 426.07,-295.85"/>
<polygon fill="black" stroke="black" points="422.57,-295.85 426.07,-305.85 429.57,-295.85 422.57,-295.85"/>
</g>
<!-- MetaOptionsService  -->
<g id="node13" class="node">
<title>MetaOptionsService </title>
<polygon fill="#fb8072" stroke="black" points="1263.08,-342 1128.92,-342 1128.92,-306 1263.08,-306 1263.08,-342"/>
<text text-anchor="middle" x="1196" y="-319.8" font-family="Times,serif" font-size="14.00">MetaOptionsService </text>
</g>
<!-- MetaOptionsModule&#45;&gt;MetaOptionsService  -->
<g id="edge12" class="edge">
<title>MetaOptionsModule&#45;&gt;MetaOptionsService </title>
<path fill="none" stroke="black" stroke-dasharray="5,2" d="M1218.11,-266.01C1218.11,-266.01 1218.11,-295.85 1218.11,-295.85"/>
<polygon fill="black" stroke="black" points="1214.61,-295.85 1218.11,-305.85 1221.61,-295.85 1214.61,-295.85"/>
</g>
<!-- PaginationModule -->
<g id="node3" class="node">
<title>PaginationModule</title>
<polygon fill="#8dd3c7" stroke="black" points="437.93,-198 434.93,-202 413.93,-202 410.93,-198 318.07,-198 318.07,-162 437.93,-162 437.93,-198"/>
<text text-anchor="middle" x="378" y="-175.8" font-family="Times,serif" font-size="14.00">PaginationModule</text>
</g>
<!-- PostsModule -->
<g id="node4" class="node">
<title>PostsModule</title>
<polygon fill="#8dd3c7" stroke="black" points="591.61,-266 588.61,-270 567.61,-270 564.61,-266 502.39,-266 502.39,-230 591.61,-230 591.61,-266"/>
<text text-anchor="middle" x="547" y="-243.8" font-family="Times,serif" font-size="14.00">PostsModule</text>
</g>
<!-- PaginationModule&#45;&gt;PostsModule -->
<g id="edge16" class="edge">
<title>PaginationModule&#45;&gt;PostsModule</title>
<path fill="none" stroke="black" d="M402.77,-198.02C402.77,-215.37 402.77,-239 402.77,-239 402.77,-239 492.15,-239 492.15,-239"/>
<polygon fill="black" stroke="black" points="492.16,-242.5 502.15,-239 492.15,-235.5 492.16,-242.5"/>
</g>
<!-- PaginationModule&#45;&gt;AppModule -->
<g id="edge3" class="edge">
<title>PaginationModule&#45;&gt;AppModule</title>
<path fill="none" stroke="black" d="M391.12,-198.24C391.12,-198.24 391.12,-295.91 391.12,-295.91"/>
<polygon fill="black" stroke="black" points="387.62,-295.91 391.12,-305.91 394.62,-295.91 387.62,-295.91"/>
</g>
<!-- PaginationService  -->
<g id="node15" class="node">
<title>PaginationService </title>
<polygon fill="#fb8072" stroke="black" points="807.86,-266 686.14,-266 686.14,-230 807.86,-230 807.86,-266"/>
<text text-anchor="middle" x="747" y="-243.8" font-family="Times,serif" font-size="14.00">PaginationService </text>
</g>
<!-- PaginationModule&#45;&gt;PaginationService  -->
<g id="edge14" class="edge">
<title>PaginationModule&#45;&gt;PaginationService </title>
<path fill="none" stroke="black" stroke-dasharray="5,2" d="M367.82,-198.19C367.82,-206.28 367.82,-214 367.82,-214 367.82,-214 715.53,-214 715.53,-214 715.53,-214 715.53,-219.81 715.53,-219.81"/>
<polygon fill="black" stroke="black" points="712.03,-219.81 715.53,-229.81 719.03,-219.81 712.03,-219.81"/>
</g>
<!-- PostsModule&#45;&gt;AppModule -->
<g id="edge4" class="edge">
<title>PostsModule&#45;&gt;AppModule</title>
<path fill="none" stroke="black" d="M502.11,-257C463.65,-257 414.42,-257 414.42,-257 414.42,-257 414.42,-295.69 414.42,-295.69"/>
<polygon fill="black" stroke="black" points="410.92,-295.69 414.42,-305.69 417.92,-295.69 410.92,-295.69"/>
</g>
<!-- PostsService  -->
<g id="node16" class="node">
<title>PostsService </title>
<polygon fill="#fb8072" stroke="black" points="777.54,-342 686.46,-342 686.46,-306 777.54,-306 777.54,-342"/>
<text text-anchor="middle" x="732" y="-319.8" font-family="Times,serif" font-size="14.00">PostsService </text>
</g>
<!-- PostsModule&#45;&gt;PostsService  -->
<g id="edge19" class="edge">
<title>PostsModule&#45;&gt;PostsService </title>
<path fill="none" stroke="black" stroke-dasharray="5,2" d="M561.85,-266.04C561.85,-287.66 561.85,-321 561.85,-321 561.85,-321 676.4,-321 676.4,-321"/>
<polygon fill="black" stroke="black" points="676.4,-324.5 686.4,-321 676.4,-317.5 676.4,-324.5"/>
</g>
<!-- TagsModule -->
<g id="node5" class="node">
<title>TagsModule</title>
<polygon fill="#8dd3c7" stroke="black" points="646.26,-198 643.26,-202 622.26,-202 619.26,-198 559.74,-198 559.74,-162 646.26,-162 646.26,-198"/>
<text text-anchor="middle" x="603" y="-175.8" font-family="Times,serif" font-size="14.00">TagsModule</text>
</g>
<!-- TagsModule&#45;&gt;PostsModule -->
<g id="edge17" class="edge">
<title>TagsModule&#45;&gt;PostsModule</title>
<path fill="none" stroke="black" d="M575.59,-198.22C575.59,-198.22 575.59,-219.73 575.59,-219.73"/>
<polygon fill="black" stroke="black" points="572.09,-219.73 575.59,-229.73 579.09,-219.73 572.09,-219.73"/>
</g>
<!-- TagsModule&#45;&gt;AppModule -->
<g id="edge5" class="edge">
<title>TagsModule&#45;&gt;AppModule</title>
<path fill="none" stroke="black" d="M618.97,-198.08C618.97,-238.97 618.97,-335 618.97,-335 618.97,-335 449.82,-335 449.82,-335"/>
<polygon fill="black" stroke="black" points="449.82,-331.5 439.82,-335 449.82,-338.5 449.82,-331.5"/>
</g>
<!-- TagsService  -->
<g id="node18" class="node">
<title>TagsService </title>
<polygon fill="#fb8072" stroke="black" points="936.19,-266 847.81,-266 847.81,-230 936.19,-230 936.19,-266"/>
<text text-anchor="middle" x="892" y="-243.8" font-family="Times,serif" font-size="14.00">TagsService </text>
</g>
<!-- TagsModule&#45;&gt;TagsService  -->
<g id="edge21" class="edge">
<title>TagsModule&#45;&gt;TagsService </title>
<path fill="none" stroke="black" stroke-dasharray="5,2" d="M646.43,-186C724.6,-186 880.94,-186 880.94,-186 880.94,-186 880.94,-219.73 880.94,-219.73"/>
<polygon fill="black" stroke="black" points="877.44,-219.73 880.94,-229.73 884.44,-219.73 877.44,-219.73"/>
</g>
<!-- UserModule -->
<g id="node6" class="node">
<title>UserModule</title>
<polygon fill="#8dd3c7" stroke="black" points="541.98,-198 538.98,-202 517.98,-202 514.98,-198 456.02,-198 456.02,-162 541.98,-162 541.98,-198"/>
<text text-anchor="middle" x="499" y="-175.8" font-family="Times,serif" font-size="14.00">UserModule</text>
</g>
<!-- UserModule&#45;&gt;PostsModule -->
<g id="edge18" class="edge">
<title>UserModule&#45;&gt;PostsModule</title>
<path fill="none" stroke="black" d="M522.22,-198.22C522.22,-198.22 522.22,-219.73 522.22,-219.73"/>
<polygon fill="black" stroke="black" points="518.72,-219.73 522.22,-229.73 525.72,-219.73 518.72,-219.73"/>
</g>
<!-- UserModule&#45;&gt;AppModule -->
<g id="edge6" class="edge">
<title>UserModule&#45;&gt;AppModule</title>
<path fill="none" stroke="black" d="M479.23,-198.15C479.23,-237.67 479.23,-328 479.23,-328 479.23,-328 450.04,-328 450.04,-328"/>
<polygon fill="black" stroke="black" points="450.04,-324.5 440.04,-328 450.04,-331.5 450.04,-324.5"/>
</g>
<!-- UserService  -->
<g id="node20" class="node">
<title>UserService </title>
<polygon fill="#fb8072" stroke="black" points="773.9,-122 686.1,-122 686.1,-86 773.9,-86 773.9,-122"/>
<text text-anchor="middle" x="730" y="-99.8" font-family="Times,serif" font-size="14.00">UserService </text>
</g>
<!-- UserModule&#45;&gt;UserService  -->
<g id="edge23" class="edge">
<title>UserModule&#45;&gt;UserService </title>
<path fill="none" stroke="black" stroke-dasharray="5,2" d="M524.79,-161.95C524.79,-147.63 524.79,-130 524.79,-130 524.79,-130 744.74,-130 744.74,-130 744.74,-130 744.74,-129.21 744.74,-129.21"/>
<polygon fill="black" stroke="black" points="748.24,-132.06 744.74,-122.06 741.24,-132.06 748.24,-132.06"/>
</g>
<!-- AppService -->
<g id="node8" class="node">
<title>AppService</title>
<ellipse fill="#fdb462" stroke="black" cx="343" cy="-104" rx="56.74" ry="18"/>
<text text-anchor="middle" x="343" y="-99.8" font-family="Times,serif" font-size="14.00">AppService</text>
</g>
<!-- AppService&#45;&gt;AppModule -->
<g id="edge7" class="edge">
<title>AppService&#45;&gt;AppModule</title>
<path fill="none" stroke="black" d="M302.33,-116.78C302.33,-163.73 302.33,-324 302.33,-324 302.33,-324 346.32,-324 346.32,-324"/>
<polygon fill="black" stroke="black" points="346.32,-327.5 356.32,-324 346.32,-320.5 346.32,-327.5"/>
</g>
<!-- PaginationService -->
<g id="node9" class="node">
<title>PaginationService</title>
<ellipse fill="#fdb462" stroke="black" cx="499" cy="-104" rx="81.1" ry="18"/>
<text text-anchor="middle" x="499" y="-99.8" font-family="Times,serif" font-size="14.00">PaginationService</text>
</g>
<!-- PaginationService&#45;&gt;PaginationModule -->
<g id="edge15" class="edge">
<title>PaginationService&#45;&gt;PaginationModule</title>
<path fill="none" stroke="black" d="M427.71,-112.72C427.71,-112.72 427.71,-151.88 427.71,-151.88"/>
<polygon fill="black" stroke="black" points="424.21,-151.88 427.71,-161.88 431.21,-151.88 424.21,-151.88"/>
</g>
<!-- PaginationService&#45;&gt;AppModule -->
<g id="edge8" class="edge">
<title>PaginationService&#45;&gt;AppModule</title>
<path fill="none" stroke="black" d="M447.92,-118.1C447.92,-165.19 447.92,-314 447.92,-314 447.92,-314 447.1,-314 447.1,-314"/>
<polygon fill="black" stroke="black" points="449.68,-310.5 439.68,-314 449.68,-317.5 449.68,-310.5"/>
</g>
<!-- AuthService -->
<g id="node12" class="node">
<title>AuthService</title>
<ellipse fill="#fdb462" stroke="black" cx="187" cy="-180" rx="59.11" ry="18"/>
<text text-anchor="middle" x="187" y="-175.8" font-family="Times,serif" font-size="14.00">AuthService</text>
</g>
<!-- AuthService&#45;&gt;AuthModule -->
<g id="edge11" class="edge">
<title>AuthService&#45;&gt;AuthModule</title>
<path fill="none" stroke="black" d="M194,-198.22C194,-198.22 194,-219.73 194,-219.73"/>
<polygon fill="black" stroke="black" points="190.5,-219.73 194,-229.73 197.5,-219.73 190.5,-219.73"/>
</g>
<!-- MetaOptionsService -->
<g id="node14" class="node">
<title>MetaOptionsService</title>
<ellipse fill="#fdb462" stroke="black" cx="1208" cy="-180" rx="90.33" ry="18"/>
<text text-anchor="middle" x="1208" y="-175.8" font-family="Times,serif" font-size="14.00">MetaOptionsService</text>
</g>
<!-- MetaOptionsService&#45;&gt;MetaOptionsModule -->
<g id="edge13" class="edge">
<title>MetaOptionsService&#45;&gt;MetaOptionsModule</title>
<path fill="none" stroke="black" d="M1196,-197.87C1196,-197.87 1196,-219.54 1196,-219.54"/>
<polygon fill="black" stroke="black" points="1192.5,-219.54 1196,-229.54 1199.5,-219.54 1192.5,-219.54"/>
</g>
<!-- PostsService -->
<g id="node17" class="node">
<title>PostsService</title>
<ellipse fill="#fdb462" stroke="black" cx="862" cy="-324" rx="60.27" ry="18"/>
<text text-anchor="middle" x="862" y="-319.8" font-family="Times,serif" font-size="14.00">PostsService</text>
</g>
<!-- PostsService&#45;&gt;PostsModule -->
<g id="edge20" class="edge">
<title>PostsService&#45;&gt;PostsModule</title>
<path fill="none" stroke="black" d="M827.67,-308.86C827.67,-300.99 827.67,-293 827.67,-293 827.67,-293 532.15,-293 532.15,-293 532.15,-293 532.15,-276.04 532.15,-276.04"/>
<polygon fill="black" stroke="black" points="535.65,-276.04 532.15,-266.04 528.65,-276.04 535.65,-276.04"/>
</g>
<!-- TagsService -->
<g id="node19" class="node">
<title>TagsService</title>
<ellipse fill="#fdb462" stroke="black" cx="1019" cy="-248" rx="58.53" ry="18"/>
<text text-anchor="middle" x="1019" y="-243.8" font-family="Times,serif" font-size="14.00">TagsService</text>
</g>
<!-- TagsService&#45;&gt;TagsModule -->
<g id="edge22" class="edge">
<title>TagsService&#45;&gt;TagsModule</title>
<path fill="none" stroke="black" d="M1019,-229.71C1019,-207.79 1019,-174 1019,-174 1019,-174 656.34,-174 656.34,-174"/>
<polygon fill="black" stroke="black" points="656.34,-170.5 646.34,-174 656.34,-177.5 656.34,-170.5"/>
</g>
<!-- CreateUserProvider -->
<g id="node21" class="node">
<title>CreateUserProvider</title>
<ellipse fill="#fdb462" stroke="black" cx="1192" cy="-104" rx="87.94" ry="18"/>
<text text-anchor="middle" x="1192" y="-99.8" font-family="Times,serif" font-size="14.00">CreateUserProvider</text>
</g>
<!-- CreateUserProvider&#45;&gt;UserModule -->
<g id="edge24" class="edge">
<title>CreateUserProvider&#45;&gt;UserModule</title>
<path fill="none" stroke="black" d="M1110.93,-110.95C1110.93,-124.69 1110.93,-154 1110.93,-154 1110.93,-154 507.6,-154 507.6,-154 507.6,-154 507.6,-154.79 507.6,-154.79"/>
<polygon fill="black" stroke="black" points="504.1,-151.94 507.6,-161.94 511.1,-151.94 504.1,-151.94"/>
</g>
<!-- UserCreateMany -->
<g id="node22" class="node">
<title>UserCreateMany</title>
<ellipse fill="#fdb462" stroke="black" cx="1009" cy="-104" rx="76.98" ry="18"/>
<text text-anchor="middle" x="1009" y="-99.8" font-family="Times,serif" font-size="14.00">UserCreateMany</text>
</g>
<!-- UserCreateMany&#45;&gt;UserModule -->
<g id="edge25" class="edge">
<title>UserCreateMany&#45;&gt;UserModule</title>
<path fill="none" stroke="black" d="M948.29,-115.48C948.29,-127.91 948.29,-146 948.29,-146 948.29,-146 490.4,-146 490.4,-146 490.4,-146 490.4,-151.81 490.4,-151.81"/>
<polygon fill="black" stroke="black" points="486.9,-151.81 490.4,-161.81 493.9,-151.81 486.9,-151.81"/>
</g>
<!-- UserService -->
<g id="node23" class="node">
<title>UserService</title>
<ellipse fill="#fdb462" stroke="black" cx="856" cy="-104" rx="58.44" ry="18"/>
<text text-anchor="middle" x="856" y="-99.8" font-family="Times,serif" font-size="14.00">UserService</text>
</g>
<!-- UserService&#45;&gt;UserModule -->
<g id="edge26" class="edge">
<title>UserService&#45;&gt;UserModule</title>
<path fill="none" stroke="black" d="M802.73,-111.55C802.73,-121.56 802.73,-138 802.73,-138 802.73,-138 473.21,-138 473.21,-138 473.21,-138 473.21,-151.94 473.21,-151.94"/>
<polygon fill="black" stroke="black" points="469.71,-151.94 473.21,-161.94 476.71,-151.94 469.71,-151.94"/>
</g>
</g>
</svg>
