<?xml version="1.0" encoding="UTF-8" standalone="no"?>
<!DOCTYPE svg PUBLIC "-//W3C//DTD SVG 1.1//EN"
 "http://www.w3.org/Graphics/SVG/1.1/DTD/svg11.dtd">
<!-- Generated by graphviz version 2.47.0 (20210316.0004)
 -->
<!-- Title: dependencies Pages: 1 -->
<svg width="644pt" height="358pt"
 viewBox="0.00 0.00 644.00 358.00" xmlns="http://www.w3.org/2000/svg" xmlns:xlink="http://www.w3.org/1999/xlink">
<g id="graph0" class="graph" transform="scale(1 1) rotate(0) translate(4 354)">
<title>dependencies</title>
<polygon fill="white" stroke="transparent" points="-4,4 -4,-354 640,-354 640,4 -4,4"/>
<text text-anchor="start" x="297.01" y="-42.4" font-family="Times-12" font-weight="bold" font-size="14.00">Legend</text>
<polygon fill="#ffffb3" stroke="transparent" points="84,-10 84,-30 104,-30 104,-10 84,-10"/>
<text text-anchor="start" x="107.63" y="-15.4" font-family="Times-12" font-size="14.00"> &#160;Declarations</text>
<polygon fill="#8dd3c7" stroke="transparent" points="197,-10 197,-30 217,-30 217,-10 197,-10"/>
<text text-anchor="start" x="220.73" y="-15.4" font-family="Times-12" font-size="14.00"> &#160;Module</text>
<polygon fill="#80b1d3" stroke="transparent" points="283,-10 283,-30 303,-30 303,-10 283,-10"/>
<text text-anchor="start" x="306.78" y="-15.4" font-family="Times-12" font-size="14.00"> &#160;Bootstrap</text>
<polygon fill="#fdb462" stroke="transparent" points="380,-10 380,-30 400,-30 400,-10 380,-10"/>
<text text-anchor="start" x="403.67" y="-15.4" font-family="Times-12" font-size="14.00"> &#160;Providers</text>
<polygon fill="#fb8072" stroke="transparent" points="476,-10 476,-30 496,-30 496,-10 476,-10"/>
<text text-anchor="start" x="499.73" y="-15.4" font-family="Times-12" font-size="14.00"> &#160;Exports</text>
<g id="clust19" class="cluster">
<title>cluster_UserModule</title>
<polygon fill="none" stroke="black" stroke-dasharray="1,5" points="322,-70 322,-274 470,-274 470,-70 322,-70"/>
</g>
<g id="clust24" class="cluster">
<title>cluster_UserModule_providers</title>
<polygon fill="none" stroke="black" points="330,-78 330,-130 462,-130 462,-78 330,-78"/>
</g>
<g id="clust22" class="cluster">
<title>cluster_UserModule_exports</title>
<polygon fill="none" stroke="black" points="346,-214 346,-266 450,-266 450,-214 346,-214"/>
</g>
<g id="clust7" class="cluster">
<title>cluster_AuthModule</title>
<polygon fill="none" stroke="black" stroke-dasharray="1,5" points="478,-138 478,-342 628,-342 628,-138 478,-138"/>
</g>
<g id="clust10" class="cluster">
<title>cluster_AuthModule_exports</title>
<polygon fill="none" stroke="black" points="493,-282 493,-334 599,-334 599,-282 493,-282"/>
</g>
<g id="clust12" class="cluster">
<title>cluster_AuthModule_providers</title>
<polygon fill="none" stroke="black" points="486,-146 486,-198 620,-198 620,-146 486,-146"/>
</g>
<g id="clust13" class="cluster">
<title>cluster_PostsModule</title>
<polygon fill="none" stroke="black" stroke-dasharray="1,5" points="8,-138 8,-342 160,-342 160,-138 8,-138"/>
</g>
<g id="clust18" class="cluster">
<title>cluster_PostsModule_providers</title>
<polygon fill="none" stroke="black" points="16,-146 16,-198 152,-198 152,-146 16,-146"/>
</g>
<g id="clust16" class="cluster">
<title>cluster_PostsModule_exports</title>
<polygon fill="none" stroke="black" points="44,-282 44,-334 152,-334 152,-282 44,-282"/>
</g>
<g id="clust1" class="cluster">
<title>cluster_AppModule</title>
<polygon fill="none" stroke="black" stroke-dasharray="1,5" points="168,-206 168,-334 314,-334 314,-206 168,-206"/>
</g>
<g id="clust6" class="cluster">
<title>cluster_AppModule_providers</title>
<polygon fill="none" stroke="black" points="176,-214 176,-266 306,-266 306,-214 176,-214"/>
</g>
<!-- AuthModule -->
<g id="node1" class="node">
<title>AuthModule</title>
<polygon fill="#8dd3c7" stroke="black" points="589.55,-258 586.55,-262 565.55,-262 562.55,-258 502.45,-258 502.45,-222 589.55,-222 589.55,-258"/>
<text text-anchor="middle" x="546" y="-235.8" font-family="Times,serif" font-size="14.00">AuthModule</text>
</g>
<!-- AppModule -->
<g id="node4" class="node">
<title>AppModule</title>
<polygon fill="#8dd3c7" stroke="black" points="293.66,-326 290.66,-330 269.66,-330 266.66,-326 210.34,-326 210.34,-290 293.66,-290 293.66,-326"/>
<text text-anchor="middle" x="252" y="-303.8" font-family="Times,serif" font-size="14.00">AppModule</text>
</g>
<!-- AuthModule&#45;&gt;AppModule -->
<g id="edge1" class="edge">
<title>AuthModule&#45;&gt;AppModule</title>
<path fill="none" stroke="black" d="M502.31,-240C499.33,-240 497.48,-240 497.48,-240 497.48,-240 497.48,-314 497.48,-314 497.48,-314 303.92,-314 303.92,-314"/>
<polygon fill="black" stroke="black" points="303.92,-310.5 293.92,-314 303.92,-317.5 303.92,-310.5"/>
</g>
<!-- AuthService  -->
<g id="node6" class="node">
<title>AuthService </title>
<polygon fill="#fb8072" stroke="black" points="590.98,-326 501.02,-326 501.02,-290 590.98,-290 590.98,-326"/>
<text text-anchor="middle" x="546" y="-303.8" font-family="Times,serif" font-size="14.00">AuthService </text>
</g>
<!-- AuthModule&#45;&gt;AuthService  -->
<g id="edge5" class="edge">
<title>AuthModule&#45;&gt;AuthService </title>
<path fill="none" stroke="black" stroke-dasharray="5,2" d="M546,-258.22C546,-258.22 546,-279.73 546,-279.73"/>
<polygon fill="black" stroke="black" points="542.5,-279.73 546,-289.73 549.5,-279.73 542.5,-279.73"/>
</g>
<!-- PostsModule -->
<g id="node2" class="node">
<title>PostsModule</title>
<polygon fill="#8dd3c7" stroke="black" points="146.61,-258 143.61,-262 122.61,-262 119.61,-258 57.39,-258 57.39,-222 146.61,-222 146.61,-258"/>
<text text-anchor="middle" x="102" y="-235.8" font-family="Times,serif" font-size="14.00">PostsModule</text>
</g>
<!-- PostsModule&#45;&gt;AppModule -->
<g id="edge2" class="edge">
<title>PostsModule&#45;&gt;AppModule</title>
<path fill="none" stroke="black" d="M146.58,-246C160.26,-246 171.77,-246 171.77,-246 171.77,-246 171.77,-308 171.77,-308 171.77,-308 200.01,-308 200.01,-308"/>
<polygon fill="black" stroke="black" points="200.01,-311.5 210.01,-308 200.01,-304.5 200.01,-311.5"/>
</g>
<!-- PostsService  -->
<g id="node8" class="node">
<title>PostsService </title>
<polygon fill="#fb8072" stroke="black" points="143.54,-326 52.46,-326 52.46,-290 143.54,-290 143.54,-326"/>
<text text-anchor="middle" x="98" y="-303.8" font-family="Times,serif" font-size="14.00">PostsService </text>
</g>
<!-- PostsModule&#45;&gt;PostsService  -->
<g id="edge8" class="edge">
<title>PostsModule&#45;&gt;PostsService </title>
<path fill="none" stroke="black" stroke-dasharray="5,2" d="M100.48,-258.22C100.48,-258.22 100.48,-279.73 100.48,-279.73"/>
<polygon fill="black" stroke="black" points="96.98,-279.73 100.48,-289.73 103.98,-279.73 96.98,-279.73"/>
</g>
<!-- UserModule -->
<g id="node3" class="node">
<title>UserModule</title>
<polygon fill="#8dd3c7" stroke="black" points="426.98,-190 423.98,-194 402.98,-194 399.98,-190 341.02,-190 341.02,-154 426.98,-154 426.98,-190"/>
<text text-anchor="middle" x="384" y="-167.8" font-family="Times,serif" font-size="14.00">UserModule</text>
</g>
<!-- UserModule&#45;&gt;PostsModule -->
<g id="edge7" class="edge">
<title>UserModule&#45;&gt;PostsModule</title>
<path fill="none" stroke="black" d="M340.92,-172C275.63,-172 159.16,-172 159.16,-172 159.16,-172 159.16,-234 159.16,-234 159.16,-234 156.76,-234 156.76,-234"/>
<polygon fill="black" stroke="black" points="156.76,-230.5 146.76,-234 156.76,-237.5 156.76,-230.5"/>
</g>
<!-- UserModule&#45;&gt;AppModule -->
<g id="edge3" class="edge">
<title>UserModule&#45;&gt;AppModule</title>
<path fill="none" stroke="black" d="M347.53,-190.08C347.53,-225.8 347.53,-302 347.53,-302 347.53,-302 303.9,-302 303.9,-302"/>
<polygon fill="black" stroke="black" points="303.9,-298.5 293.9,-302 303.9,-305.5 303.9,-298.5"/>
</g>
<!-- UserService  -->
<g id="node10" class="node">
<title>UserService </title>
<polygon fill="#fb8072" stroke="black" points="441.9,-258 354.1,-258 354.1,-222 441.9,-222 441.9,-258"/>
<text text-anchor="middle" x="398" y="-235.8" font-family="Times,serif" font-size="14.00">UserService </text>
</g>
<!-- UserModule&#45;&gt;UserService  -->
<g id="edge10" class="edge">
<title>UserModule&#45;&gt;UserService </title>
<path fill="none" stroke="black" stroke-dasharray="5,2" d="M390.52,-190.22C390.52,-190.22 390.52,-211.73 390.52,-211.73"/>
<polygon fill="black" stroke="black" points="387.02,-211.73 390.52,-221.73 394.02,-211.73 387.02,-211.73"/>
</g>
<!-- AppService -->
<g id="node5" class="node">
<title>AppService</title>
<ellipse fill="#fdb462" stroke="black" cx="241" cy="-240" rx="56.74" ry="18"/>
<text text-anchor="middle" x="241" y="-235.8" font-family="Times,serif" font-size="14.00">AppService</text>
</g>
<!-- AppService&#45;&gt;AppModule -->
<g id="edge4" class="edge">
<title>AppService&#45;&gt;AppModule</title>
<path fill="none" stroke="black" d="M252,-257.87C252,-257.87 252,-279.54 252,-279.54"/>
<polygon fill="black" stroke="black" points="248.5,-279.54 252,-289.54 255.5,-279.54 248.5,-279.54"/>
</g>
<!-- AuthService -->
<g id="node7" class="node">
<title>AuthService</title>
<ellipse fill="#fdb462" stroke="black" cx="553" cy="-172" rx="59.11" ry="18"/>
<text text-anchor="middle" x="553" y="-167.8" font-family="Times,serif" font-size="14.00">AuthService</text>
</g>
<!-- AuthService&#45;&gt;AuthModule -->
<g id="edge6" class="edge">
<title>AuthService&#45;&gt;AuthModule</title>
<path fill="none" stroke="black" d="M546,-190.22C546,-190.22 546,-211.73 546,-211.73"/>
<polygon fill="black" stroke="black" points="542.5,-211.73 546,-221.73 549.5,-211.73 542.5,-211.73"/>
</g>
<!-- PostsService -->
<g id="node9" class="node">
<title>PostsService</title>
<ellipse fill="#fdb462" stroke="black" cx="84" cy="-172" rx="60.27" ry="18"/>
<text text-anchor="middle" x="84" y="-167.8" font-family="Times,serif" font-size="14.00">PostsService</text>
</g>
<!-- PostsService&#45;&gt;PostsModule -->
<g id="edge9" class="edge">
<title>PostsService&#45;&gt;PostsModule</title>
<path fill="none" stroke="black" d="M100.91,-189.51C100.91,-189.51 100.91,-211.84 100.91,-211.84"/>
<polygon fill="black" stroke="black" points="97.41,-211.84 100.91,-221.84 104.41,-211.84 97.41,-211.84"/>
</g>
<!-- UserService -->
<g id="node11" class="node">
<title>UserService</title>
<ellipse fill="#fdb462" stroke="black" cx="396" cy="-104" rx="58.44" ry="18"/>
<text text-anchor="middle" x="396" y="-99.8" font-family="Times,serif" font-size="14.00">UserService</text>
</g>
<!-- UserService&#45;&gt;UserModule -->
<g id="edge11" class="edge">
<title>UserService&#45;&gt;UserModule</title>
<path fill="none" stroke="black" d="M384,-121.87C384,-121.87 384,-143.54 384,-143.54"/>
<polygon fill="black" stroke="black" points="380.5,-143.54 384,-153.54 387.5,-143.54 380.5,-143.54"/>
</g>
</g>
</svg>
