<?xml version="1.0" encoding="UTF-8" standalone="no"?>
<!DOCTYPE svg PUBLIC "-//W3C//DTD SVG 1.1//EN"
 "http://www.w3.org/Graphics/SVG/1.1/DTD/svg11.dtd">
<!-- Generated by graphviz version 2.47.0 (20210316.0004)
 -->
<!-- Title: dependencies Pages: 1 -->
<svg width="1093pt" height="360pt"
 viewBox="0.00 0.00 1093.00 360.00" xmlns="http://www.w3.org/2000/svg" xmlns:xlink="http://www.w3.org/1999/xlink">
<g id="graph0" class="graph" transform="scale(1 1) rotate(0) translate(4 356)">
<title>dependencies</title>
<polygon fill="white" stroke="transparent" points="-4,4 -4,-356 1089,-356 1089,4 -4,4"/>
<text text-anchor="start" x="521.51" y="-42.4" font-family="Times-12" font-weight="bold" font-size="14.00">Legend</text>
<polygon fill="#ffffb3" stroke="transparent" points="308.5,-10 308.5,-30 328.5,-30 328.5,-10 308.5,-10"/>
<text text-anchor="start" x="332.13" y="-15.4" font-family="Times-12" font-size="14.00"> &#160;Declarations</text>
<polygon fill="#8dd3c7" stroke="transparent" points="421.5,-10 421.5,-30 441.5,-30 441.5,-10 421.5,-10"/>
<text text-anchor="start" x="445.23" y="-15.4" font-family="Times-12" font-size="14.00"> &#160;Module</text>
<polygon fill="#80b1d3" stroke="transparent" points="507.5,-10 507.5,-30 527.5,-30 527.5,-10 507.5,-10"/>
<text text-anchor="start" x="531.28" y="-15.4" font-family="Times-12" font-size="14.00"> &#160;Bootstrap</text>
<polygon fill="#fdb462" stroke="transparent" points="604.5,-10 604.5,-30 624.5,-30 624.5,-10 604.5,-10"/>
<text text-anchor="start" x="628.17" y="-15.4" font-family="Times-12" font-size="14.00"> &#160;Providers</text>
<polygon fill="#fb8072" stroke="transparent" points="700.5,-10 700.5,-30 720.5,-30 720.5,-10 700.5,-10"/>
<text text-anchor="start" x="724.23" y="-15.4" font-family="Times-12" font-size="14.00"> &#160;Exports</text>
<g id="clust19" class="cluster">
<title>cluster_UserModule</title>
<polygon fill="none" stroke="black" stroke-dasharray="1,5" points="8,-70 8,-268 156,-268 156,-70 8,-70"/>
</g>
<g id="clust24" class="cluster">
<title>cluster_UserModule_providers</title>
<polygon fill="none" stroke="black" points="16,-78 16,-130 148,-130 148,-78 16,-78"/>
</g>
<g id="clust22" class="cluster">
<title>cluster_UserModule_exports</title>
<polygon fill="none" stroke="black" points="28,-208 28,-260 132,-260 132,-208 28,-208"/>
</g>
<g id="clust1" class="cluster">
<title>cluster_AppModule</title>
<polygon fill="none" stroke="black" stroke-dasharray="1,5" points="164,-200 164,-336 529,-336 529,-200 164,-200"/>
</g>
<g id="clust3" class="cluster">
<title>cluster_AppModule_imports</title>
<polygon fill="none" stroke="black" points="310,-208 310,-260 521,-260 521,-208 310,-208"/>
</g>
<g id="clust6" class="cluster">
<title>cluster_AppModule_providers</title>
<polygon fill="none" stroke="black" points="172,-208 172,-260 302,-260 302,-208 172,-208"/>
</g>
<g id="clust7" class="cluster">
<title>cluster_AuthModule</title>
<polygon fill="none" stroke="black" stroke-dasharray="1,5" points="537,-276 537,-344 801,-344 801,-276 537,-276"/>
</g>
<g id="clust10" class="cluster">
<title>cluster_AuthModule_exports</title>
<polygon fill="none" stroke="black" points="687,-284 687,-336 793,-336 793,-284 687,-284"/>
</g>
<g id="clust12" class="cluster">
<title>cluster_AuthModule_providers</title>
<polygon fill="none" stroke="black" points="545,-284 545,-336 679,-336 679,-284 545,-284"/>
</g>
<g id="clust13" class="cluster">
<title>cluster_PostsModule</title>
<polygon fill="none" stroke="black" stroke-dasharray="1,5" points="809,-276 809,-344 1077,-344 1077,-276 809,-276"/>
</g>
<g id="clust16" class="cluster">
<title>cluster_PostsModule_exports</title>
<polygon fill="none" stroke="black" points="961,-284 961,-336 1069,-336 1069,-284 961,-284"/>
</g>
<g id="clust18" class="cluster">
<title>cluster_PostsModule_providers</title>
<polygon fill="none" stroke="black" points="817,-284 817,-336 953,-336 953,-284 817,-284"/>
</g>
<!-- AuthModule -->
<g id="node1" class="node">
<title>AuthModule</title>
<polygon fill="#8dd3c7" stroke="black" points="405.55,-252 402.55,-256 381.55,-256 378.55,-252 318.45,-252 318.45,-216 405.55,-216 405.55,-252"/>
<text text-anchor="middle" x="362" y="-229.8" font-family="Times,serif" font-size="14.00">AuthModule</text>
</g>
<!-- AppModule -->
<g id="node4" class="node">
<title>AppModule</title>
<polygon fill="#8dd3c7" stroke="black" points="340.66,-328 337.66,-332 316.66,-332 313.66,-328 257.34,-328 257.34,-292 340.66,-292 340.66,-328"/>
<text text-anchor="middle" x="299" y="-305.8" font-family="Times,serif" font-size="14.00">AppModule</text>
</g>
<!-- AuthModule&#45;&gt;AppModule -->
<g id="edge1" class="edge">
<title>AuthModule&#45;&gt;AppModule</title>
<path fill="none" stroke="black" d="M329.53,-252.01C329.53,-252.01 329.53,-281.85 329.53,-281.85"/>
<polygon fill="black" stroke="black" points="326.03,-281.85 329.53,-291.85 333.03,-281.85 326.03,-281.85"/>
</g>
<!-- AuthService  -->
<g id="node6" class="node">
<title>AuthService </title>
<polygon fill="#fb8072" stroke="black" points="784.98,-328 695.02,-328 695.02,-292 784.98,-292 784.98,-328"/>
<text text-anchor="middle" x="740" y="-305.8" font-family="Times,serif" font-size="14.00">AuthService </text>
</g>
<!-- AuthModule&#45;&gt;AuthService  -->
<g id="edge5" class="edge">
<title>AuthModule&#45;&gt;AuthService </title>
<path fill="none" stroke="black" stroke-dasharray="5,2" d="M362.48,-252.11C362.48,-261.9 362.48,-272 362.48,-272 362.48,-272 740,-272 740,-272 740,-272 740,-281.89 740,-281.89"/>
<polygon fill="black" stroke="black" points="736.5,-281.89 740,-291.89 743.5,-281.89 736.5,-281.89"/>
</g>
<!-- PostsModule -->
<g id="node2" class="node">
<title>PostsModule</title>
<polygon fill="#8dd3c7" stroke="black" points="512.61,-252 509.61,-256 488.61,-256 485.61,-252 423.39,-252 423.39,-216 512.61,-216 512.61,-252"/>
<text text-anchor="middle" x="468" y="-229.8" font-family="Times,serif" font-size="14.00">PostsModule</text>
</g>
<!-- PostsModule&#45;&gt;AppModule -->
<g id="edge2" class="edge">
<title>PostsModule&#45;&gt;AppModule</title>
<path fill="none" stroke="black" d="M468,-252.03C468,-272.77 468,-304 468,-304 468,-304 350.78,-304 350.78,-304"/>
<polygon fill="black" stroke="black" points="350.78,-300.5 340.78,-304 350.78,-307.5 350.78,-300.5"/>
</g>
<!-- PostsService  -->
<g id="node8" class="node">
<title>PostsService </title>
<polygon fill="#fb8072" stroke="black" points="1060.54,-328 969.46,-328 969.46,-292 1060.54,-292 1060.54,-328"/>
<text text-anchor="middle" x="1015" y="-305.8" font-family="Times,serif" font-size="14.00">PostsService </text>
</g>
<!-- PostsModule&#45;&gt;PostsService  -->
<g id="edge8" class="edge">
<title>PostsModule&#45;&gt;PostsService </title>
<path fill="none" stroke="black" stroke-dasharray="5,2" d="M512.76,-228C643.4,-228 1015,-228 1015,-228 1015,-228 1015,-281.8 1015,-281.8"/>
<polygon fill="black" stroke="black" points="1011.5,-281.8 1015,-291.8 1018.5,-281.8 1011.5,-281.8"/>
</g>
<!-- UserModule -->
<g id="node3" class="node">
<title>UserModule</title>
<polygon fill="#8dd3c7" stroke="black" points="135.98,-187 132.98,-191 111.98,-191 108.98,-187 50.02,-187 50.02,-151 135.98,-151 135.98,-187"/>
<text text-anchor="middle" x="93" y="-164.8" font-family="Times,serif" font-size="14.00">UserModule</text>
</g>
<!-- UserModule&#45;&gt;PostsModule -->
<g id="edge7" class="edge">
<title>UserModule&#45;&gt;PostsModule</title>
<path fill="none" stroke="black" d="M136.02,-169C234.52,-169 468,-169 468,-169 468,-169 468,-205.89 468,-205.89"/>
<polygon fill="black" stroke="black" points="464.5,-205.89 468,-215.89 471.5,-205.89 464.5,-205.89"/>
</g>
<!-- UserModule&#45;&gt;AppModule -->
<g id="edge3" class="edge">
<title>UserModule&#45;&gt;AppModule</title>
<path fill="none" stroke="black" d="M129.97,-187.14C129.97,-225.23 129.97,-310 129.97,-310 129.97,-310 247.22,-310 247.22,-310"/>
<polygon fill="black" stroke="black" points="247.22,-313.5 257.22,-310 247.22,-306.5 247.22,-313.5"/>
</g>
<!-- UserService  -->
<g id="node10" class="node">
<title>UserService </title>
<polygon fill="#fb8072" stroke="black" points="123.9,-252 36.1,-252 36.1,-216 123.9,-216 123.9,-252"/>
<text text-anchor="middle" x="80" y="-229.8" font-family="Times,serif" font-size="14.00">UserService </text>
</g>
<!-- UserModule&#45;&gt;UserService  -->
<g id="edge10" class="edge">
<title>UserModule&#45;&gt;UserService </title>
<path fill="none" stroke="black" stroke-dasharray="5,2" d="M86.98,-187.11C86.98,-187.11 86.98,-205.99 86.98,-205.99"/>
<polygon fill="black" stroke="black" points="83.48,-205.99 86.98,-215.99 90.48,-205.99 83.48,-205.99"/>
</g>
<!-- AppService -->
<g id="node5" class="node">
<title>AppService</title>
<ellipse fill="#fdb462" stroke="black" cx="237" cy="-234" rx="56.74" ry="18"/>
<text text-anchor="middle" x="237" y="-229.8" font-family="Times,serif" font-size="14.00">AppService</text>
</g>
<!-- AppService&#45;&gt;AppModule -->
<g id="edge4" class="edge">
<title>AppService&#45;&gt;AppModule</title>
<path fill="none" stroke="black" d="M275.4,-247.24C275.4,-247.24 275.4,-281.79 275.4,-281.79"/>
<polygon fill="black" stroke="black" points="271.9,-281.79 275.4,-291.79 278.9,-281.79 271.9,-281.79"/>
</g>
<!-- AuthService -->
<g id="node7" class="node">
<title>AuthService</title>
<ellipse fill="#fdb462" stroke="black" cx="612" cy="-310" rx="59.11" ry="18"/>
<text text-anchor="middle" x="612" y="-305.8" font-family="Times,serif" font-size="14.00">AuthService</text>
</g>
<!-- AuthService&#45;&gt;AuthModule -->
<g id="edge6" class="edge">
<title>AuthService&#45;&gt;AuthModule</title>
<path fill="none" stroke="black" d="M555.96,-316C488.49,-316 384.13,-316 384.13,-316 384.13,-316 384.13,-262.2 384.13,-262.2"/>
<polygon fill="black" stroke="black" points="387.63,-262.2 384.13,-252.2 380.63,-262.2 387.63,-262.2"/>
</g>
<!-- PostsService -->
<g id="node9" class="node">
<title>PostsService</title>
<ellipse fill="#fdb462" stroke="black" cx="885" cy="-310" rx="60.27" ry="18"/>
<text text-anchor="middle" x="885" y="-305.8" font-family="Times,serif" font-size="14.00">PostsService</text>
</g>
<!-- PostsService&#45;&gt;PostsModule -->
<g id="edge9" class="edge">
<title>PostsService&#45;&gt;PostsModule</title>
<path fill="none" stroke="black" d="M885,-291.97C885,-271.23 885,-240 885,-240 885,-240 522.63,-240 522.63,-240"/>
<polygon fill="black" stroke="black" points="522.63,-236.5 512.63,-240 522.63,-243.5 522.63,-236.5"/>
</g>
<!-- UserService -->
<g id="node11" class="node">
<title>UserService</title>
<ellipse fill="#fdb462" stroke="black" cx="82" cy="-104" rx="58.44" ry="18"/>
<text text-anchor="middle" x="82" y="-99.8" font-family="Times,serif" font-size="14.00">UserService</text>
</g>
<!-- UserService&#45;&gt;UserModule -->
<g id="edge11" class="edge">
<title>UserService&#45;&gt;UserModule</title>
<path fill="none" stroke="black" d="M93,-121.76C93,-121.76 93,-140.81 93,-140.81"/>
<polygon fill="black" stroke="black" points="89.5,-140.81 93,-150.81 96.5,-140.81 89.5,-140.81"/>
</g>
</g>
</svg>
