<?xml version="1.0" encoding="UTF-8" standalone="no"?>
<!DOCTYPE svg PUBLIC "-//W3C//DTD SVG 1.1//EN"
 "http://www.w3.org/Graphics/SVG/1.1/DTD/svg11.dtd">
<!-- Generated by graphviz version 2.47.0 (20210316.0004)
 -->
<!-- Title: dependencies Pages: 1 -->
<svg width="1526pt" height="290pt"
 viewBox="0.00 0.00 1526.00 290.00" xmlns="http://www.w3.org/2000/svg" xmlns:xlink="http://www.w3.org/1999/xlink">
<g id="graph0" class="graph" transform="scale(1 1) rotate(0) translate(4 286)">
<title>dependencies</title>
<polygon fill="white" stroke="transparent" points="-4,4 -4,-286 1522,-286 1522,4 -4,4"/>
<text text-anchor="start" x="738.01" y="-42.4" font-family="Times-12" font-weight="bold" font-size="14.00">Legend</text>
<polygon fill="#ffffb3" stroke="transparent" points="525,-10 525,-30 545,-30 545,-10 525,-10"/>
<text text-anchor="start" x="548.63" y="-15.4" font-family="Times-12" font-size="14.00"> &#160;Declarations</text>
<polygon fill="#8dd3c7" stroke="transparent" points="638,-10 638,-30 658,-30 658,-10 638,-10"/>
<text text-anchor="start" x="661.73" y="-15.4" font-family="Times-12" font-size="14.00"> &#160;Module</text>
<polygon fill="#80b1d3" stroke="transparent" points="724,-10 724,-30 744,-30 744,-10 724,-10"/>
<text text-anchor="start" x="747.78" y="-15.4" font-family="Times-12" font-size="14.00"> &#160;Bootstrap</text>
<polygon fill="#fdb462" stroke="transparent" points="821,-10 821,-30 841,-30 841,-10 821,-10"/>
<text text-anchor="start" x="844.67" y="-15.4" font-family="Times-12" font-size="14.00"> &#160;Providers</text>
<polygon fill="#fb8072" stroke="transparent" points="917,-10 917,-30 937,-30 937,-10 917,-10"/>
<text text-anchor="start" x="940.73" y="-15.4" font-family="Times-12" font-size="14.00"> &#160;Exports</text>
<g id="clust19" class="cluster">
<title>cluster_PostsModule</title>
<polygon fill="none" stroke="black" stroke-dasharray="1,5" points="1144,-70 1144,-274 1510,-274 1510,-70 1144,-70"/>
</g>
<g id="clust21" class="cluster">
<title>cluster_PostsModule_imports</title>
<polygon fill="none" stroke="black" points="1152,-78 1152,-130 1358,-130 1358,-78 1152,-78"/>
</g>
<g id="clust22" class="cluster">
<title>cluster_PostsModule_exports</title>
<polygon fill="none" stroke="black" points="1202,-214 1202,-266 1310,-266 1310,-214 1202,-214"/>
</g>
<g id="clust24" class="cluster">
<title>cluster_PostsModule_providers</title>
<polygon fill="none" stroke="black" points="1366,-78 1366,-130 1502,-130 1502,-78 1366,-78"/>
</g>
<g id="clust7" class="cluster">
<title>cluster_AuthModule</title>
<polygon fill="none" stroke="black" stroke-dasharray="1,5" points="8,-70 8,-274 158,-274 158,-70 8,-70"/>
</g>
<g id="clust10" class="cluster">
<title>cluster_AuthModule_exports</title>
<polygon fill="none" stroke="black" points="37,-214 37,-266 143,-266 143,-214 37,-214"/>
</g>
<g id="clust12" class="cluster">
<title>cluster_AuthModule_providers</title>
<polygon fill="none" stroke="black" points="16,-78 16,-130 150,-130 150,-78 16,-78"/>
</g>
<g id="clust13" class="cluster">
<title>cluster_MetaOptionsModule</title>
<polygon fill="none" stroke="black" stroke-dasharray="1,5" points="166,-70 166,-274 378,-274 378,-70 166,-70"/>
</g>
<g id="clust16" class="cluster">
<title>cluster_MetaOptionsModule_exports</title>
<polygon fill="none" stroke="black" points="208,-214 208,-266 358,-266 358,-214 208,-214"/>
</g>
<g id="clust18" class="cluster">
<title>cluster_MetaOptionsModule_providers</title>
<polygon fill="none" stroke="black" points="174,-78 174,-130 370,-130 370,-78 174,-78"/>
</g>
<g id="clust25" class="cluster">
<title>cluster_TagsModule</title>
<polygon fill="none" stroke="black" stroke-dasharray="1,5" points="452,-138 452,-206 714,-206 714,-138 452,-138"/>
</g>
<g id="clust28" class="cluster">
<title>cluster_TagsModule_exports</title>
<polygon fill="none" stroke="black" points="602,-146 602,-198 706,-198 706,-146 602,-146"/>
</g>
<g id="clust30" class="cluster">
<title>cluster_TagsModule_providers</title>
<polygon fill="none" stroke="black" points="460,-146 460,-198 594,-198 594,-146 460,-146"/>
</g>
<g id="clust1" class="cluster">
<title>cluster_AppModule</title>
<polygon fill="none" stroke="black" stroke-dasharray="1,5" points="990,-138 990,-266 1136,-266 1136,-138 990,-138"/>
</g>
<g id="clust6" class="cluster">
<title>cluster_AppModule_providers</title>
<polygon fill="none" stroke="black" points="998,-146 998,-198 1128,-198 1128,-146 998,-146"/>
</g>
<g id="clust31" class="cluster">
<title>cluster_UserModule</title>
<polygon fill="none" stroke="black" stroke-dasharray="1,5" points="722,-138 722,-206 982,-206 982,-138 722,-138"/>
</g>
<g id="clust34" class="cluster">
<title>cluster_UserModule_exports</title>
<polygon fill="none" stroke="black" points="870,-146 870,-198 974,-198 974,-146 870,-146"/>
</g>
<g id="clust36" class="cluster">
<title>cluster_UserModule_providers</title>
<polygon fill="none" stroke="black" points="730,-146 730,-198 862,-198 862,-146 730,-146"/>
</g>
<!-- AuthModule -->
<g id="node1" class="node">
<title>AuthModule</title>
<polygon fill="#8dd3c7" stroke="black" points="133.55,-190 130.55,-194 109.55,-194 106.55,-190 46.45,-190 46.45,-154 133.55,-154 133.55,-190"/>
<text text-anchor="middle" x="90" y="-167.8" font-family="Times,serif" font-size="14.00">AuthModule</text>
</g>
<!-- AppModule -->
<g id="node6" class="node">
<title>AppModule</title>
<polygon fill="#8dd3c7" stroke="black" points="1081.66,-258 1078.66,-262 1057.66,-262 1054.66,-258 998.34,-258 998.34,-222 1081.66,-222 1081.66,-258"/>
<text text-anchor="middle" x="1040" y="-235.8" font-family="Times,serif" font-size="14.00">AppModule</text>
</g>
<!-- AuthModule&#45;&gt;AppModule -->
<g id="edge1" class="edge">
<title>AuthModule&#45;&gt;AppModule</title>
<path fill="none" stroke="black" d="M104.59,-190.19C104.59,-198.28 104.59,-206 104.59,-206 104.59,-206 1000.91,-206 1000.91,-206 1000.91,-206 1000.91,-211.81 1000.91,-211.81"/>
<polygon fill="black" stroke="black" points="997.41,-211.81 1000.91,-221.81 1004.41,-211.81 997.41,-211.81"/>
</g>
<!-- AuthService  -->
<g id="node8" class="node">
<title>AuthService </title>
<polygon fill="#fb8072" stroke="black" points="134.98,-258 45.02,-258 45.02,-222 134.98,-222 134.98,-258"/>
<text text-anchor="middle" x="90" y="-235.8" font-family="Times,serif" font-size="14.00">AuthService </text>
</g>
<!-- AuthModule&#45;&gt;AuthService  -->
<g id="edge7" class="edge">
<title>AuthModule&#45;&gt;AuthService </title>
<path fill="none" stroke="black" stroke-dasharray="5,2" d="M75.41,-190.22C75.41,-190.22 75.41,-211.73 75.41,-211.73"/>
<polygon fill="black" stroke="black" points="71.91,-211.73 75.41,-221.73 78.91,-211.73 71.91,-211.73"/>
</g>
<!-- MetaOptionsModule -->
<g id="node2" class="node">
<title>MetaOptionsModule</title>
<polygon fill="#8dd3c7" stroke="black" points="349.15,-190 346.15,-194 325.15,-194 322.15,-190 216.85,-190 216.85,-154 349.15,-154 349.15,-190"/>
<text text-anchor="middle" x="283" y="-167.8" font-family="Times,serif" font-size="14.00">MetaOptionsModule</text>
</g>
<!-- MetaOptionsModule&#45;&gt;AppModule -->
<g id="edge2" class="edge">
<title>MetaOptionsModule&#45;&gt;AppModule</title>
<path fill="none" stroke="black" d="M349.16,-172C382.24,-172 415.33,-172 415.33,-172 415.33,-172 415.33,-240 415.33,-240 415.33,-240 988.04,-240 988.04,-240"/>
<polygon fill="black" stroke="black" points="988.04,-243.5 998.04,-240 988.04,-236.5 988.04,-243.5"/>
</g>
<!-- MetaOptionsService  -->
<g id="node10" class="node">
<title>MetaOptionsService </title>
<polygon fill="#fb8072" stroke="black" points="350.08,-258 215.92,-258 215.92,-222 350.08,-222 350.08,-258"/>
<text text-anchor="middle" x="283" y="-235.8" font-family="Times,serif" font-size="14.00">MetaOptionsService </text>
</g>
<!-- MetaOptionsModule&#45;&gt;MetaOptionsService  -->
<g id="edge9" class="edge">
<title>MetaOptionsModule&#45;&gt;MetaOptionsService </title>
<path fill="none" stroke="black" stroke-dasharray="5,2" d="M283,-190.22C283,-190.22 283,-211.73 283,-211.73"/>
<polygon fill="black" stroke="black" points="279.5,-211.73 283,-221.73 286.5,-211.73 279.5,-211.73"/>
</g>
<!-- PostsModule -->
<g id="node3" class="node">
<title>PostsModule</title>
<polygon fill="#8dd3c7" stroke="black" points="1300.61,-190 1297.61,-194 1276.61,-194 1273.61,-190 1211.39,-190 1211.39,-154 1300.61,-154 1300.61,-190"/>
<text text-anchor="middle" x="1256" y="-167.8" font-family="Times,serif" font-size="14.00">PostsModule</text>
</g>
<!-- PostsModule&#45;&gt;AppModule -->
<g id="edge3" class="edge">
<title>PostsModule&#45;&gt;AppModule</title>
<path fill="none" stroke="black" d="M1211.34,-172C1178.52,-172 1139.62,-172 1139.62,-172 1139.62,-172 1139.62,-234 1139.62,-234 1139.62,-234 1091.67,-234 1091.67,-234"/>
<polygon fill="black" stroke="black" points="1091.67,-230.5 1081.67,-234 1091.67,-237.5 1091.67,-230.5"/>
</g>
<!-- PostsService  -->
<g id="node12" class="node">
<title>PostsService </title>
<polygon fill="#fb8072" stroke="black" points="1301.54,-258 1210.46,-258 1210.46,-222 1301.54,-222 1301.54,-258"/>
<text text-anchor="middle" x="1256" y="-235.8" font-family="Times,serif" font-size="14.00">PostsService </text>
</g>
<!-- PostsModule&#45;&gt;PostsService  -->
<g id="edge13" class="edge">
<title>PostsModule&#45;&gt;PostsService </title>
<path fill="none" stroke="black" stroke-dasharray="5,2" d="M1256,-190.22C1256,-190.22 1256,-211.73 1256,-211.73"/>
<polygon fill="black" stroke="black" points="1252.5,-211.73 1256,-221.73 1259.5,-211.73 1252.5,-211.73"/>
</g>
<!-- TagsModule -->
<g id="node4" class="node">
<title>TagsModule</title>
<polygon fill="#8dd3c7" stroke="black" points="1246.26,-122 1243.26,-126 1222.26,-126 1219.26,-122 1159.74,-122 1159.74,-86 1246.26,-86 1246.26,-122"/>
<text text-anchor="middle" x="1203" y="-99.8" font-family="Times,serif" font-size="14.00">TagsModule</text>
</g>
<!-- TagsModule&#45;&gt;PostsModule -->
<g id="edge11" class="edge">
<title>TagsModule&#45;&gt;PostsModule</title>
<path fill="none" stroke="black" d="M1228.91,-122.22C1228.91,-122.22 1228.91,-143.73 1228.91,-143.73"/>
<polygon fill="black" stroke="black" points="1225.41,-143.73 1228.91,-153.73 1232.41,-143.73 1225.41,-143.73"/>
</g>
<!-- TagsModule&#45;&gt;AppModule -->
<g id="edge4" class="edge">
<title>TagsModule&#45;&gt;AppModule</title>
<path fill="none" stroke="black" d="M1185.05,-122.27C1185.05,-160.63 1185.05,-246 1185.05,-246 1185.05,-246 1091.95,-246 1091.95,-246"/>
<polygon fill="black" stroke="black" points="1091.95,-242.5 1081.95,-246 1091.95,-249.5 1091.95,-242.5"/>
</g>
<!-- TagsService  -->
<g id="node14" class="node">
<title>TagsService </title>
<polygon fill="#fb8072" stroke="black" points="698.19,-190 609.81,-190 609.81,-154 698.19,-154 698.19,-190"/>
<text text-anchor="middle" x="654" y="-167.8" font-family="Times,serif" font-size="14.00">TagsService </text>
</g>
<!-- TagsModule&#45;&gt;TagsService  -->
<g id="edge15" class="edge">
<title>TagsModule&#45;&gt;TagsService </title>
<path fill="none" stroke="black" stroke-dasharray="5,2" d="M1159.46,-110C1029.61,-110 654,-110 654,-110 654,-110 654,-143.73 654,-143.73"/>
<polygon fill="black" stroke="black" points="650.5,-143.73 654,-153.73 657.5,-143.73 650.5,-143.73"/>
</g>
<!-- UserModule -->
<g id="node5" class="node">
<title>UserModule</title>
<polygon fill="#8dd3c7" stroke="black" points="1349.98,-122 1346.98,-126 1325.98,-126 1322.98,-122 1264.02,-122 1264.02,-86 1349.98,-86 1349.98,-122"/>
<text text-anchor="middle" x="1307" y="-99.8" font-family="Times,serif" font-size="14.00">UserModule</text>
</g>
<!-- UserModule&#45;&gt;PostsModule -->
<g id="edge12" class="edge">
<title>UserModule&#45;&gt;PostsModule</title>
<path fill="none" stroke="black" d="M1293.25,-122.22C1293.25,-122.22 1293.25,-143.73 1293.25,-143.73"/>
<polygon fill="black" stroke="black" points="1289.75,-143.73 1293.25,-153.73 1296.75,-143.73 1289.75,-143.73"/>
</g>
<!-- UserModule&#45;&gt;AppModule -->
<g id="edge5" class="edge">
<title>UserModule&#45;&gt;AppModule</title>
<path fill="none" stroke="black" d="M1285.94,-122.06C1285.94,-133.44 1285.94,-146 1285.94,-146 1285.94,-146 1003.64,-146 1003.64,-146 1003.64,-146 1003.64,-211.88 1003.64,-211.88"/>
<polygon fill="black" stroke="black" points="1000.14,-211.88 1003.64,-221.88 1007.14,-211.88 1000.14,-211.88"/>
</g>
<!-- UserService  -->
<g id="node16" class="node">
<title>UserService </title>
<polygon fill="#fb8072" stroke="black" points="965.9,-190 878.1,-190 878.1,-154 965.9,-154 965.9,-190"/>
<text text-anchor="middle" x="922" y="-167.8" font-family="Times,serif" font-size="14.00">UserService </text>
</g>
<!-- UserModule&#45;&gt;UserService  -->
<g id="edge17" class="edge">
<title>UserModule&#45;&gt;UserService </title>
<path fill="none" stroke="black" stroke-dasharray="5,2" d="M1278.63,-122.19C1278.63,-130.28 1278.63,-138 1278.63,-138 1278.63,-138 922,-138 922,-138 922,-138 922,-143.81 922,-143.81"/>
<polygon fill="black" stroke="black" points="918.5,-143.81 922,-153.81 925.5,-143.81 918.5,-143.81"/>
</g>
<!-- AppService -->
<g id="node7" class="node">
<title>AppService</title>
<ellipse fill="#fdb462" stroke="black" cx="1063" cy="-172" rx="56.74" ry="18"/>
<text text-anchor="middle" x="1063" y="-167.8" font-family="Times,serif" font-size="14.00">AppService</text>
</g>
<!-- AppService&#45;&gt;AppModule -->
<g id="edge6" class="edge">
<title>AppService&#45;&gt;AppModule</title>
<path fill="none" stroke="black" d="M1044.1,-189.16C1044.1,-189.16 1044.1,-211.65 1044.1,-211.65"/>
<polygon fill="black" stroke="black" points="1040.6,-211.65 1044.1,-221.65 1047.6,-211.65 1040.6,-211.65"/>
</g>
<!-- AuthService -->
<g id="node9" class="node">
<title>AuthService</title>
<ellipse fill="#fdb462" stroke="black" cx="83" cy="-104" rx="59.11" ry="18"/>
<text text-anchor="middle" x="83" y="-99.8" font-family="Times,serif" font-size="14.00">AuthService</text>
</g>
<!-- AuthService&#45;&gt;AuthModule -->
<g id="edge8" class="edge">
<title>AuthService&#45;&gt;AuthModule</title>
<path fill="none" stroke="black" d="M90,-122.22C90,-122.22 90,-143.73 90,-143.73"/>
<polygon fill="black" stroke="black" points="86.5,-143.73 90,-153.73 93.5,-143.73 86.5,-143.73"/>
</g>
<!-- MetaOptionsService -->
<g id="node11" class="node">
<title>MetaOptionsService</title>
<ellipse fill="#fdb462" stroke="black" cx="272" cy="-104" rx="90.33" ry="18"/>
<text text-anchor="middle" x="272" y="-99.8" font-family="Times,serif" font-size="14.00">MetaOptionsService</text>
</g>
<!-- MetaOptionsService&#45;&gt;MetaOptionsModule -->
<g id="edge10" class="edge">
<title>MetaOptionsService&#45;&gt;MetaOptionsModule</title>
<path fill="none" stroke="black" d="M283,-122.22C283,-122.22 283,-143.73 283,-143.73"/>
<polygon fill="black" stroke="black" points="279.5,-143.73 283,-153.73 286.5,-143.73 279.5,-143.73"/>
</g>
<!-- PostsService -->
<g id="node13" class="node">
<title>PostsService</title>
<ellipse fill="#fdb462" stroke="black" cx="1434" cy="-104" rx="60.27" ry="18"/>
<text text-anchor="middle" x="1434" y="-99.8" font-family="Times,serif" font-size="14.00">PostsService</text>
</g>
<!-- PostsService&#45;&gt;PostsModule -->
<g id="edge14" class="edge">
<title>PostsService&#45;&gt;PostsModule</title>
<path fill="none" stroke="black" d="M1434,-122.22C1434,-142.37 1434,-172 1434,-172 1434,-172 1310.92,-172 1310.92,-172"/>
<polygon fill="black" stroke="black" points="1310.92,-168.5 1300.92,-172 1310.92,-175.5 1310.92,-168.5"/>
</g>
<!-- TagsService -->
<g id="node15" class="node">
<title>TagsService</title>
<ellipse fill="#fdb462" stroke="black" cx="527" cy="-172" rx="58.53" ry="18"/>
<text text-anchor="middle" x="527" y="-167.8" font-family="Times,serif" font-size="14.00">TagsService</text>
</g>
<!-- TagsService&#45;&gt;TagsModule -->
<g id="edge16" class="edge">
<title>TagsService&#45;&gt;TagsModule</title>
<path fill="none" stroke="black" d="M527,-153.71C527,-131.79 527,-98 527,-98 527,-98 1149.68,-98 1149.68,-98"/>
<polygon fill="black" stroke="black" points="1149.68,-101.5 1159.68,-98 1149.68,-94.5 1149.68,-101.5"/>
</g>
<!-- UserService -->
<g id="node17" class="node">
<title>UserService</title>
<ellipse fill="#fdb462" stroke="black" cx="796" cy="-172" rx="58.44" ry="18"/>
<text text-anchor="middle" x="796" y="-167.8" font-family="Times,serif" font-size="14.00">UserService</text>
</g>
<!-- UserService&#45;&gt;UserModule -->
<g id="edge18" class="edge">
<title>UserService&#45;&gt;UserModule</title>
<path fill="none" stroke="black" d="M796,-153.94C796,-142.56 796,-130 796,-130 796,-130 1271.32,-130 1271.32,-130 1271.32,-130 1271.32,-129.21 1271.32,-129.21"/>
<polygon fill="black" stroke="black" points="1274.82,-132.06 1271.32,-122.06 1267.82,-132.06 1274.82,-132.06"/>
</g>
</g>
</svg>
