<?xml version="1.0" encoding="UTF-8" standalone="no"?>
<!DOCTYPE svg PUBLIC "-//W3C//DTD SVG 1.1//EN"
 "http://www.w3.org/Graphics/SVG/1.1/DTD/svg11.dtd">
<!-- Generated by graphviz version 2.47.0 (20210316.0004)
 -->
<!-- Title: dependencies Pages: 1 -->
<svg width="1829pt" height="295pt"
 viewBox="0.00 0.00 1829.00 295.00" xmlns="http://www.w3.org/2000/svg" xmlns:xlink="http://www.w3.org/1999/xlink">
<g id="graph0" class="graph" transform="scale(1 1) rotate(0) translate(4 291)">
<title>dependencies</title>
<polygon fill="white" stroke="transparent" points="-4,4 -4,-291 1825,-291 1825,4 -4,4"/>
<text text-anchor="start" x="889.51" y="-42.4" font-family="Times-12" font-weight="bold" font-size="14.00">Legend</text>
<polygon fill="#ffffb3" stroke="transparent" points="676.5,-10 676.5,-30 696.5,-30 696.5,-10 676.5,-10"/>
<text text-anchor="start" x="700.13" y="-15.4" font-family="Times-12" font-size="14.00"> &#160;Declarations</text>
<polygon fill="#8dd3c7" stroke="transparent" points="789.5,-10 789.5,-30 809.5,-30 809.5,-10 789.5,-10"/>
<text text-anchor="start" x="813.23" y="-15.4" font-family="Times-12" font-size="14.00"> &#160;Module</text>
<polygon fill="#80b1d3" stroke="transparent" points="875.5,-10 875.5,-30 895.5,-30 895.5,-10 875.5,-10"/>
<text text-anchor="start" x="899.28" y="-15.4" font-family="Times-12" font-size="14.00"> &#160;Bootstrap</text>
<polygon fill="#fdb462" stroke="transparent" points="972.5,-10 972.5,-30 992.5,-30 992.5,-10 972.5,-10"/>
<text text-anchor="start" x="996.17" y="-15.4" font-family="Times-12" font-size="14.00"> &#160;Providers</text>
<polygon fill="#fb8072" stroke="transparent" points="1068.5,-10 1068.5,-30 1088.5,-30 1088.5,-10 1068.5,-10"/>
<text text-anchor="start" x="1092.23" y="-15.4" font-family="Times-12" font-size="14.00"> &#160;Exports</text>
<g id="clust1" class="cluster">
<title>cluster_AppModule</title>
<polygon fill="none" stroke="black" stroke-dasharray="1,5" points="8,-70 8,-271 625,-271 625,-70 8,-70"/>
</g>
<g id="clust3" class="cluster">
<title>cluster_AppModule_imports</title>
<polygon fill="none" stroke="black" points="154,-78 154,-195 617,-195 617,-78 154,-78"/>
</g>
<g id="clust6" class="cluster">
<title>cluster_AppModule_providers</title>
<polygon fill="none" stroke="black" points="16,-143 16,-195 146,-195 146,-143 16,-143"/>
</g>
<g id="clust7" class="cluster">
<title>cluster_AuthModule</title>
<polygon fill="none" stroke="black" stroke-dasharray="1,5" points="633,-135 633,-203 897,-203 897,-135 633,-135"/>
</g>
<g id="clust10" class="cluster">
<title>cluster_AuthModule_exports</title>
<polygon fill="none" stroke="black" points="783,-143 783,-195 889,-195 889,-143 783,-143"/>
</g>
<g id="clust12" class="cluster">
<title>cluster_AuthModule_providers</title>
<polygon fill="none" stroke="black" points="641,-143 641,-195 775,-195 775,-143 641,-143"/>
</g>
<g id="clust13" class="cluster">
<title>cluster_MetaOptionsModule</title>
<polygon fill="none" stroke="black" stroke-dasharray="1,5" points="905,-135 905,-203 1275,-203 1275,-135 905,-135"/>
</g>
<g id="clust16" class="cluster">
<title>cluster_MetaOptionsModule_exports</title>
<polygon fill="none" stroke="black" points="1117,-143 1117,-195 1267,-195 1267,-143 1117,-143"/>
</g>
<g id="clust18" class="cluster">
<title>cluster_MetaOptionsModule_providers</title>
<polygon fill="none" stroke="black" points="913,-143 913,-195 1109,-195 1109,-143 913,-143"/>
</g>
<g id="clust19" class="cluster">
<title>cluster_PostsModule</title>
<polygon fill="none" stroke="black" stroke-dasharray="1,5" points="633,-211 633,-279 901,-279 901,-211 633,-211"/>
</g>
<g id="clust22" class="cluster">
<title>cluster_PostsModule_exports</title>
<polygon fill="none" stroke="black" points="785,-219 785,-271 893,-271 893,-219 785,-219"/>
</g>
<g id="clust24" class="cluster">
<title>cluster_PostsModule_providers</title>
<polygon fill="none" stroke="black" points="641,-219 641,-271 777,-271 777,-219 641,-219"/>
</g>
<g id="clust25" class="cluster">
<title>cluster_TagsModule</title>
<polygon fill="none" stroke="black" stroke-dasharray="1,5" points="1283,-135 1283,-203 1545,-203 1545,-135 1283,-135"/>
</g>
<g id="clust28" class="cluster">
<title>cluster_TagsModule_exports</title>
<polygon fill="none" stroke="black" points="1433,-143 1433,-195 1537,-195 1537,-143 1433,-143"/>
</g>
<g id="clust30" class="cluster">
<title>cluster_TagsModule_providers</title>
<polygon fill="none" stroke="black" points="1291,-143 1291,-195 1425,-195 1425,-143 1291,-143"/>
</g>
<g id="clust31" class="cluster">
<title>cluster_UserModule</title>
<polygon fill="none" stroke="black" stroke-dasharray="1,5" points="1553,-135 1553,-203 1813,-203 1813,-135 1553,-135"/>
</g>
<g id="clust34" class="cluster">
<title>cluster_UserModule_exports</title>
<polygon fill="none" stroke="black" points="1701,-143 1701,-195 1805,-195 1805,-143 1701,-143"/>
</g>
<g id="clust36" class="cluster">
<title>cluster_UserModule_providers</title>
<polygon fill="none" stroke="black" points="1561,-143 1561,-195 1693,-195 1693,-143 1561,-143"/>
</g>
<!-- AuthModule -->
<g id="node1" class="node">
<title>AuthModule</title>
<polygon fill="#8dd3c7" stroke="black" points="249.55,-122 246.55,-126 225.55,-126 222.55,-122 162.45,-122 162.45,-86 249.55,-86 249.55,-122"/>
<text text-anchor="middle" x="206" y="-99.8" font-family="Times,serif" font-size="14.00">AuthModule</text>
</g>
<!-- AppModule -->
<g id="node6" class="node">
<title>AppModule</title>
<polygon fill="#8dd3c7" stroke="black" points="452.66,-263 449.66,-267 428.66,-267 425.66,-263 369.34,-263 369.34,-227 452.66,-227 452.66,-263"/>
<text text-anchor="middle" x="411" y="-240.8" font-family="Times,serif" font-size="14.00">AppModule</text>
</g>
<!-- AuthModule&#45;&gt;AppModule -->
<g id="edge1" class="edge">
<title>AuthModule&#45;&gt;AppModule</title>
<path fill="none" stroke="black" d="M227.89,-122.14C227.89,-160.23 227.89,-245 227.89,-245 227.89,-245 358.99,-245 358.99,-245"/>
<polygon fill="black" stroke="black" points="358.99,-248.5 368.99,-245 358.99,-241.5 358.99,-248.5"/>
</g>
<!-- AuthService  -->
<g id="node8" class="node">
<title>AuthService </title>
<polygon fill="#fb8072" stroke="black" points="880.98,-187 791.02,-187 791.02,-151 880.98,-151 880.98,-187"/>
<text text-anchor="middle" x="836" y="-164.8" font-family="Times,serif" font-size="14.00">AuthService </text>
</g>
<!-- AuthModule&#45;&gt;AuthService  -->
<g id="edge7" class="edge">
<title>AuthModule&#45;&gt;AuthService </title>
<path fill="none" stroke="black" stroke-dasharray="5,2" d="M184.11,-122.13C184.11,-132.31 184.11,-143 184.11,-143 184.11,-143 836,-143 836,-143 836,-143 836,-143.79 836,-143.79"/>
<polygon fill="black" stroke="black" points="832.5,-140.94 836,-150.94 839.5,-140.94 832.5,-140.94"/>
</g>
<!-- MetaOptionsModule -->
<g id="node2" class="node">
<title>MetaOptionsModule</title>
<polygon fill="#8dd3c7" stroke="black" points="400.15,-122 397.15,-126 376.15,-126 373.15,-122 267.85,-122 267.85,-86 400.15,-86 400.15,-122"/>
<text text-anchor="middle" x="334" y="-99.8" font-family="Times,serif" font-size="14.00">MetaOptionsModule</text>
</g>
<!-- MetaOptionsModule&#45;&gt;AppModule -->
<g id="edge2" class="edge">
<title>MetaOptionsModule&#45;&gt;AppModule</title>
<path fill="none" stroke="black" d="M394.09,-122.14C394.09,-122.14 394.09,-216.93 394.09,-216.93"/>
<polygon fill="black" stroke="black" points="390.59,-216.92 394.09,-226.93 397.59,-216.93 390.59,-216.92"/>
</g>
<!-- MetaOptionsService  -->
<g id="node10" class="node">
<title>MetaOptionsService </title>
<polygon fill="#fb8072" stroke="black" points="1259.08,-187 1124.92,-187 1124.92,-151 1259.08,-151 1259.08,-187"/>
<text text-anchor="middle" x="1192" y="-164.8" font-family="Times,serif" font-size="14.00">MetaOptionsService </text>
</g>
<!-- MetaOptionsModule&#45;&gt;MetaOptionsService  -->
<g id="edge9" class="edge">
<title>MetaOptionsModule&#45;&gt;MetaOptionsService </title>
<path fill="none" stroke="black" stroke-dasharray="5,2" d="M375.4,-122.03C375.4,-128.85 375.4,-135 375.4,-135 375.4,-135 1192,-135 1192,-135 1192,-135 1192,-140.81 1192,-140.81"/>
<polygon fill="black" stroke="black" points="1188.5,-140.81 1192,-150.81 1195.5,-140.81 1188.5,-140.81"/>
</g>
<!-- PostsModule -->
<g id="node3" class="node">
<title>PostsModule</title>
<polygon fill="#8dd3c7" stroke="black" points="608.61,-187 605.61,-191 584.61,-191 581.61,-187 519.39,-187 519.39,-151 608.61,-151 608.61,-187"/>
<text text-anchor="middle" x="564" y="-164.8" font-family="Times,serif" font-size="14.00">PostsModule</text>
</g>
<!-- PostsModule&#45;&gt;AppModule -->
<g id="edge3" class="edge">
<title>PostsModule&#45;&gt;AppModule</title>
<path fill="none" stroke="black" d="M519.4,-178C484.35,-178 441.43,-178 441.43,-178 441.43,-178 441.43,-216.69 441.43,-216.69"/>
<polygon fill="black" stroke="black" points="437.93,-216.69 441.43,-226.69 444.93,-216.69 437.93,-216.69"/>
</g>
<!-- PostsService  -->
<g id="node12" class="node">
<title>PostsService </title>
<polygon fill="#fb8072" stroke="black" points="884.54,-263 793.46,-263 793.46,-227 884.54,-227 884.54,-263"/>
<text text-anchor="middle" x="839" y="-240.8" font-family="Times,serif" font-size="14.00">PostsService </text>
</g>
<!-- PostsModule&#45;&gt;PostsService  -->
<g id="edge13" class="edge">
<title>PostsModule&#45;&gt;PostsService </title>
<path fill="none" stroke="black" stroke-dasharray="5,2" d="M549.15,-187.11C549.15,-196.9 549.15,-207 549.15,-207 549.15,-207 837.11,-207 837.11,-207 837.11,-207 837.11,-216.89 837.11,-216.89"/>
<polygon fill="black" stroke="black" points="833.61,-216.89 837.11,-226.89 840.61,-216.89 833.61,-216.89"/>
</g>
<!-- TagsModule -->
<g id="node4" class="node">
<title>TagsModule</title>
<polygon fill="#8dd3c7" stroke="black" points="505.26,-122 502.26,-126 481.26,-126 478.26,-122 418.74,-122 418.74,-86 505.26,-86 505.26,-122"/>
<text text-anchor="middle" x="462" y="-99.8" font-family="Times,serif" font-size="14.00">TagsModule</text>
</g>
<!-- TagsModule&#45;&gt;PostsModule -->
<g id="edge11" class="edge">
<title>TagsModule&#45;&gt;PostsModule</title>
<path fill="none" stroke="black" d="M492.24,-122.11C492.24,-141.34 492.24,-169 492.24,-169 492.24,-169 509.37,-169 509.37,-169"/>
<polygon fill="black" stroke="black" points="509.37,-172.5 519.37,-169 509.37,-165.5 509.37,-172.5"/>
</g>
<!-- TagsModule&#45;&gt;AppModule -->
<g id="edge4" class="edge">
<title>TagsModule&#45;&gt;AppModule</title>
<path fill="none" stroke="black" d="M430.02,-122.14C430.02,-122.14 430.02,-216.93 430.02,-216.93"/>
<polygon fill="black" stroke="black" points="426.52,-216.92 430.02,-226.93 433.52,-216.93 426.52,-216.92"/>
</g>
<!-- TagsService  -->
<g id="node14" class="node">
<title>TagsService </title>
<polygon fill="#fb8072" stroke="black" points="1529.19,-187 1440.81,-187 1440.81,-151 1529.19,-151 1529.19,-187"/>
<text text-anchor="middle" x="1485" y="-164.8" font-family="Times,serif" font-size="14.00">TagsService </text>
</g>
<!-- TagsModule&#45;&gt;TagsService  -->
<g id="edge15" class="edge">
<title>TagsModule&#45;&gt;TagsService </title>
<path fill="none" stroke="black" stroke-dasharray="5,2" d="M465.97,-122.12C465.97,-124.97 465.97,-127 465.97,-127 465.97,-127 1485,-127 1485,-127 1485,-127 1485,-140.94 1485,-140.94"/>
<polygon fill="black" stroke="black" points="1481.5,-140.94 1485,-150.94 1488.5,-140.94 1481.5,-140.94"/>
</g>
<!-- UserModule -->
<g id="node5" class="node">
<title>UserModule</title>
<polygon fill="#8dd3c7" stroke="black" points="608.98,-122 605.98,-126 584.98,-126 581.98,-122 523.02,-122 523.02,-86 608.98,-86 608.98,-122"/>
<text text-anchor="middle" x="566" y="-99.8" font-family="Times,serif" font-size="14.00">UserModule</text>
</g>
<!-- UserModule&#45;&gt;PostsModule -->
<g id="edge12" class="edge">
<title>UserModule&#45;&gt;PostsModule</title>
<path fill="none" stroke="black" d="M565.78,-122.11C565.78,-122.11 565.78,-140.99 565.78,-140.99"/>
<polygon fill="black" stroke="black" points="562.28,-140.99 565.78,-150.99 569.28,-140.99 562.28,-140.99"/>
</g>
<!-- UserModule&#45;&gt;AppModule -->
<g id="edge5" class="edge">
<title>UserModule&#45;&gt;AppModule</title>
<path fill="none" stroke="black" d="M523,-104C516.77,-104 512.41,-104 512.41,-104 512.41,-104 512.41,-239 512.41,-239 512.41,-239 462.83,-239 462.83,-239"/>
<polygon fill="black" stroke="black" points="462.83,-235.5 452.83,-239 462.83,-242.5 462.83,-235.5"/>
</g>
<!-- UserService  -->
<g id="node16" class="node">
<title>UserService </title>
<polygon fill="#fb8072" stroke="black" points="1796.9,-187 1709.1,-187 1709.1,-151 1796.9,-151 1796.9,-187"/>
<text text-anchor="middle" x="1753" y="-164.8" font-family="Times,serif" font-size="14.00">UserService </text>
</g>
<!-- UserModule&#45;&gt;UserService  -->
<g id="edge17" class="edge">
<title>UserModule&#45;&gt;UserService </title>
<path fill="none" stroke="black" stroke-dasharray="5,2" d="M609.3,-98C822.78,-98 1753,-98 1753,-98 1753,-98 1753,-140.72 1753,-140.72"/>
<polygon fill="black" stroke="black" points="1749.5,-140.72 1753,-150.72 1756.5,-140.72 1749.5,-140.72"/>
</g>
<!-- AppService -->
<g id="node7" class="node">
<title>AppService</title>
<ellipse fill="#fdb462" stroke="black" cx="81" cy="-169" rx="56.74" ry="18"/>
<text text-anchor="middle" x="81" y="-164.8" font-family="Times,serif" font-size="14.00">AppService</text>
</g>
<!-- AppService&#45;&gt;AppModule -->
<g id="edge6" class="edge">
<title>AppService&#45;&gt;AppModule</title>
<path fill="none" stroke="black" d="M130.3,-160C217.05,-160 387.86,-160 387.86,-160 387.86,-160 387.86,-216.97 387.86,-216.97"/>
<polygon fill="black" stroke="black" points="384.36,-216.97 387.86,-226.97 391.36,-216.97 384.36,-216.97"/>
</g>
<!-- AuthService -->
<g id="node9" class="node">
<title>AuthService</title>
<ellipse fill="#fdb462" stroke="black" cx="708" cy="-169" rx="59.11" ry="18"/>
<text text-anchor="middle" x="708" y="-164.8" font-family="Times,serif" font-size="14.00">AuthService</text>
</g>
<!-- AuthService&#45;&gt;AuthModule -->
<g id="edge8" class="edge">
<title>AuthService&#45;&gt;AuthModule</title>
<path fill="none" stroke="black" d="M708,-150.83C708,-148.55 708,-147 708,-147 708,-147 206,-147 206,-147 206,-147 206,-132.49 206,-132.49"/>
<polygon fill="black" stroke="black" points="209.5,-132.49 206,-122.49 202.5,-132.49 209.5,-132.49"/>
</g>
<!-- MetaOptionsService -->
<g id="node11" class="node">
<title>MetaOptionsService</title>
<ellipse fill="#fdb462" stroke="black" cx="1011" cy="-169" rx="90.33" ry="18"/>
<text text-anchor="middle" x="1011" y="-164.8" font-family="Times,serif" font-size="14.00">MetaOptionsService</text>
</g>
<!-- MetaOptionsService&#45;&gt;MetaOptionsModule -->
<g id="edge10" class="edge">
<title>MetaOptionsService&#45;&gt;MetaOptionsModule</title>
<path fill="none" stroke="black" d="M1011,-150.86C1011,-144.54 1011,-139 1011,-139 1011,-139 381.63,-139 381.63,-139 381.63,-139 381.63,-132.32 381.63,-132.32"/>
<polygon fill="black" stroke="black" points="385.13,-132.32 381.63,-122.32 378.13,-132.32 385.13,-132.32"/>
</g>
<!-- PostsService -->
<g id="node13" class="node">
<title>PostsService</title>
<ellipse fill="#fdb462" stroke="black" cx="709" cy="-245" rx="60.27" ry="18"/>
<text text-anchor="middle" x="709" y="-240.8" font-family="Times,serif" font-size="14.00">PostsService</text>
</g>
<!-- PostsService&#45;&gt;PostsModule -->
<g id="edge14" class="edge">
<title>PostsService&#45;&gt;PostsModule</title>
<path fill="none" stroke="black" d="M651.92,-251C616.95,-251 578.85,-251 578.85,-251 578.85,-251 578.85,-197.2 578.85,-197.2"/>
<polygon fill="black" stroke="black" points="582.35,-197.2 578.85,-187.2 575.35,-197.2 582.35,-197.2"/>
</g>
<!-- TagsService -->
<g id="node15" class="node">
<title>TagsService</title>
<ellipse fill="#fdb462" stroke="black" cx="1358" cy="-169" rx="58.53" ry="18"/>
<text text-anchor="middle" x="1358" y="-164.8" font-family="Times,serif" font-size="14.00">TagsService</text>
</g>
<!-- TagsService&#45;&gt;TagsModule -->
<g id="edge16" class="edge">
<title>TagsService&#45;&gt;TagsModule</title>
<path fill="none" stroke="black" d="M1358,-150.89C1358,-141.1 1358,-131 1358,-131 1358,-131 479.1,-131 479.1,-131 479.1,-131 479.1,-130.12 479.1,-130.12"/>
<polygon fill="black" stroke="black" points="482.6,-132.16 479.1,-122.16 475.6,-132.16 482.6,-132.16"/>
</g>
<!-- UserService -->
<g id="node17" class="node">
<title>UserService</title>
<ellipse fill="#fdb462" stroke="black" cx="1627" cy="-169" rx="58.44" ry="18"/>
<text text-anchor="middle" x="1627" y="-164.8" font-family="Times,serif" font-size="14.00">UserService</text>
</g>
<!-- UserService&#45;&gt;UserModule -->
<g id="edge18" class="edge">
<title>UserService&#45;&gt;UserModule</title>
<path fill="none" stroke="black" d="M1627,-150.98C1627,-133.63 1627,-110 1627,-110 1627,-110 619.24,-110 619.24,-110"/>
<polygon fill="black" stroke="black" points="619.24,-106.5 609.24,-110 619.24,-113.5 619.24,-106.5"/>
</g>
</g>
</svg>
