<?xml version="1.0" encoding="UTF-8" standalone="no"?>
<!DOCTYPE svg PUBLIC "-//W3C//DTD SVG 1.1//EN"
 "http://www.w3.org/Graphics/SVG/1.1/DTD/svg11.dtd">
<!-- Generated by graphviz version 2.47.0 (20210316.0004)
 -->
<!-- Title: dependencies Pages: 1 -->
<svg width="2538pt" height="374pt"
 viewBox="0.00 0.00 2538.00 374.00" xmlns="http://www.w3.org/2000/svg" xmlns:xlink="http://www.w3.org/1999/xlink">
<g id="graph0" class="graph" transform="scale(1 1) rotate(0) translate(4 370)">
<title>dependencies</title>
<polygon fill="white" stroke="transparent" points="-4,4 -4,-370 2534,-370 2534,4 -4,4"/>
<text text-anchor="start" x="1244.01" y="-42.4" font-family="Times-12" font-weight="bold" font-size="14.00">Legend</text>
<polygon fill="#ffffb3" stroke="transparent" points="1031,-10 1031,-30 1051,-30 1051,-10 1031,-10"/>
<text text-anchor="start" x="1054.63" y="-15.4" font-family="Times-12" font-size="14.00"> &#160;Declarations</text>
<polygon fill="#8dd3c7" stroke="transparent" points="1144,-10 1144,-30 1164,-30 1164,-10 1144,-10"/>
<text text-anchor="start" x="1167.73" y="-15.4" font-family="Times-12" font-size="14.00"> &#160;Module</text>
<polygon fill="#80b1d3" stroke="transparent" points="1230,-10 1230,-30 1250,-30 1250,-10 1230,-10"/>
<text text-anchor="start" x="1253.78" y="-15.4" font-family="Times-12" font-size="14.00"> &#160;Bootstrap</text>
<polygon fill="#fdb462" stroke="transparent" points="1327,-10 1327,-30 1347,-30 1347,-10 1327,-10"/>
<text text-anchor="start" x="1350.67" y="-15.4" font-family="Times-12" font-size="14.00"> &#160;Providers</text>
<polygon fill="#fb8072" stroke="transparent" points="1423,-10 1423,-30 1443,-30 1443,-10 1423,-10"/>
<text text-anchor="start" x="1446.73" y="-15.4" font-family="Times-12" font-size="14.00"> &#160;Exports</text>
<g id="clust7" class="cluster">
<title>cluster_AuthModule</title>
<polygon fill="none" stroke="black" stroke-dasharray="1,5" points="8,-146 8,-358 600,-358 600,-146 8,-146"/>
</g>
<g id="clust10" class="cluster">
<title>cluster_AuthModule_exports</title>
<polygon fill="none" stroke="black" points="214,-298 214,-350 452,-350 452,-298 214,-298"/>
</g>
<g id="clust12" class="cluster">
<title>cluster_AuthModule_providers</title>
<polygon fill="none" stroke="black" points="16,-154 16,-206 592,-206 592,-154 16,-154"/>
</g>
<g id="clust25" class="cluster">
<title>cluster_PostsModule</title>
<polygon fill="none" stroke="black" stroke-dasharray="1,5" points="1748,-146 1748,-358 2252,-358 2252,-146 1748,-146"/>
</g>
<g id="clust28" class="cluster">
<title>cluster_PostsModule_exports</title>
<polygon fill="none" stroke="black" points="1891,-298 1891,-350 1999,-350 1999,-298 1891,-298"/>
</g>
<g id="clust30" class="cluster">
<title>cluster_PostsModule_providers</title>
<polygon fill="none" stroke="black" points="2108,-154 2108,-206 2244,-206 2244,-154 2108,-154"/>
</g>
<g id="clust27" class="cluster">
<title>cluster_PostsModule_imports</title>
<polygon fill="none" stroke="black" points="1756,-154 1756,-206 2100,-206 2100,-154 1756,-154"/>
</g>
<g id="clust19" class="cluster">
<title>cluster_PaginationModule</title>
<polygon fill="none" stroke="black" stroke-dasharray="1,5" points="712,-214 712,-282 1052,-282 1052,-214 712,-214"/>
</g>
<g id="clust22" class="cluster">
<title>cluster_PaginationModule_exports</title>
<polygon fill="none" stroke="black" points="906,-222 906,-274 1044,-274 1044,-222 906,-222"/>
</g>
<g id="clust24" class="cluster">
<title>cluster_PaginationModule_providers</title>
<polygon fill="none" stroke="black" points="720,-222 720,-274 898,-274 898,-222 720,-222"/>
</g>
<g id="clust37" class="cluster">
<title>cluster_UserModule</title>
<polygon fill="none" stroke="black" stroke-dasharray="1,5" points="1647,-70 1647,-138 2273,-138 2273,-70 1647,-70"/>
</g>
<g id="clust42" class="cluster">
<title>cluster_UserModule_providers</title>
<polygon fill="none" stroke="black" points="1767,-78 1767,-130 2265,-130 2265,-78 1767,-78"/>
</g>
<g id="clust40" class="cluster">
<title>cluster_UserModule_exports</title>
<polygon fill="none" stroke="black" points="1655,-78 1655,-130 1759,-130 1759,-78 1655,-78"/>
</g>
<g id="clust31" class="cluster">
<title>cluster_TagsModule</title>
<polygon fill="none" stroke="black" stroke-dasharray="1,5" points="2260,-214 2260,-282 2522,-282 2522,-214 2260,-214"/>
</g>
<g id="clust36" class="cluster">
<title>cluster_TagsModule_providers</title>
<polygon fill="none" stroke="black" points="2380,-222 2380,-274 2514,-274 2514,-222 2380,-222"/>
</g>
<g id="clust34" class="cluster">
<title>cluster_TagsModule_exports</title>
<polygon fill="none" stroke="black" points="2268,-222 2268,-274 2372,-274 2372,-222 2268,-222"/>
</g>
<g id="clust1" class="cluster">
<title>cluster_AppModule</title>
<polygon fill="none" stroke="black" stroke-dasharray="1,5" points="1060,-214 1060,-350 1362,-350 1362,-214 1060,-214"/>
</g>
<g id="clust3" class="cluster">
<title>cluster_AppModule_imports</title>
<polygon fill="none" stroke="black" points="1206,-222 1206,-274 1354,-274 1354,-222 1206,-222"/>
</g>
<g id="clust6" class="cluster">
<title>cluster_AppModule_providers</title>
<polygon fill="none" stroke="black" points="1068,-222 1068,-274 1198,-274 1198,-222 1068,-222"/>
</g>
<g id="clust13" class="cluster">
<title>cluster_MetaOptionsModule</title>
<polygon fill="none" stroke="black" stroke-dasharray="1,5" points="1370,-290 1370,-358 1740,-358 1740,-290 1370,-290"/>
</g>
<g id="clust16" class="cluster">
<title>cluster_MetaOptionsModule_exports</title>
<polygon fill="none" stroke="black" points="1582,-298 1582,-350 1732,-350 1732,-298 1582,-298"/>
</g>
<g id="clust18" class="cluster">
<title>cluster_MetaOptionsModule_providers</title>
<polygon fill="none" stroke="black" points="1378,-298 1378,-350 1574,-350 1574,-298 1378,-298"/>
</g>
<!-- AuthModule -->
<g id="node1" class="node">
<title>AuthModule</title>
<polygon fill="#8dd3c7" stroke="black" points="382.55,-266 379.55,-270 358.55,-270 355.55,-266 295.45,-266 295.45,-230 382.55,-230 382.55,-266"/>
<text text-anchor="middle" x="339" y="-243.8" font-family="Times,serif" font-size="14.00">AuthModule</text>
</g>
<!-- AppModule -->
<g id="node7" class="node">
<title>AppModule</title>
<polygon fill="#8dd3c7" stroke="black" points="1151.66,-342 1148.66,-346 1127.66,-346 1124.66,-342 1068.34,-342 1068.34,-306 1151.66,-306 1151.66,-342"/>
<text text-anchor="middle" x="1110" y="-319.8" font-family="Times,serif" font-size="14.00">AppModule</text>
</g>
<!-- AuthModule&#45;&gt;AppModule -->
<g id="edge1" class="edge">
<title>AuthModule&#45;&gt;AppModule</title>
<path fill="none" stroke="black" d="M373.27,-266.04C373.27,-278.56 373.27,-293 373.27,-293 373.27,-293 1070.22,-293 1070.22,-293 1070.22,-293 1070.22,-295.97 1070.22,-295.97"/>
<polygon fill="black" stroke="black" points="1066.72,-295.97 1070.22,-305.97 1073.72,-295.97 1066.72,-295.97"/>
</g>
<!-- AuthService  -->
<g id="node10" class="node">
<title>AuthService </title>
<polygon fill="#fb8072" stroke="black" points="443.98,-342 354.02,-342 354.02,-306 443.98,-306 443.98,-342"/>
<text text-anchor="middle" x="399" y="-319.8" font-family="Times,serif" font-size="14.00">AuthService </text>
</g>
<!-- AuthModule&#45;&gt;AuthService  -->
<g id="edge9" class="edge">
<title>AuthModule&#45;&gt;AuthService </title>
<path fill="none" stroke="black" stroke-dasharray="5,2" d="M363.77,-266.01C363.77,-266.01 363.77,-295.85 363.77,-295.85"/>
<polygon fill="black" stroke="black" points="360.27,-295.85 363.77,-305.85 367.27,-295.85 360.27,-295.85"/>
</g>
<!-- HashingProvider  -->
<g id="node11" class="node">
<title>HashingProvider </title>
<polygon fill="#fb8072" stroke="black" points="336.37,-342 221.63,-342 221.63,-306 336.37,-306 336.37,-342"/>
<text text-anchor="middle" x="279" y="-319.8" font-family="Times,serif" font-size="14.00">HashingProvider </text>
</g>
<!-- AuthModule&#45;&gt;HashingProvider  -->
<g id="edge10" class="edge">
<title>AuthModule&#45;&gt;HashingProvider </title>
<path fill="none" stroke="black" stroke-dasharray="5,2" d="M315.7,-266.01C315.7,-266.01 315.7,-295.85 315.7,-295.85"/>
<polygon fill="black" stroke="black" points="312.2,-295.85 315.7,-305.85 319.2,-295.85 312.2,-295.85"/>
</g>
<!-- MetaOptionsModule -->
<g id="node2" class="node">
<title>MetaOptionsModule</title>
<polygon fill="#8dd3c7" stroke="black" points="1346.15,-266 1343.15,-270 1322.15,-270 1319.15,-266 1213.85,-266 1213.85,-230 1346.15,-230 1346.15,-266"/>
<text text-anchor="middle" x="1280" y="-243.8" font-family="Times,serif" font-size="14.00">MetaOptionsModule</text>
</g>
<!-- MetaOptionsModule&#45;&gt;AppModule -->
<g id="edge2" class="edge">
<title>MetaOptionsModule&#45;&gt;AppModule</title>
<path fill="none" stroke="black" d="M1257.89,-266.01C1257.89,-288.49 1257.89,-324 1257.89,-324 1257.89,-324 1161.98,-324 1161.98,-324"/>
<polygon fill="black" stroke="black" points="1161.98,-320.5 1151.98,-324 1161.98,-327.5 1161.98,-320.5"/>
</g>
<!-- MetaOptionsService  -->
<g id="node15" class="node">
<title>MetaOptionsService </title>
<polygon fill="#fb8072" stroke="black" points="1724.08,-342 1589.92,-342 1589.92,-306 1724.08,-306 1724.08,-342"/>
<text text-anchor="middle" x="1657" y="-319.8" font-family="Times,serif" font-size="14.00">MetaOptionsService </text>
</g>
<!-- MetaOptionsModule&#45;&gt;MetaOptionsService  -->
<g id="edge14" class="edge">
<title>MetaOptionsModule&#45;&gt;MetaOptionsService </title>
<path fill="none" stroke="black" stroke-dasharray="5,2" d="M1346.38,-257C1446.95,-257 1626.38,-257 1626.38,-257 1626.38,-257 1626.38,-295.69 1626.38,-295.69"/>
<polygon fill="black" stroke="black" points="1622.88,-295.69 1626.38,-305.69 1629.88,-295.69 1622.88,-295.69"/>
</g>
<!-- PaginationModule -->
<g id="node3" class="node">
<title>PaginationModule</title>
<polygon fill="#8dd3c7" stroke="black" points="1883.93,-198 1880.93,-202 1859.93,-202 1856.93,-198 1764.07,-198 1764.07,-162 1883.93,-162 1883.93,-198"/>
<text text-anchor="middle" x="1824" y="-175.8" font-family="Times,serif" font-size="14.00">PaginationModule</text>
</g>
<!-- PostsModule -->
<g id="node4" class="node">
<title>PostsModule</title>
<polygon fill="#8dd3c7" stroke="black" points="1989.61,-266 1986.61,-270 1965.61,-270 1962.61,-266 1900.39,-266 1900.39,-230 1989.61,-230 1989.61,-266"/>
<text text-anchor="middle" x="1945" y="-243.8" font-family="Times,serif" font-size="14.00">PostsModule</text>
</g>
<!-- PaginationModule&#45;&gt;PostsModule -->
<g id="edge18" class="edge">
<title>PaginationModule&#45;&gt;PostsModule</title>
<path fill="none" stroke="black" d="M1824,-198.02C1824,-215.37 1824,-239 1824,-239 1824,-239 1890.29,-239 1890.29,-239"/>
<polygon fill="black" stroke="black" points="1890.29,-242.5 1900.29,-239 1890.29,-235.5 1890.29,-242.5"/>
</g>
<!-- PaginationModule&#45;&gt;AppModule -->
<g id="edge3" class="edge">
<title>PaginationModule&#45;&gt;AppModule</title>
<path fill="none" stroke="black" d="M1764.07,-189C1585.98,-189 1072.28,-189 1072.28,-189 1072.28,-189 1072.28,-295.79 1072.28,-295.79"/>
<polygon fill="black" stroke="black" points="1068.78,-295.79 1072.28,-305.79 1075.78,-295.79 1068.78,-295.79"/>
</g>
<!-- PaginationService  -->
<g id="node17" class="node">
<title>PaginationService </title>
<polygon fill="#fb8072" stroke="black" points="1035.86,-266 914.14,-266 914.14,-230 1035.86,-230 1035.86,-266"/>
<text text-anchor="middle" x="975" y="-243.8" font-family="Times,serif" font-size="14.00">PaginationService </text>
</g>
<!-- PaginationModule&#45;&gt;PaginationService  -->
<g id="edge16" class="edge">
<title>PaginationModule&#45;&gt;PaginationService </title>
<path fill="none" stroke="black" stroke-dasharray="5,2" d="M1763.96,-180C1570.36,-180 975,-180 975,-180 975,-180 975,-219.78 975,-219.78"/>
<polygon fill="black" stroke="black" points="971.5,-219.78 975,-229.78 978.5,-219.78 971.5,-219.78"/>
</g>
<!-- PostsModule&#45;&gt;AppModule -->
<g id="edge4" class="edge">
<title>PostsModule&#45;&gt;AppModule</title>
<path fill="none" stroke="black" d="M1900.05,-248C1764,-248 1365.96,-248 1365.96,-248 1365.96,-248 1365.96,-333 1365.96,-333 1365.96,-333 1161.69,-333 1161.69,-333"/>
<polygon fill="black" stroke="black" points="1161.69,-329.5 1151.69,-333 1161.69,-336.5 1161.69,-329.5"/>
</g>
<!-- PostsService  -->
<g id="node18" class="node">
<title>PostsService </title>
<polygon fill="#fb8072" stroke="black" points="1990.54,-342 1899.46,-342 1899.46,-306 1990.54,-306 1990.54,-342"/>
<text text-anchor="middle" x="1945" y="-319.8" font-family="Times,serif" font-size="14.00">PostsService </text>
</g>
<!-- PostsModule&#45;&gt;PostsService  -->
<g id="edge21" class="edge">
<title>PostsModule&#45;&gt;PostsService </title>
<path fill="none" stroke="black" stroke-dasharray="5,2" d="M1945,-266.01C1945,-266.01 1945,-295.85 1945,-295.85"/>
<polygon fill="black" stroke="black" points="1941.5,-295.85 1945,-305.85 1948.5,-295.85 1941.5,-295.85"/>
</g>
<!-- TagsModule -->
<g id="node5" class="node">
<title>TagsModule</title>
<polygon fill="#8dd3c7" stroke="black" points="2092.26,-198 2089.26,-202 2068.26,-202 2065.26,-198 2005.74,-198 2005.74,-162 2092.26,-162 2092.26,-198"/>
<text text-anchor="middle" x="2049" y="-175.8" font-family="Times,serif" font-size="14.00">TagsModule</text>
</g>
<!-- TagsModule&#45;&gt;PostsModule -->
<g id="edge19" class="edge">
<title>TagsModule&#45;&gt;PostsModule</title>
<path fill="none" stroke="black" d="M2040.32,-198.22C2040.32,-218.37 2040.32,-248 2040.32,-248 2040.32,-248 1999.59,-248 1999.59,-248"/>
<polygon fill="black" stroke="black" points="1999.59,-244.5 1989.59,-248 1999.59,-251.5 1999.59,-244.5"/>
</g>
<!-- TagsModule&#45;&gt;AppModule -->
<g id="edge5" class="edge">
<title>TagsModule&#45;&gt;AppModule</title>
<path fill="none" stroke="black" d="M2057.68,-198.34C2057.68,-227.21 2057.68,-280 2057.68,-280 2057.68,-280 1126.68,-280 1126.68,-280 1126.68,-280 1126.68,-295.85 1126.68,-295.85"/>
<polygon fill="black" stroke="black" points="1123.18,-295.85 1126.68,-305.85 1130.18,-295.85 1123.18,-295.85"/>
</g>
<!-- TagsService  -->
<g id="node20" class="node">
<title>TagsService </title>
<polygon fill="#fb8072" stroke="black" points="2364.19,-266 2275.81,-266 2275.81,-230 2364.19,-230 2364.19,-266"/>
<text text-anchor="middle" x="2320" y="-243.8" font-family="Times,serif" font-size="14.00">TagsService </text>
</g>
<!-- TagsModule&#45;&gt;TagsService  -->
<g id="edge23" class="edge">
<title>TagsModule&#45;&gt;TagsService </title>
<path fill="none" stroke="black" stroke-dasharray="5,2" d="M2075.03,-198.02C2075.03,-215.37 2075.03,-239 2075.03,-239 2075.03,-239 2265.64,-239 2265.64,-239"/>
<polygon fill="black" stroke="black" points="2265.64,-242.5 2275.64,-239 2265.64,-235.5 2265.64,-242.5"/>
</g>
<!-- UserModule -->
<g id="node6" class="node">
<title>UserModule</title>
<polygon fill="#8dd3c7" stroke="black" points="1987.98,-198 1984.98,-202 1963.98,-202 1960.98,-198 1902.02,-198 1902.02,-162 1987.98,-162 1987.98,-198"/>
<text text-anchor="middle" x="1945" y="-175.8" font-family="Times,serif" font-size="14.00">UserModule</text>
</g>
<!-- UserModule&#45;&gt;PostsModule -->
<g id="edge20" class="edge">
<title>UserModule&#45;&gt;PostsModule</title>
<path fill="none" stroke="black" d="M1959.33,-198.22C1959.33,-198.22 1959.33,-219.73 1959.33,-219.73"/>
<polygon fill="black" stroke="black" points="1955.83,-219.73 1959.33,-229.73 1962.83,-219.73 1955.83,-219.73"/>
</g>
<!-- UserModule&#45;&gt;AppModule -->
<g id="edge6" class="edge">
<title>UserModule&#45;&gt;AppModule</title>
<path fill="none" stroke="black" d="M1930.67,-198.2C1930.67,-204.03 1930.67,-209 1930.67,-209 1930.67,-209 1074.33,-209 1074.33,-209 1074.33,-209 1074.33,-295.78 1074.33,-295.78"/>
<polygon fill="black" stroke="black" points="1070.83,-295.78 1074.33,-305.78 1077.83,-295.78 1070.83,-295.78"/>
</g>
<!-- UserService  -->
<g id="node22" class="node">
<title>UserService </title>
<polygon fill="#fb8072" stroke="black" points="1750.9,-122 1663.1,-122 1663.1,-86 1750.9,-86 1750.9,-122"/>
<text text-anchor="middle" x="1707" y="-99.8" font-family="Times,serif" font-size="14.00">UserService </text>
</g>
<!-- UserModule&#45;&gt;UserService  -->
<g id="edge25" class="edge">
<title>UserModule&#45;&gt;UserService </title>
<path fill="none" stroke="black" stroke-dasharray="5,2" d="M1918.25,-161.85C1918.25,-149.73 1918.25,-136 1918.25,-136 1918.25,-136 1737.62,-136 1737.62,-136 1737.62,-136 1737.62,-132.24 1737.62,-132.24"/>
<polygon fill="black" stroke="black" points="1741.12,-132.24 1737.62,-122.24 1734.12,-132.24 1741.12,-132.24"/>
</g>
<!-- AppService -->
<g id="node8" class="node">
<title>AppService</title>
<ellipse fill="#fdb462" stroke="black" cx="1133" cy="-248" rx="56.74" ry="18"/>
<text text-anchor="middle" x="1133" y="-243.8" font-family="Times,serif" font-size="14.00">AppService</text>
</g>
<!-- AppService&#45;&gt;AppModule -->
<g id="edge7" class="edge">
<title>AppService&#45;&gt;AppModule</title>
<path fill="none" stroke="black" d="M1101.53,-263.02C1101.53,-263.02 1101.53,-295.8 1101.53,-295.8"/>
<polygon fill="black" stroke="black" points="1098.03,-295.8 1101.53,-305.8 1105.03,-295.8 1098.03,-295.8"/>
</g>
<!-- PaginationService -->
<g id="node9" class="node">
<title>PaginationService</title>
<ellipse fill="#fdb462" stroke="black" cx="809" cy="-248" rx="81.1" ry="18"/>
<text text-anchor="middle" x="809" y="-243.8" font-family="Times,serif" font-size="14.00">PaginationService</text>
</g>
<!-- PaginationService&#45;&gt;PaginationModule -->
<g id="edge17" class="edge">
<title>PaginationService&#45;&gt;PaginationModule</title>
<path fill="none" stroke="black" d="M809,-229.75C809,-206.98 809,-171 809,-171 809,-171 1753.92,-171 1753.92,-171"/>
<polygon fill="black" stroke="black" points="1753.92,-174.5 1763.92,-171 1753.92,-167.5 1753.92,-174.5"/>
</g>
<!-- PaginationService&#45;&gt;AppModule -->
<g id="edge8" class="edge">
<title>PaginationService&#45;&gt;AppModule</title>
<path fill="none" stroke="black" d="M809,-266.01C809,-288.49 809,-324 809,-324 809,-324 1058.15,-324 1058.15,-324"/>
<polygon fill="black" stroke="black" points="1058.15,-327.5 1068.15,-324 1058.15,-320.5 1058.15,-327.5"/>
</g>
<!-- AuthService -->
<g id="node12" class="node">
<title>AuthService</title>
<ellipse fill="#fdb462" stroke="black" cx="83" cy="-180" rx="59.11" ry="18"/>
<text text-anchor="middle" x="83" y="-175.8" font-family="Times,serif" font-size="14.00">AuthService</text>
</g>
<!-- AuthService&#45;&gt;AuthModule -->
<g id="edge11" class="edge">
<title>AuthService&#45;&gt;AuthModule</title>
<path fill="none" stroke="black" d="M83,-198.22C83,-218.37 83,-248 83,-248 83,-248 285.28,-248 285.28,-248"/>
<polygon fill="black" stroke="black" points="285.28,-251.5 295.28,-248 285.28,-244.5 285.28,-251.5"/>
</g>
<!-- GenerateTokenProvider -->
<g id="node13" class="node">
<title>GenerateTokenProvider</title>
<ellipse fill="#fdb462" stroke="black" cx="480" cy="-180" rx="103.61" ry="18"/>
<text text-anchor="middle" x="480" y="-175.8" font-family="Times,serif" font-size="14.00">GenerateTokenProvider</text>
</g>
<!-- GenerateTokenProvider&#45;&gt;AuthModule -->
<g id="edge12" class="edge">
<title>GenerateTokenProvider&#45;&gt;AuthModule</title>
<path fill="none" stroke="black" d="M375.95,-180C370.43,-180 367.09,-180 367.09,-180 367.09,-180 367.09,-219.78 367.09,-219.78"/>
<polygon fill="black" stroke="black" points="363.59,-219.78 367.09,-229.78 370.59,-219.78 363.59,-219.78"/>
</g>
<!-- RefreshTokenProvider -->
<g id="node14" class="node">
<title>RefreshTokenProvider</title>
<ellipse fill="#fdb462" stroke="black" cx="259" cy="-180" rx="98.98" ry="18"/>
<text text-anchor="middle" x="259" y="-175.8" font-family="Times,serif" font-size="14.00">RefreshTokenProvider</text>
</g>
<!-- RefreshTokenProvider&#45;&gt;AuthModule -->
<g id="edge13" class="edge">
<title>RefreshTokenProvider&#45;&gt;AuthModule</title>
<path fill="none" stroke="black" d="M326.61,-193.43C326.61,-193.43 326.61,-219.96 326.61,-219.96"/>
<polygon fill="black" stroke="black" points="323.11,-219.96 326.61,-229.96 330.11,-219.96 323.11,-219.96"/>
</g>
<!-- MetaOptionsService -->
<g id="node16" class="node">
<title>MetaOptionsService</title>
<ellipse fill="#fdb462" stroke="black" cx="1476" cy="-324" rx="90.33" ry="18"/>
<text text-anchor="middle" x="1476" y="-319.8" font-family="Times,serif" font-size="14.00">MetaOptionsService</text>
</g>
<!-- MetaOptionsService&#45;&gt;MetaOptionsModule -->
<g id="edge15" class="edge">
<title>MetaOptionsService&#45;&gt;MetaOptionsModule</title>
<path fill="none" stroke="black" d="M1397.45,-315C1351.37,-315 1302.11,-315 1302.11,-315 1302.11,-315 1302.11,-276.31 1302.11,-276.31"/>
<polygon fill="black" stroke="black" points="1305.61,-276.31 1302.11,-266.31 1298.61,-276.31 1305.61,-276.31"/>
</g>
<!-- PostsService -->
<g id="node19" class="node">
<title>PostsService</title>
<ellipse fill="#fdb462" stroke="black" cx="2176" cy="-180" rx="60.27" ry="18"/>
<text text-anchor="middle" x="2176" y="-175.8" font-family="Times,serif" font-size="14.00">PostsService</text>
</g>
<!-- PostsService&#45;&gt;PostsModule -->
<g id="edge22" class="edge">
<title>PostsService&#45;&gt;PostsModule</title>
<path fill="none" stroke="black" d="M2176,-198.25C2176,-221.02 2176,-257 2176,-257 2176,-257 1999.81,-257 1999.81,-257"/>
<polygon fill="black" stroke="black" points="1999.81,-253.5 1989.81,-257 1999.81,-260.5 1999.81,-253.5"/>
</g>
<!-- TagsService -->
<g id="node21" class="node">
<title>TagsService</title>
<ellipse fill="#fdb462" stroke="black" cx="2447" cy="-248" rx="58.53" ry="18"/>
<text text-anchor="middle" x="2447" y="-243.8" font-family="Times,serif" font-size="14.00">TagsService</text>
</g>
<!-- TagsService&#45;&gt;TagsModule -->
<g id="edge24" class="edge">
<title>TagsService&#45;&gt;TagsModule</title>
<path fill="none" stroke="black" d="M2447,-229.79C2447,-224.45 2447,-220 2447,-220 2447,-220 2022.97,-220 2022.97,-220 2022.97,-220 2022.97,-208.13 2022.97,-208.13"/>
<polygon fill="black" stroke="black" points="2026.47,-208.13 2022.97,-198.13 2019.47,-208.13 2026.47,-208.13"/>
</g>
<!-- CreateUserProvider -->
<g id="node23" class="node">
<title>CreateUserProvider</title>
<ellipse fill="#fdb462" stroke="black" cx="1863" cy="-104" rx="87.94" ry="18"/>
<text text-anchor="middle" x="1863" y="-99.8" font-family="Times,serif" font-size="14.00">CreateUserProvider</text>
</g>
<!-- CreateUserProvider&#45;&gt;UserModule -->
<g id="edge26" class="edge">
<title>CreateUserProvider&#45;&gt;UserModule</title>
<path fill="none" stroke="black" d="M1934.48,-114.57C1934.48,-114.57 1934.48,-151.93 1934.48,-151.93"/>
<polygon fill="black" stroke="black" points="1930.98,-151.93 1934.48,-161.93 1937.98,-151.93 1930.98,-151.93"/>
</g>
<!-- UserCreateMany -->
<g id="node24" class="node">
<title>UserCreateMany</title>
<ellipse fill="#fdb462" stroke="black" cx="2180" cy="-104" rx="76.98" ry="18"/>
<text text-anchor="middle" x="2180" y="-99.8" font-family="Times,serif" font-size="14.00">UserCreateMany</text>
</g>
<!-- UserCreateMany&#45;&gt;UserModule -->
<g id="edge27" class="edge">
<title>UserCreateMany&#45;&gt;UserModule</title>
<path fill="none" stroke="black" d="M2109.31,-111.43C2109.31,-124.21 2109.31,-149 2109.31,-149 2109.31,-149 1981.59,-149 1981.59,-149 1981.59,-149 1981.59,-151.97 1981.59,-151.97"/>
<polygon fill="black" stroke="black" points="1978.09,-151.97 1981.59,-161.97 1985.09,-151.97 1978.09,-151.97"/>
</g>
<!-- UserService -->
<g id="node25" class="node">
<title>UserService</title>
<ellipse fill="#fdb462" stroke="black" cx="2027" cy="-104" rx="58.44" ry="18"/>
<text text-anchor="middle" x="2027" y="-99.8" font-family="Times,serif" font-size="14.00">UserService</text>
</g>
<!-- UserService&#45;&gt;UserModule -->
<g id="edge28" class="edge">
<title>UserService&#45;&gt;UserModule</title>
<path fill="none" stroke="black" d="M1975.18,-112.42C1975.18,-112.42 1975.18,-151.73 1975.18,-151.73"/>
<polygon fill="black" stroke="black" points="1971.68,-151.73 1975.18,-161.73 1978.68,-151.73 1971.68,-151.73"/>
</g>
</g>
</svg>
