<?xml version="1.0" encoding="UTF-8" standalone="no"?>
<!DOCTYPE svg PUBLIC "-//W3C//DTD SVG 1.1//EN"
 "http://www.w3.org/Graphics/SVG/1.1/DTD/svg11.dtd">
<!-- Generated by graphviz version 2.47.0 (20210316.0004)
 -->
<!-- Title: dependencies Pages: 1 -->
<svg width="926pt" height="295pt"
 viewBox="0.00 0.00 926.00 295.00" xmlns="http://www.w3.org/2000/svg" xmlns:xlink="http://www.w3.org/1999/xlink">
<g id="graph0" class="graph" transform="scale(1 1) rotate(0) translate(4 291)">
<title>dependencies</title>
<polygon fill="white" stroke="transparent" points="-4,4 -4,-291 922,-291 922,4 -4,4"/>
<text text-anchor="start" x="438.01" y="-42.4" font-family="Times-12" font-weight="bold" font-size="14.00">Legend</text>
<polygon fill="#ffffb3" stroke="transparent" points="225,-10 225,-30 245,-30 245,-10 225,-10"/>
<text text-anchor="start" x="248.63" y="-15.4" font-family="Times-12" font-size="14.00"> &#160;Declarations</text>
<polygon fill="#8dd3c7" stroke="transparent" points="338,-10 338,-30 358,-30 358,-10 338,-10"/>
<text text-anchor="start" x="361.73" y="-15.4" font-family="Times-12" font-size="14.00"> &#160;Module</text>
<polygon fill="#80b1d3" stroke="transparent" points="424,-10 424,-30 444,-30 444,-10 424,-10"/>
<text text-anchor="start" x="447.78" y="-15.4" font-family="Times-12" font-size="14.00"> &#160;Bootstrap</text>
<polygon fill="#fdb462" stroke="transparent" points="521,-10 521,-30 541,-30 541,-10 521,-10"/>
<text text-anchor="start" x="544.67" y="-15.4" font-family="Times-12" font-size="14.00"> &#160;Providers</text>
<polygon fill="#fb8072" stroke="transparent" points="617,-10 617,-30 637,-30 637,-10 617,-10"/>
<text text-anchor="start" x="640.73" y="-15.4" font-family="Times-12" font-size="14.00"> &#160;Exports</text>
<g id="clust1" class="cluster">
<title>cluster_AppModule</title>
<polygon fill="none" stroke="black" stroke-dasharray="1,5" points="8,-70 8,-271 370,-271 370,-70 8,-70"/>
</g>
<g id="clust3" class="cluster">
<title>cluster_AppModule_imports</title>
<polygon fill="none" stroke="black" points="154,-78 154,-195 362,-195 362,-78 154,-78"/>
</g>
<g id="clust6" class="cluster">
<title>cluster_AppModule_providers</title>
<polygon fill="none" stroke="black" points="16,-143 16,-195 146,-195 146,-143 16,-143"/>
</g>
<g id="clust13" class="cluster">
<title>cluster_PostsModule</title>
<polygon fill="none" stroke="black" stroke-dasharray="1,5" points="378,-211 378,-279 646,-279 646,-211 378,-211"/>
</g>
<g id="clust16" class="cluster">
<title>cluster_PostsModule_exports</title>
<polygon fill="none" stroke="black" points="530,-219 530,-271 638,-271 638,-219 530,-219"/>
</g>
<g id="clust18" class="cluster">
<title>cluster_PostsModule_providers</title>
<polygon fill="none" stroke="black" points="386,-219 386,-271 522,-271 522,-219 386,-219"/>
</g>
<g id="clust19" class="cluster">
<title>cluster_UserModule</title>
<polygon fill="none" stroke="black" stroke-dasharray="1,5" points="650,-135 650,-203 910,-203 910,-135 650,-135"/>
</g>
<g id="clust22" class="cluster">
<title>cluster_UserModule_exports</title>
<polygon fill="none" stroke="black" points="798,-143 798,-195 902,-195 902,-143 798,-143"/>
</g>
<g id="clust24" class="cluster">
<title>cluster_UserModule_providers</title>
<polygon fill="none" stroke="black" points="658,-143 658,-195 790,-195 790,-143 658,-143"/>
</g>
<g id="clust7" class="cluster">
<title>cluster_AuthModule</title>
<polygon fill="none" stroke="black" stroke-dasharray="1,5" points="378,-135 378,-203 642,-203 642,-135 378,-135"/>
</g>
<g id="clust12" class="cluster">
<title>cluster_AuthModule_providers</title>
<polygon fill="none" stroke="black" points="500,-143 500,-195 634,-195 634,-143 500,-143"/>
</g>
<g id="clust10" class="cluster">
<title>cluster_AuthModule_exports</title>
<polygon fill="none" stroke="black" points="386,-143 386,-195 492,-195 492,-143 386,-143"/>
</g>
<!-- AuthModule -->
<g id="node1" class="node">
<title>AuthModule</title>
<polygon fill="#8dd3c7" stroke="black" points="249.55,-122 246.55,-126 225.55,-126 222.55,-122 162.45,-122 162.45,-86 249.55,-86 249.55,-122"/>
<text text-anchor="middle" x="206" y="-99.8" font-family="Times,serif" font-size="14.00">AuthModule</text>
</g>
<!-- AppModule -->
<g id="node4" class="node">
<title>AppModule</title>
<polygon fill="#8dd3c7" stroke="black" points="264.66,-263 261.66,-267 240.66,-267 237.66,-263 181.34,-263 181.34,-227 264.66,-227 264.66,-263"/>
<text text-anchor="middle" x="223" y="-240.8" font-family="Times,serif" font-size="14.00">AppModule</text>
</g>
<!-- AuthModule&#45;&gt;AppModule -->
<g id="edge1" class="edge">
<title>AuthModule&#45;&gt;AppModule</title>
<path fill="none" stroke="black" d="M236.05,-122.14C236.05,-122.14 236.05,-216.93 236.05,-216.93"/>
<polygon fill="black" stroke="black" points="232.55,-216.92 236.05,-226.93 239.55,-216.93 232.55,-216.92"/>
</g>
<!-- AuthService  -->
<g id="node6" class="node">
<title>AuthService </title>
<polygon fill="#fb8072" stroke="black" points="483.98,-187 394.02,-187 394.02,-151 483.98,-151 483.98,-187"/>
<text text-anchor="middle" x="439" y="-164.8" font-family="Times,serif" font-size="14.00">AuthService </text>
</g>
<!-- AuthModule&#45;&gt;AuthService  -->
<g id="edge5" class="edge">
<title>AuthModule&#45;&gt;AuthService </title>
<path fill="none" stroke="black" stroke-dasharray="5,2" d="M208.61,-122.11C208.61,-131.9 208.61,-142 208.61,-142 208.61,-142 439,-142 439,-142 439,-142 439,-142.88 439,-142.88"/>
<polygon fill="black" stroke="black" points="435.5,-140.84 439,-150.84 442.5,-140.84 435.5,-140.84"/>
</g>
<!-- PostsModule -->
<g id="node2" class="node">
<title>PostsModule</title>
<polygon fill="#8dd3c7" stroke="black" points="353.61,-187 350.61,-191 329.61,-191 326.61,-187 264.39,-187 264.39,-151 353.61,-151 353.61,-187"/>
<text text-anchor="middle" x="309" y="-164.8" font-family="Times,serif" font-size="14.00">PostsModule</text>
</g>
<!-- PostsModule&#45;&gt;AppModule -->
<g id="edge2" class="edge">
<title>PostsModule&#45;&gt;AppModule</title>
<path fill="none" stroke="black" d="M264.12,-175C261.29,-175 259.55,-175 259.55,-175 259.55,-175 259.55,-216.97 259.55,-216.97"/>
<polygon fill="black" stroke="black" points="256.05,-216.97 259.55,-226.97 263.05,-216.97 256.05,-216.97"/>
</g>
<!-- PostsService  -->
<g id="node8" class="node">
<title>PostsService </title>
<polygon fill="#fb8072" stroke="black" points="629.54,-263 538.46,-263 538.46,-227 629.54,-227 629.54,-263"/>
<text text-anchor="middle" x="584" y="-240.8" font-family="Times,serif" font-size="14.00">PostsService </text>
</g>
<!-- PostsModule&#45;&gt;PostsService  -->
<g id="edge8" class="edge">
<title>PostsModule&#45;&gt;PostsService </title>
<path fill="none" stroke="black" stroke-dasharray="5,2" d="M294.4,-187.11C294.4,-196.9 294.4,-207 294.4,-207 294.4,-207 582.39,-207 582.39,-207 582.39,-207 582.39,-216.89 582.39,-216.89"/>
<polygon fill="black" stroke="black" points="578.89,-216.89 582.39,-226.89 585.89,-216.89 578.89,-216.89"/>
</g>
<!-- UserModule -->
<g id="node3" class="node">
<title>UserModule</title>
<polygon fill="#8dd3c7" stroke="black" points="353.98,-122 350.98,-126 329.98,-126 326.98,-122 268.02,-122 268.02,-86 353.98,-86 353.98,-122"/>
<text text-anchor="middle" x="311" y="-99.8" font-family="Times,serif" font-size="14.00">UserModule</text>
</g>
<!-- UserModule&#45;&gt;PostsModule -->
<g id="edge7" class="edge">
<title>UserModule&#45;&gt;PostsModule</title>
<path fill="none" stroke="black" d="M310.78,-122.11C310.78,-122.11 310.78,-140.99 310.78,-140.99"/>
<polygon fill="black" stroke="black" points="307.28,-140.99 310.78,-150.99 314.28,-140.99 307.28,-140.99"/>
</g>
<!-- UserModule&#45;&gt;AppModule -->
<g id="edge3" class="edge">
<title>UserModule&#45;&gt;AppModule</title>
<path fill="none" stroke="black" d="M268.01,-104C260.3,-104 254.66,-104 254.66,-104 254.66,-104 254.66,-216.86 254.66,-216.86"/>
<polygon fill="black" stroke="black" points="251.16,-216.86 254.66,-226.86 258.16,-216.86 251.16,-216.86"/>
</g>
<!-- UserService  -->
<g id="node10" class="node">
<title>UserService </title>
<polygon fill="#fb8072" stroke="black" points="893.9,-187 806.1,-187 806.1,-151 893.9,-151 893.9,-187"/>
<text text-anchor="middle" x="850" y="-164.8" font-family="Times,serif" font-size="14.00">UserService </text>
</g>
<!-- UserModule&#45;&gt;UserService  -->
<g id="edge10" class="edge">
<title>UserModule&#45;&gt;UserService </title>
<path fill="none" stroke="black" stroke-dasharray="5,2" d="M354.2,-98C482.1,-98 850,-98 850,-98 850,-98 850,-140.72 850,-140.72"/>
<polygon fill="black" stroke="black" points="846.5,-140.72 850,-150.72 853.5,-140.72 846.5,-140.72"/>
</g>
<!-- AppService -->
<g id="node5" class="node">
<title>AppService</title>
<ellipse fill="#fdb462" stroke="black" cx="81" cy="-169" rx="56.74" ry="18"/>
<text text-anchor="middle" x="81" y="-164.8" font-family="Times,serif" font-size="14.00">AppService</text>
</g>
<!-- AppService&#45;&gt;AppModule -->
<g id="edge4" class="edge">
<title>AppService&#45;&gt;AppModule</title>
<path fill="none" stroke="black" d="M134.43,-163C174.45,-163 222.33,-163 222.33,-163 222.33,-163 222.33,-216.8 222.33,-216.8"/>
<polygon fill="black" stroke="black" points="218.83,-216.8 222.33,-226.8 225.83,-216.8 218.83,-216.8"/>
</g>
<!-- AuthService -->
<g id="node7" class="node">
<title>AuthService</title>
<ellipse fill="#fdb462" stroke="black" cx="567" cy="-169" rx="59.11" ry="18"/>
<text text-anchor="middle" x="567" y="-164.8" font-family="Times,serif" font-size="14.00">AuthService</text>
</g>
<!-- AuthService&#45;&gt;AuthModule -->
<g id="edge6" class="edge">
<title>AuthService&#45;&gt;AuthModule</title>
<path fill="none" stroke="black" d="M567,-150.93C567,-141.54 567,-132 567,-132 567,-132 194.89,-132 194.89,-132 194.89,-132 194.89,-131.02 194.89,-131.02"/>
<polygon fill="black" stroke="black" points="198.39,-132.21 194.89,-122.21 191.39,-132.21 198.39,-132.21"/>
</g>
<!-- PostsService -->
<g id="node9" class="node">
<title>PostsService</title>
<ellipse fill="#fdb462" stroke="black" cx="454" cy="-245" rx="60.27" ry="18"/>
<text text-anchor="middle" x="454" y="-240.8" font-family="Times,serif" font-size="14.00">PostsService</text>
</g>
<!-- PostsService&#45;&gt;PostsModule -->
<g id="edge9" class="edge">
<title>PostsService&#45;&gt;PostsModule</title>
<path fill="none" stroke="black" d="M393.56,-245C359.6,-245 323.98,-245 323.98,-245 323.98,-245 323.98,-197.01 323.98,-197.01"/>
<polygon fill="black" stroke="black" points="327.48,-197.01 323.98,-187.01 320.48,-197.01 327.48,-197.01"/>
</g>
<!-- UserService -->
<g id="node11" class="node">
<title>UserService</title>
<ellipse fill="#fdb462" stroke="black" cx="724" cy="-169" rx="58.44" ry="18"/>
<text text-anchor="middle" x="724" y="-164.8" font-family="Times,serif" font-size="14.00">UserService</text>
</g>
<!-- UserService&#45;&gt;UserModule -->
<g id="edge11" class="edge">
<title>UserService&#45;&gt;UserModule</title>
<path fill="none" stroke="black" d="M724,-150.98C724,-133.63 724,-110 724,-110 724,-110 364.03,-110 364.03,-110"/>
<polygon fill="black" stroke="black" points="364.03,-106.5 354.03,-110 364.03,-113.5 364.03,-106.5"/>
</g>
</g>
</svg>
