<?xml version="1.0" encoding="UTF-8" standalone="no"?>
<!DOCTYPE svg PUBLIC "-//W3C//DTD SVG 1.1//EN"
 "http://www.w3.org/Graphics/SVG/1.1/DTD/svg11.dtd">
<!-- Generated by graphviz version 2.47.0 (20210316.0004)
 -->
<!-- Title: dependencies Pages: 1 -->
<svg width="1718pt" height="366pt"
 viewBox="0.00 0.00 1718.00 366.00" xmlns="http://www.w3.org/2000/svg" xmlns:xlink="http://www.w3.org/1999/xlink">
<g id="graph0" class="graph" transform="scale(1 1) rotate(0) translate(4 362)">
<title>dependencies</title>
<polygon fill="white" stroke="transparent" points="-4,4 -4,-362 1714,-362 1714,4 -4,4"/>
<text text-anchor="start" x="834.01" y="-42.4" font-family="Times-12" font-weight="bold" font-size="14.00">Legend</text>
<polygon fill="#ffffb3" stroke="transparent" points="621,-10 621,-30 641,-30 641,-10 621,-10"/>
<text text-anchor="start" x="644.63" y="-15.4" font-family="Times-12" font-size="14.00"> &#160;Declarations</text>
<polygon fill="#8dd3c7" stroke="transparent" points="734,-10 734,-30 754,-30 754,-10 734,-10"/>
<text text-anchor="start" x="757.73" y="-15.4" font-family="Times-12" font-size="14.00"> &#160;Module</text>
<polygon fill="#80b1d3" stroke="transparent" points="820,-10 820,-30 840,-30 840,-10 820,-10"/>
<text text-anchor="start" x="843.78" y="-15.4" font-family="Times-12" font-size="14.00"> &#160;Bootstrap</text>
<polygon fill="#fdb462" stroke="transparent" points="917,-10 917,-30 937,-30 937,-10 917,-10"/>
<text text-anchor="start" x="940.67" y="-15.4" font-family="Times-12" font-size="14.00"> &#160;Providers</text>
<polygon fill="#fb8072" stroke="transparent" points="1013,-10 1013,-30 1033,-30 1033,-10 1013,-10"/>
<text text-anchor="start" x="1036.73" y="-15.4" font-family="Times-12" font-size="14.00"> &#160;Exports</text>
<g id="clust31" class="cluster">
<title>cluster_TagsModule</title>
<polygon fill="none" stroke="black" stroke-dasharray="1,5" points="1552,-70 1552,-282 1702,-282 1702,-70 1552,-70"/>
</g>
<g id="clust34" class="cluster">
<title>cluster_TagsModule_exports</title>
<polygon fill="none" stroke="black" points="1560,-222 1560,-274 1664,-274 1664,-222 1560,-222"/>
</g>
<g id="clust36" class="cluster">
<title>cluster_TagsModule_providers</title>
<polygon fill="none" stroke="black" points="1560,-78 1560,-130 1694,-130 1694,-78 1560,-78"/>
</g>
<g id="clust25" class="cluster">
<title>cluster_PostsModule</title>
<polygon fill="none" stroke="black" stroke-dasharray="1,5" points="1144,-146 1144,-350 1544,-350 1544,-146 1144,-146"/>
</g>
<g id="clust28" class="cluster">
<title>cluster_PostsModule_exports</title>
<polygon fill="none" stroke="black" points="1270,-290 1270,-342 1378,-342 1378,-290 1270,-290"/>
</g>
<g id="clust30" class="cluster">
<title>cluster_PostsModule_providers</title>
<polygon fill="none" stroke="black" points="1400,-154 1400,-206 1536,-206 1536,-154 1400,-154"/>
</g>
<g id="clust27" class="cluster">
<title>cluster_PostsModule_imports</title>
<polygon fill="none" stroke="black" points="1152,-154 1152,-206 1392,-206 1392,-154 1152,-154"/>
</g>
<g id="clust1" class="cluster">
<title>cluster_AppModule</title>
<polygon fill="none" stroke="black" stroke-dasharray="1,5" points="386,-146 386,-274 974,-274 974,-146 386,-146"/>
</g>
<g id="clust3" class="cluster">
<title>cluster_AppModule_imports</title>
<polygon fill="none" stroke="black" points="394,-154 394,-206 648,-206 648,-154 394,-154"/>
</g>
<g id="clust6" class="cluster">
<title>cluster_AppModule_providers</title>
<polygon fill="none" stroke="black" points="656,-154 656,-206 966,-206 966,-154 656,-154"/>
</g>
<g id="clust7" class="cluster">
<title>cluster_AuthModule</title>
<polygon fill="none" stroke="black" stroke-dasharray="1,5" points="72,-70 72,-138 910,-138 910,-70 72,-70"/>
</g>
<g id="clust10" class="cluster">
<title>cluster_AuthModule_exports</title>
<polygon fill="none" stroke="black" points="664,-78 664,-130 902,-130 902,-78 664,-78"/>
</g>
<g id="clust12" class="cluster">
<title>cluster_AuthModule_providers</title>
<polygon fill="none" stroke="black" points="80,-78 80,-130 656,-130 656,-78 80,-78"/>
</g>
<g id="clust19" class="cluster">
<title>cluster_PaginationModule</title>
<polygon fill="none" stroke="black" stroke-dasharray="1,5" points="982,-214 982,-282 1136,-282 1136,-214 982,-214"/>
</g>
<g id="clust22" class="cluster">
<title>cluster_PaginationModule_exports</title>
<polygon fill="none" stroke="black" points="990,-222 990,-274 1128,-274 1128,-222 990,-222"/>
</g>
<g id="clust13" class="cluster">
<title>cluster_MetaOptionsModule</title>
<polygon fill="none" stroke="black" stroke-dasharray="1,5" points="8,-214 8,-282 378,-282 378,-214 8,-214"/>
</g>
<g id="clust18" class="cluster">
<title>cluster_MetaOptionsModule_providers</title>
<polygon fill="none" stroke="black" points="174,-222 174,-274 370,-274 370,-222 174,-222"/>
</g>
<g id="clust16" class="cluster">
<title>cluster_MetaOptionsModule_exports</title>
<polygon fill="none" stroke="black" points="16,-222 16,-274 166,-274 166,-222 16,-222"/>
</g>
<g id="clust37" class="cluster">
<title>cluster_UserModule</title>
<polygon fill="none" stroke="black" stroke-dasharray="1,5" points="918,-70 918,-138 1544,-138 1544,-70 918,-70"/>
</g>
<g id="clust40" class="cluster">
<title>cluster_UserModule_exports</title>
<polygon fill="none" stroke="black" points="1432,-78 1432,-130 1536,-130 1536,-78 1432,-78"/>
</g>
<g id="clust42" class="cluster">
<title>cluster_UserModule_providers</title>
<polygon fill="none" stroke="black" points="926,-78 926,-130 1424,-130 1424,-78 926,-78"/>
</g>
<!-- AuthModule -->
<g id="node1" class="node">
<title>AuthModule</title>
<polygon fill="#8dd3c7" stroke="black" points="639.55,-198 636.55,-202 615.55,-202 612.55,-198 552.45,-198 552.45,-162 639.55,-162 639.55,-198"/>
<text text-anchor="middle" x="596" y="-175.8" font-family="Times,serif" font-size="14.00">AuthModule</text>
</g>
<!-- AppModule -->
<g id="node7" class="node">
<title>AppModule</title>
<polygon fill="#8dd3c7" stroke="black" points="953.66,-266 950.66,-270 929.66,-270 926.66,-266 870.34,-266 870.34,-230 953.66,-230 953.66,-266"/>
<text text-anchor="middle" x="912" y="-243.8" font-family="Times,serif" font-size="14.00">AppModule</text>
</g>
<!-- AuthModule&#45;&gt;AppModule -->
<g id="edge1" class="edge">
<title>AuthModule&#45;&gt;AppModule</title>
<path fill="none" stroke="black" d="M596,-198.17C596,-219.5 596,-252 596,-252 596,-252 860.04,-252 860.04,-252"/>
<polygon fill="black" stroke="black" points="860.04,-255.5 870.04,-252 860.04,-248.5 860.04,-255.5"/>
</g>
<!-- AuthService  -->
<g id="node10" class="node">
<title>AuthService </title>
<polygon fill="#fb8072" stroke="black" points="893.98,-122 804.02,-122 804.02,-86 893.98,-86 893.98,-122"/>
<text text-anchor="middle" x="849" y="-99.8" font-family="Times,serif" font-size="14.00">AuthService </text>
</g>
<!-- AuthModule&#45;&gt;AuthService  -->
<g id="edge9" class="edge">
<title>AuthModule&#45;&gt;AuthService </title>
<path fill="none" stroke="black" stroke-dasharray="5,2" d="M622.26,-161.97C622.26,-155.15 622.26,-149 622.26,-149 622.26,-149 811.61,-149 811.61,-149 811.61,-149 811.61,-132.04 811.61,-132.04"/>
<polygon fill="black" stroke="black" points="815.11,-132.04 811.61,-122.04 808.11,-132.04 815.11,-132.04"/>
</g>
<!-- HashingProvider  -->
<g id="node11" class="node">
<title>HashingProvider </title>
<polygon fill="#fb8072" stroke="black" points="786.37,-122 671.63,-122 671.63,-86 786.37,-86 786.37,-122"/>
<text text-anchor="middle" x="729" y="-99.8" font-family="Times,serif" font-size="14.00">HashingProvider </text>
</g>
<!-- AuthModule&#45;&gt;HashingProvider  -->
<g id="edge10" class="edge">
<title>AuthModule&#45;&gt;HashingProvider </title>
<path fill="none" stroke="black" stroke-dasharray="5,2" d="M639.74,-180C648.85,-180 655.75,-180 655.75,-180 655.75,-180 655.75,-104 655.75,-104 655.75,-104 661.65,-104 661.65,-104"/>
<polygon fill="black" stroke="black" points="661.65,-107.5 671.65,-104 661.65,-100.5 661.65,-107.5"/>
</g>
<!-- MetaOptionsModule -->
<g id="node2" class="node">
<title>MetaOptionsModule</title>
<polygon fill="#8dd3c7" stroke="black" points="534.15,-198 531.15,-202 510.15,-202 507.15,-198 401.85,-198 401.85,-162 534.15,-162 534.15,-198"/>
<text text-anchor="middle" x="468" y="-175.8" font-family="Times,serif" font-size="14.00">MetaOptionsModule</text>
</g>
<!-- MetaOptionsModule&#45;&gt;AppModule -->
<g id="edge2" class="edge">
<title>MetaOptionsModule&#45;&gt;AppModule</title>
<path fill="none" stroke="black" d="M490.11,-198.32C490.11,-221.66 490.11,-259 490.11,-259 490.11,-259 860,-259 860,-259"/>
<polygon fill="black" stroke="black" points="860,-262.5 870,-259 860,-255.5 860,-262.5"/>
</g>
<!-- MetaOptionsService  -->
<g id="node15" class="node">
<title>MetaOptionsService </title>
<polygon fill="#fb8072" stroke="black" points="158.08,-266 23.92,-266 23.92,-230 158.08,-230 158.08,-266"/>
<text text-anchor="middle" x="91" y="-243.8" font-family="Times,serif" font-size="14.00">MetaOptionsService </text>
</g>
<!-- MetaOptionsModule&#45;&gt;MetaOptionsService  -->
<g id="edge14" class="edge">
<title>MetaOptionsModule&#45;&gt;MetaOptionsService </title>
<path fill="none" stroke="black" stroke-dasharray="5,2" d="M401.48,-180C301.22,-180 122.99,-180 122.99,-180 122.99,-180 122.99,-219.78 122.99,-219.78"/>
<polygon fill="black" stroke="black" points="119.49,-219.78 122.99,-229.78 126.49,-219.78 119.49,-219.78"/>
</g>
<!-- PaginationModule -->
<g id="node3" class="node">
<title>PaginationModule</title>
<polygon fill="#8dd3c7" stroke="black" points="1383.93,-198 1380.93,-202 1359.93,-202 1356.93,-198 1264.07,-198 1264.07,-162 1383.93,-162 1383.93,-198"/>
<text text-anchor="middle" x="1324" y="-175.8" font-family="Times,serif" font-size="14.00">PaginationModule</text>
</g>
<!-- PostsModule -->
<g id="node4" class="node">
<title>PostsModule</title>
<polygon fill="#8dd3c7" stroke="black" points="1368.61,-266 1365.61,-270 1344.61,-270 1341.61,-266 1279.39,-266 1279.39,-230 1368.61,-230 1368.61,-266"/>
<text text-anchor="middle" x="1324" y="-243.8" font-family="Times,serif" font-size="14.00">PostsModule</text>
</g>
<!-- PaginationModule&#45;&gt;PostsModule -->
<g id="edge18" class="edge">
<title>PaginationModule&#45;&gt;PostsModule</title>
<path fill="none" stroke="black" d="M1338.85,-198.22C1338.85,-198.22 1338.85,-219.73 1338.85,-219.73"/>
<polygon fill="black" stroke="black" points="1335.35,-219.73 1338.85,-229.73 1342.35,-219.73 1335.35,-219.73"/>
</g>
<!-- PaginationModule&#45;&gt;AppModule -->
<g id="edge3" class="edge">
<title>PaginationModule&#45;&gt;AppModule</title>
<path fill="none" stroke="black" d="M1269.02,-198.06C1269.02,-202.49 1269.02,-206 1269.02,-206 1269.02,-206 903.63,-206 903.63,-206 903.63,-206 903.63,-219.94 903.63,-219.94"/>
<polygon fill="black" stroke="black" points="900.13,-219.94 903.63,-229.94 907.13,-219.94 900.13,-219.94"/>
</g>
<!-- PaginationService  -->
<g id="node17" class="node">
<title>PaginationService </title>
<polygon fill="#fb8072" stroke="black" points="1119.86,-266 998.14,-266 998.14,-230 1119.86,-230 1119.86,-266"/>
<text text-anchor="middle" x="1059" y="-243.8" font-family="Times,serif" font-size="14.00">PaginationService </text>
</g>
<!-- PaginationModule&#45;&gt;PaginationService  -->
<g id="edge16" class="edge">
<title>PaginationModule&#45;&gt;PaginationService </title>
<path fill="none" stroke="black" stroke-dasharray="5,2" d="M1273.75,-198.27C1273.75,-216.56 1273.75,-242 1273.75,-242 1273.75,-242 1129.96,-242 1129.96,-242"/>
<polygon fill="black" stroke="black" points="1129.96,-238.5 1119.96,-242 1129.96,-245.5 1129.96,-238.5"/>
</g>
<!-- PostsModule&#45;&gt;AppModule -->
<g id="edge4" class="edge">
<title>PostsModule&#45;&gt;AppModule</title>
<path fill="none" stroke="black" d="M1309.15,-229.94C1309.15,-225.51 1309.15,-222 1309.15,-222 1309.15,-222 937.1,-222 937.1,-222 937.1,-222 937.1,-222.79 937.1,-222.79"/>
<polygon fill="black" stroke="black" points="933.6,-219.94 937.1,-229.94 940.6,-219.94 933.6,-219.94"/>
</g>
<!-- PostsService  -->
<g id="node18" class="node">
<title>PostsService </title>
<polygon fill="#fb8072" stroke="black" points="1369.54,-334 1278.46,-334 1278.46,-298 1369.54,-298 1369.54,-334"/>
<text text-anchor="middle" x="1324" y="-311.8" font-family="Times,serif" font-size="14.00">PostsService </text>
</g>
<!-- PostsModule&#45;&gt;PostsService  -->
<g id="edge21" class="edge">
<title>PostsModule&#45;&gt;PostsService </title>
<path fill="none" stroke="black" stroke-dasharray="5,2" d="M1324,-266.22C1324,-266.22 1324,-287.73 1324,-287.73"/>
<polygon fill="black" stroke="black" points="1320.5,-287.73 1324,-297.73 1327.5,-287.73 1320.5,-287.73"/>
</g>
<!-- TagsModule -->
<g id="node5" class="node">
<title>TagsModule</title>
<polygon fill="#8dd3c7" stroke="black" points="1650.26,-198 1647.26,-202 1626.26,-202 1623.26,-198 1563.74,-198 1563.74,-162 1650.26,-162 1650.26,-198"/>
<text text-anchor="middle" x="1607" y="-175.8" font-family="Times,serif" font-size="14.00">TagsModule</text>
</g>
<!-- TagsModule&#45;&gt;PostsModule -->
<g id="edge19" class="edge">
<title>TagsModule&#45;&gt;PostsModule</title>
<path fill="none" stroke="black" d="M1563.64,-180C1553.71,-180 1546,-180 1546,-180 1546,-180 1546,-254 1546,-254 1546,-254 1378.66,-254 1378.66,-254"/>
<polygon fill="black" stroke="black" points="1378.66,-250.5 1368.66,-254 1378.66,-257.5 1378.66,-250.5"/>
</g>
<!-- TagsModule&#45;&gt;AppModule -->
<g id="edge5" class="edge">
<title>TagsModule&#45;&gt;AppModule</title>
<path fill="none" stroke="black" d="M1595.23,-198.19C1595.23,-206.28 1595.23,-214 1595.23,-214 1595.23,-214 920.37,-214 920.37,-214 920.37,-214 920.37,-219.81 920.37,-219.81"/>
<polygon fill="black" stroke="black" points="916.87,-219.81 920.37,-229.81 923.87,-219.81 916.87,-219.81"/>
</g>
<!-- TagsService  -->
<g id="node20" class="node">
<title>TagsService </title>
<polygon fill="#fb8072" stroke="black" points="1656.19,-266 1567.81,-266 1567.81,-230 1656.19,-230 1656.19,-266"/>
<text text-anchor="middle" x="1612" y="-243.8" font-family="Times,serif" font-size="14.00">TagsService </text>
</g>
<!-- TagsModule&#45;&gt;TagsService  -->
<g id="edge23" class="edge">
<title>TagsModule&#45;&gt;TagsService </title>
<path fill="none" stroke="black" stroke-dasharray="5,2" d="M1622.81,-198.22C1622.81,-198.22 1622.81,-219.73 1622.81,-219.73"/>
<polygon fill="black" stroke="black" points="1619.31,-219.73 1622.81,-229.73 1626.31,-219.73 1619.31,-219.73"/>
</g>
<!-- UserModule -->
<g id="node6" class="node">
<title>UserModule</title>
<polygon fill="#8dd3c7" stroke="black" points="1245.98,-198 1242.98,-202 1221.98,-202 1218.98,-198 1160.02,-198 1160.02,-162 1245.98,-162 1245.98,-198"/>
<text text-anchor="middle" x="1203" y="-175.8" font-family="Times,serif" font-size="14.00">UserModule</text>
</g>
<!-- UserModule&#45;&gt;PostsModule -->
<g id="edge20" class="edge">
<title>UserModule&#45;&gt;PostsModule</title>
<path fill="none" stroke="black" d="M1203,-198.29C1203,-220.21 1203,-254 1203,-254 1203,-254 1269.29,-254 1269.29,-254"/>
<polygon fill="black" stroke="black" points="1269.29,-257.5 1279.29,-254 1269.29,-250.5 1269.29,-257.5"/>
</g>
<!-- UserModule&#45;&gt;AppModule -->
<g id="edge6" class="edge">
<title>UserModule&#45;&gt;AppModule</title>
<path fill="none" stroke="black" d="M1159.88,-186C1094.54,-186 977.97,-186 977.97,-186 977.97,-186 977.97,-248 977.97,-248 977.97,-248 963.78,-248 963.78,-248"/>
<polygon fill="black" stroke="black" points="963.78,-244.5 953.78,-248 963.78,-251.5 963.78,-244.5"/>
</g>
<!-- UserService  -->
<g id="node22" class="node">
<title>UserService </title>
<polygon fill="#fb8072" stroke="black" points="1527.9,-122 1440.1,-122 1440.1,-86 1527.9,-86 1527.9,-122"/>
<text text-anchor="middle" x="1484" y="-99.8" font-family="Times,serif" font-size="14.00">UserService </text>
</g>
<!-- UserModule&#45;&gt;UserService  -->
<g id="edge25" class="edge">
<title>UserModule&#45;&gt;UserService </title>
<path fill="none" stroke="black" stroke-dasharray="5,2" d="M1216.15,-161.88C1216.15,-147.22 1216.15,-129 1216.15,-129 1216.15,-129 1484,-129 1484,-129 1484,-129 1484,-128.32 1484,-128.32"/>
<polygon fill="black" stroke="black" points="1487.5,-132.17 1484,-122.17 1480.5,-132.17 1487.5,-132.17"/>
</g>
<!-- AppService -->
<g id="node8" class="node">
<title>AppService</title>
<ellipse fill="#fdb462" stroke="black" cx="901" cy="-180" rx="56.74" ry="18"/>
<text text-anchor="middle" x="901" y="-175.8" font-family="Times,serif" font-size="14.00">AppService</text>
</g>
<!-- AppService&#45;&gt;AppModule -->
<g id="edge7" class="edge">
<title>AppService&#45;&gt;AppModule</title>
<path fill="none" stroke="black" d="M886.9,-197.51C886.9,-197.51 886.9,-219.84 886.9,-219.84"/>
<polygon fill="black" stroke="black" points="883.4,-219.84 886.9,-229.84 890.4,-219.84 883.4,-219.84"/>
</g>
<!-- PaginationService -->
<g id="node9" class="node">
<title>PaginationService</title>
<ellipse fill="#fdb462" stroke="black" cx="745" cy="-180" rx="81.1" ry="18"/>
<text text-anchor="middle" x="745" y="-175.8" font-family="Times,serif" font-size="14.00">PaginationService</text>
</g>
<!-- PaginationService&#45;&gt;PaginationModule -->
<g id="edge17" class="edge">
<title>PaginationService&#45;&gt;PaginationModule</title>
<path fill="none" stroke="black" d="M818.95,-172.41C818.95,-165.38 818.95,-156 818.95,-156 818.95,-156 1324,-156 1324,-156 1324,-156 1324,-156.58 1324,-156.58"/>
<polygon fill="black" stroke="black" points="1320.5,-151.81 1324,-161.81 1327.5,-151.81 1320.5,-151.81"/>
</g>
<!-- PaginationService&#45;&gt;AppModule -->
<g id="edge8" class="edge">
<title>PaginationService&#45;&gt;AppModule</title>
<path fill="none" stroke="black" d="M745,-198.11C745,-217.34 745,-245 745,-245 745,-245 860.29,-245 860.29,-245"/>
<polygon fill="black" stroke="black" points="860.29,-248.5 870.29,-245 860.29,-241.5 860.29,-248.5"/>
</g>
<!-- AuthService -->
<g id="node12" class="node">
<title>AuthService</title>
<ellipse fill="#fdb462" stroke="black" cx="147" cy="-104" rx="59.11" ry="18"/>
<text text-anchor="middle" x="147" y="-99.8" font-family="Times,serif" font-size="14.00">AuthService</text>
</g>
<!-- AuthService&#45;&gt;AuthModule -->
<g id="edge11" class="edge">
<title>AuthService&#45;&gt;AuthModule</title>
<path fill="none" stroke="black" d="M193.95,-115.2C193.95,-126.4 193.95,-142 193.95,-142 193.95,-142 569.74,-142 569.74,-142 569.74,-142 569.74,-151.89 569.74,-151.89"/>
<polygon fill="black" stroke="black" points="566.24,-151.89 569.74,-161.89 573.24,-151.89 566.24,-151.89"/>
</g>
<!-- GenerateTokenProvider -->
<g id="node13" class="node">
<title>GenerateTokenProvider</title>
<ellipse fill="#fdb462" stroke="black" cx="544" cy="-104" rx="103.61" ry="18"/>
<text text-anchor="middle" x="544" y="-99.8" font-family="Times,serif" font-size="14.00">GenerateTokenProvider</text>
</g>
<!-- GenerateTokenProvider&#45;&gt;AuthModule -->
<g id="edge12" class="edge">
<title>GenerateTokenProvider&#45;&gt;AuthModule</title>
<path fill="none" stroke="black" d="M604.75,-118.65C604.75,-118.65 604.75,-151.9 604.75,-151.9"/>
<polygon fill="black" stroke="black" points="601.25,-151.9 604.75,-161.9 608.25,-151.9 601.25,-151.9"/>
</g>
<!-- RefreshTokenProvider -->
<g id="node14" class="node">
<title>RefreshTokenProvider</title>
<ellipse fill="#fdb462" stroke="black" cx="323" cy="-104" rx="98.98" ry="18"/>
<text text-anchor="middle" x="323" y="-99.8" font-family="Times,serif" font-size="14.00">RefreshTokenProvider</text>
</g>
<!-- RefreshTokenProvider&#45;&gt;AuthModule -->
<g id="edge13" class="edge">
<title>RefreshTokenProvider&#45;&gt;AuthModule</title>
<path fill="none" stroke="black" d="M411.83,-112.07C411.83,-121.55 411.83,-136 411.83,-136 411.83,-136 587.25,-136 587.25,-136 587.25,-136 587.25,-151.85 587.25,-151.85"/>
<polygon fill="black" stroke="black" points="583.75,-151.85 587.25,-161.85 590.75,-151.85 583.75,-151.85"/>
</g>
<!-- MetaOptionsService -->
<g id="node16" class="node">
<title>MetaOptionsService</title>
<ellipse fill="#fdb462" stroke="black" cx="272" cy="-248" rx="90.33" ry="18"/>
<text text-anchor="middle" x="272" y="-243.8" font-family="Times,serif" font-size="14.00">MetaOptionsService</text>
</g>
<!-- MetaOptionsService&#45;&gt;MetaOptionsModule -->
<g id="edge15" class="edge">
<title>MetaOptionsService&#45;&gt;MetaOptionsModule</title>
<path fill="none" stroke="black" d="M347.26,-238C394.26,-238 445.89,-238 445.89,-238 445.89,-238 445.89,-208.03 445.89,-208.03"/>
<polygon fill="black" stroke="black" points="449.39,-208.03 445.89,-198.03 442.39,-208.03 449.39,-208.03"/>
</g>
<!-- PostsService -->
<g id="node19" class="node">
<title>PostsService</title>
<ellipse fill="#fdb462" stroke="black" cx="1468" cy="-180" rx="60.27" ry="18"/>
<text text-anchor="middle" x="1468" y="-175.8" font-family="Times,serif" font-size="14.00">PostsService</text>
</g>
<!-- PostsService&#45;&gt;PostsModule -->
<g id="edge22" class="edge">
<title>PostsService&#45;&gt;PostsModule</title>
<path fill="none" stroke="black" d="M1468,-198.27C1468,-216.56 1468,-242 1468,-242 1468,-242 1378.77,-242 1378.77,-242"/>
<polygon fill="black" stroke="black" points="1378.77,-238.5 1368.77,-242 1378.77,-245.5 1378.77,-238.5"/>
</g>
<!-- TagsService -->
<g id="node21" class="node">
<title>TagsService</title>
<ellipse fill="#fdb462" stroke="black" cx="1627" cy="-104" rx="58.53" ry="18"/>
<text text-anchor="middle" x="1627" y="-99.8" font-family="Times,serif" font-size="14.00">TagsService</text>
</g>
<!-- TagsService&#45;&gt;TagsModule -->
<g id="edge24" class="edge">
<title>TagsService&#45;&gt;TagsModule</title>
<path fill="none" stroke="black" d="M1609.31,-121.25C1609.31,-121.25 1609.31,-151.76 1609.31,-151.76"/>
<polygon fill="black" stroke="black" points="1605.81,-151.76 1609.31,-161.76 1612.81,-151.76 1605.81,-151.76"/>
</g>
<!-- CreateUserProvider -->
<g id="node23" class="node">
<title>CreateUserProvider</title>
<ellipse fill="#fdb462" stroke="black" cx="1022" cy="-104" rx="87.94" ry="18"/>
<text text-anchor="middle" x="1022" y="-99.8" font-family="Times,serif" font-size="14.00">CreateUserProvider</text>
</g>
<!-- CreateUserProvider&#45;&gt;UserModule -->
<g id="edge26" class="edge">
<title>CreateUserProvider&#45;&gt;UserModule</title>
<path fill="none" stroke="black" d="M1054.02,-120.95C1054.02,-141.66 1054.02,-174 1054.02,-174 1054.02,-174 1149.91,-174 1149.91,-174"/>
<polygon fill="black" stroke="black" points="1149.91,-177.5 1159.91,-174 1149.91,-170.5 1149.91,-177.5"/>
</g>
<!-- UserCreateMany -->
<g id="node24" class="node">
<title>UserCreateMany</title>
<ellipse fill="#fdb462" stroke="black" cx="1339" cy="-104" rx="76.98" ry="18"/>
<text text-anchor="middle" x="1339" y="-99.8" font-family="Times,serif" font-size="14.00">UserCreateMany</text>
</g>
<!-- UserCreateMany&#45;&gt;UserModule -->
<g id="edge27" class="edge">
<title>UserCreateMany&#45;&gt;UserModule</title>
<path fill="none" stroke="black" d="M1261.84,-104C1256.99,-104 1254,-104 1254,-104 1254,-104 1254,-180 1254,-180 1254,-180 1253.2,-180 1253.2,-180"/>
<polygon fill="black" stroke="black" points="1256.03,-176.5 1246.03,-180 1256.03,-183.5 1256.03,-176.5"/>
</g>
<!-- UserService -->
<g id="node25" class="node">
<title>UserService</title>
<ellipse fill="#fdb462" stroke="black" cx="1186" cy="-104" rx="58.44" ry="18"/>
<text text-anchor="middle" x="1186" y="-99.8" font-family="Times,serif" font-size="14.00">UserService</text>
</g>
<!-- UserService&#45;&gt;UserModule -->
<g id="edge28" class="edge">
<title>UserService&#45;&gt;UserModule</title>
<path fill="none" stroke="black" d="M1188.08,-122.01C1188.08,-122.01 1188.08,-151.85 1188.08,-151.85"/>
<polygon fill="black" stroke="black" points="1184.58,-151.85 1188.08,-161.85 1191.58,-151.85 1184.58,-151.85"/>
</g>
</g>
</svg>
