<?xml version="1.0" encoding="UTF-8" standalone="no"?>
<!DOCTYPE svg PUBLIC "-//W3C//DTD SVG 1.1//EN"
 "http://www.w3.org/Graphics/SVG/1.1/DTD/svg11.dtd">
<!-- Generated by graphviz version 2.47.0 (20210316.0004)
 -->
<!-- Title: dependencies Pages: 1 -->
<svg width="1000pt" height="298pt"
 viewBox="0.00 0.00 1000.00 298.00" xmlns="http://www.w3.org/2000/svg" xmlns:xlink="http://www.w3.org/1999/xlink">
<g id="graph0" class="graph" transform="scale(1 1) rotate(0) translate(4 294)">
<title>dependencies</title>
<polygon fill="white" stroke="transparent" points="-4,4 -4,-294 996,-294 996,4 -4,4"/>
<text text-anchor="start" x="475.01" y="-42.4" font-family="Times-12" font-weight="bold" font-size="14.00">Legend</text>
<polygon fill="#ffffb3" stroke="transparent" points="262,-10 262,-30 282,-30 282,-10 262,-10"/>
<text text-anchor="start" x="285.63" y="-15.4" font-family="Times-12" font-size="14.00"> &#160;Declarations</text>
<polygon fill="#8dd3c7" stroke="transparent" points="375,-10 375,-30 395,-30 395,-10 375,-10"/>
<text text-anchor="start" x="398.73" y="-15.4" font-family="Times-12" font-size="14.00"> &#160;Module</text>
<polygon fill="#80b1d3" stroke="transparent" points="461,-10 461,-30 481,-30 481,-10 461,-10"/>
<text text-anchor="start" x="484.78" y="-15.4" font-family="Times-12" font-size="14.00"> &#160;Bootstrap</text>
<polygon fill="#fdb462" stroke="transparent" points="558,-10 558,-30 578,-30 578,-10 558,-10"/>
<text text-anchor="start" x="581.67" y="-15.4" font-family="Times-12" font-size="14.00"> &#160;Providers</text>
<polygon fill="#fb8072" stroke="transparent" points="654,-10 654,-30 674,-30 674,-10 654,-10"/>
<text text-anchor="start" x="677.73" y="-15.4" font-family="Times-12" font-size="14.00"> &#160;Exports</text>
<g id="clust7" class="cluster">
<title>cluster_AuthModule</title>
<polygon fill="none" stroke="black" stroke-dasharray="1,5" points="834,-70 834,-282 984,-282 984,-70 834,-70"/>
</g>
<g id="clust12" class="cluster">
<title>cluster_AuthModule_providers</title>
<polygon fill="none" stroke="black" points="842,-78 842,-130 976,-130 976,-78 842,-78"/>
</g>
<g id="clust10" class="cluster">
<title>cluster_AuthModule_exports</title>
<polygon fill="none" stroke="black" points="849,-222 849,-274 955,-274 955,-222 849,-222"/>
</g>
<g id="clust1" class="cluster">
<title>cluster_AppModule</title>
<polygon fill="none" stroke="black" stroke-dasharray="1,5" points="284,-70 284,-274 558,-274 558,-70 284,-70"/>
</g>
<g id="clust6" class="cluster">
<title>cluster_AppModule_providers</title>
<polygon fill="none" stroke="black" points="420,-146 420,-198 550,-198 550,-146 420,-146"/>
</g>
<g id="clust3" class="cluster">
<title>cluster_AppModule_imports</title>
<polygon fill="none" stroke="black" points="292,-78 292,-198 398,-198 398,-78 292,-78"/>
</g>
<g id="clust13" class="cluster">
<title>cluster_PostsModule</title>
<polygon fill="none" stroke="black" stroke-dasharray="1,5" points="8,-214 8,-282 276,-282 276,-214 8,-214"/>
</g>
<g id="clust16" class="cluster">
<title>cluster_PostsModule_exports</title>
<polygon fill="none" stroke="black" points="160,-222 160,-274 268,-274 268,-222 160,-222"/>
</g>
<g id="clust18" class="cluster">
<title>cluster_PostsModule_providers</title>
<polygon fill="none" stroke="black" points="16,-222 16,-274 152,-274 152,-222 16,-222"/>
</g>
<g id="clust19" class="cluster">
<title>cluster_UserModule</title>
<polygon fill="none" stroke="black" stroke-dasharray="1,5" points="566,-138 566,-206 826,-206 826,-138 566,-138"/>
</g>
<g id="clust24" class="cluster">
<title>cluster_UserModule_providers</title>
<polygon fill="none" stroke="black" points="686,-146 686,-198 818,-198 818,-146 686,-146"/>
</g>
<g id="clust22" class="cluster">
<title>cluster_UserModule_exports</title>
<polygon fill="none" stroke="black" points="574,-146 574,-198 678,-198 678,-146 574,-146"/>
</g>
<!-- AuthModule -->
<g id="node1" class="node">
<title>AuthModule</title>
<polygon fill="#8dd3c7" stroke="black" points="945.55,-190 942.55,-194 921.55,-194 918.55,-190 858.45,-190 858.45,-154 945.55,-154 945.55,-190"/>
<text text-anchor="middle" x="902" y="-167.8" font-family="Times,serif" font-size="14.00">AuthModule</text>
</g>
<!-- AppModule -->
<g id="node4" class="node">
<title>AppModule</title>
<polygon fill="#8dd3c7" stroke="black" points="488.66,-266 485.66,-270 464.66,-270 461.66,-266 405.34,-266 405.34,-230 488.66,-230 488.66,-266"/>
<text text-anchor="middle" x="447" y="-243.8" font-family="Times,serif" font-size="14.00">AppModule</text>
</g>
<!-- AuthModule&#45;&gt;AppModule -->
<g id="edge1" class="edge">
<title>AuthModule&#45;&gt;AppModule</title>
<path fill="none" stroke="black" d="M858.31,-172C855.33,-172 853.48,-172 853.48,-172 853.48,-172 853.48,-248 853.48,-248 853.48,-248 498.97,-248 498.97,-248"/>
<polygon fill="black" stroke="black" points="498.97,-244.5 488.97,-248 498.97,-251.5 498.97,-244.5"/>
</g>
<!-- AuthService  -->
<g id="node6" class="node">
<title>AuthService </title>
<polygon fill="#fb8072" stroke="black" points="946.98,-266 857.02,-266 857.02,-230 946.98,-230 946.98,-266"/>
<text text-anchor="middle" x="902" y="-243.8" font-family="Times,serif" font-size="14.00">AuthService </text>
</g>
<!-- AuthModule&#45;&gt;AuthService  -->
<g id="edge5" class="edge">
<title>AuthModule&#45;&gt;AuthService </title>
<path fill="none" stroke="black" stroke-dasharray="5,2" d="M902,-190.01C902,-190.01 902,-219.85 902,-219.85"/>
<polygon fill="black" stroke="black" points="898.5,-219.85 902,-229.85 905.5,-219.85 898.5,-219.85"/>
</g>
<!-- PostsModule -->
<g id="node2" class="node">
<title>PostsModule</title>
<polygon fill="#8dd3c7" stroke="black" points="389.61,-190 386.61,-194 365.61,-194 362.61,-190 300.39,-190 300.39,-154 389.61,-154 389.61,-190"/>
<text text-anchor="middle" x="345" y="-167.8" font-family="Times,serif" font-size="14.00">PostsModule</text>
</g>
<!-- PostsModule&#45;&gt;AppModule -->
<g id="edge2" class="edge">
<title>PostsModule&#45;&gt;AppModule</title>
<path fill="none" stroke="black" d="M389.92,-172C402.55,-172 412.91,-172 412.91,-172 412.91,-172 412.91,-219.99 412.91,-219.99"/>
<polygon fill="black" stroke="black" points="409.41,-219.99 412.91,-229.99 416.41,-219.99 409.41,-219.99"/>
</g>
<!-- PostsService  -->
<g id="node8" class="node">
<title>PostsService </title>
<polygon fill="#fb8072" stroke="black" points="259.54,-266 168.46,-266 168.46,-230 259.54,-230 259.54,-266"/>
<text text-anchor="middle" x="214" y="-243.8" font-family="Times,serif" font-size="14.00">PostsService </text>
</g>
<!-- PostsModule&#45;&gt;PostsService  -->
<g id="edge8" class="edge">
<title>PostsModule&#45;&gt;PostsService </title>
<path fill="none" stroke="black" stroke-dasharray="5,2" d="M345,-190.01C345,-212.49 345,-248 345,-248 345,-248 269.82,-248 269.82,-248"/>
<polygon fill="black" stroke="black" points="269.82,-244.5 259.82,-248 269.82,-251.5 269.82,-244.5"/>
</g>
<!-- UserModule -->
<g id="node3" class="node">
<title>UserModule</title>
<polygon fill="#8dd3c7" stroke="black" points="389.98,-122 386.98,-126 365.98,-126 362.98,-122 304.02,-122 304.02,-86 389.98,-86 389.98,-122"/>
<text text-anchor="middle" x="347" y="-99.8" font-family="Times,serif" font-size="14.00">UserModule</text>
</g>
<!-- UserModule&#45;&gt;PostsModule -->
<g id="edge7" class="edge">
<title>UserModule&#45;&gt;PostsModule</title>
<path fill="none" stroke="black" d="M346.78,-122.22C346.78,-122.22 346.78,-143.73 346.78,-143.73"/>
<polygon fill="black" stroke="black" points="343.28,-143.73 346.78,-153.73 350.28,-143.73 343.28,-143.73"/>
</g>
<!-- UserModule&#45;&gt;AppModule -->
<g id="edge3" class="edge">
<title>UserModule&#45;&gt;AppModule</title>
<path fill="none" stroke="black" d="M390.26,-113C406.3,-113 420.64,-113 420.64,-113 420.64,-113 420.64,-219.79 420.64,-219.79"/>
<polygon fill="black" stroke="black" points="417.14,-219.79 420.64,-229.79 424.14,-219.79 417.14,-219.79"/>
</g>
<!-- UserService  -->
<g id="node10" class="node">
<title>UserService </title>
<polygon fill="#fb8072" stroke="black" points="669.9,-190 582.1,-190 582.1,-154 669.9,-154 669.9,-190"/>
<text text-anchor="middle" x="626" y="-167.8" font-family="Times,serif" font-size="14.00">UserService </text>
</g>
<!-- UserModule&#45;&gt;UserService  -->
<g id="edge10" class="edge">
<title>UserModule&#45;&gt;UserService </title>
<path fill="none" stroke="black" stroke-dasharray="5,2" d="M389.98,-104C468.24,-104 626,-104 626,-104 626,-104 626,-143.78 626,-143.78"/>
<polygon fill="black" stroke="black" points="622.5,-143.78 626,-153.78 629.5,-143.78 622.5,-143.78"/>
</g>
<!-- AppService -->
<g id="node5" class="node">
<title>AppService</title>
<ellipse fill="#fdb462" stroke="black" cx="485" cy="-172" rx="56.74" ry="18"/>
<text text-anchor="middle" x="485" y="-167.8" font-family="Times,serif" font-size="14.00">AppService</text>
</g>
<!-- AppService&#45;&gt;AppModule -->
<g id="edge4" class="edge">
<title>AppService&#45;&gt;AppModule</title>
<path fill="none" stroke="black" d="M458.6,-188.12C458.6,-188.12 458.6,-219.77 458.6,-219.77"/>
<polygon fill="black" stroke="black" points="455.1,-219.77 458.6,-229.77 462.1,-219.77 455.1,-219.77"/>
</g>
<!-- AuthService -->
<g id="node7" class="node">
<title>AuthService</title>
<ellipse fill="#fdb462" stroke="black" cx="909" cy="-104" rx="59.11" ry="18"/>
<text text-anchor="middle" x="909" y="-99.8" font-family="Times,serif" font-size="14.00">AuthService</text>
</g>
<!-- AuthService&#45;&gt;AuthModule -->
<g id="edge6" class="edge">
<title>AuthService&#45;&gt;AuthModule</title>
<path fill="none" stroke="black" d="M902,-122.22C902,-122.22 902,-143.73 902,-143.73"/>
<polygon fill="black" stroke="black" points="898.5,-143.73 902,-153.73 905.5,-143.73 898.5,-143.73"/>
</g>
<!-- PostsService -->
<g id="node9" class="node">
<title>PostsService</title>
<ellipse fill="#fdb462" stroke="black" cx="84" cy="-248" rx="60.27" ry="18"/>
<text text-anchor="middle" x="84" y="-243.8" font-family="Times,serif" font-size="14.00">PostsService</text>
</g>
<!-- PostsService&#45;&gt;PostsModule -->
<g id="edge9" class="edge">
<title>PostsService&#45;&gt;PostsModule</title>
<path fill="none" stroke="black" d="M84,-229.99C84,-207.51 84,-172 84,-172 84,-172 290.43,-172 290.43,-172"/>
<polygon fill="black" stroke="black" points="290.43,-175.5 300.43,-172 290.43,-168.5 290.43,-175.5"/>
</g>
<!-- UserService -->
<g id="node11" class="node">
<title>UserService</title>
<ellipse fill="#fdb462" stroke="black" cx="752" cy="-172" rx="58.44" ry="18"/>
<text text-anchor="middle" x="752" y="-167.8" font-family="Times,serif" font-size="14.00">UserService</text>
</g>
<!-- UserService&#45;&gt;UserModule -->
<g id="edge11" class="edge">
<title>UserService&#45;&gt;UserModule</title>
<path fill="none" stroke="black" d="M752,-153.75C752,-130.98 752,-95 752,-95 752,-95 400.34,-95 400.34,-95"/>
<polygon fill="black" stroke="black" points="400.34,-91.5 390.34,-95 400.34,-98.5 400.34,-91.5"/>
</g>
</g>
</svg>
