<?xml version="1.0" encoding="UTF-8" standalone="no"?>
<!DOCTYPE svg PUBLIC "-//W3C//DTD SVG 1.1//EN"
 "http://www.w3.org/Graphics/SVG/1.1/DTD/svg11.dtd">
<!-- Generated by graphviz version 2.47.0 (20210316.0004)
 -->
<!-- Title: dependencies Pages: 1 -->
<svg width="1578pt" height="374pt"
 viewBox="0.00 0.00 1578.00 374.00" xmlns="http://www.w3.org/2000/svg" xmlns:xlink="http://www.w3.org/1999/xlink">
<g id="graph0" class="graph" transform="scale(1 1) rotate(0) translate(4 370)">
<title>dependencies</title>
<polygon fill="white" stroke="transparent" points="-4,4 -4,-370 1574,-370 1574,4 -4,4"/>
<text text-anchor="start" x="764.01" y="-42.4" font-family="Times-12" font-weight="bold" font-size="14.00">Legend</text>
<polygon fill="#ffffb3" stroke="transparent" points="551,-10 551,-30 571,-30 571,-10 551,-10"/>
<text text-anchor="start" x="574.63" y="-15.4" font-family="Times-12" font-size="14.00"> &#160;Declarations</text>
<polygon fill="#8dd3c7" stroke="transparent" points="664,-10 664,-30 684,-30 684,-10 664,-10"/>
<text text-anchor="start" x="687.73" y="-15.4" font-family="Times-12" font-size="14.00"> &#160;Module</text>
<polygon fill="#80b1d3" stroke="transparent" points="750,-10 750,-30 770,-30 770,-10 750,-10"/>
<text text-anchor="start" x="773.78" y="-15.4" font-family="Times-12" font-size="14.00"> &#160;Bootstrap</text>
<polygon fill="#fdb462" stroke="transparent" points="847,-10 847,-30 867,-30 867,-10 847,-10"/>
<text text-anchor="start" x="870.67" y="-15.4" font-family="Times-12" font-size="14.00"> &#160;Providers</text>
<polygon fill="#fb8072" stroke="transparent" points="943,-10 943,-30 963,-30 963,-10 943,-10"/>
<text text-anchor="start" x="966.73" y="-15.4" font-family="Times-12" font-size="14.00"> &#160;Exports</text>
<g id="clust13" class="cluster">
<title>cluster_MetaOptionsModule</title>
<polygon fill="none" stroke="black" stroke-dasharray="1,5" points="8,-146 8,-358 220,-358 220,-146 8,-146"/>
</g>
<g id="clust18" class="cluster">
<title>cluster_MetaOptionsModule_providers</title>
<polygon fill="none" stroke="black" points="16,-154 16,-206 212,-206 212,-154 16,-154"/>
</g>
<g id="clust16" class="cluster">
<title>cluster_MetaOptionsModule_exports</title>
<polygon fill="none" stroke="black" points="50,-298 50,-350 200,-350 200,-298 50,-298"/>
</g>
<g id="clust1" class="cluster">
<title>cluster_AppModule</title>
<polygon fill="none" stroke="black" stroke-dasharray="1,5" points="228,-70 228,-350 726,-350 726,-70 228,-70"/>
</g>
<g id="clust3" class="cluster">
<title>cluster_AppModule_imports</title>
<polygon fill="none" stroke="black" points="268,-154 268,-274 718,-274 718,-154 268,-154"/>
</g>
<g id="clust6" class="cluster">
<title>cluster_AppModule_providers</title>
<polygon fill="none" stroke="black" points="236,-78 236,-130 546,-130 546,-78 236,-78"/>
</g>
<g id="clust7" class="cluster">
<title>cluster_AuthModule</title>
<polygon fill="none" stroke="black" stroke-dasharray="1,5" points="734,-214 734,-282 1130,-282 1130,-214 734,-214"/>
</g>
<g id="clust12" class="cluster">
<title>cluster_AuthModule_providers</title>
<polygon fill="none" stroke="black" points="988,-222 988,-274 1122,-274 1122,-222 988,-222"/>
</g>
<g id="clust10" class="cluster">
<title>cluster_AuthModule_exports</title>
<polygon fill="none" stroke="black" points="742,-222 742,-274 980,-274 980,-222 742,-222"/>
</g>
<g id="clust25" class="cluster">
<title>cluster_PostsModule</title>
<polygon fill="none" stroke="black" stroke-dasharray="1,5" points="734,-290 734,-358 1002,-358 1002,-290 734,-290"/>
</g>
<g id="clust28" class="cluster">
<title>cluster_PostsModule_exports</title>
<polygon fill="none" stroke="black" points="886,-298 886,-350 994,-350 994,-298 886,-298"/>
</g>
<g id="clust30" class="cluster">
<title>cluster_PostsModule_providers</title>
<polygon fill="none" stroke="black" points="742,-298 742,-350 878,-350 878,-298 742,-298"/>
</g>
<g id="clust19" class="cluster">
<title>cluster_PaginationModule</title>
<polygon fill="none" stroke="black" stroke-dasharray="1,5" points="1138,-214 1138,-282 1292,-282 1292,-214 1138,-214"/>
</g>
<g id="clust22" class="cluster">
<title>cluster_PaginationModule_exports</title>
<polygon fill="none" stroke="black" points="1146,-222 1146,-274 1284,-274 1284,-222 1146,-222"/>
</g>
<g id="clust37" class="cluster">
<title>cluster_UserModule</title>
<polygon fill="none" stroke="black" stroke-dasharray="1,5" points="734,-70 734,-138 1166,-138 1166,-70 734,-70"/>
</g>
<g id="clust40" class="cluster">
<title>cluster_UserModule_exports</title>
<polygon fill="none" stroke="black" points="1054,-78 1054,-130 1158,-130 1158,-78 1054,-78"/>
</g>
<g id="clust42" class="cluster">
<title>cluster_UserModule_providers</title>
<polygon fill="none" stroke="black" points="742,-78 742,-130 1046,-130 1046,-78 742,-78"/>
</g>
<g id="clust31" class="cluster">
<title>cluster_TagsModule</title>
<polygon fill="none" stroke="black" stroke-dasharray="1,5" points="1300,-214 1300,-282 1562,-282 1562,-214 1300,-214"/>
</g>
<g id="clust34" class="cluster">
<title>cluster_TagsModule_exports</title>
<polygon fill="none" stroke="black" points="1450,-222 1450,-274 1554,-274 1554,-222 1450,-222"/>
</g>
<g id="clust36" class="cluster">
<title>cluster_TagsModule_providers</title>
<polygon fill="none" stroke="black" points="1308,-222 1308,-274 1442,-274 1442,-222 1308,-222"/>
</g>
<!-- AuthModule -->
<g id="node1" class="node">
<title>AuthModule</title>
<polygon fill="#8dd3c7" stroke="black" points="605.55,-198 602.55,-202 581.55,-202 578.55,-198 518.45,-198 518.45,-162 605.55,-162 605.55,-198"/>
<text text-anchor="middle" x="562" y="-175.8" font-family="Times,serif" font-size="14.00">AuthModule</text>
</g>
<!-- AppModule -->
<g id="node7" class="node">
<title>AppModule</title>
<polygon fill="#8dd3c7" stroke="black" points="398.66,-342 395.66,-346 374.66,-346 371.66,-342 315.34,-342 315.34,-306 398.66,-306 398.66,-342"/>
<text text-anchor="middle" x="357" y="-319.8" font-family="Times,serif" font-size="14.00">AppModule</text>
</g>
<!-- AuthModule&#45;&gt;AppModule -->
<g id="edge1" class="edge">
<title>AuthModule&#45;&gt;AppModule</title>
<path fill="none" stroke="black" d="M588.26,-198.24C588.26,-236.99 588.26,-324 588.26,-324 588.26,-324 408.88,-324 408.88,-324"/>
<polygon fill="black" stroke="black" points="408.88,-320.5 398.88,-324 408.88,-327.5 408.88,-320.5"/>
</g>
<!-- AuthService  -->
<g id="node10" class="node">
<title>AuthService </title>
<polygon fill="#fb8072" stroke="black" points="971.98,-266 882.02,-266 882.02,-230 971.98,-230 971.98,-266"/>
<text text-anchor="middle" x="927" y="-243.8" font-family="Times,serif" font-size="14.00">AuthService </text>
</g>
<!-- AuthModule&#45;&gt;AuthService  -->
<g id="edge9" class="edge">
<title>AuthModule&#45;&gt;AuthService </title>
<path fill="none" stroke="black" stroke-dasharray="5,2" d="M570.75,-198.11C570.75,-207.9 570.75,-218 570.75,-218 570.75,-218 942.49,-218 942.49,-218 942.49,-218 942.49,-219.86 942.49,-219.86"/>
<polygon fill="black" stroke="black" points="938.99,-219.86 942.49,-229.86 945.99,-219.86 938.99,-219.86"/>
</g>
<!-- HashingProvider  -->
<g id="node11" class="node">
<title>HashingProvider </title>
<polygon fill="#fb8072" stroke="black" points="864.37,-266 749.63,-266 749.63,-230 864.37,-230 864.37,-266"/>
<text text-anchor="middle" x="807" y="-243.8" font-family="Times,serif" font-size="14.00">HashingProvider </text>
</g>
<!-- AuthModule&#45;&gt;HashingProvider  -->
<g id="edge10" class="edge">
<title>AuthModule&#45;&gt;HashingProvider </title>
<path fill="none" stroke="black" stroke-dasharray="5,2" d="M553.25,-198.15C553.25,-210.27 553.25,-224 553.25,-224 553.25,-224 826.06,-224 826.06,-224 826.06,-224 826.06,-224.58 826.06,-224.58"/>
<polygon fill="black" stroke="black" points="822.56,-219.81 826.06,-229.81 829.56,-219.81 822.56,-219.81"/>
</g>
<!-- MetaOptionsModule -->
<g id="node2" class="node">
<title>MetaOptionsModule</title>
<polygon fill="#8dd3c7" stroke="black" points="191.15,-266 188.15,-270 167.15,-270 164.15,-266 58.85,-266 58.85,-230 191.15,-230 191.15,-266"/>
<text text-anchor="middle" x="125" y="-243.8" font-family="Times,serif" font-size="14.00">MetaOptionsModule</text>
</g>
<!-- MetaOptionsModule&#45;&gt;AppModule -->
<g id="edge2" class="edge">
<title>MetaOptionsModule&#45;&gt;AppModule</title>
<path fill="none" stroke="black" d="M191.29,-252C255.11,-252 342.02,-252 342.02,-252 342.02,-252 342.02,-295.83 342.02,-295.83"/>
<polygon fill="black" stroke="black" points="338.52,-295.83 342.02,-305.83 345.52,-295.83 338.52,-295.83"/>
</g>
<!-- MetaOptionsService  -->
<g id="node13" class="node">
<title>MetaOptionsService </title>
<polygon fill="#fb8072" stroke="black" points="192.08,-342 57.92,-342 57.92,-306 192.08,-306 192.08,-342"/>
<text text-anchor="middle" x="125" y="-319.8" font-family="Times,serif" font-size="14.00">MetaOptionsService </text>
</g>
<!-- MetaOptionsModule&#45;&gt;MetaOptionsService  -->
<g id="edge12" class="edge">
<title>MetaOptionsModule&#45;&gt;MetaOptionsService </title>
<path fill="none" stroke="black" stroke-dasharray="5,2" d="M125,-266.01C125,-266.01 125,-295.85 125,-295.85"/>
<polygon fill="black" stroke="black" points="121.5,-295.85 125,-305.85 128.5,-295.85 121.5,-295.85"/>
</g>
<!-- PaginationModule -->
<g id="node3" class="node">
<title>PaginationModule</title>
<polygon fill="#8dd3c7" stroke="black" points="395.93,-198 392.93,-202 371.93,-202 368.93,-198 276.07,-198 276.07,-162 395.93,-162 395.93,-198"/>
<text text-anchor="middle" x="336" y="-175.8" font-family="Times,serif" font-size="14.00">PaginationModule</text>
</g>
<!-- PostsModule -->
<g id="node4" class="node">
<title>PostsModule</title>
<polygon fill="#8dd3c7" stroke="black" points="698.61,-266 695.61,-270 674.61,-270 671.61,-266 609.39,-266 609.39,-230 698.61,-230 698.61,-266"/>
<text text-anchor="middle" x="654" y="-243.8" font-family="Times,serif" font-size="14.00">PostsModule</text>
</g>
<!-- PaginationModule&#45;&gt;PostsModule -->
<g id="edge16" class="edge">
<title>PaginationModule&#45;&gt;PostsModule</title>
<path fill="none" stroke="black" d="M368.87,-198.11C368.87,-217.34 368.87,-245 368.87,-245 368.87,-245 599.13,-245 599.13,-245"/>
<polygon fill="black" stroke="black" points="599.13,-248.5 609.13,-245 599.13,-241.5 599.13,-248.5"/>
</g>
<!-- PaginationModule&#45;&gt;AppModule -->
<g id="edge3" class="edge">
<title>PaginationModule&#45;&gt;AppModule</title>
<path fill="none" stroke="black" d="M355.44,-198.24C355.44,-198.24 355.44,-295.91 355.44,-295.91"/>
<polygon fill="black" stroke="black" points="351.94,-295.91 355.44,-305.91 358.94,-295.91 351.94,-295.91"/>
</g>
<!-- PaginationService  -->
<g id="node15" class="node">
<title>PaginationService </title>
<polygon fill="#fb8072" stroke="black" points="1275.86,-266 1154.14,-266 1154.14,-230 1275.86,-230 1275.86,-266"/>
<text text-anchor="middle" x="1215" y="-243.8" font-family="Times,serif" font-size="14.00">PaginationService </text>
</g>
<!-- PaginationModule&#45;&gt;PaginationService  -->
<g id="edge14" class="edge">
<title>PaginationModule&#45;&gt;PaginationService </title>
<path fill="none" stroke="black" stroke-dasharray="5,2" d="M328.6,-198.17C328.6,-202.05 328.6,-205 328.6,-205 328.6,-205 1215,-205 1215,-205 1215,-205 1215,-219.51 1215,-219.51"/>
<polygon fill="black" stroke="black" points="1211.5,-219.51 1215,-229.51 1218.5,-219.51 1211.5,-219.51"/>
</g>
<!-- PostsModule&#45;&gt;AppModule -->
<g id="edge4" class="edge">
<title>PostsModule&#45;&gt;AppModule</title>
<path fill="none" stroke="black" d="M609.44,-259C532.35,-259 382.29,-259 382.29,-259 382.29,-259 382.29,-295.89 382.29,-295.89"/>
<polygon fill="black" stroke="black" points="378.79,-295.89 382.29,-305.89 385.79,-295.89 378.79,-295.89"/>
</g>
<!-- PostsService  -->
<g id="node16" class="node">
<title>PostsService </title>
<polygon fill="#fb8072" stroke="black" points="985.54,-342 894.46,-342 894.46,-306 985.54,-306 985.54,-342"/>
<text text-anchor="middle" x="940" y="-319.8" font-family="Times,serif" font-size="14.00">PostsService </text>
</g>
<!-- PostsModule&#45;&gt;PostsService  -->
<g id="edge19" class="edge">
<title>PostsModule&#45;&gt;PostsService </title>
<path fill="none" stroke="black" stroke-dasharray="5,2" d="M639.15,-266.11C639.15,-275.9 639.15,-286 639.15,-286 639.15,-286 933.11,-286 933.11,-286 933.11,-286 933.11,-295.89 933.11,-295.89"/>
<polygon fill="black" stroke="black" points="929.61,-295.89 933.11,-305.89 936.61,-295.89 929.61,-295.89"/>
</g>
<!-- TagsModule -->
<g id="node5" class="node">
<title>TagsModule</title>
<polygon fill="#8dd3c7" stroke="black" points="710.26,-198 707.26,-202 686.26,-202 683.26,-198 623.74,-198 623.74,-162 710.26,-162 710.26,-198"/>
<text text-anchor="middle" x="667" y="-175.8" font-family="Times,serif" font-size="14.00">TagsModule</text>
</g>
<!-- TagsModule&#45;&gt;PostsModule -->
<g id="edge17" class="edge">
<title>TagsModule&#45;&gt;PostsModule</title>
<path fill="none" stroke="black" d="M661.09,-198.22C661.09,-198.22 661.09,-219.73 661.09,-219.73"/>
<polygon fill="black" stroke="black" points="657.59,-219.73 661.09,-229.73 664.59,-219.73 657.59,-219.73"/>
</g>
<!-- TagsModule&#45;&gt;AppModule -->
<g id="edge5" class="edge">
<title>TagsModule&#45;&gt;AppModule</title>
<path fill="none" stroke="black" d="M704.47,-198.09C704.47,-237.99 704.47,-330 704.47,-330 704.47,-330 408.91,-330 408.91,-330"/>
<polygon fill="black" stroke="black" points="408.91,-326.5 398.91,-330 408.91,-333.5 408.91,-326.5"/>
</g>
<!-- TagsService  -->
<g id="node18" class="node">
<title>TagsService </title>
<polygon fill="#fb8072" stroke="black" points="1546.19,-266 1457.81,-266 1457.81,-230 1546.19,-230 1546.19,-266"/>
<text text-anchor="middle" x="1502" y="-243.8" font-family="Times,serif" font-size="14.00">TagsService </text>
</g>
<!-- TagsModule&#45;&gt;TagsService  -->
<g id="edge21" class="edge">
<title>TagsModule&#45;&gt;TagsService </title>
<path fill="none" stroke="black" stroke-dasharray="5,2" d="M710.43,-174C881.82,-174 1502,-174 1502,-174 1502,-174 1502,-219.71 1502,-219.71"/>
<polygon fill="black" stroke="black" points="1498.5,-219.71 1502,-229.71 1505.5,-219.71 1498.5,-219.71"/>
</g>
<!-- UserModule -->
<g id="node6" class="node">
<title>UserModule</title>
<polygon fill="#8dd3c7" stroke="black" points="499.98,-198 496.98,-202 475.98,-202 472.98,-198 414.02,-198 414.02,-162 499.98,-162 499.98,-198"/>
<text text-anchor="middle" x="457" y="-175.8" font-family="Times,serif" font-size="14.00">UserModule</text>
</g>
<!-- UserModule&#45;&gt;PostsModule -->
<g id="edge18" class="edge">
<title>UserModule&#45;&gt;PostsModule</title>
<path fill="none" stroke="black" d="M471.33,-198.03C471.33,-215.06 471.33,-238 471.33,-238 471.33,-238 599.31,-238 599.31,-238"/>
<polygon fill="black" stroke="black" points="599.31,-241.5 609.31,-238 599.31,-234.5 599.31,-241.5"/>
</g>
<!-- UserModule&#45;&gt;AppModule -->
<g id="edge6" class="edge">
<title>UserModule&#45;&gt;AppModule</title>
<path fill="none" stroke="black" d="M442.67,-198.04C442.67,-235.45 442.67,-318 442.67,-318 442.67,-318 408.83,-318 408.83,-318"/>
<polygon fill="black" stroke="black" points="408.83,-314.5 398.83,-318 408.83,-321.5 408.83,-314.5"/>
</g>
<!-- UserService  -->
<g id="node20" class="node">
<title>UserService </title>
<polygon fill="#fb8072" stroke="black" points="1149.9,-122 1062.1,-122 1062.1,-86 1149.9,-86 1149.9,-122"/>
<text text-anchor="middle" x="1106" y="-99.8" font-family="Times,serif" font-size="14.00">UserService </text>
</g>
<!-- UserModule&#45;&gt;UserService  -->
<g id="edge23" class="edge">
<title>UserModule&#45;&gt;UserService </title>
<path fill="none" stroke="black" stroke-dasharray="5,2" d="M435.51,-161.79C435.51,-156.45 435.51,-152 435.51,-152 435.51,-152 1088.18,-152 1088.18,-152 1088.18,-152 1088.18,-132.15 1088.18,-132.15"/>
<polygon fill="black" stroke="black" points="1091.68,-132.15 1088.18,-122.15 1084.68,-132.15 1091.68,-132.15"/>
</g>
<!-- AppService -->
<g id="node8" class="node">
<title>AppService</title>
<ellipse fill="#fdb462" stroke="black" cx="301" cy="-104" rx="56.74" ry="18"/>
<text text-anchor="middle" x="301" y="-99.8" font-family="Times,serif" font-size="14.00">AppService</text>
</g>
<!-- AppService&#45;&gt;AppModule -->
<g id="edge7" class="edge">
<title>AppService&#45;&gt;AppModule</title>
<path fill="none" stroke="black" d="M260.33,-116.78C260.33,-163.73 260.33,-324 260.33,-324 260.33,-324 305.16,-324 305.16,-324"/>
<polygon fill="black" stroke="black" points="305.16,-327.5 315.16,-324 305.16,-320.5 305.16,-327.5"/>
</g>
<!-- PaginationService -->
<g id="node9" class="node">
<title>PaginationService</title>
<ellipse fill="#fdb462" stroke="black" cx="457" cy="-104" rx="81.1" ry="18"/>
<text text-anchor="middle" x="457" y="-99.8" font-family="Times,serif" font-size="14.00">PaginationService</text>
</g>
<!-- PaginationService&#45;&gt;PaginationModule -->
<g id="edge15" class="edge">
<title>PaginationService&#45;&gt;PaginationModule</title>
<path fill="none" stroke="black" d="M385.71,-112.72C385.71,-112.72 385.71,-151.88 385.71,-151.88"/>
<polygon fill="black" stroke="black" points="382.21,-151.88 385.71,-161.88 389.21,-151.88 382.21,-151.88"/>
</g>
<!-- PaginationService&#45;&gt;AppModule -->
<g id="edge8" class="edge">
<title>PaginationService&#45;&gt;AppModule</title>
<path fill="none" stroke="black" d="M406.42,-118.3C406.42,-165.29 406.42,-312 406.42,-312 406.42,-312 405.65,-312 405.65,-312"/>
<polygon fill="black" stroke="black" points="408.7,-308.5 398.7,-312 408.7,-315.5 408.7,-308.5"/>
</g>
<!-- AuthService -->
<g id="node12" class="node">
<title>AuthService</title>
<ellipse fill="#fdb462" stroke="black" cx="1055" cy="-248" rx="59.11" ry="18"/>
<text text-anchor="middle" x="1055" y="-243.8" font-family="Times,serif" font-size="14.00">AuthService</text>
</g>
<!-- AuthService&#45;&gt;AuthModule -->
<g id="edge11" class="edge">
<title>AuthService&#45;&gt;AuthModule</title>
<path fill="none" stroke="black" d="M1016.84,-233.8C1016.84,-223.37 1016.84,-211 1016.84,-211 1016.84,-211 535.74,-211 535.74,-211 535.74,-211 535.74,-208.03 535.74,-208.03"/>
<polygon fill="black" stroke="black" points="539.24,-208.03 535.74,-198.03 532.24,-208.03 539.24,-208.03"/>
</g>
<!-- MetaOptionsService -->
<g id="node14" class="node">
<title>MetaOptionsService</title>
<ellipse fill="#fdb462" stroke="black" cx="114" cy="-180" rx="90.33" ry="18"/>
<text text-anchor="middle" x="114" y="-175.8" font-family="Times,serif" font-size="14.00">MetaOptionsService</text>
</g>
<!-- MetaOptionsService&#45;&gt;MetaOptionsModule -->
<g id="edge13" class="edge">
<title>MetaOptionsService&#45;&gt;MetaOptionsModule</title>
<path fill="none" stroke="black" d="M125,-198.22C125,-198.22 125,-219.73 125,-219.73"/>
<polygon fill="black" stroke="black" points="121.5,-219.73 125,-229.73 128.5,-219.73 121.5,-219.73"/>
</g>
<!-- PostsService -->
<g id="node17" class="node">
<title>PostsService</title>
<ellipse fill="#fdb462" stroke="black" cx="810" cy="-324" rx="60.27" ry="18"/>
<text text-anchor="middle" x="810" y="-319.8" font-family="Times,serif" font-size="14.00">PostsService</text>
</g>
<!-- PostsService&#45;&gt;PostsModule -->
<g id="edge20" class="edge">
<title>PostsService&#45;&gt;PostsModule</title>
<path fill="none" stroke="black" d="M764.95,-336C723.64,-336 668.85,-336 668.85,-336 668.85,-336 668.85,-276.23 668.85,-276.23"/>
<polygon fill="black" stroke="black" points="672.35,-276.23 668.85,-266.23 665.35,-276.23 672.35,-276.23"/>
</g>
<!-- TagsService -->
<g id="node19" class="node">
<title>TagsService</title>
<ellipse fill="#fdb462" stroke="black" cx="1375" cy="-248" rx="58.53" ry="18"/>
<text text-anchor="middle" x="1375" y="-243.8" font-family="Times,serif" font-size="14.00">TagsService</text>
</g>
<!-- TagsService&#45;&gt;TagsModule -->
<g id="edge22" class="edge">
<title>TagsService&#45;&gt;TagsModule</title>
<path fill="none" stroke="black" d="M1375,-229.73C1375,-211.44 1375,-186 1375,-186 1375,-186 720.49,-186 720.49,-186"/>
<polygon fill="black" stroke="black" points="720.49,-182.5 710.49,-186 720.49,-189.5 720.49,-182.5"/>
</g>
<!-- UserCreateMany -->
<g id="node21" class="node">
<title>UserCreateMany</title>
<ellipse fill="#fdb462" stroke="black" cx="961" cy="-104" rx="76.98" ry="18"/>
<text text-anchor="middle" x="961" y="-99.8" font-family="Times,serif" font-size="14.00">UserCreateMany</text>
</g>
<!-- UserCreateMany&#45;&gt;UserModule -->
<g id="edge24" class="edge">
<title>UserCreateMany&#45;&gt;UserModule</title>
<path fill="none" stroke="black" d="M913.25,-118.15C913.25,-128.95 913.25,-142 913.25,-142 913.25,-142 478.49,-142 478.49,-142 478.49,-142 478.49,-151.89 478.49,-151.89"/>
<polygon fill="black" stroke="black" points="474.99,-151.89 478.49,-161.89 481.99,-151.89 474.99,-151.89"/>
</g>
<!-- UserService -->
<g id="node22" class="node">
<title>UserService</title>
<ellipse fill="#fdb462" stroke="black" cx="808" cy="-104" rx="58.44" ry="18"/>
<text text-anchor="middle" x="808" y="-99.8" font-family="Times,serif" font-size="14.00">UserService</text>
</g>
<!-- UserService&#45;&gt;UserModule -->
<g id="edge25" class="edge">
<title>UserService&#45;&gt;UserModule</title>
<path fill="none" stroke="black" d="M787.94,-120.93C787.94,-126.83 787.94,-132 787.94,-132 787.94,-132 457,-132 457,-132 457,-132 457,-151.85 457,-151.85"/>
<polygon fill="black" stroke="black" points="453.5,-151.85 457,-161.85 460.5,-151.85 453.5,-151.85"/>
</g>
</g>
</svg>
