<?xml version="1.0" encoding="UTF-8" standalone="no"?>
<!DOCTYPE svg PUBLIC "-//W3C//DTD SVG 1.1//EN"
 "http://www.w3.org/Graphics/SVG/1.1/DTD/svg11.dtd">
<!-- Generated by graphviz version 2.47.0 (20210316.0004)
 -->
<!-- Title: dependencies Pages: 1 -->
<svg width="1405pt" height="366pt"
 viewBox="0.00 0.00 1405.00 366.00" xmlns="http://www.w3.org/2000/svg" xmlns:xlink="http://www.w3.org/1999/xlink">
<g id="graph0" class="graph" transform="scale(1 1) rotate(0) translate(4 362)">
<title>dependencies</title>
<polygon fill="white" stroke="transparent" points="-4,4 -4,-362 1401,-362 1401,4 -4,4"/>
<text text-anchor="start" x="677.51" y="-42.4" font-family="Times-12" font-weight="bold" font-size="14.00">Legend</text>
<polygon fill="#ffffb3" stroke="transparent" points="464.5,-10 464.5,-30 484.5,-30 484.5,-10 464.5,-10"/>
<text text-anchor="start" x="488.13" y="-15.4" font-family="Times-12" font-size="14.00"> &#160;Declarations</text>
<polygon fill="#8dd3c7" stroke="transparent" points="577.5,-10 577.5,-30 597.5,-30 597.5,-10 577.5,-10"/>
<text text-anchor="start" x="601.23" y="-15.4" font-family="Times-12" font-size="14.00"> &#160;Module</text>
<polygon fill="#80b1d3" stroke="transparent" points="663.5,-10 663.5,-30 683.5,-30 683.5,-10 663.5,-10"/>
<text text-anchor="start" x="687.28" y="-15.4" font-family="Times-12" font-size="14.00"> &#160;Bootstrap</text>
<polygon fill="#fdb462" stroke="transparent" points="760.5,-10 760.5,-30 780.5,-30 780.5,-10 760.5,-10"/>
<text text-anchor="start" x="784.17" y="-15.4" font-family="Times-12" font-size="14.00"> &#160;Providers</text>
<polygon fill="#fb8072" stroke="transparent" points="856.5,-10 856.5,-30 876.5,-30 876.5,-10 856.5,-10"/>
<text text-anchor="start" x="880.23" y="-15.4" font-family="Times-12" font-size="14.00"> &#160;Exports</text>
<g id="clust7" class="cluster">
<title>cluster_AuthModule</title>
<polygon fill="none" stroke="black" stroke-dasharray="1,5" points="1239,-138 1239,-350 1389,-350 1389,-138 1239,-138"/>
</g>
<g id="clust12" class="cluster">
<title>cluster_AuthModule_providers</title>
<polygon fill="none" stroke="black" points="1247,-146 1247,-198 1381,-198 1381,-146 1247,-146"/>
</g>
<g id="clust10" class="cluster">
<title>cluster_AuthModule_exports</title>
<polygon fill="none" stroke="black" points="1254,-290 1254,-342 1360,-342 1360,-290 1254,-290"/>
</g>
<g id="clust31" class="cluster">
<title>cluster_UserModule</title>
<polygon fill="none" stroke="black" stroke-dasharray="1,5" points="1083,-70 1083,-274 1231,-274 1231,-70 1083,-70"/>
</g>
<g id="clust34" class="cluster">
<title>cluster_UserModule_exports</title>
<polygon fill="none" stroke="black" points="1091,-214 1091,-266 1195,-266 1195,-214 1091,-214"/>
</g>
<g id="clust36" class="cluster">
<title>cluster_UserModule_providers</title>
<polygon fill="none" stroke="black" points="1091,-78 1091,-130 1223,-130 1223,-78 1091,-78"/>
</g>
<g id="clust1" class="cluster">
<title>cluster_AppModule</title>
<polygon fill="none" stroke="black" stroke-dasharray="1,5" points="656,-138 656,-342 1075,-342 1075,-138 656,-138"/>
</g>
<g id="clust3" class="cluster">
<title>cluster_AppModule_imports</title>
<polygon fill="none" stroke="black" points="664,-146 664,-266 917,-266 917,-146 664,-146"/>
</g>
<g id="clust6" class="cluster">
<title>cluster_AppModule_providers</title>
<polygon fill="none" stroke="black" points="925,-214 925,-266 1055,-266 1055,-214 925,-214"/>
</g>
<g id="clust25" class="cluster">
<title>cluster_TagsModule</title>
<polygon fill="none" stroke="black" stroke-dasharray="1,5" points="386,-206 386,-274 648,-274 648,-206 386,-206"/>
</g>
<g id="clust28" class="cluster">
<title>cluster_TagsModule_exports</title>
<polygon fill="none" stroke="black" points="536,-214 536,-266 640,-266 640,-214 536,-214"/>
</g>
<g id="clust30" class="cluster">
<title>cluster_TagsModule_providers</title>
<polygon fill="none" stroke="black" points="394,-214 394,-266 528,-266 528,-214 394,-214"/>
</g>
<g id="clust13" class="cluster">
<title>cluster_MetaOptionsModule</title>
<polygon fill="none" stroke="black" stroke-dasharray="1,5" points="8,-206 8,-274 378,-274 378,-206 8,-206"/>
</g>
<g id="clust16" class="cluster">
<title>cluster_MetaOptionsModule_exports</title>
<polygon fill="none" stroke="black" points="220,-214 220,-266 370,-266 370,-214 220,-214"/>
</g>
<g id="clust18" class="cluster">
<title>cluster_MetaOptionsModule_providers</title>
<polygon fill="none" stroke="black" points="16,-214 16,-266 212,-266 212,-214 16,-214"/>
</g>
<g id="clust19" class="cluster">
<title>cluster_PostsModule</title>
<polygon fill="none" stroke="black" stroke-dasharray="1,5" points="380,-282 380,-350 648,-350 648,-282 380,-282"/>
</g>
<g id="clust24" class="cluster">
<title>cluster_PostsModule_providers</title>
<polygon fill="none" stroke="black" points="504,-290 504,-342 640,-342 640,-290 504,-290"/>
</g>
<g id="clust22" class="cluster">
<title>cluster_PostsModule_exports</title>
<polygon fill="none" stroke="black" points="388,-290 388,-342 496,-342 496,-290 388,-290"/>
</g>
<!-- AuthModule -->
<g id="node1" class="node">
<title>AuthModule</title>
<polygon fill="#8dd3c7" stroke="black" points="1350.55,-258 1347.55,-262 1326.55,-262 1323.55,-258 1263.45,-258 1263.45,-222 1350.55,-222 1350.55,-258"/>
<text text-anchor="middle" x="1307" y="-235.8" font-family="Times,serif" font-size="14.00">AuthModule</text>
</g>
<!-- AppModule -->
<g id="node6" class="node">
<title>AppModule</title>
<polygon fill="#8dd3c7" stroke="black" points="1048.66,-334 1045.66,-338 1024.66,-338 1021.66,-334 965.34,-334 965.34,-298 1048.66,-298 1048.66,-334"/>
<text text-anchor="middle" x="1007" y="-311.8" font-family="Times,serif" font-size="14.00">AppModule</text>
</g>
<!-- AuthModule&#45;&gt;AppModule -->
<g id="edge1" class="edge">
<title>AuthModule&#45;&gt;AppModule</title>
<path fill="none" stroke="black" d="M1263.31,-240C1260.33,-240 1258.48,-240 1258.48,-240 1258.48,-240 1258.48,-322 1258.48,-322 1258.48,-322 1058.81,-322 1058.81,-322"/>
<polygon fill="black" stroke="black" points="1058.81,-318.5 1048.81,-322 1058.81,-325.5 1058.81,-318.5"/>
</g>
<!-- AuthService  -->
<g id="node8" class="node">
<title>AuthService </title>
<polygon fill="#fb8072" stroke="black" points="1351.98,-334 1262.02,-334 1262.02,-298 1351.98,-298 1351.98,-334"/>
<text text-anchor="middle" x="1307" y="-311.8" font-family="Times,serif" font-size="14.00">AuthService </text>
</g>
<!-- AuthModule&#45;&gt;AuthService  -->
<g id="edge7" class="edge">
<title>AuthModule&#45;&gt;AuthService </title>
<path fill="none" stroke="black" stroke-dasharray="5,2" d="M1307,-258.01C1307,-258.01 1307,-287.85 1307,-287.85"/>
<polygon fill="black" stroke="black" points="1303.5,-287.85 1307,-297.85 1310.5,-287.85 1303.5,-287.85"/>
</g>
<!-- MetaOptionsModule -->
<g id="node2" class="node">
<title>MetaOptionsModule</title>
<polygon fill="#8dd3c7" stroke="black" points="804.15,-190 801.15,-194 780.15,-194 777.15,-190 671.85,-190 671.85,-154 804.15,-154 804.15,-190"/>
<text text-anchor="middle" x="738" y="-167.8" font-family="Times,serif" font-size="14.00">MetaOptionsModule</text>
</g>
<!-- MetaOptionsModule&#45;&gt;AppModule -->
<g id="edge2" class="edge">
<title>MetaOptionsModule&#45;&gt;AppModule</title>
<path fill="none" stroke="black" d="M738,-190.08C738,-230.97 738,-327 738,-327 738,-327 955.26,-327 955.26,-327"/>
<polygon fill="black" stroke="black" points="955.26,-330.5 965.26,-327 955.26,-323.5 955.26,-330.5"/>
</g>
<!-- MetaOptionsService  -->
<g id="node10" class="node">
<title>MetaOptionsService </title>
<polygon fill="#fb8072" stroke="black" points="362.08,-258 227.92,-258 227.92,-222 362.08,-222 362.08,-258"/>
<text text-anchor="middle" x="295" y="-235.8" font-family="Times,serif" font-size="14.00">MetaOptionsService </text>
</g>
<!-- MetaOptionsModule&#45;&gt;MetaOptionsService  -->
<g id="edge9" class="edge">
<title>MetaOptionsModule&#45;&gt;MetaOptionsService </title>
<path fill="none" stroke="black" stroke-dasharray="5,2" d="M671.68,-178C548.1,-178 295,-178 295,-178 295,-178 295,-211.73 295,-211.73"/>
<polygon fill="black" stroke="black" points="291.5,-211.73 295,-221.73 298.5,-211.73 291.5,-211.73"/>
</g>
<!-- PostsModule -->
<g id="node3" class="node">
<title>PostsModule</title>
<polygon fill="#8dd3c7" stroke="black" points="894.61,-258 891.61,-262 870.61,-262 867.61,-258 805.39,-258 805.39,-222 894.61,-222 894.61,-258"/>
<text text-anchor="middle" x="850" y="-235.8" font-family="Times,serif" font-size="14.00">PostsModule</text>
</g>
<!-- PostsModule&#45;&gt;AppModule -->
<g id="edge3" class="edge">
<title>PostsModule&#45;&gt;AppModule</title>
<path fill="none" stroke="black" d="M872.28,-258.15C872.28,-281.76 872.28,-320 872.28,-320 872.28,-320 955.11,-320 955.11,-320"/>
<polygon fill="black" stroke="black" points="955.11,-323.5 965.11,-320 955.11,-316.5 955.11,-323.5"/>
</g>
<!-- PostsService  -->
<g id="node12" class="node">
<title>PostsService </title>
<polygon fill="#fb8072" stroke="black" points="487.54,-334 396.46,-334 396.46,-298 487.54,-298 487.54,-334"/>
<text text-anchor="middle" x="442" y="-311.8" font-family="Times,serif" font-size="14.00">PostsService </text>
</g>
<!-- PostsModule&#45;&gt;PostsService  -->
<g id="edge13" class="edge">
<title>PostsModule&#45;&gt;PostsService </title>
<path fill="none" stroke="black" stroke-dasharray="5,2" d="M827.72,-258.11C827.72,-267.9 827.72,-278 827.72,-278 827.72,-278 444.88,-278 444.88,-278 444.88,-278 444.88,-287.89 444.88,-287.89"/>
<polygon fill="black" stroke="black" points="441.38,-287.89 444.88,-297.89 448.38,-287.89 441.38,-287.89"/>
</g>
<!-- TagsModule -->
<g id="node4" class="node">
<title>TagsModule</title>
<polygon fill="#8dd3c7" stroke="black" points="909.26,-190 906.26,-194 885.26,-194 882.26,-190 822.74,-190 822.74,-154 909.26,-154 909.26,-190"/>
<text text-anchor="middle" x="866" y="-167.8" font-family="Times,serif" font-size="14.00">TagsModule</text>
</g>
<!-- TagsModule&#45;&gt;PostsModule -->
<g id="edge11" class="edge">
<title>TagsModule&#45;&gt;PostsModule</title>
<path fill="none" stroke="black" d="M876.57,-190.22C876.57,-190.22 876.57,-211.73 876.57,-211.73"/>
<polygon fill="black" stroke="black" points="873.07,-211.73 876.57,-221.73 880.07,-211.73 873.07,-211.73"/>
</g>
<!-- TagsModule&#45;&gt;AppModule -->
<g id="edge4" class="edge">
<title>TagsModule&#45;&gt;AppModule</title>
<path fill="none" stroke="black" d="M901.97,-190.14C901.97,-228.23 901.97,-313 901.97,-313 901.97,-313 955.19,-313 955.19,-313"/>
<polygon fill="black" stroke="black" points="955.19,-316.5 965.19,-313 955.19,-309.5 955.19,-316.5"/>
</g>
<!-- TagsService  -->
<g id="node14" class="node">
<title>TagsService </title>
<polygon fill="#fb8072" stroke="black" points="632.19,-258 543.81,-258 543.81,-222 632.19,-222 632.19,-258"/>
<text text-anchor="middle" x="588" y="-235.8" font-family="Times,serif" font-size="14.00">TagsService </text>
</g>
<!-- TagsModule&#45;&gt;TagsService  -->
<g id="edge15" class="edge">
<title>TagsModule&#45;&gt;TagsService </title>
<path fill="none" stroke="black" stroke-dasharray="5,2" d="M858.59,-190.13C858.59,-200.71 858.59,-212 858.59,-212 858.59,-212 588,-212 588,-212 588,-212 588,-212.98 588,-212.98"/>
<polygon fill="black" stroke="black" points="584.5,-211.79 588,-221.79 591.5,-211.79 584.5,-211.79"/>
</g>
<!-- UserModule -->
<g id="node5" class="node">
<title>UserModule</title>
<polygon fill="#8dd3c7" stroke="black" points="1192.98,-190 1189.98,-194 1168.98,-194 1165.98,-190 1107.02,-190 1107.02,-154 1192.98,-154 1192.98,-190"/>
<text text-anchor="middle" x="1150" y="-167.8" font-family="Times,serif" font-size="14.00">UserModule</text>
</g>
<!-- UserModule&#45;&gt;PostsModule -->
<g id="edge12" class="edge">
<title>UserModule&#45;&gt;PostsModule</title>
<path fill="none" stroke="black" d="M1107,-166C1040.77,-166 921.38,-166 921.38,-166 921.38,-166 921.38,-240 921.38,-240 921.38,-240 904.8,-240 904.8,-240"/>
<polygon fill="black" stroke="black" points="904.8,-236.5 894.8,-240 904.8,-243.5 904.8,-236.5"/>
</g>
<!-- UserModule&#45;&gt;AppModule -->
<g id="edge5" class="edge">
<title>UserModule&#45;&gt;AppModule</title>
<path fill="none" stroke="black" d="M1107,-178C1089.72,-178 1073.8,-178 1073.8,-178 1073.8,-178 1073.8,-310 1073.8,-310 1073.8,-310 1058.93,-310 1058.93,-310"/>
<polygon fill="black" stroke="black" points="1058.93,-306.5 1048.93,-310 1058.93,-313.5 1058.93,-306.5"/>
</g>
<!-- UserService  -->
<g id="node16" class="node">
<title>UserService </title>
<polygon fill="#fb8072" stroke="black" points="1186.9,-258 1099.1,-258 1099.1,-222 1186.9,-222 1186.9,-258"/>
<text text-anchor="middle" x="1143" y="-235.8" font-family="Times,serif" font-size="14.00">UserService </text>
</g>
<!-- UserModule&#45;&gt;UserService  -->
<g id="edge17" class="edge">
<title>UserModule&#45;&gt;UserService </title>
<path fill="none" stroke="black" stroke-dasharray="5,2" d="M1146.98,-190.22C1146.98,-190.22 1146.98,-211.73 1146.98,-211.73"/>
<polygon fill="black" stroke="black" points="1143.48,-211.73 1146.98,-221.73 1150.48,-211.73 1143.48,-211.73"/>
</g>
<!-- AppService -->
<g id="node7" class="node">
<title>AppService</title>
<ellipse fill="#fdb462" stroke="black" cx="990" cy="-240" rx="56.74" ry="18"/>
<text text-anchor="middle" x="990" y="-235.8" font-family="Times,serif" font-size="14.00">AppService</text>
</g>
<!-- AppService&#45;&gt;AppModule -->
<g id="edge6" class="edge">
<title>AppService&#45;&gt;AppModule</title>
<path fill="none" stroke="black" d="M1005.9,-257.63C1005.9,-257.63 1005.9,-287.94 1005.9,-287.94"/>
<polygon fill="black" stroke="black" points="1002.4,-287.94 1005.9,-297.94 1009.4,-287.94 1002.4,-287.94"/>
</g>
<!-- AuthService -->
<g id="node9" class="node">
<title>AuthService</title>
<ellipse fill="#fdb462" stroke="black" cx="1314" cy="-172" rx="59.11" ry="18"/>
<text text-anchor="middle" x="1314" y="-167.8" font-family="Times,serif" font-size="14.00">AuthService</text>
</g>
<!-- AuthService&#45;&gt;AuthModule -->
<g id="edge8" class="edge">
<title>AuthService&#45;&gt;AuthModule</title>
<path fill="none" stroke="black" d="M1307,-190.22C1307,-190.22 1307,-211.73 1307,-211.73"/>
<polygon fill="black" stroke="black" points="1303.5,-211.73 1307,-221.73 1310.5,-211.73 1303.5,-211.73"/>
</g>
<!-- MetaOptionsService -->
<g id="node11" class="node">
<title>MetaOptionsService</title>
<ellipse fill="#fdb462" stroke="black" cx="114" cy="-240" rx="90.33" ry="18"/>
<text text-anchor="middle" x="114" y="-235.8" font-family="Times,serif" font-size="14.00">MetaOptionsService</text>
</g>
<!-- MetaOptionsService&#45;&gt;MetaOptionsModule -->
<g id="edge10" class="edge">
<title>MetaOptionsService&#45;&gt;MetaOptionsModule</title>
<path fill="none" stroke="black" d="M114,-221.71C114,-199.79 114,-166 114,-166 114,-166 661.81,-166 661.81,-166"/>
<polygon fill="black" stroke="black" points="661.81,-169.5 671.81,-166 661.81,-162.5 661.81,-169.5"/>
</g>
<!-- PostsService -->
<g id="node13" class="node">
<title>PostsService</title>
<ellipse fill="#fdb462" stroke="black" cx="572" cy="-316" rx="60.27" ry="18"/>
<text text-anchor="middle" x="572" y="-311.8" font-family="Times,serif" font-size="14.00">PostsService</text>
</g>
<!-- PostsService&#45;&gt;PostsModule -->
<g id="edge14" class="edge">
<title>PostsService&#45;&gt;PostsModule</title>
<path fill="none" stroke="black" d="M622.34,-306C702.46,-306 850,-306 850,-306 850,-306 850,-268.03 850,-268.03"/>
<polygon fill="black" stroke="black" points="853.5,-268.03 850,-258.03 846.5,-268.03 853.5,-268.03"/>
</g>
<!-- TagsService -->
<g id="node15" class="node">
<title>TagsService</title>
<ellipse fill="#fdb462" stroke="black" cx="461" cy="-240" rx="58.53" ry="18"/>
<text text-anchor="middle" x="461" y="-235.8" font-family="Times,serif" font-size="14.00">TagsService</text>
</g>
<!-- TagsService&#45;&gt;TagsModule -->
<g id="edge16" class="edge">
<title>TagsService&#45;&gt;TagsModule</title>
<path fill="none" stroke="black" d="M461,-221.87C461,-211.69 461,-201 461,-201 461,-201 840.6,-201 840.6,-201 840.6,-201 840.6,-199.92 840.6,-199.92"/>
<polygon fill="black" stroke="black" points="844.1,-200.2 840.6,-190.2 837.1,-200.2 844.1,-200.2"/>
</g>
<!-- UserService -->
<g id="node17" class="node">
<title>UserService</title>
<ellipse fill="#fdb462" stroke="black" cx="1157" cy="-104" rx="58.44" ry="18"/>
<text text-anchor="middle" x="1157" y="-99.8" font-family="Times,serif" font-size="14.00">UserService</text>
</g>
<!-- UserService&#45;&gt;UserModule -->
<g id="edge18" class="edge">
<title>UserService&#45;&gt;UserModule</title>
<path fill="none" stroke="black" d="M1150,-122.22C1150,-122.22 1150,-143.73 1150,-143.73"/>
<polygon fill="black" stroke="black" points="1146.5,-143.73 1150,-153.73 1153.5,-143.73 1146.5,-143.73"/>
</g>
</g>
</svg>
