<?xml version="1.0" encoding="UTF-8" standalone="no"?>
<!DOCTYPE svg PUBLIC "-//W3C//DTD SVG 1.1//EN"
 "http://www.w3.org/Graphics/SVG/1.1/DTD/svg11.dtd">
<!-- Generated by graphviz version 2.47.0 (20210316.0004)
 -->
<!-- Title: dependencies Pages: 1 -->
<svg width="1776pt" height="366pt"
 viewBox="0.00 0.00 1776.00 366.00" xmlns="http://www.w3.org/2000/svg" xmlns:xlink="http://www.w3.org/1999/xlink">
<g id="graph0" class="graph" transform="scale(1 1) rotate(0) translate(4 362)">
<title>dependencies</title>
<polygon fill="white" stroke="transparent" points="-4,4 -4,-362 1772,-362 1772,4 -4,4"/>
<text text-anchor="start" x="863.01" y="-42.4" font-family="Times-12" font-weight="bold" font-size="14.00">Legend</text>
<polygon fill="#ffffb3" stroke="transparent" points="650,-10 650,-30 670,-30 670,-10 650,-10"/>
<text text-anchor="start" x="673.63" y="-15.4" font-family="Times-12" font-size="14.00"> &#160;Declarations</text>
<polygon fill="#8dd3c7" stroke="transparent" points="763,-10 763,-30 783,-30 783,-10 763,-10"/>
<text text-anchor="start" x="786.73" y="-15.4" font-family="Times-12" font-size="14.00"> &#160;Module</text>
<polygon fill="#80b1d3" stroke="transparent" points="849,-10 849,-30 869,-30 869,-10 849,-10"/>
<text text-anchor="start" x="872.78" y="-15.4" font-family="Times-12" font-size="14.00"> &#160;Bootstrap</text>
<polygon fill="#fdb462" stroke="transparent" points="946,-10 946,-30 966,-30 966,-10 946,-10"/>
<text text-anchor="start" x="969.67" y="-15.4" font-family="Times-12" font-size="14.00"> &#160;Providers</text>
<polygon fill="#fb8072" stroke="transparent" points="1042,-10 1042,-30 1062,-30 1062,-10 1042,-10"/>
<text text-anchor="start" x="1065.73" y="-15.4" font-family="Times-12" font-size="14.00"> &#160;Exports</text>
<g id="clust13" class="cluster">
<title>cluster_MetaOptionsModule</title>
<polygon fill="none" stroke="black" stroke-dasharray="1,5" points="8,-70 8,-282 220,-282 220,-70 8,-70"/>
</g>
<g id="clust18" class="cluster">
<title>cluster_MetaOptionsModule_providers</title>
<polygon fill="none" stroke="black" points="16,-78 16,-130 212,-130 212,-78 16,-78"/>
</g>
<g id="clust16" class="cluster">
<title>cluster_MetaOptionsModule_exports</title>
<polygon fill="none" stroke="black" points="50,-222 50,-274 200,-274 200,-222 50,-222"/>
</g>
<g id="clust7" class="cluster">
<title>cluster_AuthModule</title>
<polygon fill="none" stroke="black" stroke-dasharray="1,5" points="1506,-70 1506,-282 1760,-282 1760,-70 1506,-70"/>
</g>
<g id="clust10" class="cluster">
<title>cluster_AuthModule_exports</title>
<polygon fill="none" stroke="black" points="1514,-222 1514,-274 1752,-274 1752,-222 1514,-222"/>
</g>
<g id="clust12" class="cluster">
<title>cluster_AuthModule_providers</title>
<polygon fill="none" stroke="black" points="1514,-78 1514,-130 1648,-130 1648,-78 1514,-78"/>
</g>
<g id="clust25" class="cluster">
<title>cluster_PostsModule</title>
<polygon fill="none" stroke="black" stroke-dasharray="1,5" points="562,-146 562,-350 1066,-350 1066,-146 562,-146"/>
</g>
<g id="clust28" class="cluster">
<title>cluster_PostsModule_exports</title>
<polygon fill="none" stroke="black" points="688,-290 688,-342 796,-342 796,-290 688,-290"/>
</g>
<g id="clust30" class="cluster">
<title>cluster_PostsModule_providers</title>
<polygon fill="none" stroke="black" points="922,-154 922,-206 1058,-206 1058,-154 922,-154"/>
</g>
<g id="clust27" class="cluster">
<title>cluster_PostsModule_imports</title>
<polygon fill="none" stroke="black" points="570,-154 570,-206 914,-206 914,-154 570,-154"/>
</g>
<g id="clust31" class="cluster">
<title>cluster_TagsModule</title>
<polygon fill="none" stroke="black" stroke-dasharray="1,5" points="1236,-214 1236,-282 1498,-282 1498,-214 1236,-214"/>
</g>
<g id="clust34" class="cluster">
<title>cluster_TagsModule_exports</title>
<polygon fill="none" stroke="black" points="1386,-222 1386,-274 1490,-274 1490,-222 1386,-222"/>
</g>
<g id="clust36" class="cluster">
<title>cluster_TagsModule_providers</title>
<polygon fill="none" stroke="black" points="1244,-222 1244,-274 1378,-274 1378,-222 1244,-222"/>
</g>
<g id="clust1" class="cluster">
<title>cluster_AppModule</title>
<polygon fill="none" stroke="black" stroke-dasharray="1,5" points="228,-146 228,-274 554,-274 554,-146 228,-146"/>
</g>
<g id="clust6" class="cluster">
<title>cluster_AppModule_providers</title>
<polygon fill="none" stroke="black" points="236,-154 236,-206 546,-206 546,-154 236,-154"/>
</g>
<g id="clust37" class="cluster">
<title>cluster_UserModule</title>
<polygon fill="none" stroke="black" stroke-dasharray="1,5" points="311,-70 311,-138 937,-138 937,-70 311,-70"/>
</g>
<g id="clust40" class="cluster">
<title>cluster_UserModule_exports</title>
<polygon fill="none" stroke="black" points="825,-78 825,-130 929,-130 929,-78 825,-78"/>
</g>
<g id="clust42" class="cluster">
<title>cluster_UserModule_providers</title>
<polygon fill="none" stroke="black" points="319,-78 319,-130 817,-130 817,-78 319,-78"/>
</g>
<g id="clust19" class="cluster">
<title>cluster_PaginationModule</title>
<polygon fill="none" stroke="black" stroke-dasharray="1,5" points="1074,-214 1074,-282 1228,-282 1228,-214 1074,-214"/>
</g>
<g id="clust22" class="cluster">
<title>cluster_PaginationModule_exports</title>
<polygon fill="none" stroke="black" points="1082,-222 1082,-274 1220,-274 1220,-222 1082,-222"/>
</g>
<!-- AuthModule -->
<g id="node1" class="node">
<title>AuthModule</title>
<polygon fill="#8dd3c7" stroke="black" points="1623.55,-198 1620.55,-202 1599.55,-202 1596.55,-198 1536.45,-198 1536.45,-162 1623.55,-162 1623.55,-198"/>
<text text-anchor="middle" x="1580" y="-175.8" font-family="Times,serif" font-size="14.00">AuthModule</text>
</g>
<!-- AppModule -->
<g id="node7" class="node">
<title>AppModule</title>
<polygon fill="#8dd3c7" stroke="black" points="545.66,-266 542.66,-270 521.66,-270 518.66,-266 462.34,-266 462.34,-230 545.66,-230 545.66,-266"/>
<text text-anchor="middle" x="504" y="-243.8" font-family="Times,serif" font-size="14.00">AppModule</text>
</g>
<!-- AuthModule&#45;&gt;AppModule -->
<g id="edge1" class="edge">
<title>AuthModule&#45;&gt;AppModule</title>
<path fill="none" stroke="black" d="M1565.41,-198.13C1565.41,-208.71 1565.41,-220 1565.41,-220 1565.41,-220 512.47,-220 512.47,-220 512.47,-220 512.47,-220.98 512.47,-220.98"/>
<polygon fill="black" stroke="black" points="508.97,-219.79 512.47,-229.79 515.97,-219.79 508.97,-219.79"/>
</g>
<!-- AuthService  -->
<g id="node10" class="node">
<title>AuthService </title>
<polygon fill="#fb8072" stroke="black" points="1743.98,-266 1654.02,-266 1654.02,-230 1743.98,-230 1743.98,-266"/>
<text text-anchor="middle" x="1699" y="-243.8" font-family="Times,serif" font-size="14.00">AuthService </text>
</g>
<!-- AuthModule&#45;&gt;AuthService  -->
<g id="edge9" class="edge">
<title>AuthModule&#45;&gt;AuthService </title>
<path fill="none" stroke="black" stroke-dasharray="5,2" d="M1623.64,-180C1657.6,-180 1699,-180 1699,-180 1699,-180 1699,-219.78 1699,-219.78"/>
<polygon fill="black" stroke="black" points="1695.5,-219.78 1699,-229.78 1702.5,-219.78 1695.5,-219.78"/>
</g>
<!-- HashingProvider  -->
<g id="node11" class="node">
<title>HashingProvider </title>
<polygon fill="#fb8072" stroke="black" points="1636.37,-266 1521.63,-266 1521.63,-230 1636.37,-230 1636.37,-266"/>
<text text-anchor="middle" x="1579" y="-243.8" font-family="Times,serif" font-size="14.00">HashingProvider </text>
</g>
<!-- AuthModule&#45;&gt;HashingProvider  -->
<g id="edge10" class="edge">
<title>AuthModule&#45;&gt;HashingProvider </title>
<path fill="none" stroke="black" stroke-dasharray="5,2" d="M1594.59,-198.22C1594.59,-198.22 1594.59,-219.73 1594.59,-219.73"/>
<polygon fill="black" stroke="black" points="1591.09,-219.73 1594.59,-229.73 1598.09,-219.73 1591.09,-219.73"/>
</g>
<!-- MetaOptionsModule -->
<g id="node2" class="node">
<title>MetaOptionsModule</title>
<polygon fill="#8dd3c7" stroke="black" points="191.15,-198 188.15,-202 167.15,-202 164.15,-198 58.85,-198 58.85,-162 191.15,-162 191.15,-198"/>
<text text-anchor="middle" x="125" y="-175.8" font-family="Times,serif" font-size="14.00">MetaOptionsModule</text>
</g>
<!-- MetaOptionsModule&#45;&gt;AppModule -->
<g id="edge2" class="edge">
<title>MetaOptionsModule&#45;&gt;AppModule</title>
<path fill="none" stroke="black" d="M191.35,-180C209.39,-180 224.06,-180 224.06,-180 224.06,-180 224.06,-254 224.06,-254 224.06,-254 452.09,-254 452.09,-254"/>
<polygon fill="black" stroke="black" points="452.09,-257.5 462.09,-254 452.09,-250.5 452.09,-257.5"/>
</g>
<!-- MetaOptionsService  -->
<g id="node13" class="node">
<title>MetaOptionsService </title>
<polygon fill="#fb8072" stroke="black" points="192.08,-266 57.92,-266 57.92,-230 192.08,-230 192.08,-266"/>
<text text-anchor="middle" x="125" y="-243.8" font-family="Times,serif" font-size="14.00">MetaOptionsService </text>
</g>
<!-- MetaOptionsModule&#45;&gt;MetaOptionsService  -->
<g id="edge12" class="edge">
<title>MetaOptionsModule&#45;&gt;MetaOptionsService </title>
<path fill="none" stroke="black" stroke-dasharray="5,2" d="M125,-198.22C125,-198.22 125,-219.73 125,-219.73"/>
<polygon fill="black" stroke="black" points="121.5,-219.73 125,-229.73 128.5,-219.73 121.5,-219.73"/>
</g>
<!-- PaginationModule -->
<g id="node3" class="node">
<title>PaginationModule</title>
<polygon fill="#8dd3c7" stroke="black" points="801.93,-198 798.93,-202 777.93,-202 774.93,-198 682.07,-198 682.07,-162 801.93,-162 801.93,-198"/>
<text text-anchor="middle" x="742" y="-175.8" font-family="Times,serif" font-size="14.00">PaginationModule</text>
</g>
<!-- PostsModule -->
<g id="node4" class="node">
<title>PostsModule</title>
<polygon fill="#8dd3c7" stroke="black" points="786.61,-266 783.61,-270 762.61,-270 759.61,-266 697.39,-266 697.39,-230 786.61,-230 786.61,-266"/>
<text text-anchor="middle" x="742" y="-243.8" font-family="Times,serif" font-size="14.00">PostsModule</text>
</g>
<!-- PaginationModule&#45;&gt;PostsModule -->
<g id="edge16" class="edge">
<title>PaginationModule&#45;&gt;PostsModule</title>
<path fill="none" stroke="black" d="M742,-198.22C742,-198.22 742,-219.73 742,-219.73"/>
<polygon fill="black" stroke="black" points="738.5,-219.73 742,-229.73 745.5,-219.73 738.5,-219.73"/>
</g>
<!-- PaginationModule&#45;&gt;AppModule -->
<g id="edge3" class="edge">
<title>PaginationModule&#45;&gt;AppModule</title>
<path fill="none" stroke="black" d="M691.75,-198.02C691.75,-215.37 691.75,-239 691.75,-239 691.75,-239 555.67,-239 555.67,-239"/>
<polygon fill="black" stroke="black" points="555.67,-235.5 545.67,-239 555.67,-242.5 555.67,-235.5"/>
</g>
<!-- PaginationService  -->
<g id="node15" class="node">
<title>PaginationService </title>
<polygon fill="#fb8072" stroke="black" points="1211.86,-266 1090.14,-266 1090.14,-230 1211.86,-230 1211.86,-266"/>
<text text-anchor="middle" x="1151" y="-243.8" font-family="Times,serif" font-size="14.00">PaginationService </text>
</g>
<!-- PaginationModule&#45;&gt;PaginationService  -->
<g id="edge14" class="edge">
<title>PaginationModule&#45;&gt;PaginationService </title>
<path fill="none" stroke="black" stroke-dasharray="5,2" d="M794.62,-198.02C794.62,-215.37 794.62,-239 794.62,-239 794.62,-239 1080.14,-239 1080.14,-239"/>
<polygon fill="black" stroke="black" points="1080.14,-242.5 1090.14,-239 1080.14,-235.5 1080.14,-242.5"/>
</g>
<!-- PostsModule&#45;&gt;AppModule -->
<g id="edge4" class="edge">
<title>PostsModule&#45;&gt;AppModule</title>
<path fill="none" stroke="black" d="M697.23,-257C697.23,-257 555.77,-257 555.77,-257"/>
<polygon fill="black" stroke="black" points="555.77,-253.5 545.77,-257 555.77,-260.5 555.77,-253.5"/>
</g>
<!-- PostsService  -->
<g id="node16" class="node">
<title>PostsService </title>
<polygon fill="#fb8072" stroke="black" points="787.54,-334 696.46,-334 696.46,-298 787.54,-298 787.54,-334"/>
<text text-anchor="middle" x="742" y="-311.8" font-family="Times,serif" font-size="14.00">PostsService </text>
</g>
<!-- PostsModule&#45;&gt;PostsService  -->
<g id="edge19" class="edge">
<title>PostsModule&#45;&gt;PostsService </title>
<path fill="none" stroke="black" stroke-dasharray="5,2" d="M742,-266.22C742,-266.22 742,-287.73 742,-287.73"/>
<polygon fill="black" stroke="black" points="738.5,-287.73 742,-297.73 745.5,-287.73 738.5,-287.73"/>
</g>
<!-- TagsModule -->
<g id="node5" class="node">
<title>TagsModule</title>
<polygon fill="#8dd3c7" stroke="black" points="906.26,-198 903.26,-202 882.26,-202 879.26,-198 819.74,-198 819.74,-162 906.26,-162 906.26,-198"/>
<text text-anchor="middle" x="863" y="-175.8" font-family="Times,serif" font-size="14.00">TagsModule</text>
</g>
<!-- TagsModule&#45;&gt;PostsModule -->
<g id="edge17" class="edge">
<title>TagsModule&#45;&gt;PostsModule</title>
<path fill="none" stroke="black" d="M889.03,-198.22C889.03,-218.37 889.03,-248 889.03,-248 889.03,-248 796.91,-248 796.91,-248"/>
<polygon fill="black" stroke="black" points="796.91,-244.5 786.91,-248 796.91,-251.5 796.91,-244.5"/>
</g>
<!-- TagsModule&#45;&gt;AppModule -->
<g id="edge5" class="edge">
<title>TagsModule&#45;&gt;AppModule</title>
<path fill="none" stroke="black" d="M836.97,-198.04C836.97,-210.56 836.97,-225 836.97,-225 836.97,-225 543.09,-225 543.09,-225 543.09,-225 543.09,-225.49 543.09,-225.49"/>
<polygon fill="black" stroke="black" points="539.59,-219.88 543.09,-229.88 546.59,-219.88 539.59,-219.88"/>
</g>
<!-- TagsService  -->
<g id="node18" class="node">
<title>TagsService </title>
<polygon fill="#fb8072" stroke="black" points="1482.19,-266 1393.81,-266 1393.81,-230 1482.19,-230 1482.19,-266"/>
<text text-anchor="middle" x="1438" y="-243.8" font-family="Times,serif" font-size="14.00">TagsService </text>
</g>
<!-- TagsModule&#45;&gt;TagsService  -->
<g id="edge21" class="edge">
<title>TagsModule&#45;&gt;TagsService </title>
<path fill="none" stroke="black" stroke-dasharray="5,2" d="M854.32,-198.19C854.32,-201.54 854.32,-204 854.32,-204 854.32,-204 1438,-204 1438,-204 1438,-204 1438,-219.85 1438,-219.85"/>
<polygon fill="black" stroke="black" points="1434.5,-219.85 1438,-229.85 1441.5,-219.85 1434.5,-219.85"/>
</g>
<!-- UserModule -->
<g id="node6" class="node">
<title>UserModule</title>
<polygon fill="#8dd3c7" stroke="black" points="663.98,-198 660.98,-202 639.98,-202 636.98,-198 578.02,-198 578.02,-162 663.98,-162 663.98,-198"/>
<text text-anchor="middle" x="621" y="-175.8" font-family="Times,serif" font-size="14.00">UserModule</text>
</g>
<!-- UserModule&#45;&gt;PostsModule -->
<g id="edge18" class="edge">
<title>UserModule&#45;&gt;PostsModule</title>
<path fill="none" stroke="black" d="M621,-198.22C621,-218.37 621,-248 621,-248 621,-248 687.29,-248 687.29,-248"/>
<polygon fill="black" stroke="black" points="687.29,-251.5 697.29,-248 687.29,-244.5 687.29,-251.5"/>
</g>
<!-- UserModule&#45;&gt;AppModule -->
<g id="edge6" class="edge">
<title>UserModule&#45;&gt;AppModule</title>
<path fill="none" stroke="black" d="M577.85,-180C558.67,-180 540.36,-180 540.36,-180 540.36,-180 540.36,-219.78 540.36,-219.78"/>
<polygon fill="black" stroke="black" points="536.86,-219.78 540.36,-229.78 543.86,-219.78 536.86,-219.78"/>
</g>
<!-- UserService  -->
<g id="node20" class="node">
<title>UserService </title>
<polygon fill="#fb8072" stroke="black" points="920.9,-122 833.1,-122 833.1,-86 920.9,-86 920.9,-122"/>
<text text-anchor="middle" x="877" y="-99.8" font-family="Times,serif" font-size="14.00">UserService </text>
</g>
<!-- UserModule&#45;&gt;UserService  -->
<g id="edge23" class="edge">
<title>UserModule&#45;&gt;UserService </title>
<path fill="none" stroke="black" stroke-dasharray="5,2" d="M653.75,-161.85C653.75,-149.73 653.75,-136 653.75,-136 653.75,-136 869.71,-136 869.71,-136 869.71,-136 869.71,-132.24 869.71,-132.24"/>
<polygon fill="black" stroke="black" points="873.21,-132.24 869.71,-122.24 866.21,-132.24 873.21,-132.24"/>
</g>
<!-- AppService -->
<g id="node8" class="node">
<title>AppService</title>
<ellipse fill="#fdb462" stroke="black" cx="481" cy="-180" rx="56.74" ry="18"/>
<text text-anchor="middle" x="481" y="-175.8" font-family="Times,serif" font-size="14.00">AppService</text>
</g>
<!-- AppService&#45;&gt;AppModule -->
<g id="edge7" class="edge">
<title>AppService&#45;&gt;AppModule</title>
<path fill="none" stroke="black" d="M487.32,-198.22C487.32,-198.22 487.32,-219.73 487.32,-219.73"/>
<polygon fill="black" stroke="black" points="483.82,-219.73 487.32,-229.73 490.82,-219.73 483.82,-219.73"/>
</g>
<!-- PaginationService -->
<g id="node9" class="node">
<title>PaginationService</title>
<ellipse fill="#fdb462" stroke="black" cx="325" cy="-180" rx="81.1" ry="18"/>
<text text-anchor="middle" x="325" y="-175.8" font-family="Times,serif" font-size="14.00">PaginationService</text>
</g>
<!-- PaginationService&#45;&gt;PaginationModule -->
<g id="edge15" class="edge">
<title>PaginationService&#45;&gt;PaginationModule</title>
<path fill="none" stroke="black" d="M297.9,-197C297.9,-205.5 297.9,-214 297.9,-214 297.9,-214 687.02,-214 687.02,-214 687.02,-214 687.02,-208.19 687.02,-208.19"/>
<polygon fill="black" stroke="black" points="690.52,-208.19 687.02,-198.19 683.52,-208.19 690.52,-208.19"/>
</g>
<!-- PaginationService&#45;&gt;AppModule -->
<g id="edge8" class="edge">
<title>PaginationService&#45;&gt;AppModule</title>
<path fill="none" stroke="black" d="M352.1,-197.27C352.1,-215.62 352.1,-242 352.1,-242 352.1,-242 452.09,-242 452.09,-242"/>
<polygon fill="black" stroke="black" points="452.09,-245.5 462.09,-242 452.09,-238.5 452.09,-245.5"/>
</g>
<!-- AuthService -->
<g id="node12" class="node">
<title>AuthService</title>
<ellipse fill="#fdb462" stroke="black" cx="1581" cy="-104" rx="59.11" ry="18"/>
<text text-anchor="middle" x="1581" y="-99.8" font-family="Times,serif" font-size="14.00">AuthService</text>
</g>
<!-- AuthService&#45;&gt;AuthModule -->
<g id="edge11" class="edge">
<title>AuthService&#45;&gt;AuthModule</title>
<path fill="none" stroke="black" d="M1580,-122.01C1580,-122.01 1580,-151.85 1580,-151.85"/>
<polygon fill="black" stroke="black" points="1576.5,-151.85 1580,-161.85 1583.5,-151.85 1576.5,-151.85"/>
</g>
<!-- MetaOptionsService -->
<g id="node14" class="node">
<title>MetaOptionsService</title>
<ellipse fill="#fdb462" stroke="black" cx="114" cy="-104" rx="90.33" ry="18"/>
<text text-anchor="middle" x="114" y="-99.8" font-family="Times,serif" font-size="14.00">MetaOptionsService</text>
</g>
<!-- MetaOptionsService&#45;&gt;MetaOptionsModule -->
<g id="edge13" class="edge">
<title>MetaOptionsService&#45;&gt;MetaOptionsModule</title>
<path fill="none" stroke="black" d="M125,-122.01C125,-122.01 125,-151.85 125,-151.85"/>
<polygon fill="black" stroke="black" points="121.5,-151.85 125,-161.85 128.5,-151.85 121.5,-151.85"/>
</g>
<!-- PostsService -->
<g id="node17" class="node">
<title>PostsService</title>
<ellipse fill="#fdb462" stroke="black" cx="990" cy="-180" rx="60.27" ry="18"/>
<text text-anchor="middle" x="990" y="-175.8" font-family="Times,serif" font-size="14.00">PostsService</text>
</g>
<!-- PostsService&#45;&gt;PostsModule -->
<g id="edge20" class="edge">
<title>PostsService&#45;&gt;PostsModule</title>
<path fill="none" stroke="black" d="M990,-198.25C990,-221.02 990,-257 990,-257 990,-257 796.62,-257 796.62,-257"/>
<polygon fill="black" stroke="black" points="796.62,-253.5 786.62,-257 796.62,-260.5 796.62,-253.5"/>
</g>
<!-- TagsService -->
<g id="node19" class="node">
<title>TagsService</title>
<ellipse fill="#fdb462" stroke="black" cx="1311" cy="-248" rx="58.53" ry="18"/>
<text text-anchor="middle" x="1311" y="-243.8" font-family="Times,serif" font-size="14.00">TagsService</text>
</g>
<!-- TagsService&#45;&gt;TagsModule -->
<g id="edge22" class="edge">
<title>TagsService&#45;&gt;TagsModule</title>
<path fill="none" stroke="black" d="M1311,-229.87C1311,-219.69 1311,-209 1311,-209 1311,-209 871.68,-209 871.68,-209 871.68,-209 871.68,-207.92 871.68,-207.92"/>
<polygon fill="black" stroke="black" points="875.18,-208.2 871.68,-198.2 868.18,-208.2 875.18,-208.2"/>
</g>
<!-- CreateUserProvider -->
<g id="node21" class="node">
<title>CreateUserProvider</title>
<ellipse fill="#fdb462" stroke="black" cx="721" cy="-104" rx="87.94" ry="18"/>
<text text-anchor="middle" x="721" y="-99.8" font-family="Times,serif" font-size="14.00">CreateUserProvider</text>
</g>
<!-- CreateUserProvider&#45;&gt;UserModule -->
<g id="edge24" class="edge">
<title>CreateUserProvider&#45;&gt;UserModule</title>
<path fill="none" stroke="black" d="M643.52,-112.72C643.52,-112.72 643.52,-151.88 643.52,-151.88"/>
<polygon fill="black" stroke="black" points="640.02,-151.88 643.52,-161.88 647.02,-151.88 640.02,-151.88"/>
</g>
<!-- UserCreateMany -->
<g id="node22" class="node">
<title>UserCreateMany</title>
<ellipse fill="#fdb462" stroke="black" cx="538" cy="-104" rx="76.98" ry="18"/>
<text text-anchor="middle" x="538" y="-99.8" font-family="Times,serif" font-size="14.00">UserCreateMany</text>
</g>
<!-- UserCreateMany&#45;&gt;UserModule -->
<g id="edge25" class="edge">
<title>UserCreateMany&#45;&gt;UserModule</title>
<path fill="none" stroke="black" d="M602.66,-113.94C602.66,-113.94 602.66,-151.91 602.66,-151.91"/>
<polygon fill="black" stroke="black" points="599.17,-151.91 602.66,-161.91 606.17,-151.91 599.17,-151.91"/>
</g>
<!-- UserService -->
<g id="node23" class="node">
<title>UserService</title>
<ellipse fill="#fdb462" stroke="black" cx="385" cy="-104" rx="58.44" ry="18"/>
<text text-anchor="middle" x="385" y="-99.8" font-family="Times,serif" font-size="14.00">UserService</text>
</g>
<!-- UserService&#45;&gt;UserModule -->
<g id="edge26" class="edge">
<title>UserService&#45;&gt;UserModule</title>
<path fill="none" stroke="black" d="M433.8,-113.99C433.8,-127.24 433.8,-149 433.8,-149 433.8,-149 590.34,-149 590.34,-149 590.34,-149 590.34,-151.97 590.34,-151.97"/>
<polygon fill="black" stroke="black" points="586.84,-151.97 590.34,-161.97 593.84,-151.97 586.84,-151.97"/>
</g>
</g>
</svg>
