<?xml version="1.0" encoding="UTF-8" standalone="no"?>
<!DOCTYPE svg PUBLIC "-//W3C//DTD SVG 1.1//EN"
 "http://www.w3.org/Graphics/SVG/1.1/DTD/svg11.dtd">
<!-- Generated by graphviz version 2.47.0 (20210316.0004)
 -->
<!-- Title: dependencies Pages: 1 -->
<svg width="1887pt" height="363pt"
 viewBox="0.00 0.00 1887.00 363.00" xmlns="http://www.w3.org/2000/svg" xmlns:xlink="http://www.w3.org/1999/xlink">
<g id="graph0" class="graph" transform="scale(1 1) rotate(0) translate(4 359)">
<title>dependencies</title>
<polygon fill="white" stroke="transparent" points="-4,4 -4,-359 1883,-359 1883,4 -4,4"/>
<text text-anchor="start" x="918.51" y="-42.4" font-family="Times-12" font-weight="bold" font-size="14.00">Legend</text>
<polygon fill="#ffffb3" stroke="transparent" points="705.5,-10 705.5,-30 725.5,-30 725.5,-10 705.5,-10"/>
<text text-anchor="start" x="729.13" y="-15.4" font-family="Times-12" font-size="14.00"> &#160;Declarations</text>
<polygon fill="#8dd3c7" stroke="transparent" points="818.5,-10 818.5,-30 838.5,-30 838.5,-10 818.5,-10"/>
<text text-anchor="start" x="842.23" y="-15.4" font-family="Times-12" font-size="14.00"> &#160;Module</text>
<polygon fill="#80b1d3" stroke="transparent" points="904.5,-10 904.5,-30 924.5,-30 924.5,-10 904.5,-10"/>
<text text-anchor="start" x="928.28" y="-15.4" font-family="Times-12" font-size="14.00"> &#160;Bootstrap</text>
<polygon fill="#fdb462" stroke="transparent" points="1001.5,-10 1001.5,-30 1021.5,-30 1021.5,-10 1001.5,-10"/>
<text text-anchor="start" x="1025.17" y="-15.4" font-family="Times-12" font-size="14.00"> &#160;Providers</text>
<polygon fill="#fb8072" stroke="transparent" points="1097.5,-10 1097.5,-30 1117.5,-30 1117.5,-10 1097.5,-10"/>
<text text-anchor="start" x="1121.23" y="-15.4" font-family="Times-12" font-size="14.00"> &#160;Exports</text>
<g id="clust1" class="cluster">
<title>cluster_AppModule</title>
<polygon fill="none" stroke="black" stroke-dasharray="1,5" points="8,-70 8,-339 657,-339 657,-70 8,-70"/>
</g>
<g id="clust3" class="cluster">
<title>cluster_AppModule_imports</title>
<polygon fill="none" stroke="black" points="48,-146 48,-263 649,-263 649,-146 48,-146"/>
</g>
<g id="clust6" class="cluster">
<title>cluster_AppModule_providers</title>
<polygon fill="none" stroke="black" points="16,-78 16,-130 326,-130 326,-78 16,-78"/>
</g>
<g id="clust25" class="cluster">
<title>cluster_PostsModule</title>
<polygon fill="none" stroke="black" stroke-dasharray="1,5" points="665,-279 665,-347 933,-347 933,-279 665,-279"/>
</g>
<g id="clust28" class="cluster">
<title>cluster_PostsModule_exports</title>
<polygon fill="none" stroke="black" points="817,-287 817,-339 925,-339 925,-287 817,-287"/>
</g>
<g id="clust30" class="cluster">
<title>cluster_PostsModule_providers</title>
<polygon fill="none" stroke="black" points="673,-287 673,-339 809,-339 809,-287 673,-287"/>
</g>
<g id="clust13" class="cluster">
<title>cluster_MetaOptionsModule</title>
<polygon fill="none" stroke="black" stroke-dasharray="1,5" points="1069,-203 1069,-271 1439,-271 1439,-203 1069,-203"/>
</g>
<g id="clust16" class="cluster">
<title>cluster_MetaOptionsModule_exports</title>
<polygon fill="none" stroke="black" points="1281,-211 1281,-263 1431,-263 1431,-211 1281,-211"/>
</g>
<g id="clust18" class="cluster">
<title>cluster_MetaOptionsModule_providers</title>
<polygon fill="none" stroke="black" points="1077,-211 1077,-263 1273,-263 1273,-211 1077,-211"/>
</g>
<g id="clust19" class="cluster">
<title>cluster_PaginationModule</title>
<polygon fill="none" stroke="black" stroke-dasharray="1,5" points="1447,-203 1447,-271 1601,-271 1601,-203 1447,-203"/>
</g>
<g id="clust22" class="cluster">
<title>cluster_PaginationModule_exports</title>
<polygon fill="none" stroke="black" points="1455,-211 1455,-263 1593,-263 1593,-211 1455,-211"/>
</g>
<g id="clust7" class="cluster">
<title>cluster_AuthModule</title>
<polygon fill="none" stroke="black" stroke-dasharray="1,5" points="665,-203 665,-271 1061,-271 1061,-203 665,-203"/>
</g>
<g id="clust12" class="cluster">
<title>cluster_AuthModule_providers</title>
<polygon fill="none" stroke="black" points="919,-211 919,-263 1053,-263 1053,-211 919,-211"/>
</g>
<g id="clust10" class="cluster">
<title>cluster_AuthModule_exports</title>
<polygon fill="none" stroke="black" points="673,-211 673,-263 911,-263 911,-211 673,-211"/>
</g>
<g id="clust37" class="cluster">
<title>cluster_UserModule</title>
<polygon fill="none" stroke="black" stroke-dasharray="1,5" points="665,-70 665,-138 1097,-138 1097,-70 665,-70"/>
</g>
<g id="clust40" class="cluster">
<title>cluster_UserModule_exports</title>
<polygon fill="none" stroke="black" points="985,-78 985,-130 1089,-130 1089,-78 985,-78"/>
</g>
<g id="clust42" class="cluster">
<title>cluster_UserModule_providers</title>
<polygon fill="none" stroke="black" points="673,-78 673,-130 977,-130 977,-78 673,-78"/>
</g>
<g id="clust31" class="cluster">
<title>cluster_TagsModule</title>
<polygon fill="none" stroke="black" stroke-dasharray="1,5" points="1609,-203 1609,-271 1871,-271 1871,-203 1609,-203"/>
</g>
<g id="clust34" class="cluster">
<title>cluster_TagsModule_exports</title>
<polygon fill="none" stroke="black" points="1759,-211 1759,-263 1863,-263 1863,-211 1759,-211"/>
</g>
<g id="clust36" class="cluster">
<title>cluster_TagsModule_providers</title>
<polygon fill="none" stroke="black" points="1617,-211 1617,-263 1751,-263 1751,-211 1617,-211"/>
</g>
<!-- AuthModule -->
<g id="node1" class="node">
<title>AuthModule</title>
<polygon fill="#8dd3c7" stroke="black" points="385.55,-190 382.55,-194 361.55,-194 358.55,-190 298.45,-190 298.45,-154 385.55,-154 385.55,-190"/>
<text text-anchor="middle" x="342" y="-167.8" font-family="Times,serif" font-size="14.00">AuthModule</text>
</g>
<!-- AppModule -->
<g id="node7" class="node">
<title>AppModule</title>
<polygon fill="#8dd3c7" stroke="black" points="324.66,-331 321.66,-335 300.66,-335 297.66,-331 241.34,-331 241.34,-295 324.66,-295 324.66,-331"/>
<text text-anchor="middle" x="283" y="-308.8" font-family="Times,serif" font-size="14.00">AppModule</text>
</g>
<!-- AuthModule&#45;&gt;AppModule -->
<g id="edge1" class="edge">
<title>AuthModule&#45;&gt;AppModule</title>
<path fill="none" stroke="black" d="M307.09,-190.14C307.09,-190.14 307.09,-284.93 307.09,-284.93"/>
<polygon fill="black" stroke="black" points="303.59,-284.92 307.09,-294.93 310.59,-284.93 303.59,-284.92"/>
</g>
<!-- AuthService  -->
<g id="node10" class="node">
<title>AuthService </title>
<polygon fill="#fb8072" stroke="black" points="902.98,-255 813.02,-255 813.02,-219 902.98,-219 902.98,-255"/>
<text text-anchor="middle" x="858" y="-232.8" font-family="Times,serif" font-size="14.00">AuthService </text>
</g>
<!-- AuthModule&#45;&gt;AuthService  -->
<g id="edge9" class="edge">
<title>AuthModule&#45;&gt;AuthService </title>
<path fill="none" stroke="black" stroke-dasharray="5,2" d="M370.54,-190.13C370.54,-200.31 370.54,-211 370.54,-211 370.54,-211 824.13,-211 824.13,-211 824.13,-211 824.13,-211.79 824.13,-211.79"/>
<polygon fill="black" stroke="black" points="820.63,-208.94 824.13,-218.94 827.63,-208.94 820.63,-208.94"/>
</g>
<!-- HashingProvider  -->
<g id="node11" class="node">
<title>HashingProvider </title>
<polygon fill="#fb8072" stroke="black" points="795.37,-255 680.63,-255 680.63,-219 795.37,-219 795.37,-255"/>
<text text-anchor="middle" x="738" y="-232.8" font-family="Times,serif" font-size="14.00">HashingProvider </text>
</g>
<!-- AuthModule&#45;&gt;HashingProvider  -->
<g id="edge10" class="edge">
<title>AuthModule&#45;&gt;HashingProvider </title>
<path fill="none" stroke="black" stroke-dasharray="5,2" d="M355.3,-190.49C355.3,-202.14 355.3,-215 355.3,-215 355.3,-215 757.12,-215 757.12,-215 757.12,-215 757.12,-215.38 757.12,-215.38"/>
<polygon fill="black" stroke="black" points="753.62,-208.83 757.12,-218.83 760.62,-208.83 753.62,-208.83"/>
</g>
<!-- MetaOptionsModule -->
<g id="node2" class="node">
<title>MetaOptionsModule</title>
<polygon fill="#8dd3c7" stroke="black" points="536.15,-190 533.15,-194 512.15,-194 509.15,-190 403.85,-190 403.85,-154 536.15,-154 536.15,-190"/>
<text text-anchor="middle" x="470" y="-167.8" font-family="Times,serif" font-size="14.00">MetaOptionsModule</text>
</g>
<!-- MetaOptionsModule&#45;&gt;AppModule -->
<g id="edge2" class="edge">
<title>MetaOptionsModule&#45;&gt;AppModule</title>
<path fill="none" stroke="black" d="M503.16,-190.08C503.16,-226.23 503.16,-304 503.16,-304 503.16,-304 334.67,-304 334.67,-304"/>
<polygon fill="black" stroke="black" points="334.67,-300.5 324.67,-304 334.67,-307.5 334.67,-300.5"/>
</g>
<!-- MetaOptionsService  -->
<g id="node13" class="node">
<title>MetaOptionsService </title>
<polygon fill="#fb8072" stroke="black" points="1423.08,-255 1288.92,-255 1288.92,-219 1423.08,-219 1423.08,-255"/>
<text text-anchor="middle" x="1356" y="-232.8" font-family="Times,serif" font-size="14.00">MetaOptionsService </text>
</g>
<!-- MetaOptionsModule&#45;&gt;MetaOptionsService  -->
<g id="edge12" class="edge">
<title>MetaOptionsModule&#45;&gt;MetaOptionsService </title>
<path fill="none" stroke="black" stroke-dasharray="5,2" d="M436.84,-190.16C436.84,-195.04 436.84,-199 436.84,-199 436.84,-199 1356,-199 1356,-199 1356,-199 1356,-208.89 1356,-208.89"/>
<polygon fill="black" stroke="black" points="1352.5,-208.89 1356,-218.89 1359.5,-208.89 1352.5,-208.89"/>
</g>
<!-- PaginationModule -->
<g id="node3" class="node">
<title>PaginationModule</title>
<polygon fill="#8dd3c7" stroke="black" points="175.93,-190 172.93,-194 151.93,-194 148.93,-190 56.07,-190 56.07,-154 175.93,-154 175.93,-190"/>
<text text-anchor="middle" x="116" y="-167.8" font-family="Times,serif" font-size="14.00">PaginationModule</text>
</g>
<!-- PostsModule -->
<g id="node4" class="node">
<title>PostsModule</title>
<polygon fill="#8dd3c7" stroke="black" points="625.61,-255 622.61,-259 601.61,-259 598.61,-255 536.39,-255 536.39,-219 625.61,-219 625.61,-255"/>
<text text-anchor="middle" x="581" y="-232.8" font-family="Times,serif" font-size="14.00">PostsModule</text>
</g>
<!-- PaginationModule&#45;&gt;PostsModule -->
<g id="edge16" class="edge">
<title>PaginationModule&#45;&gt;PostsModule</title>
<path fill="none" stroke="black" d="M145.86,-190.11C145.86,-209.34 145.86,-237 145.86,-237 145.86,-237 526.07,-237 526.07,-237"/>
<polygon fill="black" stroke="black" points="526.07,-240.5 536.07,-237 526.07,-233.5 526.07,-240.5"/>
</g>
<!-- PaginationModule&#45;&gt;AppModule -->
<g id="edge3" class="edge">
<title>PaginationModule&#45;&gt;AppModule</title>
<path fill="none" stroke="black" d="M116,-190.21C116,-227.06 116,-307 116,-307 116,-307 231.29,-307 231.29,-307"/>
<polygon fill="black" stroke="black" points="231.29,-310.5 241.29,-307 231.29,-303.5 231.29,-310.5"/>
</g>
<!-- PaginationService  -->
<g id="node15" class="node">
<title>PaginationService </title>
<polygon fill="#fb8072" stroke="black" points="1584.86,-255 1463.14,-255 1463.14,-219 1584.86,-219 1584.86,-255"/>
<text text-anchor="middle" x="1524" y="-232.8" font-family="Times,serif" font-size="14.00">PaginationService </text>
</g>
<!-- PaginationModule&#45;&gt;PaginationService  -->
<g id="edge14" class="edge">
<title>PaginationModule&#45;&gt;PaginationService </title>
<path fill="none" stroke="black" stroke-dasharray="5,2" d="M86.14,-190.12C86.14,-192.97 86.14,-195 86.14,-195 86.14,-195 1524,-195 1524,-195 1524,-195 1524,-208.94 1524,-208.94"/>
<polygon fill="black" stroke="black" points="1520.5,-208.94 1524,-218.94 1527.5,-208.94 1520.5,-208.94"/>
</g>
<!-- PostsModule&#45;&gt;AppModule -->
<g id="edge4" class="edge">
<title>PostsModule&#45;&gt;AppModule</title>
<path fill="none" stroke="black" d="M536.34,-246C460.81,-246 315.96,-246 315.96,-246 315.96,-246 315.96,-284.69 315.96,-284.69"/>
<polygon fill="black" stroke="black" points="312.46,-284.69 315.96,-294.69 319.46,-284.69 312.46,-284.69"/>
</g>
<!-- PostsService  -->
<g id="node16" class="node">
<title>PostsService </title>
<polygon fill="#fb8072" stroke="black" points="916.54,-331 825.46,-331 825.46,-295 916.54,-295 916.54,-331"/>
<text text-anchor="middle" x="871" y="-308.8" font-family="Times,serif" font-size="14.00">PostsService </text>
</g>
<!-- PostsModule&#45;&gt;PostsService  -->
<g id="edge19" class="edge">
<title>PostsModule&#45;&gt;PostsService </title>
<path fill="none" stroke="black" stroke-dasharray="5,2" d="M566.15,-255.11C566.15,-264.9 566.15,-275 566.15,-275 566.15,-275 864.11,-275 864.11,-275 864.11,-275 864.11,-284.89 864.11,-284.89"/>
<polygon fill="black" stroke="black" points="860.61,-284.89 864.11,-294.89 867.61,-284.89 860.61,-284.89"/>
</g>
<!-- TagsModule -->
<g id="node5" class="node">
<title>TagsModule</title>
<polygon fill="#8dd3c7" stroke="black" points="641.26,-190 638.26,-194 617.26,-194 614.26,-190 554.74,-190 554.74,-154 641.26,-154 641.26,-190"/>
<text text-anchor="middle" x="598" y="-167.8" font-family="Times,serif" font-size="14.00">TagsModule</text>
</g>
<!-- TagsModule&#45;&gt;PostsModule -->
<g id="edge17" class="edge">
<title>TagsModule&#45;&gt;PostsModule</title>
<path fill="none" stroke="black" d="M590.09,-190.11C590.09,-190.11 590.09,-208.99 590.09,-208.99"/>
<polygon fill="black" stroke="black" points="586.59,-208.99 590.09,-218.99 593.59,-208.99 586.59,-208.99"/>
</g>
<!-- TagsModule&#45;&gt;AppModule -->
<g id="edge5" class="edge">
<title>TagsModule&#45;&gt;AppModule</title>
<path fill="none" stroke="black" d="M633.47,-190.14C633.47,-228.23 633.47,-313 633.47,-313 633.47,-313 334.93,-313 334.93,-313"/>
<polygon fill="black" stroke="black" points="334.93,-309.5 324.93,-313 334.93,-316.5 334.93,-309.5"/>
</g>
<!-- TagsService  -->
<g id="node18" class="node">
<title>TagsService </title>
<polygon fill="#fb8072" stroke="black" points="1855.19,-255 1766.81,-255 1766.81,-219 1855.19,-219 1855.19,-255"/>
<text text-anchor="middle" x="1811" y="-232.8" font-family="Times,serif" font-size="14.00">TagsService </text>
</g>
<!-- TagsModule&#45;&gt;TagsService  -->
<g id="edge21" class="edge">
<title>TagsModule&#45;&gt;TagsService </title>
<path fill="none" stroke="black" stroke-dasharray="5,2" d="M641.53,-166C858.3,-166 1811,-166 1811,-166 1811,-166 1811,-208.72 1811,-208.72"/>
<polygon fill="black" stroke="black" points="1807.5,-208.72 1811,-218.72 1814.5,-208.72 1807.5,-208.72"/>
</g>
<!-- UserModule -->
<g id="node6" class="node">
<title>UserModule</title>
<polygon fill="#8dd3c7" stroke="black" points="279.98,-190 276.98,-194 255.98,-194 252.98,-190 194.02,-190 194.02,-154 279.98,-154 279.98,-190"/>
<text text-anchor="middle" x="237" y="-167.8" font-family="Times,serif" font-size="14.00">UserModule</text>
</g>
<!-- UserModule&#45;&gt;PostsModule -->
<g id="edge18" class="edge">
<title>UserModule&#45;&gt;PostsModule</title>
<path fill="none" stroke="black" d="M267.05,-190.03C267.05,-206.4 267.05,-228 267.05,-228 267.05,-228 526.35,-228 526.35,-228"/>
<polygon fill="black" stroke="black" points="526.35,-231.5 536.35,-228 526.35,-224.5 526.35,-231.5"/>
</g>
<!-- UserModule&#45;&gt;AppModule -->
<g id="edge6" class="edge">
<title>UserModule&#45;&gt;AppModule</title>
<path fill="none" stroke="black" d="M254.11,-190.14C254.11,-190.14 254.11,-284.93 254.11,-284.93"/>
<polygon fill="black" stroke="black" points="250.61,-284.92 254.11,-294.93 257.61,-284.93 250.61,-284.92"/>
</g>
<!-- UserService  -->
<g id="node20" class="node">
<title>UserService </title>
<polygon fill="#fb8072" stroke="black" points="1080.9,-122 993.1,-122 993.1,-86 1080.9,-86 1080.9,-122"/>
<text text-anchor="middle" x="1037" y="-99.8" font-family="Times,serif" font-size="14.00">UserService </text>
</g>
<!-- UserModule&#45;&gt;UserService  -->
<g id="edge23" class="edge">
<title>UserModule&#45;&gt;UserService </title>
<path fill="none" stroke="black" stroke-dasharray="5,2" d="M215.51,-153.94C215.51,-149.51 215.51,-146 215.51,-146 215.51,-146 1019.18,-146 1019.18,-146 1019.18,-146 1019.18,-132.06 1019.18,-132.06"/>
<polygon fill="black" stroke="black" points="1022.68,-132.06 1019.18,-122.06 1015.68,-132.06 1022.68,-132.06"/>
</g>
<!-- AppService -->
<g id="node8" class="node">
<title>AppService</title>
<ellipse fill="#fdb462" stroke="black" cx="81" cy="-104" rx="56.74" ry="18"/>
<text text-anchor="middle" x="81" y="-99.8" font-family="Times,serif" font-size="14.00">AppService</text>
</g>
<!-- AppService&#45;&gt;AppModule -->
<g id="edge7" class="edge">
<title>AppService&#45;&gt;AppModule</title>
<path fill="none" stroke="black" d="M40.33,-116.81C40.33,-163.09 40.33,-319 40.33,-319 40.33,-319 231.28,-319 231.28,-319"/>
<polygon fill="black" stroke="black" points="231.28,-322.5 241.28,-319 231.28,-315.5 231.28,-322.5"/>
</g>
<!-- PaginationService -->
<g id="node9" class="node">
<title>PaginationService</title>
<ellipse fill="#fdb462" stroke="black" cx="237" cy="-104" rx="81.1" ry="18"/>
<text text-anchor="middle" x="237" y="-99.8" font-family="Times,serif" font-size="14.00">PaginationService</text>
</g>
<!-- PaginationService&#45;&gt;PaginationModule -->
<g id="edge15" class="edge">
<title>PaginationService&#45;&gt;PaginationModule</title>
<path fill="none" stroke="black" d="M165.71,-112.89C165.71,-112.89 165.71,-143.91 165.71,-143.91"/>
<polygon fill="black" stroke="black" points="162.21,-143.91 165.71,-153.91 169.21,-143.91 162.21,-143.91"/>
</g>
<!-- PaginationService&#45;&gt;AppModule -->
<g id="edge8" class="edge">
<title>PaginationService&#45;&gt;AppModule</title>
<path fill="none" stroke="black" d="M289.11,-118.04C289.11,-118.04 289.11,-284.96 289.11,-284.96"/>
<polygon fill="black" stroke="black" points="285.61,-284.96 289.11,-294.96 292.61,-284.96 285.61,-284.96"/>
</g>
<!-- AuthService -->
<g id="node12" class="node">
<title>AuthService</title>
<ellipse fill="#fdb462" stroke="black" cx="986" cy="-237" rx="59.11" ry="18"/>
<text text-anchor="middle" x="986" y="-232.8" font-family="Times,serif" font-size="14.00">AuthService</text>
</g>
<!-- AuthService&#45;&gt;AuthModule -->
<g id="edge11" class="edge">
<title>AuthService&#45;&gt;AuthModule</title>
<path fill="none" stroke="black" d="M947.96,-223.05C947.96,-215.22 947.96,-207 947.96,-207 947.96,-207 340.06,-207 340.06,-207 340.06,-207 340.06,-200.32 340.06,-200.32"/>
<polygon fill="black" stroke="black" points="343.56,-200.32 340.06,-190.32 336.56,-200.32 343.56,-200.32"/>
</g>
<!-- MetaOptionsService -->
<g id="node14" class="node">
<title>MetaOptionsService</title>
<ellipse fill="#fdb462" stroke="black" cx="1175" cy="-237" rx="90.33" ry="18"/>
<text text-anchor="middle" x="1175" y="-232.8" font-family="Times,serif" font-size="14.00">MetaOptionsService</text>
</g>
<!-- MetaOptionsService&#45;&gt;MetaOptionsModule -->
<g id="edge13" class="edge">
<title>MetaOptionsService&#45;&gt;MetaOptionsModule</title>
<path fill="none" stroke="black" d="M1175,-218.81C1175,-210.72 1175,-203 1175,-203 1175,-203 470,-203 470,-203 470,-203 470,-200.03 470,-200.03"/>
<polygon fill="black" stroke="black" points="473.5,-200.03 470,-190.03 466.5,-200.03 473.5,-200.03"/>
</g>
<!-- PostsService -->
<g id="node17" class="node">
<title>PostsService</title>
<ellipse fill="#fdb462" stroke="black" cx="741" cy="-313" rx="60.27" ry="18"/>
<text text-anchor="middle" x="741" y="-308.8" font-family="Times,serif" font-size="14.00">PostsService</text>
</g>
<!-- PostsService&#45;&gt;PostsModule -->
<g id="edge20" class="edge">
<title>PostsService&#45;&gt;PostsModule</title>
<path fill="none" stroke="black" d="M688.6,-322C647.02,-322 595.85,-322 595.85,-322 595.85,-322 595.85,-265.03 595.85,-265.03"/>
<polygon fill="black" stroke="black" points="599.35,-265.03 595.85,-255.03 592.35,-265.03 599.35,-265.03"/>
</g>
<!-- TagsService -->
<g id="node19" class="node">
<title>TagsService</title>
<ellipse fill="#fdb462" stroke="black" cx="1684" cy="-237" rx="58.53" ry="18"/>
<text text-anchor="middle" x="1684" y="-232.8" font-family="Times,serif" font-size="14.00">TagsService</text>
</g>
<!-- TagsService&#45;&gt;TagsModule -->
<g id="edge22" class="edge">
<title>TagsService&#45;&gt;TagsModule</title>
<path fill="none" stroke="black" d="M1684,-218.98C1684,-201.63 1684,-178 1684,-178 1684,-178 651.58,-178 651.58,-178"/>
<polygon fill="black" stroke="black" points="651.58,-174.5 641.58,-178 651.58,-181.5 651.58,-174.5"/>
</g>
<!-- UserCreateMany -->
<g id="node21" class="node">
<title>UserCreateMany</title>
<ellipse fill="#fdb462" stroke="black" cx="758" cy="-104" rx="76.98" ry="18"/>
<text text-anchor="middle" x="758" y="-99.8" font-family="Times,serif" font-size="14.00">UserCreateMany</text>
</g>
<!-- UserCreateMany&#45;&gt;UserModule -->
<g id="edge24" class="edge">
<title>UserCreateMany&#45;&gt;UserModule</title>
<path fill="none" stroke="black" d="M719.07,-119.72C719.07,-125.2 719.07,-130 719.07,-130 719.07,-130 237,-130 237,-130 237,-130 237,-143.94 237,-143.94"/>
<polygon fill="black" stroke="black" points="233.5,-143.94 237,-153.94 240.5,-143.94 233.5,-143.94"/>
</g>
<!-- UserService -->
<g id="node22" class="node">
<title>UserService</title>
<ellipse fill="#fdb462" stroke="black" cx="911" cy="-104" rx="58.44" ry="18"/>
<text text-anchor="middle" x="911" y="-99.8" font-family="Times,serif" font-size="14.00">UserService</text>
</g>
<!-- UserService&#45;&gt;UserModule -->
<g id="edge25" class="edge">
<title>UserService&#45;&gt;UserModule</title>
<path fill="none" stroke="black" d="M877.76,-119.01C877.76,-128.12 877.76,-138 877.76,-138 877.76,-138 258.49,-138 258.49,-138 258.49,-138 258.49,-143.81 258.49,-143.81"/>
<polygon fill="black" stroke="black" points="254.99,-143.81 258.49,-153.81 261.99,-143.81 254.99,-143.81"/>
</g>
</g>
</svg>
