<?xml version="1.0" encoding="UTF-8" standalone="no"?>
<!DOCTYPE svg PUBLIC "-//W3C//DTD SVG 1.1//EN"
 "http://www.w3.org/Graphics/SVG/1.1/DTD/svg11.dtd">
<!-- Generated by graphviz version 2.47.0 (20210316.0004)
 -->
<!-- Title: dependencies Pages: 1 -->
<svg width="1834pt" height="298pt"
 viewBox="0.00 0.00 1834.00 298.00" xmlns="http://www.w3.org/2000/svg" xmlns:xlink="http://www.w3.org/1999/xlink">
<g id="graph0" class="graph" transform="scale(1 1) rotate(0) translate(4 294)">
<title>dependencies</title>
<polygon fill="white" stroke="transparent" points="-4,4 -4,-294 1830,-294 1830,4 -4,4"/>
<text text-anchor="start" x="892.01" y="-42.4" font-family="Times-12" font-weight="bold" font-size="14.00">Legend</text>
<polygon fill="#ffffb3" stroke="transparent" points="679,-10 679,-30 699,-30 699,-10 679,-10"/>
<text text-anchor="start" x="702.63" y="-15.4" font-family="Times-12" font-size="14.00"> &#160;Declarations</text>
<polygon fill="#8dd3c7" stroke="transparent" points="792,-10 792,-30 812,-30 812,-10 792,-10"/>
<text text-anchor="start" x="815.73" y="-15.4" font-family="Times-12" font-size="14.00"> &#160;Module</text>
<polygon fill="#80b1d3" stroke="transparent" points="878,-10 878,-30 898,-30 898,-10 878,-10"/>
<text text-anchor="start" x="901.78" y="-15.4" font-family="Times-12" font-size="14.00"> &#160;Bootstrap</text>
<polygon fill="#fdb462" stroke="transparent" points="975,-10 975,-30 995,-30 995,-10 975,-10"/>
<text text-anchor="start" x="998.67" y="-15.4" font-family="Times-12" font-size="14.00"> &#160;Providers</text>
<polygon fill="#fb8072" stroke="transparent" points="1071,-10 1071,-30 1091,-30 1091,-10 1071,-10"/>
<text text-anchor="start" x="1094.73" y="-15.4" font-family="Times-12" font-size="14.00"> &#160;Exports</text>
<g id="clust19" class="cluster">
<title>cluster_PostsModule</title>
<polygon fill="none" stroke="black" stroke-dasharray="1,5" points="914,-70 914,-282 1280,-282 1280,-70 914,-70"/>
</g>
<g id="clust21" class="cluster">
<title>cluster_PostsModule_imports</title>
<polygon fill="none" stroke="black" points="1066,-78 1066,-130 1272,-130 1272,-78 1066,-78"/>
</g>
<g id="clust22" class="cluster">
<title>cluster_PostsModule_exports</title>
<polygon fill="none" stroke="black" points="999,-222 999,-274 1107,-274 1107,-222 999,-222"/>
</g>
<g id="clust24" class="cluster">
<title>cluster_PostsModule_providers</title>
<polygon fill="none" stroke="black" points="922,-78 922,-130 1058,-130 1058,-78 922,-78"/>
</g>
<g id="clust7" class="cluster">
<title>cluster_AuthModule</title>
<polygon fill="none" stroke="black" stroke-dasharray="1,5" points="8,-70 8,-282 158,-282 158,-70 8,-70"/>
</g>
<g id="clust12" class="cluster">
<title>cluster_AuthModule_providers</title>
<polygon fill="none" stroke="black" points="16,-78 16,-130 150,-130 150,-78 16,-78"/>
</g>
<g id="clust10" class="cluster">
<title>cluster_AuthModule_exports</title>
<polygon fill="none" stroke="black" points="37,-222 37,-274 143,-274 143,-222 37,-222"/>
</g>
<g id="clust1" class="cluster">
<title>cluster_AppModule</title>
<polygon fill="none" stroke="black" stroke-dasharray="1,5" points="226,-138 226,-274 528,-274 528,-138 226,-138"/>
</g>
<g id="clust3" class="cluster">
<title>cluster_AppModule_imports</title>
<polygon fill="none" stroke="black" points="372,-146 372,-198 520,-198 520,-146 372,-146"/>
</g>
<g id="clust6" class="cluster">
<title>cluster_AppModule_providers</title>
<polygon fill="none" stroke="black" points="234,-146 234,-198 364,-198 364,-146 234,-146"/>
</g>
<g id="clust31" class="cluster">
<title>cluster_UserModule</title>
<polygon fill="none" stroke="black" stroke-dasharray="1,5" points="1558,-138 1558,-206 1818,-206 1818,-138 1558,-138"/>
</g>
<g id="clust34" class="cluster">
<title>cluster_UserModule_exports</title>
<polygon fill="none" stroke="black" points="1706,-146 1706,-198 1810,-198 1810,-146 1706,-146"/>
</g>
<g id="clust36" class="cluster">
<title>cluster_UserModule_providers</title>
<polygon fill="none" stroke="black" points="1566,-146 1566,-198 1698,-198 1698,-146 1566,-146"/>
</g>
<g id="clust13" class="cluster">
<title>cluster_MetaOptionsModule</title>
<polygon fill="none" stroke="black" stroke-dasharray="1,5" points="536,-214 536,-282 906,-282 906,-214 536,-214"/>
</g>
<g id="clust16" class="cluster">
<title>cluster_MetaOptionsModule_exports</title>
<polygon fill="none" stroke="black" points="748,-222 748,-274 898,-274 898,-222 748,-222"/>
</g>
<g id="clust18" class="cluster">
<title>cluster_MetaOptionsModule_providers</title>
<polygon fill="none" stroke="black" points="544,-222 544,-274 740,-274 740,-222 544,-222"/>
</g>
<g id="clust25" class="cluster">
<title>cluster_TagsModule</title>
<polygon fill="none" stroke="black" stroke-dasharray="1,5" points="1288,-138 1288,-206 1550,-206 1550,-138 1288,-138"/>
</g>
<g id="clust30" class="cluster">
<title>cluster_TagsModule_providers</title>
<polygon fill="none" stroke="black" points="1408,-146 1408,-198 1542,-198 1542,-146 1408,-146"/>
</g>
<g id="clust28" class="cluster">
<title>cluster_TagsModule_exports</title>
<polygon fill="none" stroke="black" points="1296,-146 1296,-198 1400,-198 1400,-146 1296,-146"/>
</g>
<!-- AuthModule -->
<g id="node1" class="node">
<title>AuthModule</title>
<polygon fill="#8dd3c7" stroke="black" points="133.55,-190 130.55,-194 109.55,-194 106.55,-190 46.45,-190 46.45,-154 133.55,-154 133.55,-190"/>
<text text-anchor="middle" x="90" y="-167.8" font-family="Times,serif" font-size="14.00">AuthModule</text>
</g>
<!-- AppModule -->
<g id="node6" class="node">
<title>AppModule</title>
<polygon fill="#8dd3c7" stroke="black" points="328.66,-266 325.66,-270 304.66,-270 301.66,-266 245.34,-266 245.34,-230 328.66,-230 328.66,-266"/>
<text text-anchor="middle" x="287" y="-243.8" font-family="Times,serif" font-size="14.00">AppModule</text>
</g>
<!-- AuthModule&#45;&gt;AppModule -->
<g id="edge1" class="edge">
<title>AuthModule&#45;&gt;AppModule</title>
<path fill="none" stroke="black" d="M133.69,-172C136.67,-172 138.52,-172 138.52,-172 138.52,-172 138.52,-248 138.52,-248 138.52,-248 235.25,-248 235.25,-248"/>
<polygon fill="black" stroke="black" points="235.25,-251.5 245.25,-248 235.25,-244.5 235.25,-251.5"/>
</g>
<!-- AuthService  -->
<g id="node8" class="node">
<title>AuthService </title>
<polygon fill="#fb8072" stroke="black" points="134.98,-266 45.02,-266 45.02,-230 134.98,-230 134.98,-266"/>
<text text-anchor="middle" x="90" y="-243.8" font-family="Times,serif" font-size="14.00">AuthService </text>
</g>
<!-- AuthModule&#45;&gt;AuthService  -->
<g id="edge7" class="edge">
<title>AuthModule&#45;&gt;AuthService </title>
<path fill="none" stroke="black" stroke-dasharray="5,2" d="M90,-190.01C90,-190.01 90,-219.85 90,-219.85"/>
<polygon fill="black" stroke="black" points="86.5,-219.85 90,-229.85 93.5,-219.85 86.5,-219.85"/>
</g>
<!-- MetaOptionsModule -->
<g id="node2" class="node">
<title>MetaOptionsModule</title>
<polygon fill="#8dd3c7" stroke="black" points="512.15,-190 509.15,-194 488.15,-194 485.15,-190 379.85,-190 379.85,-154 512.15,-154 512.15,-190"/>
<text text-anchor="middle" x="446" y="-167.8" font-family="Times,serif" font-size="14.00">MetaOptionsModule</text>
</g>
<!-- MetaOptionsModule&#45;&gt;AppModule -->
<g id="edge2" class="edge">
<title>MetaOptionsModule&#45;&gt;AppModule</title>
<path fill="none" stroke="black" d="M423.89,-190.01C423.89,-212.49 423.89,-248 423.89,-248 423.89,-248 338.82,-248 338.82,-248"/>
<polygon fill="black" stroke="black" points="338.82,-244.5 328.82,-248 338.82,-251.5 338.82,-244.5"/>
</g>
<!-- MetaOptionsService  -->
<g id="node10" class="node">
<title>MetaOptionsService </title>
<polygon fill="#fb8072" stroke="black" points="890.08,-266 755.92,-266 755.92,-230 890.08,-230 890.08,-266"/>
<text text-anchor="middle" x="823" y="-243.8" font-family="Times,serif" font-size="14.00">MetaOptionsService </text>
</g>
<!-- MetaOptionsModule&#45;&gt;MetaOptionsService  -->
<g id="edge9" class="edge">
<title>MetaOptionsModule&#45;&gt;MetaOptionsService </title>
<path fill="none" stroke="black" stroke-dasharray="5,2" d="M512.53,-178C620.76,-178 823,-178 823,-178 823,-178 823,-219.97 823,-219.97"/>
<polygon fill="black" stroke="black" points="819.5,-219.97 823,-229.97 826.5,-219.97 819.5,-219.97"/>
</g>
<!-- PostsModule -->
<g id="node3" class="node">
<title>PostsModule</title>
<polygon fill="#8dd3c7" stroke="black" points="1097.61,-190 1094.61,-194 1073.61,-194 1070.61,-190 1008.39,-190 1008.39,-154 1097.61,-154 1097.61,-190"/>
<text text-anchor="middle" x="1053" y="-167.8" font-family="Times,serif" font-size="14.00">PostsModule</text>
</g>
<!-- PostsModule&#45;&gt;AppModule -->
<g id="edge3" class="edge">
<title>PostsModule&#45;&gt;AppModule</title>
<path fill="none" stroke="black" d="M1008.13,-166C881.74,-166 531.96,-166 531.96,-166 531.96,-166 531.96,-257 531.96,-257 531.96,-257 338.83,-257 338.83,-257"/>
<polygon fill="black" stroke="black" points="338.83,-253.5 328.83,-257 338.83,-260.5 338.83,-253.5"/>
</g>
<!-- PostsService  -->
<g id="node12" class="node">
<title>PostsService </title>
<polygon fill="#fb8072" stroke="black" points="1098.54,-266 1007.46,-266 1007.46,-230 1098.54,-230 1098.54,-266"/>
<text text-anchor="middle" x="1053" y="-243.8" font-family="Times,serif" font-size="14.00">PostsService </text>
</g>
<!-- PostsModule&#45;&gt;PostsService  -->
<g id="edge13" class="edge">
<title>PostsModule&#45;&gt;PostsService </title>
<path fill="none" stroke="black" stroke-dasharray="5,2" d="M1053,-190.01C1053,-190.01 1053,-219.85 1053,-219.85"/>
<polygon fill="black" stroke="black" points="1049.5,-219.85 1053,-229.85 1056.5,-219.85 1049.5,-219.85"/>
</g>
<!-- TagsModule -->
<g id="node4" class="node">
<title>TagsModule</title>
<polygon fill="#8dd3c7" stroke="black" points="1160.26,-122 1157.26,-126 1136.26,-126 1133.26,-122 1073.74,-122 1073.74,-86 1160.26,-86 1160.26,-122"/>
<text text-anchor="middle" x="1117" y="-99.8" font-family="Times,serif" font-size="14.00">TagsModule</text>
</g>
<!-- TagsModule&#45;&gt;PostsModule -->
<g id="edge11" class="edge">
<title>TagsModule&#45;&gt;PostsModule</title>
<path fill="none" stroke="black" d="M1085.59,-122.22C1085.59,-122.22 1085.59,-143.73 1085.59,-143.73"/>
<polygon fill="black" stroke="black" points="1082.09,-143.73 1085.59,-153.73 1089.09,-143.73 1082.09,-143.73"/>
</g>
<!-- TagsModule&#45;&gt;AppModule -->
<g id="edge4" class="edge">
<title>TagsModule&#45;&gt;AppModule</title>
<path fill="none" stroke="black" d="M1113.99,-122.34C1113.99,-151.21 1113.99,-204 1113.99,-204 1113.99,-204 287,-204 287,-204 287,-204 287,-219.85 287,-219.85"/>
<polygon fill="black" stroke="black" points="283.5,-219.85 287,-229.85 290.5,-219.85 283.5,-219.85"/>
</g>
<!-- TagsService  -->
<g id="node14" class="node">
<title>TagsService </title>
<polygon fill="#fb8072" stroke="black" points="1392.19,-190 1303.81,-190 1303.81,-154 1392.19,-154 1392.19,-190"/>
<text text-anchor="middle" x="1348" y="-167.8" font-family="Times,serif" font-size="14.00">TagsService </text>
</g>
<!-- TagsModule&#45;&gt;TagsService  -->
<g id="edge15" class="edge">
<title>TagsModule&#45;&gt;TagsService </title>
<path fill="none" stroke="black" stroke-dasharray="5,2" d="M1144.92,-122.27C1144.92,-140.56 1144.92,-166 1144.92,-166 1144.92,-166 1293.68,-166 1293.68,-166"/>
<polygon fill="black" stroke="black" points="1293.68,-169.5 1303.68,-166 1293.68,-162.5 1293.68,-169.5"/>
</g>
<!-- UserModule -->
<g id="node5" class="node">
<title>UserModule</title>
<polygon fill="#8dd3c7" stroke="black" points="1263.98,-122 1260.98,-126 1239.98,-126 1236.98,-122 1178.02,-122 1178.02,-86 1263.98,-86 1263.98,-122"/>
<text text-anchor="middle" x="1221" y="-99.8" font-family="Times,serif" font-size="14.00">UserModule</text>
</g>
<!-- UserModule&#45;&gt;PostsModule -->
<g id="edge12" class="edge">
<title>UserModule&#45;&gt;PostsModule</title>
<path fill="none" stroke="black" d="M1206.67,-122.29C1206.67,-144.21 1206.67,-178 1206.67,-178 1206.67,-178 1107.86,-178 1107.86,-178"/>
<polygon fill="black" stroke="black" points="1107.86,-174.5 1097.86,-178 1107.86,-181.5 1107.86,-174.5"/>
</g>
<!-- UserModule&#45;&gt;AppModule -->
<g id="edge5" class="edge">
<title>UserModule&#45;&gt;AppModule</title>
<path fill="none" stroke="black" d="M1235.33,-122.16C1235.33,-154.1 1235.33,-217 1235.33,-217 1235.33,-217 307.91,-217 307.91,-217 307.91,-217 307.91,-219.97 307.91,-219.97"/>
<polygon fill="black" stroke="black" points="304.41,-219.97 307.91,-229.97 311.41,-219.97 304.41,-219.97"/>
</g>
<!-- UserService  -->
<g id="node16" class="node">
<title>UserService </title>
<polygon fill="#fb8072" stroke="black" points="1801.9,-190 1714.1,-190 1714.1,-154 1801.9,-154 1801.9,-190"/>
<text text-anchor="middle" x="1758" y="-167.8" font-family="Times,serif" font-size="14.00">UserService </text>
</g>
<!-- UserModule&#45;&gt;UserService  -->
<g id="edge17" class="edge">
<title>UserModule&#45;&gt;UserService </title>
<path fill="none" stroke="black" stroke-dasharray="5,2" d="M1264.04,-98C1391.47,-98 1758,-98 1758,-98 1758,-98 1758,-143.71 1758,-143.71"/>
<polygon fill="black" stroke="black" points="1754.5,-143.71 1758,-153.71 1761.5,-143.71 1754.5,-143.71"/>
</g>
<!-- AppService -->
<g id="node7" class="node">
<title>AppService</title>
<ellipse fill="#fdb462" stroke="black" cx="299" cy="-172" rx="56.74" ry="18"/>
<text text-anchor="middle" x="299" y="-167.8" font-family="Times,serif" font-size="14.00">AppService</text>
</g>
<!-- AppService&#45;&gt;AppModule -->
<g id="edge6" class="edge">
<title>AppService&#45;&gt;AppModule</title>
<path fill="none" stroke="black" d="M266.09,-186.65C266.09,-186.65 266.09,-219.9 266.09,-219.9"/>
<polygon fill="black" stroke="black" points="262.59,-219.9 266.09,-229.9 269.59,-219.9 262.59,-219.9"/>
</g>
<!-- AuthService -->
<g id="node9" class="node">
<title>AuthService</title>
<ellipse fill="#fdb462" stroke="black" cx="83" cy="-104" rx="59.11" ry="18"/>
<text text-anchor="middle" x="83" y="-99.8" font-family="Times,serif" font-size="14.00">AuthService</text>
</g>
<!-- AuthService&#45;&gt;AuthModule -->
<g id="edge8" class="edge">
<title>AuthService&#45;&gt;AuthModule</title>
<path fill="none" stroke="black" d="M90,-122.22C90,-122.22 90,-143.73 90,-143.73"/>
<polygon fill="black" stroke="black" points="86.5,-143.73 90,-153.73 93.5,-143.73 86.5,-143.73"/>
</g>
<!-- MetaOptionsService -->
<g id="node11" class="node">
<title>MetaOptionsService</title>
<ellipse fill="#fdb462" stroke="black" cx="642" cy="-248" rx="90.33" ry="18"/>
<text text-anchor="middle" x="642" y="-243.8" font-family="Times,serif" font-size="14.00">MetaOptionsService</text>
</g>
<!-- MetaOptionsService&#45;&gt;MetaOptionsModule -->
<g id="edge10" class="edge">
<title>MetaOptionsService&#45;&gt;MetaOptionsModule</title>
<path fill="none" stroke="black" d="M563.45,-239C517.37,-239 468.11,-239 468.11,-239 468.11,-239 468.11,-200.31 468.11,-200.31"/>
<polygon fill="black" stroke="black" points="471.61,-200.31 468.11,-190.31 464.61,-200.31 471.61,-200.31"/>
</g>
<!-- PostsService -->
<g id="node13" class="node">
<title>PostsService</title>
<ellipse fill="#fdb462" stroke="black" cx="990" cy="-104" rx="60.27" ry="18"/>
<text text-anchor="middle" x="990" y="-99.8" font-family="Times,serif" font-size="14.00">PostsService</text>
</g>
<!-- PostsService&#45;&gt;PostsModule -->
<g id="edge14" class="edge">
<title>PostsService&#45;&gt;PostsModule</title>
<path fill="none" stroke="black" d="M1029.41,-117.76C1029.41,-117.76 1029.41,-143.87 1029.41,-143.87"/>
<polygon fill="black" stroke="black" points="1025.91,-143.87 1029.41,-153.87 1032.91,-143.87 1025.91,-143.87"/>
</g>
<!-- TagsService -->
<g id="node15" class="node">
<title>TagsService</title>
<ellipse fill="#fdb462" stroke="black" cx="1475" cy="-172" rx="58.53" ry="18"/>
<text text-anchor="middle" x="1475" y="-167.8" font-family="Times,serif" font-size="14.00">TagsService</text>
</g>
<!-- TagsService&#45;&gt;TagsModule -->
<g id="edge16" class="edge">
<title>TagsService&#45;&gt;TagsModule</title>
<path fill="none" stroke="black" d="M1475,-153.81C1475,-145.72 1475,-138 1475,-138 1475,-138 1129.45,-138 1129.45,-138 1129.45,-138 1129.45,-132.19 1129.45,-132.19"/>
<polygon fill="black" stroke="black" points="1132.95,-132.19 1129.45,-122.19 1125.95,-132.19 1132.95,-132.19"/>
</g>
<!-- UserService -->
<g id="node17" class="node">
<title>UserService</title>
<ellipse fill="#fdb462" stroke="black" cx="1632" cy="-172" rx="58.44" ry="18"/>
<text text-anchor="middle" x="1632" y="-167.8" font-family="Times,serif" font-size="14.00">UserService</text>
</g>
<!-- UserService&#45;&gt;UserModule -->
<g id="edge18" class="edge">
<title>UserService&#45;&gt;UserModule</title>
<path fill="none" stroke="black" d="M1632,-153.73C1632,-135.44 1632,-110 1632,-110 1632,-110 1274.21,-110 1274.21,-110"/>
<polygon fill="black" stroke="black" points="1274.21,-106.5 1264.21,-110 1274.21,-113.5 1274.21,-106.5"/>
</g>
</g>
</svg>
